<?xml version="1.0" encoding="UTF-8"?>
<svg version="1.1" xmlns="http://www.w3.org/2000/svg" width="512" height="512">
<path d="M0 0 C1.00473323 -0.00445784 2.00946645 -0.00891569 3.04464614 -0.01350862 C4.71270456 -0.01323207 4.71270456 -0.01323207 6.41446114 -0.01294994 C7.5894108 -0.01662663 8.76436047 -0.02030332 9.97491467 -0.02409142 C13.24633306 -0.03322982 16.51772197 -0.03783047 19.78915095 -0.04048073 C23.31343223 -0.04437952 26.83769892 -0.05395805 30.3619709 -0.0626936 C38.87735426 -0.08246867 47.39273883 -0.09252492 55.90813941 -0.10142139 C59.91532481 -0.10580203 63.92250887 -0.11116937 67.92969322 -0.11641026 C81.24509278 -0.13342256 94.56049151 -0.1479181 107.87590027 -0.155159 C111.33236759 -0.15706898 114.7888349 -0.1589893 118.2453022 -0.16094494 C119.53397741 -0.16167055 119.53397741 -0.16167055 120.84868647 -0.16241082 C134.77479612 -0.17071625 148.70082002 -0.1960618 162.62689219 -0.22852562 C176.91485336 -0.26156238 191.20277089 -0.27960463 205.49077046 -0.28280324 C213.51692085 -0.28497134 221.54294613 -0.29376374 229.56905937 -0.31926441 C236.4024798 -0.34092519 243.23574475 -0.34904471 250.06919561 -0.33929763 C253.55733559 -0.33473957 257.04515446 -0.33672568 260.53325081 -0.35605907 C264.31114936 -0.37362059 268.08822378 -0.36674883 271.86612129 -0.35352612 C272.9736988 -0.36449536 274.0812763 -0.37546461 275.22241676 -0.38676625 C276.23236548 -0.37818536 277.2423142 -0.36960447 278.28286743 -0.36076355 C279.15514005 -0.36174036 280.02741266 -0.36271717 280.92611778 -0.36372358 C284.24277267 0.34170135 285.33264405 1.3497579 287.26727486 4.13422108 C287.6592511 6.96521029 287.80500033 9.40656823 287.77063942 12.236516 C287.77645318 13.06385935 287.78226695 13.8912027 287.78825688 14.74361706 C287.80293149 17.53426623 287.78893707 20.3240461 287.77520943 23.11468983 C287.77981539 25.12819845 287.78616625 27.14170372 287.7941184 29.15520191 C287.81087662 34.70250095 287.80253589 40.24952611 287.79017353 45.79682636 C287.78115187 51.7737311 287.7950784 57.75058755 287.80609322 63.7274828 C287.82288303 74.76422176 287.8213842 85.80088504 287.81044734 96.83762455 C287.80039387 107.03269087 287.79775422 117.22772504 287.80253792 127.4227953 C287.80284346 128.09847707 287.803149 128.77415884 287.8034638 129.47031581 C287.80470911 132.2129759 287.8059827 134.95563596 287.80730285 137.69829601 C287.81954495 163.43818133 287.80843537 189.17801076 287.78691527 214.91788745 C287.76793216 237.79732027 287.76963064 260.67666404 287.78875923 283.55609608 C287.8101675 309.2482334 287.81867682 334.94032132 287.80631018 360.63246632 C287.80502726 363.37019315 287.80377591 366.10792 287.80253792 368.84564686 C287.80222161 369.5197686 287.8019053 370.19389034 287.8015794 370.88844001 C287.79702527 381.07829072 287.8023585 391.26810577 287.81245613 401.45795155 C287.82387767 413.04170791 287.82068083 424.62537951 287.79933316 436.20912647 C287.78879414 442.12348879 287.78474939 448.03767001 287.79792976 453.95203114 C287.8098005 459.36037745 287.80337927 464.76837387 287.78201956 470.17668819 C287.77753085 472.13893822 287.77987017 474.10121748 287.78952271 476.06344891 C287.80159402 478.72003504 287.78930686 481.37540479 287.77063942 484.03192616 C287.78468642 485.18882985 287.78468642 485.18882985 287.79901719 486.36910534 C287.75277838 489.63577337 287.46943155 491.80615395 285.742208 494.60915422 C282.27357731 496.74654274 279.11724774 496.68557364 275.16497993 496.63758564 C274.33763659 496.6433994 273.51029324 496.64921317 272.65787888 496.6552031 C269.8672297 496.66987772 267.07744983 496.65588329 264.28680611 496.64215565 C262.27329748 496.64676161 260.25979221 496.65311247 258.24629402 496.66106462 C252.69899499 496.67782284 247.15196983 496.66948211 241.60466957 496.65711975 C235.62776484 496.64809809 229.65090839 496.66202462 223.67401314 496.67303944 C212.63727417 496.68982925 201.60061089 496.68833042 190.56387138 496.67739356 C180.36880506 496.66734009 170.1737709 496.66470044 159.97870064 496.66948414 C159.30301887 496.66978968 158.6273371 496.67009522 157.93118012 496.67041002 C155.18852004 496.67165533 152.44585997 496.67292892 149.70319992 496.67424907 C123.96331461 496.68649117 98.22348518 496.67538159 72.48360848 496.65386149 C49.60417567 496.63487838 26.7248319 496.63657686 3.84539986 496.65570545 C-21.84673746 496.67711372 -47.53882538 496.68562304 -73.23097038 496.6732564 C-75.96869722 496.67197348 -78.70642407 496.67072213 -81.44415092 496.66948414 C-82.11827267 496.66916783 -82.79239441 496.66885152 -83.48694408 496.66852563 C-93.67679479 496.66397149 -103.86660984 496.66930472 -114.05645561 496.67940235 C-125.64021198 496.69082389 -137.22388357 496.68762705 -148.80763054 496.66627938 C-154.72199285 496.65574036 -160.63617408 496.65169561 -166.5505352 496.66487598 C-171.95888152 496.67674672 -177.36687794 496.67032549 -182.77519226 496.64896578 C-184.73744229 496.64447707 -186.69972155 496.64681639 -188.66195297 496.65646893 C-191.31853911 496.66854024 -193.97390885 496.65625308 -196.63043022 496.63758564 C-197.78733392 496.65163264 -197.78733392 496.65163264 -198.96760941 496.66596341 C-202.29379869 496.6188821 -204.39810507 496.35308489 -207.20765829 494.51545 C-209.2297795 491.35812382 -209.23404184 489.27468679 -209.23608971 485.53119373 C-209.24190347 484.86593426 -209.24771723 484.20067478 -209.25370717 483.51525593 C-209.26835814 481.27590029 -209.25439944 479.03763205 -209.24065971 476.79828358 C-209.24526665 475.18075466 -209.25161817 473.56322993 -209.25956869 471.945714 C-209.27631379 467.49294356 -209.26799226 463.0405147 -209.25562382 458.58774281 C-209.24659676 453.78875853 -209.26053137 448.98983418 -209.2715435 444.1908617 C-209.28935843 434.78655835 -209.28547552 425.38238248 -209.27389294 415.97807407 C-209.26487057 408.33707855 -209.26362943 400.69611883 -209.2679882 393.05511951 C-209.26860114 391.96887476 -209.26921407 390.88263 -209.26984558 389.76346874 C-209.27112444 387.55699379 -209.27242129 385.35051885 -209.27373594 383.14404392 C-209.28515045 362.43909093 -209.27201438 341.7342087 -209.25053447 321.02926731 C-209.23266271 303.25171645 -209.23576658 285.47427005 -209.25420952 267.69672108 C-209.27560085 247.06740059 -209.28405173 226.43814217 -209.27176046 205.80881214 C-209.27048623 203.61031565 -209.26922874 201.41181915 -209.2679882 199.21332264 C-209.2673711 198.13153421 -209.266754 197.04974579 -209.2661182 195.9351759 C-209.26266008 188.30066282 -209.26850357 180.66618901 -209.27790642 173.03168201 C-209.2891085 163.73160968 -209.28612414 154.43167244 -209.26478344 145.13161564 C-209.25424886 140.38379192 -209.25019205 135.63619368 -209.26338005 130.88837147 C-209.27526012 126.54583763 -209.26881436 122.20373924 -209.24746984 117.86124516 C-209.24298508 116.28661119 -209.24531183 114.71194077 -209.25497299 113.13733006 C-209.26706586 111.00343999 -209.25473727 108.87105853 -209.23608971 106.73724842 C-209.2354403 105.55013264 -209.23479089 104.36301685 -209.2341218 103.13992786 C-208.62971185 99.51669053 -207.61890652 98.33672615 -204.73272514 96.13422108 C-202.30397987 95.64202976 -202.30397987 95.64202976 -199.54418755 95.65320301 C-197.97090691 95.64495502 -197.97090691 95.64495502 -196.36584282 95.63654041 C-195.22073235 95.65092152 -194.07562187 95.66530262 -192.89581108 95.68011951 C-191.68578423 95.67953541 -190.47575737 95.6789513 -189.22906303 95.67834949 C-185.91496448 95.68065806 -182.60186385 95.7007103 -179.28794193 95.72864532 C-175.82329756 95.75365884 -172.35863973 95.75600092 -168.89391899 95.76074696 C-162.33488695 95.77317695 -155.77612176 95.80599862 -149.21720719 95.84614491 C-141.74933778 95.89086209 -134.2814556 95.91284948 -126.81348562 95.93292665 C-111.45307762 95.97473145 -96.0929358 96.04508367 -80.73272514 96.13422108 C-80.76938286 95.57025623 -80.80604057 95.00629139 -80.84380913 94.4252367 C-80.99080206 91.82880453 -81.08079235 89.23324763 -81.17022514 86.63422108 C-81.25820366 85.30390858 -81.25820366 85.30390858 -81.34795952 83.94672108 C-81.47900467 78.85468084 -81.02402502 75.83393636 -77.63746452 71.91814137 C-76.35642758 70.63597559 -75.05478674 69.37404278 -73.73272514 68.13422108 C-72.60594139 66.97064634 -71.48190485 65.80440407 -70.36082268 64.63533497 C-69.18285978 63.45154953 -68.00227251 62.27037114 -66.81939507 61.09149647 C-65.84244682 60.11191975 -65.84244682 60.11191975 -64.84576225 59.1125536 C-62.72072513 56.98316179 -60.59210723 54.85739324 -58.46319389 52.73187733 C-56.97568721 51.24369626 -55.48832894 49.75536684 -54.00111198 48.26689625 C-50.89870399 45.16302037 -47.79451031 42.06094465 -44.68902397 38.96014881 C-40.70303424 34.97988578 -36.72159093 30.99510981 -32.7414484 27.00900078 C-29.67815613 23.94210374 -26.61249707 20.87758151 -23.54610443 17.8137846 C-22.07610745 16.34445558 -20.60685536 14.87438093 -19.13835526 13.40355587 C-17.0943354 11.3570077 -15.04715724 9.31367316 -12.99908257 7.27118397 C-12.39077095 6.66084812 -11.78245934 6.05051228 -11.15571404 5.4216814 C-7.21735597 1.50328353 -5.50687967 0.01129591 0 0 Z M7.26727486 16.13422108 C6.93727486 38.57422108 6.60727486 61.01422108 6.26727486 84.13422108 C2.6209204 87.78057554 1.68156782 87.52041061 -3.31548882 87.56659412 C-3.97916969 87.57678577 -4.64285057 87.58697742 -5.32664299 87.59747791 C-7.51807872 87.62764733 -9.70907764 87.63687936 -11.90069389 87.64593983 C-13.42099782 87.66278369 -14.94128779 87.68093353 -16.4615612 87.70033741 C-20.46130832 87.74787582 -24.46099888 87.77766008 -28.46093559 87.80377674 C-32.54318221 87.83356307 -36.62523387 87.88009995 -40.70733452 87.9252367 C-48.71570236 88.01131341 -56.72408788 88.078639 -64.73272514 88.13422108 C-64.73272514 90.77422108 -64.73272514 93.41422108 -64.73272514 96.13422108 C-64.013968 96.13660943 -63.29521086 96.13899778 -62.55467319 96.14145851 C-45.07866912 96.20055321 -27.60281366 96.27606757 -10.12696171 96.36993599 C-1.67581935 96.41493238 6.77528051 96.45433809 15.22650337 96.48065662 C22.59121425 96.50360568 29.95579105 96.53696882 37.32039565 96.58292264 C41.22116929 96.60689682 45.1218098 96.62559799 49.02265549 96.63183498 C52.69250916 96.63786702 56.36202202 96.65779788 60.03174973 96.68849659 C62.02427016 96.70151567 64.01687009 96.69970174 66.00943184 96.69749928 C67.78259018 96.7163065 67.78259018 96.7163065 69.5915699 96.73549366 C70.62121266 96.74010262 71.65085543 96.74471159 72.71169949 96.74946022 C75.72313977 97.20285493 76.40439107 97.7942046 78.26727486 100.13422108 C78.56790259 103.1071794 78.68302258 105.8721887 78.66600227 108.84703541 C78.6726491 109.7479802 78.67929593 110.648925 78.68614417 111.57717115 C78.7048566 114.6082642 78.70216334 117.63896537 78.6996479 120.67010975 C78.70866003 122.83801809 78.71898588 125.00592131 78.73053169 127.17381763 C78.75819233 133.07015948 78.76739851 138.96640488 78.77338576 144.86280322 C78.78274588 151.02080461 78.80894729 157.17873329 78.83339119 163.33668995 C78.87712502 175.00259531 78.90562968 186.66848661 78.92871457 198.33444911 C78.96077778 214.09517304 79.01626121 229.85580901 79.07046032 245.61647034 C79.15525981 270.45569575 79.20867723 295.29488805 79.26727486 320.13422108 C142.62727486 320.13422108 205.98727486 320.13422108 271.26727486 320.13422108 C271.26727486 219.81422108 271.26727486 119.49422108 271.26727486 16.13422108 C184.14727486 16.13422108 97.02727486 16.13422108 7.26727486 16.13422108 Z M-13.70171928 32.97382069 C-14.54251534 33.81146458 -15.38331139 34.64910847 -16.24958611 35.51213551 C-17.16312355 36.42769718 -18.076661 37.34325886 -19.01788139 38.28656483 C-19.94870033 39.21642704 -20.87951927 40.14628925 -21.83854485 41.10432911 C-23.81149624 43.07580344 -25.78262033 45.04908248 -27.75250053 47.02362537 C-30.28362456 49.56044669 -32.81921023 52.09275341 -35.35617733 54.62372971 C-37.7666723 57.0297521 -40.17336024 59.43956711 -42.58038139 61.84906483 C-43.49594307 62.76260227 -44.41150475 63.67613972 -45.35481071 64.61736012 C-46.19245461 65.45815617 -47.0300985 66.29895222 -47.89312553 67.16522694 C-48.63623482 67.90913181 -49.3793441 68.65303669 -50.14497185 69.41948414 C-51.84596112 70.8670235 -51.84596112 70.8670235 -51.73272514 72.13422108 C-37.54272514 72.13422108 -23.35272514 72.13422108 -8.73272514 72.13422108 C-8.73272514 57.94422108 -8.73272514 43.75422108 -8.73272514 29.13422108 C-10.74131101 29.13422108 -12.3972971 31.67079356 -13.70171928 32.97382069 Z M-192.73272514 112.13422108 C-192.73272514 233.57422108 -192.73272514 355.01422108 -192.73272514 480.13422108 C-145.21272514 480.13422108 -97.69272514 480.13422108 -48.73272514 480.13422108 C-48.73272514 474.85422108 -48.73272514 469.57422108 -48.73272514 464.13422108 C-50.04990532 464.11963856 -51.36708549 464.10505604 -52.72418022 464.09003162 C-57.60531752 464.03211394 -62.48599032 463.95488072 -67.36675835 463.87176991 C-69.4802885 463.8384898 -71.5939082 463.81046755 -73.70757866 463.78778553 C-76.7436932 463.75429635 -79.77898489 463.70198344 -82.81475639 463.64593983 C-83.76171883 463.6395499 -84.70868126 463.63315998 -85.68433952 463.62657642 C-87.00536926 463.59688519 -87.00536926 463.59688519 -88.35308647 463.56659412 C-89.12807991 463.55549107 -89.90307335 463.54438801 -90.70155144 463.53294849 C-93.34417354 463.01419134 -94.20503337 462.34852133 -95.73272514 460.13422108 C-96.11367607 457.66766834 -96.11367607 457.66766834 -96.12090874 454.70062733 C-96.13036522 453.58937489 -96.1398217 452.47812244 -96.14956474 451.33319569 C-96.14349205 450.13315907 -96.13741936 448.93312244 -96.13116264 447.69672108 C-96.13403282 446.46510242 -96.136903 445.23348377 -96.13986015 443.96454334 C-96.14242672 440.6907415 -96.13034124 437.41736571 -96.11358452 434.14362049 C-96.10773067 432.13611723 -96.11356309 430.12900738 -96.12383842 428.12152576 C-96.14233494 424.27140412 -96.14013507 420.42186674 -96.13116264 416.57172108 C-96.13723534 415.37168446 -96.14330803 414.17164783 -96.14956474 412.93524647 C-96.13538002 411.26836781 -96.13538002 411.26836781 -96.12090874 409.56781483 C-96.11852196 408.58869129 -96.11613518 407.60956776 -96.11367607 406.60077381 C-95.73272514 404.13422108 -95.73272514 404.13422108 -94.48219109 402.32164478 C-92.29439095 400.83670833 -90.98754724 400.73959102 -88.35308647 400.70184803 C-87.47239998 400.68205387 -86.59171349 400.66225971 -85.68433952 400.64186573 C-84.26389587 400.63228085 -84.26389587 400.63228085 -82.81475639 400.62250233 C-81.35618469 400.59557552 -81.35618469 400.59557552 -79.8681469 400.56810474 C-76.76055051 400.5138964 -73.65310862 400.4800721 -70.54522514 400.44672108 C-68.4390838 400.41355732 -66.33296288 400.37906855 -64.22686577 400.34320545 C-59.06226353 400.25816376 -53.89770796 400.19140267 -48.73272514 400.13422108 C-48.73272514 394.85422108 -48.73272514 389.57422108 -48.73272514 384.13422108 C-50.04990532 384.11963856 -51.36708549 384.10505604 -52.72418022 384.09003162 C-57.60531752 384.03211394 -62.48599032 383.95488072 -67.36675835 383.87176991 C-69.4802885 383.8384898 -71.5939082 383.81046755 -73.70757866 383.78778553 C-76.7436932 383.75429635 -79.77898489 383.70198344 -82.81475639 383.64593983 C-83.76171883 383.6395499 -84.70868126 383.63315998 -85.68433952 383.62657642 C-87.00536926 383.59688519 -87.00536926 383.59688519 -88.35308647 383.56659412 C-89.12807991 383.55549107 -89.90307335 383.54438801 -90.70155144 383.53294849 C-93.34417354 383.01419134 -94.20503337 382.34852133 -95.73272514 380.13422108 C-96.11367607 377.66766834 -96.11367607 377.66766834 -96.12090874 374.70062733 C-96.13036522 373.58937489 -96.1398217 372.47812244 -96.14956474 371.33319569 C-96.14349205 370.13315907 -96.13741936 368.93312244 -96.13116264 367.69672108 C-96.13403282 366.46510242 -96.136903 365.23348377 -96.13986015 363.96454334 C-96.14242672 360.6907415 -96.13034124 357.41736571 -96.11358452 354.14362049 C-96.10773067 352.13611723 -96.11356309 350.12900738 -96.12383842 348.12152576 C-96.14233494 344.27140412 -96.14013507 340.42186674 -96.13116264 336.57172108 C-96.13723534 335.37168446 -96.14330803 334.17164783 -96.14956474 332.93524647 C-96.13538002 331.26836781 -96.13538002 331.26836781 -96.12090874 329.56781483 C-96.11852196 328.58869129 -96.11613518 327.60956776 -96.11367607 326.60077381 C-95.73272514 324.13422108 -95.73272514 324.13422108 -94.66578484 322.32164478 C-91.72170527 320.51318026 -88.76946458 320.69497088 -85.41558647 320.70184803 C-84.67387703 320.69165638 -83.93216759 320.68146473 -83.1679821 320.67096424 C-80.71683063 320.64077445 -78.26606955 320.63155944 -75.81475639 320.62250233 C-74.11509204 320.60566003 -72.41544017 320.58751039 -70.71580315 320.56810474 C-66.24258133 320.52054966 -61.76941014 320.49077606 -57.2960186 320.46466541 C-52.73119925 320.43488759 -48.16655446 320.38834777 -43.60186577 320.34320545 C-34.64557677 320.25710975 -25.6892519 320.18979242 -16.73272514 320.13422108 C-16.7268589 319.18874912 -16.72099266 318.24327717 -16.71494865 317.26915455 C-16.65777955 308.36665411 -16.5850487 299.46439932 -16.49701023 290.56214905 C-16.45224875 285.98519806 -16.41300555 281.40833728 -16.3862896 276.83124256 C-16.36031401 272.41553688 -16.31995287 268.00017727 -16.26953888 263.58468533 C-16.25283115 261.89860107 -16.24134125 260.21245691 -16.23511124 258.52630138 C-16.22551229 256.1676169 -16.1975053 253.80982558 -16.16509819 251.45135975 C-16.16653328 250.75148945 -16.16796837 250.05161915 -16.16944695 249.33054066 C-16.11593133 246.58351298 -16.00092598 244.57083711 -14.54530144 242.20116138 C-12.0417253 240.7274765 -10.1999939 240.75310883 -7.29913139 240.74603748 C-6.18787895 240.736581 -5.07662651 240.72712452 -3.93169975 240.71738148 C-2.13164482 240.72649052 -2.13164482 240.72649052 -0.29522514 240.73578358 C0.93639351 240.7329134 2.16801216 240.73004322 3.43695259 240.72708607 C6.71075443 240.7245195 9.98413022 240.73660498 13.25787544 240.7533617 C15.2653787 240.75921555 17.27248855 240.75338313 19.27997017 240.7431078 C23.13009181 240.72461128 26.97962919 240.72681115 30.82977486 240.73578358 C32.02981148 240.72971088 33.2298481 240.72363819 34.46624947 240.71738148 C36.13312813 240.7315662 36.13312813 240.7315662 37.83368111 240.74603748 C39.30236641 240.74961765 39.30236641 240.74961765 40.80072212 240.75327015 C43.26727486 241.13422108 43.26727486 241.13422108 45.07985115 242.20116138 C46.88831567 245.14524095 46.70652505 248.09748164 46.6996479 251.45135975 C46.71493538 252.56392391 46.71493538 252.56392391 46.73053169 253.69896412 C46.76072148 256.15011559 46.76993649 258.60087667 46.77899361 261.05218983 C46.79583591 262.75185418 46.81398554 264.45150605 46.83339119 266.15114307 C46.88094628 270.62436489 46.91071987 275.09753608 46.93683052 279.57092762 C46.96660835 284.13574697 47.01314817 288.70039176 47.05829048 293.26508045 C47.14438638 302.22138957 47.21015446 311.17768024 47.26727486 320.13422108 C52.54727486 320.13422108 57.82727486 320.13422108 63.26727486 320.13422108 C63.26727486 251.49422108 63.26727486 182.85422108 63.26727486 112.13422108 C-21.21272514 112.13422108 -105.69272514 112.13422108 -192.73272514 112.13422108 Z M-0.73272514 256.13422108 C-0.73272514 277.25422108 -0.73272514 298.37422108 -0.73272514 320.13422108 C9.82727486 320.13422108 20.38727486 320.13422108 31.26727486 320.13422108 C31.26727486 299.01422108 31.26727486 277.89422108 31.26727486 256.13422108 C20.70727486 256.13422108 10.14727486 256.13422108 -0.73272514 256.13422108 Z M-80.73272514 336.13422108 C-80.73272514 346.69422108 -80.73272514 357.25422108 -80.73272514 368.13422108 C-70.17272514 368.13422108 -59.61272514 368.13422108 -48.73272514 368.13422108 C-48.73272514 357.57422108 -48.73272514 347.01422108 -48.73272514 336.13422108 C-59.29272514 336.13422108 -69.85272514 336.13422108 -80.73272514 336.13422108 Z M-32.73272514 336.13422108 C-32.73272514 346.03422108 -32.73272514 355.93422108 -32.73272514 366.13422108 C-22.91588043 364.73181469 -14.78816673 360.16394289 -8.73272514 352.13422108 C-4.18338053 344.60085743 -4.18338053 344.60085743 -2.73272514 336.13422108 C-12.63272514 336.13422108 -22.53272514 336.13422108 -32.73272514 336.13422108 Z M15.26727486 336.13422108 C13.61727486 341.08422108 11.96727486 346.03422108 10.26727486 351.13422108 C3.24475559 366.51688232 -7.43635087 374.93970084 -22.73272514 381.13422108 C-26.03272514 382.12422108 -29.33272514 383.11422108 -32.73272514 384.13422108 C-32.73272514 399.97422108 -32.73272514 415.81422108 -32.73272514 432.13422108 C-27.78272514 433.78422108 -22.83272514 435.43422108 -17.73272514 437.13422108 C-2.3500639 444.15674034 6.07275462 454.8378468 12.26727486 470.13422108 C13.75227486 475.08422108 13.75227486 475.08422108 15.26727486 480.13422108 C83.90727486 480.13422108 152.54727486 480.13422108 223.26727486 480.13422108 C224.91727486 475.18422108 226.56727486 470.23422108 228.26727486 465.13422108 C235.28979412 449.75155983 245.97090058 441.32874132 261.26727486 435.13422108 C264.56727486 434.14422108 267.86727486 433.15422108 271.26727486 432.13422108 C271.26727486 416.29422108 271.26727486 400.45422108 271.26727486 384.13422108 C263.84227486 381.65922108 263.84227486 381.65922108 256.26727486 379.13422108 C240.88461361 372.11170181 232.4617951 361.43059535 226.26727486 346.13422108 C225.27727486 342.83422108 224.28727486 339.53422108 223.26727486 336.13422108 C154.62727486 336.13422108 85.98727486 336.13422108 15.26727486 336.13422108 Z M241.26727486 336.13422108 C242.66968124 345.95106579 247.23755305 354.07877949 255.26727486 360.13422108 C262.8006385 364.68356569 262.8006385 364.68356569 271.26727486 366.13422108 C271.26727486 356.23422108 271.26727486 346.33422108 271.26727486 336.13422108 C261.36727486 336.13422108 251.46727486 336.13422108 241.26727486 336.13422108 Z M-80.73272514 416.13422108 C-80.73272514 426.69422108 -80.73272514 437.25422108 -80.73272514 448.13422108 C-70.17272514 448.13422108 -59.61272514 448.13422108 -48.73272514 448.13422108 C-48.73272514 437.57422108 -48.73272514 427.01422108 -48.73272514 416.13422108 C-59.29272514 416.13422108 -69.85272514 416.13422108 -80.73272514 416.13422108 Z M-32.73272514 450.13422108 C-32.73272514 460.03422108 -32.73272514 469.93422108 -32.73272514 480.13422108 C-22.83272514 480.13422108 -12.93272514 480.13422108 -2.73272514 480.13422108 C-4.13513153 470.31737636 -8.70300334 462.18966266 -16.73272514 456.13422108 C-24.26608879 451.58487647 -24.26608879 451.58487647 -32.73272514 450.13422108 Z M250.89227486 459.75922108 C245.79215366 465.28613066 241.26727486 472.50980919 241.26727486 480.13422108 C251.16727486 480.13422108 261.06727486 480.13422108 271.26727486 480.13422108 C271.26727486 470.23422108 271.26727486 460.33422108 271.26727486 450.13422108 C263.64286297 450.13422108 256.41918444 454.65909988 250.89227486 459.75922108 Z " fill="#703EFF" transform="translate(216.73272514343262,7.865778923034668)"/>
<path d="M0 0 C1.32396412 -0.00935994 1.32396412 -0.00935994 2.67467499 -0.01890898 C5.63820449 -0.03488939 8.60091723 -0.02221496 11.56445312 -0.00964355 C13.68660971 -0.01506242 15.80876253 -0.02218375 17.9309082 -0.03088379 C23.69944448 -0.04914793 29.46769519 -0.04203675 35.23623657 -0.02936745 C41.26687401 -0.01925584 47.29748663 -0.02862801 53.328125 -0.03491211 C63.45642497 -0.04219387 73.58460835 -0.03258689 83.71289062 -0.0135498 C95.43046156 0.00821986 107.14775411 0.00116887 118.8653183 -0.02085543 C128.9172072 -0.03899431 138.96901219 -0.04157513 149.02091217 -0.03110075 C155.02822942 -0.02485753 161.03541572 -0.024053 167.04272461 -0.0372467 C172.68986066 -0.04878253 178.33663703 -0.04082075 183.98373413 -0.01766968 C186.05902509 -0.01237048 188.1343462 -0.01391694 190.20962524 -0.02272034 C193.03729732 -0.0336115 195.86380863 -0.01999008 198.69140625 0 C199.51747124 -0.00892289 200.34353622 -0.01784577 201.19463348 -0.02703905 C204.75610962 0.0219769 206.91953574 0.20313611 209.85485077 2.30249786 C212.13180097 5.67081904 211.90290141 9.0513323 211.86328125 12.97668457 C211.87029053 13.82915771 211.8772998 14.68163086 211.88452148 15.55993652 C211.90211881 18.37626777 211.89047272 21.19159321 211.87695312 24.00793457 C211.87964754 25.96561882 211.88352954 27.92330177 211.8885498 29.88098145 C211.8944472 33.98332464 211.88587406 38.08531939 211.8671875 42.18762207 C211.84439788 47.44714085 211.85751966 52.70584321 211.88147736 57.96533203 C211.89592876 62.00767167 211.89133235 66.04981762 211.88096619 70.09216309 C211.87829708 72.03145443 211.8815751 73.97076334 211.8908844 75.91003418 C211.90103914 78.62022507 211.8855644 81.32909232 211.86328125 84.03918457 C211.87137817 84.84138428 211.8794751 85.64358398 211.88781738 86.47009277 C211.8383988 89.71301107 211.69523591 91.99086632 209.85485077 94.71337128 C206.27549522 97.27335618 202.93052915 97.06165878 198.69140625 97.01586914 C197.8087635 97.0221091 196.92612076 97.02834907 196.01673126 97.03477812 C193.05320176 97.05075853 190.09048902 97.0380841 187.12695312 97.0255127 C185.00479654 97.03093156 182.88264372 97.03805289 180.76049805 97.04675293 C174.99196177 97.06501707 169.22371106 97.05790589 163.45516968 97.04523659 C157.42453224 97.03512498 151.39391962 97.04449715 145.36328125 97.05078125 C135.23498128 97.05806301 125.1067979 97.04845603 114.97851562 97.02941895 C103.26094469 97.00764928 91.54365214 97.01470027 79.82608795 97.03672457 C69.77419905 97.05486346 59.72239406 97.05744427 49.67049408 97.04696989 C43.66317683 97.04072667 37.65599053 97.03992214 31.64868164 97.05311584 C26.00154559 97.06465167 20.35476922 97.05668989 14.70767212 97.03353882 C12.63238116 97.02823962 10.55706005 97.02978609 8.48178101 97.03858948 C5.65410893 97.04948065 2.82759762 97.03585923 0 97.01586914 C-0.82606499 97.02479203 -1.65212997 97.03371491 -2.50322723 97.04290819 C-6.06470337 96.99389224 -8.22812949 96.81273303 -11.16344452 94.71337128 C-13.44039472 91.3450501 -13.21149516 87.96453684 -13.171875 84.03918457 C-13.17888428 83.18671143 -13.18589355 82.33423828 -13.19311523 81.45593262 C-13.21071256 78.63960137 -13.19906647 75.82427593 -13.18554688 73.00793457 C-13.18824129 71.05025032 -13.19212329 69.09256737 -13.19714355 67.1348877 C-13.20304095 63.0325445 -13.19446781 58.93054975 -13.17578125 54.82824707 C-13.15299163 49.56872829 -13.16611341 44.31002593 -13.19007111 39.05053711 C-13.20452251 35.00819747 -13.1999261 30.96605152 -13.18955994 26.92370605 C-13.18689083 24.98441471 -13.19016885 23.0451058 -13.19947815 21.10583496 C-13.20963289 18.39564407 -13.19415815 15.68677682 -13.171875 12.97668457 C-13.17997192 12.17448486 -13.18806885 11.37228516 -13.19641113 10.54577637 C-13.14699255 7.30285807 -13.00382966 5.02500282 -11.16344452 2.30249786 C-7.58408897 -0.25748704 -4.2391229 -0.04578963 0 0 Z M3.34570312 16.50793457 C3.34570312 37.62793457 3.34570312 58.74793457 3.34570312 80.50793457 C66.70570312 80.50793457 130.06570312 80.50793457 195.34570312 80.50793457 C195.34570312 59.38793457 195.34570312 38.26793457 195.34570312 16.50793457 C131.98570312 16.50793457 68.62570313 16.50793457 3.34570312 16.50793457 Z " fill="#713EFF" transform="translate(52.654296875,135.4920654296875)"/>
<path d="M0 0 C0.96526611 0.00757324 1.93053223 0.01514648 2.92504883 0.02294922 C10.2549489 0.19207702 16.47680419 1.20324258 23.125 4.4375 C24.08664062 4.89640625 25.04828125 5.3553125 26.0390625 5.828125 C41.12080197 13.55192689 49.69793942 25.73512124 55.23046875 41.609375 C58.6503251 56.24456811 57.0300658 72.36256997 49.41015625 85.36328125 C47.74615332 87.82105363 45.99152985 90.13153073 44.125 92.4375 C43.361875 93.489375 42.59875 94.54125 41.8125 95.625 C32.61307497 105.25230526 19.25380047 112.15584421 5.86328125 112.90625 C4.05497929 112.9403658 2.24607917 112.95019799 0.4375 112.9375 C-0.51930664 112.93177979 -1.47611328 112.92605957 -2.46191406 112.92016602 C-15.44408962 112.59659215 -25.71427541 108.66193557 -35.875 100.4375 C-36.926875 99.674375 -37.97875 98.91125 -39.0625 98.125 C-48.68980526 88.92557497 -55.59334421 75.56630047 -56.34375 62.17578125 C-56.3778658 60.36747929 -56.38769799 58.55857917 -56.375 56.75 C-56.36927979 55.79319336 -56.36355957 54.83638672 -56.35766602 53.85058594 C-56.03409215 40.86841038 -52.09943557 30.59822459 -43.875 20.4375 C-43.111875 19.385625 -42.34875 18.33375 -41.5625 17.25 C-30.56064695 5.73643286 -15.75635546 -0.17419503 0 0 Z M-28.625 28.5625 C-37.18622351 37.63090499 -39.37101257 48.36251099 -39.15234375 60.31640625 C-38.64432245 71.33869928 -32.97335909 79.67404154 -25.25 87.125 C-15.80103046 94.88347594 -5.69503453 96.6633153 6.16845703 95.67675781 C16.89023668 94.36563427 25.12570904 88.27198227 31.9375 80.1875 C39.12527609 70.22490803 40.68235719 59.43147479 39.125 47.4375 C36.49269169 36.40205362 29.47892363 27.88652016 19.9375 21.9375 C3.3614479 12.8983318 -14.66562982 16.09334581 -28.625 28.5625 Z " fill="#703EFF" transform="translate(335.875,359.5625)"/>
<path d="M0 0 C1.10794922 -0.01260864 2.21589844 -0.02521729 3.35742188 -0.03820801 C4.54916016 -0.03011108 5.74089844 -0.02201416 6.96875 -0.01367188 C8.19658203 -0.01749878 9.42441406 -0.02132568 10.68945312 -0.02526855 C13.28516459 -0.02799029 15.88090336 -0.02061099 18.4765625 -0.00390625 C22.45374599 0.01749738 26.42912282 -0.0037015 30.40625 -0.02929688 C32.92708733 -0.02665365 35.44792353 -0.02152878 37.96875 -0.01367188 C39.16048828 -0.0217688 40.35222656 -0.02986572 41.58007812 -0.03820801 C43.24200195 -0.01929504 43.24200195 -0.01929504 44.9375 0 C45.91138672 0.00318237 46.88527344 0.00636475 47.88867188 0.00964355 C51.27982566 0.67725289 52.44432128 1.74092988 54.46875 4.51757812 C54.97668457 7.09765625 54.97668457 7.09765625 54.98632812 10.04882812 C54.99893677 11.15677734 55.01154541 12.26472656 55.02453613 13.40625 C55.01643921 14.59798828 55.00834229 15.78972656 55 17.01757812 C55.00574036 18.85932617 55.00574036 18.85932617 55.01159668 20.73828125 C55.01431842 23.33399272 55.00693911 25.92973149 54.99023438 28.52539062 C54.96883075 32.50257412 54.99002963 36.47795094 55.015625 40.45507812 C55.01298177 42.97591545 55.00785691 45.49675166 55 48.01757812 C55.00809692 49.20931641 55.01619385 50.40105469 55.02453613 51.62890625 C55.01192749 52.73685547 54.99931885 53.84480469 54.98632812 54.98632812 C54.98314575 55.96021484 54.97996338 56.93410156 54.97668457 57.9375 C54.30907524 61.32865378 53.24539824 62.4931494 50.46875 64.51757812 C47.88867188 65.0255127 47.88867188 65.0255127 44.9375 65.03515625 C43.82955078 65.04776489 42.72160156 65.06037354 41.58007812 65.07336426 C40.38833984 65.06526733 39.19660156 65.05717041 37.96875 65.04882812 C36.12700195 65.05456848 36.12700195 65.05456848 34.24804688 65.0604248 C31.65233541 65.06314654 29.05659664 65.05576724 26.4609375 65.0390625 C22.48375401 65.01765887 18.50837718 65.03885775 14.53125 65.06445312 C12.01041267 65.0618099 9.48957647 65.05668503 6.96875 65.04882812 C5.18114258 65.06097351 5.18114258 65.06097351 3.35742188 65.07336426 C2.24947266 65.06075562 1.14152344 65.04814697 0 65.03515625 C-0.97388672 65.03197388 -1.94777344 65.0287915 -2.95117188 65.0255127 C-6.34232566 64.35790336 -7.50682128 63.29422637 -9.53125 60.51757812 C-10.03918457 57.9375 -10.03918457 57.9375 -10.04882812 54.98632812 C-10.06143677 53.87837891 -10.07404541 52.77042969 -10.08703613 51.62890625 C-10.07893921 50.43716797 -10.07084229 49.24542969 -10.0625 48.01757812 C-10.0663269 46.78974609 -10.07015381 45.56191406 -10.07409668 44.296875 C-10.07681842 41.70116353 -10.06943911 39.10542476 -10.05273438 36.50976562 C-10.03133075 32.53258213 -10.05252963 28.55720531 -10.078125 24.58007812 C-10.07548177 22.0592408 -10.07035691 19.53840459 -10.0625 17.01757812 C-10.07059692 15.82583984 -10.07869385 14.63410156 -10.08703613 13.40625 C-10.07442749 12.29830078 -10.06181885 11.19035156 -10.04882812 10.04882812 C-10.04564575 9.07494141 -10.04246338 8.10105469 -10.03918457 7.09765625 C-8.91711969 1.39807362 -5.396739 0.01763494 0 0 Z M6.46875 16.51757812 C6.46875 27.07757813 6.46875 37.63757813 6.46875 48.51757812 C17.02875 48.51757812 27.58875 48.51757812 38.46875 48.51757812 C38.46875 37.95757812 38.46875 27.39757812 38.46875 16.51757812 C27.90875 16.51757812 17.34875 16.51757812 6.46875 16.51757812 Z " fill="#713EFF" transform="translate(49.53125,407.482421875)"/>
<path d="M0 0 C1.10794922 -0.01260864 2.21589844 -0.02521729 3.35742188 -0.03820801 C4.54916016 -0.03011108 5.74089844 -0.02201416 6.96875 -0.01367188 C8.19658203 -0.01749878 9.42441406 -0.02132568 10.68945312 -0.02526855 C13.28516459 -0.02799029 15.88090336 -0.02061099 18.4765625 -0.00390625 C22.45374599 0.01749738 26.42912282 -0.0037015 30.40625 -0.02929688 C32.92708733 -0.02665365 35.44792353 -0.02152878 37.96875 -0.01367188 C39.16048828 -0.0217688 40.35222656 -0.02986572 41.58007812 -0.03820801 C43.24200195 -0.01929504 43.24200195 -0.01929504 44.9375 0 C45.91138672 0.00318237 46.88527344 0.00636475 47.88867188 0.00964355 C51.27982566 0.67725289 52.44432128 1.74092988 54.46875 4.51757812 C54.97668457 7.09765625 54.97668457 7.09765625 54.98632812 10.04882812 C54.99893677 11.15677734 55.01154541 12.26472656 55.02453613 13.40625 C55.01643921 14.59798828 55.00834229 15.78972656 55 17.01757812 C55.00574036 18.85932617 55.00574036 18.85932617 55.01159668 20.73828125 C55.01431842 23.33399272 55.00693911 25.92973149 54.99023438 28.52539062 C54.96883075 32.50257412 54.99002963 36.47795094 55.015625 40.45507812 C55.01298177 42.97591545 55.00785691 45.49675166 55 48.01757812 C55.00809692 49.20931641 55.01619385 50.40105469 55.02453613 51.62890625 C55.01192749 52.73685547 54.99931885 53.84480469 54.98632812 54.98632812 C54.98314575 55.96021484 54.97996338 56.93410156 54.97668457 57.9375 C54.30907524 61.32865378 53.24539824 62.4931494 50.46875 64.51757812 C47.88867188 65.0255127 47.88867188 65.0255127 44.9375 65.03515625 C43.82955078 65.04776489 42.72160156 65.06037354 41.58007812 65.07336426 C40.38833984 65.06526733 39.19660156 65.05717041 37.96875 65.04882812 C36.12700195 65.05456848 36.12700195 65.05456848 34.24804688 65.0604248 C31.65233541 65.06314654 29.05659664 65.05576724 26.4609375 65.0390625 C22.48375401 65.01765887 18.50837718 65.03885775 14.53125 65.06445312 C12.01041267 65.0618099 9.48957647 65.05668503 6.96875 65.04882812 C5.18114258 65.06097351 5.18114258 65.06097351 3.35742188 65.07336426 C2.24947266 65.06075562 1.14152344 65.04814697 0 65.03515625 C-0.97388672 65.03197388 -1.94777344 65.0287915 -2.95117188 65.0255127 C-6.34232566 64.35790336 -7.50682128 63.29422637 -9.53125 60.51757812 C-10.03918457 57.9375 -10.03918457 57.9375 -10.04882812 54.98632812 C-10.06143677 53.87837891 -10.07404541 52.77042969 -10.08703613 51.62890625 C-10.07893921 50.43716797 -10.07084229 49.24542969 -10.0625 48.01757812 C-10.0663269 46.78974609 -10.07015381 45.56191406 -10.07409668 44.296875 C-10.07681842 41.70116353 -10.06943911 39.10542476 -10.05273438 36.50976562 C-10.03133075 32.53258213 -10.05252963 28.55720531 -10.078125 24.58007812 C-10.07548177 22.0592408 -10.07035691 19.53840459 -10.0625 17.01757812 C-10.07059692 15.82583984 -10.07869385 14.63410156 -10.08703613 13.40625 C-10.07442749 12.29830078 -10.06181885 11.19035156 -10.04882812 10.04882812 C-10.04564575 9.07494141 -10.04246338 8.10105469 -10.03918457 7.09765625 C-8.91711969 1.39807362 -5.396739 0.01763494 0 0 Z M6.46875 16.51757812 C6.46875 27.07757813 6.46875 37.63757813 6.46875 48.51757812 C17.02875 48.51757812 27.58875 48.51757812 38.46875 48.51757812 C38.46875 37.95757812 38.46875 27.39757812 38.46875 16.51757812 C27.90875 16.51757812 17.34875 16.51757812 6.46875 16.51757812 Z " fill="#713EFF" transform="translate(49.53125,327.482421875)"/>
<path d="M0 0 C1.10794922 -0.01260864 2.21589844 -0.02521729 3.35742188 -0.03820801 C4.54916016 -0.03011108 5.74089844 -0.02201416 6.96875 -0.01367188 C8.19658203 -0.01749878 9.42441406 -0.02132568 10.68945312 -0.02526855 C13.28516459 -0.02799029 15.88090336 -0.02061099 18.4765625 -0.00390625 C22.45374599 0.01749738 26.42912282 -0.0037015 30.40625 -0.02929688 C32.92708733 -0.02665365 35.44792353 -0.02152878 37.96875 -0.01367188 C39.16048828 -0.0217688 40.35222656 -0.02986572 41.58007812 -0.03820801 C43.24200195 -0.01929504 43.24200195 -0.01929504 44.9375 0 C45.91138672 0.00318237 46.88527344 0.00636475 47.88867188 0.00964355 C51.27982566 0.67725289 52.44432128 1.74092988 54.46875 4.51757812 C54.97668457 7.09765625 54.97668457 7.09765625 54.98632812 10.04882812 C54.99893677 11.15677734 55.01154541 12.26472656 55.02453613 13.40625 C55.01643921 14.59798828 55.00834229 15.78972656 55 17.01757812 C55.00574036 18.85932617 55.00574036 18.85932617 55.01159668 20.73828125 C55.01431842 23.33399272 55.00693911 25.92973149 54.99023438 28.52539062 C54.96883075 32.50257412 54.99002963 36.47795094 55.015625 40.45507812 C55.01298177 42.97591545 55.00785691 45.49675166 55 48.01757812 C55.00809692 49.20931641 55.01619385 50.40105469 55.02453613 51.62890625 C55.01192749 52.73685547 54.99931885 53.84480469 54.98632812 54.98632812 C54.98314575 55.96021484 54.97996338 56.93410156 54.97668457 57.9375 C54.30907524 61.32865378 53.24539824 62.4931494 50.46875 64.51757812 C47.88867188 65.0255127 47.88867188 65.0255127 44.9375 65.03515625 C43.82955078 65.04776489 42.72160156 65.06037354 41.58007812 65.07336426 C40.38833984 65.06526733 39.19660156 65.05717041 37.96875 65.04882812 C36.12700195 65.05456848 36.12700195 65.05456848 34.24804688 65.0604248 C31.65233541 65.06314654 29.05659664 65.05576724 26.4609375 65.0390625 C22.48375401 65.01765887 18.50837718 65.03885775 14.53125 65.06445312 C12.01041267 65.0618099 9.48957647 65.05668503 6.96875 65.04882812 C5.18114258 65.06097351 5.18114258 65.06097351 3.35742188 65.07336426 C2.24947266 65.06075562 1.14152344 65.04814697 0 65.03515625 C-0.97388672 65.03197388 -1.94777344 65.0287915 -2.95117188 65.0255127 C-6.34232566 64.35790336 -7.50682128 63.29422637 -9.53125 60.51757812 C-10.03918457 57.9375 -10.03918457 57.9375 -10.04882812 54.98632812 C-10.06143677 53.87837891 -10.07404541 52.77042969 -10.08703613 51.62890625 C-10.07893921 50.43716797 -10.07084229 49.24542969 -10.0625 48.01757812 C-10.0663269 46.78974609 -10.07015381 45.56191406 -10.07409668 44.296875 C-10.07681842 41.70116353 -10.06943911 39.10542476 -10.05273438 36.50976562 C-10.03133075 32.53258213 -10.05252963 28.55720531 -10.078125 24.58007812 C-10.07548177 22.0592408 -10.07035691 19.53840459 -10.0625 17.01757812 C-10.07059692 15.82583984 -10.07869385 14.63410156 -10.08703613 13.40625 C-10.07442749 12.29830078 -10.06181885 11.19035156 -10.04882812 10.04882812 C-10.04564575 9.07494141 -10.04246338 8.10105469 -10.03918457 7.09765625 C-8.91711969 1.39807362 -5.396739 0.01763494 0 0 Z M6.46875 16.51757812 C6.46875 27.07757813 6.46875 37.63757813 6.46875 48.51757812 C17.02875 48.51757812 27.58875 48.51757812 38.46875 48.51757812 C38.46875 37.95757812 38.46875 27.39757812 38.46875 16.51757812 C27.90875 16.51757812 17.34875 16.51757812 6.46875 16.51757812 Z " fill="#713EFF" transform="translate(129.53125,247.482421875)"/>
<path d="M0 0 C1.10794922 -0.01260864 2.21589844 -0.02521729 3.35742188 -0.03820801 C4.54916016 -0.03011108 5.74089844 -0.02201416 6.96875 -0.01367188 C8.19658203 -0.01749878 9.42441406 -0.02132568 10.68945312 -0.02526855 C13.28516459 -0.02799029 15.88090336 -0.02061099 18.4765625 -0.00390625 C22.45374599 0.01749738 26.42912282 -0.0037015 30.40625 -0.02929688 C32.92708733 -0.02665365 35.44792353 -0.02152878 37.96875 -0.01367188 C39.16048828 -0.0217688 40.35222656 -0.02986572 41.58007812 -0.03820801 C43.24200195 -0.01929504 43.24200195 -0.01929504 44.9375 0 C45.91138672 0.00318237 46.88527344 0.00636475 47.88867188 0.00964355 C51.27982566 0.67725289 52.44432128 1.74092988 54.46875 4.51757812 C54.97668457 7.09765625 54.97668457 7.09765625 54.98632812 10.04882812 C54.99893677 11.15677734 55.01154541 12.26472656 55.02453613 13.40625 C55.01643921 14.59798828 55.00834229 15.78972656 55 17.01757812 C55.00574036 18.85932617 55.00574036 18.85932617 55.01159668 20.73828125 C55.01431842 23.33399272 55.00693911 25.92973149 54.99023438 28.52539062 C54.96883075 32.50257412 54.99002963 36.47795094 55.015625 40.45507812 C55.01298177 42.97591545 55.00785691 45.49675166 55 48.01757812 C55.00809692 49.20931641 55.01619385 50.40105469 55.02453613 51.62890625 C55.01192749 52.73685547 54.99931885 53.84480469 54.98632812 54.98632812 C54.98314575 55.96021484 54.97996338 56.93410156 54.97668457 57.9375 C54.30907524 61.32865378 53.24539824 62.4931494 50.46875 64.51757812 C47.88867188 65.0255127 47.88867188 65.0255127 44.9375 65.03515625 C43.82955078 65.04776489 42.72160156 65.06037354 41.58007812 65.07336426 C40.38833984 65.06526733 39.19660156 65.05717041 37.96875 65.04882812 C36.12700195 65.05456848 36.12700195 65.05456848 34.24804688 65.0604248 C31.65233541 65.06314654 29.05659664 65.05576724 26.4609375 65.0390625 C22.48375401 65.01765887 18.50837718 65.03885775 14.53125 65.06445312 C12.01041267 65.0618099 9.48957647 65.05668503 6.96875 65.04882812 C5.18114258 65.06097351 5.18114258 65.06097351 3.35742188 65.07336426 C2.24947266 65.06075562 1.14152344 65.04814697 0 65.03515625 C-0.97388672 65.03197388 -1.94777344 65.0287915 -2.95117188 65.0255127 C-6.34232566 64.35790336 -7.50682128 63.29422637 -9.53125 60.51757812 C-10.03918457 57.9375 -10.03918457 57.9375 -10.04882812 54.98632812 C-10.06143677 53.87837891 -10.07404541 52.77042969 -10.08703613 51.62890625 C-10.07893921 50.43716797 -10.07084229 49.24542969 -10.0625 48.01757812 C-10.0663269 46.78974609 -10.07015381 45.56191406 -10.07409668 44.296875 C-10.07681842 41.70116353 -10.06943911 39.10542476 -10.05273438 36.50976562 C-10.03133075 32.53258213 -10.05252963 28.55720531 -10.078125 24.58007812 C-10.07548177 22.0592408 -10.07035691 19.53840459 -10.0625 17.01757812 C-10.07059692 15.82583984 -10.07869385 14.63410156 -10.08703613 13.40625 C-10.07442749 12.29830078 -10.06181885 11.19035156 -10.04882812 10.04882812 C-10.04564575 9.07494141 -10.04246338 8.10105469 -10.03918457 7.09765625 C-8.91711969 1.39807362 -5.396739 0.01763494 0 0 Z M6.46875 16.51757812 C6.46875 27.07757813 6.46875 37.63757813 6.46875 48.51757812 C17.02875 48.51757812 27.58875 48.51757812 38.46875 48.51757812 C38.46875 37.95757812 38.46875 27.39757812 38.46875 16.51757812 C27.90875 16.51757812 17.34875 16.51757812 6.46875 16.51757812 Z " fill="#713EFF" transform="translate(49.53125,247.482421875)"/>
<path d="M0 0 C52.8 0 105.6 0 160 0 C160 5.28 160 10.56 160 16 C107.2 16 54.4 16 0 16 C0 10.72 0 5.44 0 0 Z " fill="#713FFF" transform="translate(312,296)"/>
<path d="M0 0 C52.8 0 105.6 0 160 0 C160 5.28 160 10.56 160 16 C107.2 16 54.4 16 0 16 C0 10.72 0 5.44 0 0 Z " fill="#713FFF" transform="translate(312,264)"/>
<path d="M0 0 C52.8 0 105.6 0 160 0 C160 5.28 160 10.56 160 16 C107.2 16 54.4 16 0 16 C0 10.72 0 5.44 0 0 Z " fill="#713FFF" transform="translate(312,232)"/>
<path d="M0 0 C52.8 0 105.6 0 160 0 C160 5.28 160 10.56 160 16 C107.2 16 54.4 16 0 16 C0 10.72 0 5.44 0 0 Z " fill="#713FFF" transform="translate(312,200)"/>
<path d="M0 0 C52.8 0 105.6 0 160 0 C160 5.28 160 10.56 160 16 C107.2 16 54.4 16 0 16 C0 10.72 0 5.44 0 0 Z " fill="#713FFF" transform="translate(312,168)"/>
<path d="M0 0 C52.8 0 105.6 0 160 0 C160 5.28 160 10.56 160 16 C107.2 16 54.4 16 0 16 C0 10.72 0 5.44 0 0 Z " fill="#713FFF" transform="translate(312,136)"/>
<path d="M0 0 C52.8 0 105.6 0 160 0 C160 5.28 160 10.56 160 16 C107.2 16 54.4 16 0 16 C0 10.72 0 5.44 0 0 Z " fill="#713FFF" transform="translate(312,104)"/>
<path d="M0 0 C10.56 0 21.12 0 32 0 C32 5.28 32 10.56 32 16 C21.44 16 10.88 16 0 16 C0 10.72 0 5.44 0 0 Z " fill="#713FFF" transform="translate(416,408)"/>
<path d="M0 0 C10.56 0 21.12 0 32 0 C32 5.28 32 10.56 32 16 C21.44 16 10.88 16 0 16 C0 10.72 0 5.44 0 0 Z " fill="#713FFF" transform="translate(224,408)"/>
</svg>
