<?xml version="1.0" encoding="UTF-8"?>
<svg version="1.1" xmlns="http://www.w3.org/2000/svg" width="512" height="512">
<path d="M0 0 C3.47769802 1.88459069 6.76687554 3.99202895 10.078125 6.15234375 C26.88761811 16.83494029 45.08267107 23.86883261 64.8034668 26.90893555 C71.94402075 28.12164855 77.58246657 30.65640421 82.015625 36.52734375 C84.12585659 40.72921459 85.01679989 45.3177784 85.9921875 49.890625 C86.51388601 52.60450596 86.51388601 52.60450596 88.703125 54.46484375 C91.6662889 55.30083238 94.65201249 55.9319932 97.66015625 56.5859375 C102.46635487 57.97412067 105.05850628 59.55163389 107.953125 63.65234375 C110.64737511 68.85465595 111.08261211 73.42941287 110.015625 79.15234375 C107.80365153 84.73494346 104.96069475 87.6866961 99.703125 90.46484375 C96.60293829 91.32445906 93.49717551 91.96866559 90.34765625 92.62109375 C87.38726179 93.26255613 87.38726179 93.26255613 85.703125 96.46484375 C85.35972339 99.14161526 85.10204954 101.77787155 84.890625 104.46484375 C82.48969389 128.97621292 73.52893152 152.12198451 54.3515625 168.4375 C33.51596658 184.3868721 7.17396456 187.28881628 -18.20703125 184.25 C-35.19783665 181.85553671 -50.20123772 174.72703026 -62.296875 162.46484375 C-62.99425781 161.77777344 -63.69164062 161.09070313 -64.41015625 160.3828125 C-80.31402325 143.73779441 -85.74992018 120.89783547 -87.62109375 98.6015625 C-88.02118971 95.44255672 -88.02118971 95.44255672 -90.02734375 93.609375 C-92.55463251 92.33485588 -94.83998685 91.72815713 -97.609375 91.15234375 C-103.99343409 89.52218962 -108.17252926 86.78990665 -111.734375 81.21484375 C-112.86388873 75.69277663 -112.99336166 70.51561003 -111.171875 65.15234375 C-106.39813634 58.30998501 -102.01986212 56.79105761 -94.00390625 55.23828125 C-91.07587117 54.4016998 -89.98752352 53.9709176 -88.296875 51.46484375 C-87.53857507 48.54658521 -87.53857507 48.54658521 -87.046875 45.27734375 C-85.68128022 38.96322766 -83.7393542 34.2100074 -78.296875 30.46484375 C-72.52342052 28.04310736 -66.55018526 26.84010582 -60.421875 25.71484375 C-40.56044875 21.73707192 -19.97918397 13.52093905 -4.3046875 0.44921875 C-2.296875 -0.53515625 -2.296875 -0.53515625 0 0 Z " fill="#703EFF" transform="translate(180.296875,88.53515625)"/>
<path d="M0 0 C0.73745286 -0.00297112 1.47490571 -0.00594224 2.23470563 -0.0090034 C4.71273082 -0.01769443 7.19070772 -0.01919899 9.66874695 -0.02069092 C11.44268395 -0.0253188 13.21661996 -0.03034342 14.99055481 -0.03573608 C19.81500595 -0.04886484 24.63944317 -0.05530596 29.46390939 -0.05974674 C32.47730653 -0.06267666 35.49069985 -0.06678132 38.50409508 -0.07125092 C47.93020272 -0.08492702 57.35630167 -0.09459316 66.78241855 -0.09845281 C77.66743075 -0.10293417 88.55231742 -0.12048523 99.43729144 -0.1494534 C107.84841905 -0.17106175 116.25951132 -0.18115663 124.6706664 -0.18249393 C129.69549488 -0.18354255 134.72020537 -0.18946256 139.74500465 -0.20731354 C144.47197392 -0.22377958 149.19873632 -0.22595685 153.92572403 -0.21717453 C155.65993618 -0.21640337 157.39415938 -0.22075723 159.12834358 -0.23063278 C161.49759286 -0.24333272 163.86610732 -0.23748649 166.23535156 -0.22705078 C166.9200898 -0.23510719 167.60482803 -0.24316359 168.31031591 -0.25146413 C173.52024185 -0.19786891 177.6044958 1.08334785 181.4526825 4.67559814 C184.94591207 9.24366759 185.93289289 11.28083417 185.95532227 16.99719238 C185.96605522 18.86887337 185.96605522 18.86887337 185.977005 20.77836609 C185.97984541 22.16891455 185.98255712 23.55946327 185.9851532 24.95001221 C185.99141691 26.40853539 185.99806363 27.86705696 186.00506592 29.32557678 C186.02248527 33.29473733 186.03303044 37.26388583 186.04127145 41.23307514 C186.04642013 43.71261365 186.05249596 46.1921484 186.05878258 48.67168427 C186.07783816 56.42870853 186.09206793 64.18572325 186.10039455 71.94276643 C186.11016623 80.89839818 186.13648227 89.85378272 186.17689544 98.80932736 C186.20705457 105.73000081 186.22186326 112.65060339 186.22517556 119.57134128 C186.22752649 123.70533886 186.23649203 127.83907246 186.26163673 131.97299957 C186.28491881 135.86365093 186.28915037 139.75386453 186.27887535 143.64456749 C186.27837989 145.07078953 186.28470349 146.49703311 186.2984314 147.92318916 C186.4197985 161.28166264 186.4197985 161.28166264 181.80815125 166.14044189 C176.90612043 170.45889761 174.04808958 171.28929012 167.66062927 171.28761292 C166.91586374 171.2912896 166.1710982 171.29496629 165.40376401 171.29875439 C162.89499819 171.30981383 160.38627376 171.31363889 157.87748718 171.31744385 C156.0839932 171.32370681 154.29050052 171.33035346 152.49700928 171.33735657 C147.61465367 171.35478216 142.73230787 171.36532263 137.84992886 171.3735621 C134.80085771 171.37870908 131.75178963 171.38478496 128.70272064 171.39107323 C119.16662113 171.41012988 109.63052938 171.42435986 100.09441447 171.4326852 C89.0797451 171.44245956 78.06527659 171.46878233 67.05067801 171.50918609 C58.5419077 171.53932881 50.03319502 171.55415233 41.52437234 171.55746621 C36.44024266 171.55981886 31.35632744 171.56880711 26.27225494 171.59392738 C21.48862346 171.61718076 16.70534805 171.62145235 11.92167473 171.611166 C10.16649378 171.61066986 8.41129547 171.61701336 6.65616798 171.63072205 C4.25822045 171.6484026 1.86155607 171.64135461 -0.53639221 171.62818909 C-1.22959446 171.63915833 -1.92279671 171.65012758 -2.63700509 171.66142923 C-7.59021687 171.59585585 -10.36065802 170.20643795 -14.19184875 167.14044189 C-18.17616557 162.61770389 -19.31584786 160.30124396 -19.33229065 154.32165527 C-19.33800079 153.0822821 -19.34371094 151.84290894 -19.34959412 150.565979 C-19.35083954 149.18487559 -19.35196462 147.80377206 -19.35298157 146.42266846 C-19.35760888 144.97399773 -19.36263342 143.52532823 -19.36802673 142.07666016 C-19.38116304 138.13435316 -19.38759834 134.19206321 -19.39203739 130.24973774 C-19.39496676 127.78695 -19.39907135 125.32416693 -19.40354156 122.86138153 C-19.41722111 115.15668008 -19.42688494 107.4519893 -19.43074346 99.74727654 C-19.4352224 90.85224992 -19.45276072 81.9573771 -19.48174405 73.06239724 C-19.50336462 66.18843148 -19.51344797 59.31450896 -19.51478457 52.44050956 C-19.51583254 48.33450904 -19.52173821 44.22865302 -19.53960419 40.12268829 C-19.55609092 36.2583537 -19.55823755 32.3942721 -19.54946518 28.52991486 C-19.54869506 27.11337608 -19.55303423 25.69682368 -19.56292343 24.28031921 C-19.57565506 22.34264196 -19.56797 20.40486295 -19.55934143 18.46716309 C-19.56080799 17.38388859 -19.56227455 16.30061409 -19.56378555 15.18451309 C-19.05122506 10.98952449 -17.54878536 7.628125 -14.69184875 4.49591064 C-9.68151884 0.59463813 -6.16823119 -0.00772986 0 0 Z M93.80815125 29.14044189 C92.63523382 31.48627674 92.67747147 32.87730765 92.66770935 35.49209595 C92.66199921 36.40620743 92.65628906 37.32031891 92.65040588 38.26213074 C92.64928802 39.26788651 92.64817017 40.27364227 92.64701843 41.30987549 C92.64205353 42.36688156 92.63708862 43.42388763 92.63197327 44.51292419 C92.61732705 48.02158247 92.61054576 51.53019553 92.60502625 55.03887939 C92.59927709 57.47024538 92.59351934 59.90161135 92.5877533 62.33297729 C92.57723649 67.43579317 92.57139818 72.53859326 92.56791687 77.64141846 C92.56242885 84.18771492 92.5383969 90.73380374 92.50994492 97.28003502 C92.49134418 102.30368667 92.48611431 107.32728804 92.48458099 112.35097122 C92.48154845 114.76475791 92.47349982 117.17854358 92.46039581 119.5922966 C92.44338818 122.96576605 92.44520276 126.33872461 92.45170593 129.71221924 C92.44249115 130.71392654 92.43327637 131.71563385 92.42378235 132.74769592 C92.4293515 133.66744705 92.43492065 134.58719818 92.44065857 135.53482056 C92.43919201 136.33233923 92.43772545 137.1298579 92.43621445 137.95154381 C92.90822106 140.72936624 93.89541274 142.09605973 95.80815125 144.14044189 C99.37713425 145.3042407 101.09209901 145.44964627 104.55815125 143.95294189 C107.4272032 141.64176115 108.6365313 139.67563581 109.04866028 135.98901367 C109.04421906 135.21624084 109.03977783 134.44346802 109.03520203 133.64727783 C109.03505096 132.76666687 109.0348999 131.88605591 109.03474426 130.97875977 C109.02442169 130.03695862 109.01409912 129.09515747 109.00346375 128.12481689 C108.9992189 126.66836761 108.9992189 126.66836761 108.99488831 125.18249512 C108.98370417 122.08501805 108.95860266 118.9878314 108.93315125 115.89044189 C108.92311917 113.78888357 108.91399371 111.68732072 108.9058075 109.58575439 C108.88377058 104.4372052 108.8492527 99.28887277 108.80815125 94.14044189 C112.53819234 94.22155897 116.26662724 94.33438264 119.99565125 94.45294189 C121.0507489 94.47550049 122.10584656 94.49805908 123.19291687 94.52130127 C124.2144989 94.55675049 125.23608093 94.59219971 126.28862 94.62872314 C127.6947052 94.66799927 127.6947052 94.66799927 129.12919617 94.70806885 C132.2526695 95.21218543 134.16982371 96.44173074 136.80815125 98.14044189 C137.46815125 98.14044189 138.12815125 98.14044189 138.80815125 98.14044189 C141.92494052 103.92876483 143.05105308 109.01068251 143.08158875 115.58575439 C143.10186121 117.00633543 143.12271165 118.42690831 143.14408875 119.84747314 C143.16674003 122.06385258 143.18318924 124.27990873 143.18901062 126.49639893 C143.19853287 128.65176128 143.23227697 130.8057095 143.26908875 132.96075439 C143.27730652 134.24224365 143.28552429 135.52373291 143.29399109 136.84405518 C143.89260692 140.68190464 144.7414334 141.83848812 147.80815125 144.14044189 C150.71166249 145.30493071 150.71166249 145.30493071 153.80815125 145.14044189 C156.55531511 143.3700474 158.33961046 142.07752346 159.80815125 139.14044189 C160.04515651 134.71921648 160.03665373 130.29383609 160.04838562 125.86700439 C160.0579931 123.67649921 160.08896545 121.48697279 160.12065125 119.29669189 C160.20462343 108.59119382 159.43075581 99.72344445 152.62065125 91.01544189 C151.54750671 89.61938721 151.54750671 89.61938721 150.4526825 88.19512939 C149.90998718 87.51708252 149.36729187 86.83903564 148.80815125 86.14044189 C149.19487 85.66735596 149.58158875 85.19427002 149.98002625 84.70684814 C156.72974247 76.13604511 160.85782949 67.25925593 159.80815125 56.14044189 C157.99204205 46.59817324 153.36089131 38.49937203 145.73002625 32.42169189 C136.33222046 26.15648804 126.81903463 25.93169517 115.81278992 25.90020752 C113.74769044 25.89045153 111.68356692 25.85935048 109.61869812 25.82794189 C107.65320007 25.82020752 107.65320007 25.82020752 105.647995 25.81231689 C104.45553162 25.80297119 103.26306824 25.79362549 102.0344696 25.78399658 C98.49988865 26.1744989 96.63190896 27.01834518 93.80815125 29.14044189 Z M8.80815125 29.14044189 C7.03181569 32.03138976 6.55650796 34.2042397 6.54745483 37.57402039 C6.54037003 38.45577942 6.53328522 39.33753845 6.52598572 40.24601746 C6.52846313 41.20560867 6.53094055 42.16519989 6.53349304 43.15386963 C6.52838211 44.17054718 6.52327118 45.18722473 6.51800537 46.23471069 C6.50409705 49.59787877 6.50506706 52.96084221 6.50737 56.32403564 C6.50348383 58.66046729 6.49914933 60.99689823 6.49438477 63.33332825 C6.48691994 68.23170257 6.48721582 73.13000482 6.49247742 78.02838135 C6.49827319 84.30774666 6.48133947 90.58681713 6.45813274 96.86613369 C6.44340641 101.69167305 6.4425222 106.51714121 6.44564247 111.34269905 C6.44512874 113.65796556 6.43988122 115.97323601 6.42983055 118.28848076 C6.41750471 121.52505575 6.42423499 124.76105398 6.43583679 127.99761963 C6.42819305 128.95518661 6.42054932 129.9127536 6.41267395 130.89933777 C6.45132699 135.7738938 6.54477653 139.23616309 9.80815125 143.14044189 C12.61549597 145.4378078 12.61549597 145.4378078 15.74565125 145.01544189 C19.47047306 143.95120709 20.56962753 143.31396966 22.80815125 140.14044189 C23.3711083 136.65472156 23.27256782 133.20994669 23.19877625 129.68731689 C23.19311646 128.67195862 23.18745667 127.65660034 23.18162537 126.61047363 C23.15924878 123.36998188 23.10904879 120.130599 23.05815125 116.89044189 C23.03808796 114.69254121 23.01983689 112.49462317 23.00346375 110.29669189 C22.96278258 104.91050518 22.8844921 99.52671347 22.80815125 94.14044189 C34.35815125 94.14044189 45.90815125 94.14044189 57.80815125 94.14044189 C57.77334656 97.17489502 57.73854187 100.20934814 57.7026825 103.33575439 C57.67926571 106.28463806 57.66106119 109.23351124 57.64335632 112.18243408 C57.62829837 114.22707784 57.60784768 116.27168944 57.58183289 118.31622314 C57.54531814 121.26031442 57.52839474 124.20397747 57.5151825 127.14825439 C57.49969864 128.05785919 57.48421478 128.96746399 57.46826172 129.90463257 C57.46689841 135.08152567 57.90937119 138.65982335 60.80815125 143.14044189 C63.35517074 145.16049184 64.5975032 145.14903977 67.87065125 145.01544189 C71.28421382 143.99863602 72.13250709 143.22715481 73.80815125 140.14044189 C74.65849657 137.3282922 74.93668143 134.80351014 74.94859314 131.87217712 C74.95430328 131.02696503 74.96001343 130.18175293 74.96589661 129.31092834 C74.96701447 128.39188217 74.96813232 127.472836 74.96928406 126.52593994 C74.97424896 125.55148926 74.97921387 124.57703857 74.98432922 123.57305908 C74.99893396 120.34941908 75.00574999 117.12582829 75.01127625 113.90216064 C75.017029 111.66020201 75.02278672 109.4182434 75.02854919 107.17628479 C75.03905432 102.47463756 75.04490022 97.77300741 75.04838562 93.0713501 C75.05386988 87.05227005 75.07789871 81.03341626 75.10635757 75.01440716 C75.12499782 70.3826685 75.1301903 65.7509842 75.1317215 61.1192112 C75.13474531 58.90048803 75.14276464 56.68176576 75.15590668 54.46307945 C75.17299613 51.3562545 75.17107968 48.24998056 75.16459656 45.14312744 C75.17381134 44.23015396 75.18302612 43.31718048 75.19252014 42.37654114 C75.15661435 36.87269614 74.42609431 33.01318122 71.80815125 28.14044189 C69.4341756 26.24126138 68.33111363 26.11429378 65.30815125 26.26544189 C62.26006907 27.33227066 60.84947575 28.66169071 58.80815125 31.14044189 C57.8730269 33.94581493 57.68632217 35.62209554 57.69462585 38.52008057 C57.69470139 39.40076706 57.69477692 40.28145355 57.69485474 41.18882751 C57.70001602 42.13578995 57.70517731 43.08275238 57.710495 44.05841064 C57.71261742 45.51698235 57.71261742 45.51698235 57.71478271 47.00502014 C57.72038308 50.11269193 57.73293562 53.22029185 57.74565125 56.32794189 C57.7506662 58.43406065 57.75522911 60.54018053 57.75932312 62.64630127 C57.769502 67.81106483 57.78907742 72.97567284 57.80815125 78.14044189 C46.25815125 78.14044189 34.70815125 78.14044189 22.80815125 78.14044189 C22.8545575 74.79403564 22.90096375 71.44762939 22.94877625 67.99981689 C22.97996868 64.75976071 23.00425834 61.51972123 23.02787781 58.27960205 C23.04799681 56.02724728 23.07529532 53.77494476 23.10990906 51.52276611 C23.15841334 48.28581859 23.18111729 45.04956143 23.19877625 41.81231689 C23.21942139 40.80489441 23.24006653 39.79747192 23.26133728 38.75952148 C23.35063818 33.28208022 23.35063818 33.28208022 20.93608093 28.53204346 C16.19084022 25.42879976 13.27397826 25.6401991 8.80815125 29.14044189 Z " fill="#703EFF" transform="translate(309.1918487548828,323.85955810546875)"/>
<path d="M0 0 C1.66184998 2.28851318 1.66184998 2.28851318 3.13452148 5.35839844 C3.69537949 6.50338806 4.25623749 7.64837769 4.83409119 8.82806396 C5.12510145 9.44391106 5.41611172 10.05975815 5.71594048 10.69426727 C6.62990084 12.6280089 7.56539331 14.549907 8.50709534 16.47027588 C10.50426204 20.55380566 12.4716286 24.65133681 14.4375 28.75 C16.71361302 33.48696374 19.00180711 38.21762629 21.31215096 42.93799591 C22.2294168 44.82506589 23.12856914 46.72003916 24.02696228 48.6161499 C27.5340949 55.81433695 30.19000176 60.53333424 37.4375 64.25 C40.11484663 65.16385761 40.11484663 65.16385761 43.5 65 C47 66 47 66 48.3828125 67.86328125 C49.73327642 70.52598841 50.85265151 73.24415009 52 76 C52.77150391 77.33611328 52.77150391 77.33611328 53.55859375 78.69921875 C56.88526643 84.89460658 57.18437841 89.3714158 55.4453125 96.09375 C55.25857468 96.86952393 55.07183685 97.64529785 54.87944031 98.44458008 C54.26826688 100.96707518 53.63418455 103.48320225 53 106 C52.57876547 107.72553216 52.15909871 109.45144776 51.7409668 111.17773438 C50.67255495 115.56913813 49.58182058 119.95458034 48.48071289 124.33789062 C47.79932102 127.05250407 47.1231149 129.7683769 46.44726562 132.484375 C46.01332345 134.21882574 45.57909025 135.9532037 45.14453125 137.6875 C44.94350296 138.49566162 44.74247467 139.30382324 44.53535461 140.13647461 C43.11503321 145.76993358 43.11503321 145.76993358 42 148 C26.83155732 148.11683393 11.6631354 148.20498839 -3.50565624 148.25906086 C-10.54892715 148.28483581 -17.59191838 148.31997213 -24.63500977 148.37719727 C-31.43013984 148.43238137 -38.22497896 148.4614101 -45.02031898 148.47438622 C-47.61473481 148.48363525 -50.20913446 148.50169617 -52.80342674 148.52865028 C-56.43334902 148.56486944 -60.0620652 148.56994803 -63.69213867 148.56762695 C-64.7681987 148.58560333 -65.84425873 148.60357971 -66.95292664 148.62210083 C-71.69875298 148.58919593 -74.20403781 148.55685574 -78.16828918 145.78346252 C-80.12791958 142.80561377 -80.62356638 141.41491819 -80.61523438 137.89697266 C-80.62453979 136.90468658 -80.63384521 135.91240051 -80.64343262 134.89004517 C-80.62703735 133.82547089 -80.61064209 132.76089661 -80.59375 131.6640625 C-80.59379028 130.55251801 -80.59383057 129.44097351 -80.59387207 128.29574585 C-80.58851286 125.94043333 -80.57091328 123.58512151 -80.54199219 121.22998047 C-80.5005507 117.67227693 -80.5008934 114.11649533 -80.5078125 110.55859375 C-80.47456476 98.69873971 -80.12891665 87.48378984 -77 76 C-76.81211914 75.25218262 -76.62423828 74.50436523 -76.43066406 73.73388672 C-69.17971905 46.48983892 -50.05929935 23.11263154 -26.03759766 8.83349609 C-6.48218311 -2.33072804 -6.48218311 -2.33072804 0 0 Z " fill="#713EFF" transform="translate(97,313)"/>
<path d="M0 0 C2.91368522 0.0214942 5.82491296 0.00004509 8.73852539 -0.02539062 C38.14548499 -0.06860872 64.10802111 10.16506799 85.16235352 30.95898438 C100.20956838 46.23908065 110.22907021 66.25661205 113.34985352 87.52148438 C113.46071289 88.235625 113.57157227 88.94976562 113.68579102 89.68554688 C114.81445229 98.5623153 114.4323643 107.59198342 114.34985352 116.52148438 C113.76075195 116.37324219 113.17165039 116.225 112.56469727 116.07226562 C110.68384008 115.60453923 108.79852282 115.15480621 106.91235352 114.70898438 C104.15959192 113.5250636 103.4362195 112.69342641 102.06860352 109.97070312 C101.27867122 107.87044395 100.49237492 105.76881456 99.70922852 103.66601562 C95.85076077 94.74053708 89.13466606 90.04397428 80.34985352 86.52148438 C75.6865193 85.15741297 70.97123549 84.11591414 66.22485352 83.08398438 C44.41126755 78.06270255 24.64406117 70.66220375 7.88110352 55.25195312 C4.69819414 53.07598267 3.13578456 52.89542546 -0.65014648 53.52148438 C-3.25243385 55.14811913 -3.25243385 55.14811913 -5.65014648 57.45898438 C-24.21962033 73.40070249 -45.5469248 80.42398179 -69.27514648 85.02148438 C-75.13667723 86.23209224 -79.70959329 88.171238 -84.65014648 91.52148438 C-85.53702148 92.07835938 -86.42389648 92.63523437 -87.33764648 93.20898438 C-92.02865862 97.89999651 -94.98360139 103.86278713 -97.46264648 109.95898438 C-98.64369869 112.44548086 -99.29371957 113.35748573 -101.83251953 114.52563477 C-102.64245361 114.7627417 -103.4523877 114.99984863 -104.28686523 115.24414062 C-105.51022583 115.61357788 -105.51022583 115.61357788 -106.75830078 115.99047852 C-107.38260986 116.16571045 -108.00691895 116.34094238 -108.65014648 116.52148438 C-109.38642621 83.29072588 -103.13629358 55.89451543 -79.91577148 30.85742188 C-70.20078209 20.84093281 -59.22577215 13.17970873 -46.40014648 7.70898438 C-45.79493164 7.44335693 -45.1897168 7.17772949 -44.56616211 6.90405273 C-30.14251591 1.10141549 -15.37766839 -0.13454004 0 0 Z " fill="#703EFF" transform="translate(176.650146484375,16.478515625)"/>
<path d="M0 0 C5.21418317 0.65482967 9.19493072 1.76455406 13.9375 4.0625 C15.65259766 4.88427734 15.65259766 4.88427734 17.40234375 5.72265625 C18.68818359 6.35494141 18.68818359 6.35494141 20 7 C19.57847656 7.83144531 19.15695312 8.66289062 18.72265625 9.51953125 C18.17480469 10.60621094 17.62695312 11.69289063 17.0625 12.8125 C16.24458984 14.43091797 16.24458984 14.43091797 15.41015625 16.08203125 C13.51002882 20.01387388 12.87162282 22.86372605 12.84178162 27.18217468 C12.8319928 28.25489624 12.82220398 29.3276178 12.81211853 30.43284607 C12.80636307 31.60960403 12.8006076 32.786362 12.79467773 33.9987793 C12.78477814 35.23792084 12.77487854 36.47706238 12.76467896 37.75375366 C12.73848345 41.15222283 12.7166246 44.55066841 12.69667697 47.94917655 C12.67481176 51.50063338 12.64742569 55.05204749 12.62062073 58.60346985 C12.57070108 65.32883876 12.52575955 72.05423139 12.48259836 78.77964669 C12.43321977 86.43618883 12.37830395 94.0926881 12.32291877 101.74918878 C12.20910988 117.4994211 12.10299947 133.24969272 12 149 C-6.15 149 -24.3 149 -43 149 C-44.85165247 141.84556978 -46.70029826 134.69134194 -48.52285004 127.52960205 C-49.37249169 124.19420094 -50.22705535 120.86024805 -51.09399414 117.52929688 C-52.09022898 113.70060388 -53.06320613 109.86618298 -54.03515625 106.03125 C-54.50224754 104.25578796 -54.50224754 104.25578796 -54.97877502 102.44445801 C-58.1272674 89.86066701 -55.54477156 79.95687767 -49.26367188 68.71484375 C-48 67 -48 67 -45.234375 65.53125 C-42.375 65.125 -42.375 65.125 -39.7109375 65.1953125 C-35.72719057 64.90829903 -34.02237381 63.60753819 -31 61 C-28.9505794 58.03035239 -27.39651791 54.86174502 -25.8125 51.625 C-25.32491211 50.66070068 -24.83732422 49.69640137 -24.33496094 48.70288086 C-22.8887097 45.83337299 -21.45833551 42.95642945 -20.03204346 40.07696533 C-18.03300777 36.05394887 -16.0123666 32.04174024 -13.99609375 28.02734375 C-9.31226468 18.69406974 -4.65106624 9.34963709 0 0 Z " fill="#713EFF" transform="translate(262,312)"/>
<path d="M0 0 C7.26 0 14.52 0 22 0 C25.31897725 11.61642039 28.37590985 23.28233996 31.3125 35 C31.49498291 35.72493652 31.67746582 36.44987305 31.86547852 37.19677734 C32.3883108 39.27634688 32.90767408 41.35674881 33.42578125 43.4375 C33.72911377 44.65308594 34.03244629 45.86867188 34.3449707 47.12109375 C35 50 35 50 35 52 C19.49 52 3.98 52 -12 52 C-10.875 41.875 -10.875 41.875 -9.87670898 38.03100586 C-9.65655624 37.1707933 -9.4364035 36.31058075 -9.20957947 35.42430115 C-8.85640404 34.08311974 -8.85640404 34.08311974 -8.49609375 32.71484375 C-8.2533522 31.77314835 -8.01061066 30.83145294 -7.76051331 29.86122131 C-6.99195578 26.88511513 -6.21488061 23.91131229 -5.4375 20.9375 C-4.91154242 18.90704782 -4.38614628 16.87645012 -3.86132812 14.84570312 C-2.5817385 9.89512651 -1.29062819 4.94776243 0 0 Z " fill="#713EFF" transform="translate(168,409)"/>
<path d="M0 0 C2.05945026 2.91431641 3.45878356 5.82212438 4.92578125 9.07421875 C6.48607501 11.59177753 8.18031126 14.01257225 9.86328125 16.44921875 C10.7054959 17.71978576 11.54534113 18.99192655 12.3828125 20.265625 C14.07573978 22.8190746 15.80125642 25.34474979 17.5625 27.8515625 C18.19007202 28.74512451 18.19007202 28.74512451 18.83032227 29.65673828 C19.98588196 31.29472508 21.1470731 32.9287348 22.30859375 34.5625 C23.92578125 37.07421875 23.92578125 37.07421875 23.92578125 39.07421875 C20.60180617 41.50447491 17.049363 43.57165235 13.51928711 45.6887207 C11.75333487 46.75264944 10.002821 47.83921032 8.25195312 48.92773438 C7.14013672 49.59869141 6.02832031 50.26964844 4.8828125 50.9609375 C3.3510437 51.89232544 3.3510437 51.89232544 1.78833008 52.8425293 C-1.5515319 54.27959571 -2.68682262 54.26443625 -6.07421875 53.07421875 C-7.66255188 50.99330139 -7.66255188 50.99330139 -9.02856445 48.21899414 C-9.54872635 47.18444595 -10.06888824 46.14989777 -10.60481262 45.08399963 C-11.14772446 43.9579985 -11.69063629 42.83199738 -12.25 41.671875 C-12.82002243 40.52383896 -13.39004486 39.37580292 -13.9773407 38.19297791 C-15.18243825 35.76447314 -16.3757254 33.33066141 -17.55981445 30.8918457 C-19.07921566 27.76248025 -20.61746732 24.64290319 -22.16334248 21.52654362 C-23.63570385 18.55708132 -25.09943473 15.58343023 -26.5625 12.609375 C-27.11553299 11.4853981 -27.66856598 10.3614212 -28.23835754 9.2033844 C-28.74275864 8.16568405 -29.24715973 7.1279837 -29.7668457 6.05883789 C-30.21365189 5.1425209 -30.66045807 4.22620392 -31.12080383 3.28211975 C-32.07421875 1.07421875 -32.07421875 1.07421875 -32.07421875 -0.92578125 C-23.06614966 -3.48810013 -8.10773436 -5.07892381 0 0 Z " fill="#703EFF" transform="translate(144.07421875,308.92578125)"/>
<path d="M0 0 C6.33200789 0.46734131 12.14756297 1.56359195 18.1640625 3.5690918 C17.56527163 7.24223345 16.54210193 10.18783083 14.87915039 13.51123047 C14.40518326 14.46539352 13.93121613 15.41955658 13.44288635 16.40263367 C12.92935104 17.42049454 12.41581573 18.43835541 11.88671875 19.48706055 C11.09689857 21.06744865 11.09689857 21.06744865 10.29112244 22.67976379 C9.17848638 24.90269816 8.06290091 27.12415839 6.94458008 29.34423828 C5.22952192 32.75071376 3.52521802 36.16241054 1.82226562 39.57495117 C0.74021749 41.73347231 -0.34244387 43.89168618 -1.42578125 46.04956055 C-1.93729233 47.07349411 -2.44880341 48.09742767 -2.97581482 49.15238953 C-3.45293411 50.0970961 -3.93005341 51.04180267 -4.42163086 52.01513672 C-4.84053085 52.84832932 -5.25943085 53.68152191 -5.69102478 54.53996277 C-6.8359375 56.5690918 -6.8359375 56.5690918 -8.8359375 58.5690918 C-12.9772597 58.24670811 -15.86995108 56.57034595 -19.35546875 54.40893555 C-20.37705078 53.78051758 -21.39863281 53.15209961 -22.45117188 52.50463867 C-23.50626953 51.8452832 -24.56136719 51.18592773 -25.6484375 50.5065918 C-27.26008789 49.51175781 -27.26008789 49.51175781 -28.90429688 48.49682617 C-31.55239274 46.8608914 -34.19599692 45.21814275 -36.8359375 43.5690918 C-31.20790732 28.04408621 -18.36095418 0.83835956 0 0 Z " fill="#713EFF" transform="translate(227.8359375,304.430908203125)"/>
<path d="M0 0 C1.29292969 0.144375 2.58585938 0.28875 3.91796875 0.4375 C20.34306219 2.21798076 35.61154343 1.93823351 52 0 C52.76844882 8.43780029 51.51251009 13.33118717 46.6015625 20.16796875 C46.05140472 20.97365799 45.50124695 21.77934723 44.93441772 22.60945129 C43.77770967 24.29382099 42.6089258 25.96995634 41.42871094 27.63793945 C39.61394588 30.2031251 37.8357272 32.79073583 36.0625 35.38476562 C34.9317008 37.02222551 33.79895726 38.65834476 32.6640625 40.29296875 C32.12754059 41.06779099 31.59101868 41.84261322 31.03823853 42.64091492 C30.53787079 43.34617813 30.03750305 44.05144135 29.52197266 44.77807617 C29.08229156 45.40219894 28.64261047 46.02632172 28.18960571 46.6693573 C27.60075089 47.32802544 27.60075089 47.32802544 27 48 C26.34 48 25.68 48 25 48 C23.81039429 46.62466431 23.81039429 46.62466431 22.47802734 44.67041016 C21.97765961 43.9418985 21.47729187 43.21338684 20.96176147 42.46279907 C20.42523956 41.662966 19.88871765 40.86313293 19.3359375 40.0390625 C18.78386627 39.21932953 18.23179504 38.39959656 17.66299438 37.55502319 C16.49393704 35.81071049 15.32905022 34.06359672 14.16796875 32.31396484 C12.396084 29.65662026 10.59342511 27.02207685 8.7890625 24.38671875 C7.65687022 22.68882126 6.52660053 20.98963987 5.3984375 19.2890625 C4.85786713 18.50947174 4.31729675 17.72988098 3.76034546 16.92666626 C0.0323402 11.19175873 -0.69222344 6.78744056 0 0 Z " fill="#703FFF" transform="translate(153,287)"/>
<path d="M0 0 C23.16666667 0 23.16666667 0 29.875 5.25 C33.55178326 10.00819011 35.31117803 13.96863769 35 20 C34.29410612 24.98679871 32.63766952 28.498865 29 32 C19.82722583 37.73298385 11.07838428 36 0 36 C0 24.12 0 12.24 0 0 Z " fill="#713EFF" transform="translate(418,366)"/>
<path d="M0 0 C3.88339751 2.15063334 7.72601359 4.35307414 11.53515625 6.6328125 C12.32341797 7.10074219 13.11167969 7.56867188 13.92382812 8.05078125 C15.85868079 9.19996647 17.79152853 10.35238253 19.72265625 11.5078125 C19.04388881 16.29689388 17.18171861 20.38336 15.22265625 24.7578125 C14.90167969 25.49 14.58070313 26.2221875 14.25 26.9765625 C11.86483856 32.36563019 11.86483856 32.36563019 10.72265625 33.5078125 C8.94194379 33.59507473 7.15782485 33.61480291 5.375 33.60546875 C4.29541016 33.60224609 3.21582031 33.59902344 2.10351562 33.59570312 C0.96720703 33.58732422 -0.16910156 33.57894531 -1.33984375 33.5703125 C-2.48001953 33.56580078 -3.62019531 33.56128906 -4.79492188 33.55664062 C-7.62241793 33.5448101 -10.4498872 33.526874 -13.27734375 33.5078125 C-16.24734375 26.5778125 -19.21734375 19.6478125 -22.27734375 12.5078125 C-19.30734375 10.5278125 -16.33734375 8.5478125 -13.27734375 6.5078125 C-12.25125 5.7859375 -11.22515625 5.0640625 -10.16796875 4.3203125 C-9.2965625 3.7221875 -8.42515625 3.1240625 -7.52734375 2.5078125 C-6.20476562 1.5796875 -6.20476562 1.5796875 -4.85546875 0.6328125 C-2.27734375 -0.4921875 -2.27734375 -0.4921875 0 0 Z " fill="#703EFF" transform="translate(180.27734375,359.4921875)"/>
</svg>
