<?xml version="1.0" encoding="UTF-8"?>
<svg version="1.1" xmlns="http://www.w3.org/2000/svg" width="322" height="203">
<path d="M0 0 C1.12212891 0.03158203 2.24425781 0.06316406 3.40039062 0.09570312 C6.16543172 0.17806605 8.92512302 0.29301425 11.6875 0.4375 C6.83039976 9.00238663 6.83039976 9.00238663 4.6875 11.4375 C4.0275 11.4375 3.3675 11.4375 2.6875 11.4375 C2.44 11.97375 2.1925 12.51 1.9375 13.0625 C0.38097463 16.0198982 -1.34685673 18.73474051 -3.3125 21.4375 C-3.9725 21.4375 -4.6325 21.4375 -5.3125 21.4375 C-5.57675781 22.00597656 -5.84101562 22.57445313 -6.11328125 23.16015625 C-7.80935387 26.38103684 -10.0007357 29.20268858 -12.16796875 32.12109375 C-13.60868102 35.03693803 -13.23429936 36.37834167 -12.3125 39.4375 C-12.126875 40.200625 -11.94125 40.96375 -11.75 41.75 C-11.605625 42.306875 -11.46125 42.86375 -11.3125 43.4375 C-10.6525 43.4375 -9.9925 43.4375 -9.3125 43.4375 C-7.76171875 45.1953125 -7.76171875 45.1953125 -6 47.5625 C-3.85999625 50.40539202 -1.70822445 53.18845871 0.625 55.875 C2.6875 58.4375 2.6875 58.4375 2.6875 60.4375 C3.3475 60.4375 4.0075 60.4375 4.6875 60.4375 C6.29611731 62.14774476 7.82688343 63.93188829 9.3125 65.75 C10.12976563 66.73613281 10.94703125 67.72226563 11.7890625 68.73828125 C13.6875 71.4375 13.6875 71.4375 13.6875 74.4375 C-5.9588404 76.17967207 -5.9588404 76.17967207 -11.20458984 73.45458984 C-14.42080413 70.69553514 -16.33108818 67.12160842 -18.3125 63.4375 C-19.29971941 62.22191176 -20.31462638 61.02733013 -21.375 59.875 C-23.3125 57.4375 -23.3125 57.4375 -23.3125 55.4375 C-24.3025 55.1075 -25.2925 54.7775 -26.3125 54.4375 C-28.25 52.29296875 -28.25 52.29296875 -30.3125 49.625 C-30.993125 48.75230469 -31.67375 47.87960938 -32.375 46.98046875 C-33.014375 46.14128906 -33.65375 45.30210938 -34.3125 44.4375 C-34.89 43.81488281 -35.4675 43.19226563 -36.0625 42.55078125 C-37.96244311 39.33868994 -37.7775548 37.10276243 -37.3125 33.4375 C-35.4765625 30.3671875 -35.4765625 30.3671875 -32.9375 27.3125 C-32.01909866 26.18264316 -31.10114302 25.05242391 -30.18359375 23.921875 C-29.70905762 23.34888672 -29.23452148 22.77589844 -28.74560547 22.18554688 C-26.43082877 19.36207138 -24.2186847 16.46163791 -22 13.5625 C-21.22011719 12.55445312 -20.44023438 11.54640625 -19.63671875 10.5078125 C-17.38505062 7.72414539 -17.38505062 7.72414539 -16.34155273 5.5144043 C-12.60326826 -1.34908947 -7.14839398 -0.38018928 0 0 Z " fill="#FAAD2F" transform="translate(68.3125,63.5625)"/>
<path d="M0 0 C3.63 0 7.26 0 11 0 C11.33 3.63 11.66 7.26 12 11 C12.42152344 10.28972656 12.84304687 9.57945313 13.27734375 8.84765625 C13.82519531 7.92855469 14.37304688 7.00945312 14.9375 6.0625 C15.75541016 4.68771484 15.75541016 4.68771484 16.58984375 3.28515625 C18 1 18 1 19 0 C21.18639453 -0.07258946 23.37500389 -0.08373783 25.5625 -0.0625 C27.35880859 -0.04896484 27.35880859 -0.04896484 29.19140625 -0.03515625 C30.11824219 -0.02355469 31.04507813 -0.01195312 32 0 C30.35 3.3 28.7 6.6 27 10 C26.34 10 25.68 10 25 10 C24.30959426 11.65697379 23.6469365 13.3255761 23 15 C22.7215625 15.5775 22.443125 16.155 22.15625 16.75 C21.89860065 20.46015067 24.31517846 22.90565154 26.4375 25.75 C26.87126953 26.35199219 27.30503906 26.95398438 27.75195312 27.57421875 C28.82335193 29.05769401 29.91022455 30.52997152 31 32 C32.71652317 28.1506851 34.27410428 24.59379977 35.0625 20.4375 C35.80119316 16.84091199 36.79475132 13.47395207 38 10 C39.01893595 6.67214515 40.00818993 3.33608843 41 0 C46.61 0 52.22 0 58 0 C59.76298527 6.14477389 61.51971352 12.29126614 63.26904297 18.43994141 C63.86227514 20.51764098 64.46318352 22.59314773 65.06640625 24.66796875 C65.33324219 25.60253906 65.60007812 26.53710938 65.875 27.5 C66.09929687 28.2734375 66.32359375 29.046875 66.5546875 29.84375 C67 32 67 32 67 37 C63.37 37 59.74 37 56 37 C55.505 33.535 55.505 33.535 55 30 C51.37 30 47.74 30 44 30 C43.855625 30.969375 43.71125 31.93875 43.5625 32.9375 C43 36 43 36 42 37 C23.44641041 39.49785709 23.44641041 39.49785709 17.01953125 34.83984375 C15.28274339 32.26613892 14.04695936 29.91618818 13 27 C12.67 26.34 12.34 25.68 12 25 C11.67 28.96 11.34 32.92 11 37 C7.37 37 3.74 37 0 37 C0 24.79 0 12.58 0 0 Z M49 10 C47.70756464 14.1196377 46.73747375 17.66831683 47 22 C48.65 22 50.3 22 52 22 C51.44687265 17.97007218 50.8441938 13.97977076 50 10 C49.67 10 49.34 10 49 10 Z " fill="#F5F5F9" transform="translate(82,64)"/>
<path d="M0 0 C9.57 0 19.14 0 29 0 C28.12922498 3.48310009 27.56005023 4.97595399 25.5625 7.75 C24.91474609 8.67039062 24.91474609 8.67039062 24.25390625 9.609375 C23.84011719 10.06828125 23.42632812 10.5271875 23 11 C22.34 11 21.68 11 21 11 C20.7421875 11.55171875 20.484375 12.1034375 20.21875 12.671875 C18.82036875 15.34314175 17.21236695 17.76851909 15.5 20.25 C14.8915625 21.14203125 14.283125 22.0340625 13.65625 22.953125 C12.83640625 23.96632813 12.83640625 23.96632813 12 25 C11.34 25 10.68 25 10 25 C9.731875 25.53625 9.46375 26.0725 9.1875 26.625 C8.28702752 28.42594497 7.31548241 30.19156765 6.3125 31.9375 C4.42887018 36.33263625 5.54448147 38.63344442 7 43 C7.99 43.33 8.98 43.66 10 44 C11.4375 45.609375 11.4375 45.609375 13 47.75 C16.08198136 51.84837947 19.30000645 55.78668209 22.625 59.6875 C23.08003906 60.22149414 23.53507812 60.75548828 24.00390625 61.30566406 C24.44863281 61.82741211 24.89335938 62.34916016 25.3515625 62.88671875 C25.78629883 63.39895996 26.22103516 63.91120117 26.66894531 64.43896484 C27.58884803 65.51780893 28.51575729 66.59070381 29.44824219 67.65869141 C33 71.78157987 33 71.78157987 33 74 C22.11 74 11.22 74 0 74 C0 49.58 0 25.16 0 0 Z " fill="#EC373E" transform="translate(11,64)"/>
<path d="M0 0 C4.95 0 9.9 0 15 0 C16.31420263 2.93674894 17.62642792 5.87435385 18.9375 8.8125 C19.31068359 9.64587891 19.68386719 10.47925781 20.06835938 11.33789062 C20.42607422 12.14033203 20.78378906 12.94277344 21.15234375 13.76953125 C21.48226318 14.50792236 21.81218262 15.24631348 22.15209961 16.00708008 C23 18 23 18 24 21 C24.33 14.07 24.66 7.14 25 0 C28.3 0 31.6 0 35 0 C35 12.21 35 24.42 35 37 C30.05 37 25.1 37 20 37 C16.6226492 30.43292901 13.65742329 23.88961593 11 17 C10.67 23.6 10.34 30.2 10 37 C6.7 37 3.4 37 0 37 C0 24.79 0 12.58 0 0 Z " fill="#F6F7FA" transform="translate(242,64)"/>
<path d="M0 0 C5.28 0 10.56 0 16 0 C18.51088204 8.01550806 20.91765179 16.05590569 23.25 24.125 C23.52021973 25.04949951 23.79043945 25.97399902 24.06884766 26.92651367 C24.31940918 27.79896729 24.5699707 28.6714209 24.828125 29.5703125 C25.0540332 30.35164551 25.27994141 31.13297852 25.51269531 31.93798828 C26 34 26 34 26 37 C22.04 37 18.08 37 14 37 C13.34 35.35 12.68 33.7 12 32 C12.33 31.34 12.66 30.68 13 30 C9.7 30 6.4 30 3 30 C2.34 32.31 1.68 34.62 1 37 C-2.63 37 -6.26 37 -10 37 C-9.36146223 29.82738391 -7.53761951 23.16090697 -5.5625 16.25 C-5.09360352 14.56583984 -5.09360352 14.56583984 -4.61523438 12.84765625 C-3.33123216 8.30342856 -2.11991924 4.23983848 0 0 Z M7 12 C6.34 15.3 5.68 18.6 5 22 C6.98 22 8.96 22 11 22 C10.34 18.7 9.68 15.4 9 12 C8.34 12 7.68 12 7 12 Z " fill="#F5F5F9" transform="translate(212,64)"/>
<path d="M0 0 C4.29 0 8.58 0 13 0 C14.46484375 3.85742188 14.46484375 3.85742188 15.9296875 7.71484375 C16.7819086 10.14941056 16.7819086 10.14941056 19 11 C19.103125 10.484375 19.20625 9.96875 19.3125 9.4375 C20.24263866 6.13973565 21.61395512 3.13366668 23 0 C27.29 0 31.58 0 36 0 C34.56570552 3.0640379 33.1276994 6.12623895 31.6875 9.1875 C31.08131836 10.48397461 31.08131836 10.48397461 30.46289062 11.80664062 C27.26393016 18.59467868 27.26393016 18.59467868 25.25 21.6875 C23.59074648 24.757119 23.48757153 27.34608363 23.3125 30.8125 C23.24675781 31.97394531 23.18101562 33.13539062 23.11328125 34.33203125 C23.07589844 35.21246094 23.03851563 36.09289062 23 37 C19.7 37 16.4 37 13 37 C13.04382813 36.27039063 13.08765625 35.54078125 13.1328125 34.7890625 C13.10656245 24.15779404 8.66388035 16.93552427 3.12915039 8.12719727 C2 6 2 6 0 0 Z " fill="#F3F4F8" transform="translate(171,64)"/>
<path d="M0 0 C2.64 0 5.28 0 8 0 C7.21718695 1.33855056 6.42348123 2.67073644 5.625 4 C5.18414062 4.7425 4.74328125 5.485 4.2890625 6.25 C3.86367188 6.8275 3.43828125 7.405 3 8 C2.34 8 1.68 8 1 8 C0.7421875 8.55171875 0.484375 9.1034375 0.21875 9.671875 C-1.17963125 12.34314175 -2.78763305 14.76851909 -4.5 17.25 C-5.1084375 18.14203125 -5.716875 19.0340625 -6.34375 19.953125 C-7.16359375 20.96632813 -7.16359375 20.96632813 -8 22 C-8.66 22 -9.32 22 -10 22 C-10.226875 22.515625 -10.45375 23.03125 -10.6875 23.5625 C-11.85912935 25.73838307 -13.10999402 27.43939746 -14.625 29.375 C-17.60290193 33.46523589 -17.34910828 36.41659873 -16.6875 41.3125 C-16.460625 41.869375 -16.23375 42.42625 -16 43 C-15.01 43.33 -14.02 43.66 -13 44 C-13 44.66 -13 45.32 -13 46 C-12.34 46 -11.68 46 -11 46 C-9.44921875 47.7578125 -9.44921875 47.7578125 -7.6875 50.125 C-5.54749625 52.96789202 -3.39572445 55.75095871 -1.0625 58.4375 C1 61 1 61 1 63 C1.66 63 2.32 63 3 63 C4.43802182 64.5910643 5.80325335 66.2486015 7.125 67.9375 C7.84945312 68.85402344 8.57390625 69.77054687 9.3203125 70.71484375 C11 73 11 73 11 74 C7.18831708 74.87481247 5.63911316 75.20778647 2 74 C-1.72845816 70.22474111 -4.71534242 66.05501128 -7.76025391 61.72216797 C-9.32211812 59.55253619 -11.02811253 57.55171782 -12.8125 55.5625 C-13.34617187 54.96308594 -13.87984375 54.36367187 -14.4296875 53.74609375 C-14.94789062 53.16988281 -15.46609375 52.59367187 -16 52 C-17.15124976 50.7131586 -18.29730195 49.42164383 -19.4375 48.125 C-19.93121094 47.57070312 -20.42492187 47.01640625 -20.93359375 46.4453125 C-22 45 -22 45 -22 43 C-22.66 43 -23.32 43 -24 43 C-25.18306728 40.63386544 -25.13354608 39.13219264 -25.125 36.5 C-25.12757812 35.7059375 -25.13015625 34.911875 -25.1328125 34.09375 C-25 32 -25 32 -24 30 C-23.34 30 -22.68 30 -22 30 C-21.61328125 29.17242187 -21.61328125 29.17242187 -21.21875 28.328125 C-19.82036875 25.65685825 -18.21236695 23.23148091 -16.5 20.75 C-15.8915625 19.85796875 -15.283125 18.9659375 -14.65625 18.046875 C-14.1096875 17.37140625 -13.563125 16.6959375 -13 16 C-12.34 16 -11.68 16 -11 16 C-10.7421875 15.27425781 -10.484375 14.54851562 -10.21875 13.80078125 C-8.94757501 10.87952333 -7.45983598 8.69127351 -5.5 6.1875 C-4.58734375 5.00220703 -4.58734375 5.00220703 -3.65625 3.79296875 C-2.83640625 2.90544922 -2.83640625 2.90544922 -2 2 C-1.34 2 -0.68 2 0 2 C0 1.34 0 0.68 0 0 Z " fill="#F0F0F6" transform="translate(45,64)"/>
<path d="M0 0 C3.63 0 7.26 0 11 0 C11 8.91 11 17.82 11 27 C16.28 27 21.56 27 27 27 C27 30.3 27 33.6 27 37 C18.09 37 9.18 37 0 37 C0 24.79 0 12.58 0 0 Z " fill="#F5F5F9" transform="translate(153,64)"/>
<path d="M0 0 C2.31 0 4.62 0 7 0 C9.31 5.61 11.62 11.22 14 17 C15.98 11.39 17.96 5.78 20 0 C22.31 0 24.62 0 27 0 C27 8.25 27 16.5 27 25 C25.35 25 23.7 25 22 25 C21.67 21.37 21.34 17.74 21 14 C20.360625 15.629375 19.72125 17.25875 19.0625 18.9375 C17.125 23.875 17.125 23.875 16 25 C14.35 25 12.7 25 11 25 C9.35 21.04 7.7 17.08 6 13 C5.67 16.96 5.34 20.92 5 25 C3.35 25 1.7 25 0 25 C0 16.75 0 8.5 0 0 Z " fill="#F8F8FB" transform="translate(138,112)"/>
<path d="M0 0 C3.63 0 7.26 0 11 0 C11 12.21 11 24.42 11 37 C7.37 37 3.74 37 0 37 C0 24.79 0 12.58 0 0 Z " fill="#EDEDF5" transform="translate(284,64)"/>
<path d="M0 0 C4.86953166 2.43476583 7.18709505 4.86343599 9 10 C9.59029481 15.41103578 8.79536731 19.31099677 6 24 C1.27214228 27.02582894 -2.39869596 27.43851309 -7.9140625 26.58203125 C-10.98002769 25.72654658 -12.83734064 24.29782557 -15 22 C-16.02835363 18.91493912 -16.13368434 16.7305728 -16.125 13.5 C-16.12757813 12.5409375 -16.13015625 11.581875 -16.1328125 10.59375 C-16 8 -16 8 -15 5 C-14.34 5 -13.68 5 -13 5 C-13 4.34 -13 3.68 -13 3 C-8.46139393 0.34325498 -5.2582423 -0.65728029 0 0 Z M-8.875 6.0625 C-10.595575 9.0257125 -10.82420994 11.60139225 -11 15 C-10.08324478 18.17338346 -9.33659163 19.66340837 -7 22 C-2.40799538 22.53329642 -2.40799538 22.53329642 1.69921875 20.82421875 C3.48544097 18.31921641 3.39961173 16.55185424 3.375 13.5 C3.38273437 12.5409375 3.39046875 11.581875 3.3984375 10.59375 C3.19811466 7.98654682 3.19811466 7.98654682 1.6953125 6.1796875 C-1.52821822 3.93658548 -5.52009439 4.16138682 -8.875 6.0625 Z " fill="#F0F0F6" transform="translate(186,111)"/>
<path d="M0 0 C2.92958456 1.90763646 3.51360642 2.55529419 4.6875 5.75 C5.0234375 9.0625 5.0234375 9.0625 5.0625 12.75 C5.09085938 13.966875 5.11921875 15.18375 5.1484375 16.4375 C4.60908165 20.31354883 3.72448442 21.38665353 0.6875 23.75 C-3.23935437 26.10611262 -6.74659998 25.97328284 -11.15625 25.36328125 C-14.54664149 24.39898512 -16.21933888 22.49727397 -18.3125 19.75 C-20.06206687 14.5012994 -19.72404748 10.14468869 -18.1875 4.9375 C-14.08395774 -2.03852185 -7.19694233 -2.7158273 0 0 Z M-12.015625 4.921875 C-13.79489297 7.42999973 -13.71210334 9.19918622 -13.6875 12.25 C-13.69523438 13.2090625 -13.70296875 14.168125 -13.7109375 15.15625 C-13.50928559 17.76325129 -13.50928559 17.76325129 -12.01171875 19.578125 C-9.23230848 21.49495967 -6.57600399 20.98734574 -3.3125 20.75 C-0.86466181 19.81305985 -0.86466181 19.81305985 0 16.125 C1.10373637 11.41289471 -0.0153694 8.91886664 -2.3125 4.75 C-3.47627902 3.36857444 -3.47627902 3.36857444 -6.6875 3.5 C-10.15733379 3.43042123 -10.15733379 3.43042123 -12.015625 4.921875 Z " fill="#EEEEF5" transform="translate(238.3125,112.25)"/>
<path d="M0 0 C2.743125 -0.020625 5.48625 -0.04125 8.3125 -0.0625 C9.17270752 -0.071604 10.03291504 -0.08070801 10.91918945 -0.09008789 C11.60198975 -0.09258545 12.28479004 -0.09508301 12.98828125 -0.09765625 C13.68477783 -0.10289307 14.38127441 -0.10812988 15.09887695 -0.11352539 C17 0 17 0 20 1 C22.32579101 4.48868651 22.41865457 5.89718519 22 10 C20.5 12.375 20.5 12.375 19 14 C19.99 15.485 19.99 15.485 21 17 C21.53916146 19.6602023 21.73370098 22.29262663 22 25 C20.02 25 18.04 25 16 25 C15.896875 23.88625 15.79375 22.7725 15.6875 21.625 C15.460625 20.42875 15.23375 19.2325 15 18 C11.55549263 15.70366176 9.06187717 15.45983515 5 15 C5 18.3 5 21.6 5 25 C3.35 25 1.7 25 0 25 C0 16.75 0 8.5 0 0 Z M5 4 C5 6.31 5 8.62 5 11 C6.8871875 11.0309375 6.8871875 11.0309375 8.8125 11.0625 C9.52019531 11.07410156 10.22789062 11.08570312 10.95703125 11.09765625 C13.20305461 11.08263217 13.20305461 11.08263217 16 10 C16.042721 8.33388095 16.04063832 6.66617115 16 5 C14.96593327 3.74050951 14.96593327 3.74050951 12.71484375 3.90234375 C11.79832031 3.91394531 10.88179688 3.92554687 9.9375 3.9375 C9.01839844 3.94652344 8.09929687 3.95554687 7.15234375 3.96484375 C6.44207031 3.97644531 5.73179687 3.98804687 5 4 Z " fill="#F0F1F7" transform="translate(248,112)"/>
<path d="M0 0 C0.69287109 0.02255859 1.38574219 0.04511719 2.09960938 0.06835938 C3.79651573 0.12687339 5.49229861 0.2165452 7.1875 0.3125 C7.1875 1.6325 7.1875 2.9525 7.1875 4.3125 C2.5675 4.6425 -2.0525 4.9725 -6.8125 5.3125 C-6.8125 6.6325 -6.8125 7.9525 -6.8125 9.3125 C-5.99265625 9.33828125 -5.1728125 9.3640625 -4.328125 9.390625 C-3.25046875 9.44734375 -2.1728125 9.5040625 -1.0625 9.5625 C0.00484375 9.60890625 1.0721875 9.6553125 2.171875 9.703125 C5.76939944 10.4300859 7.00364052 11.40242887 9.1875 14.3125 C9.65087203 18.71453429 9.66788907 20.5919164 7.1875 24.3125 C3.42449626 25.56683458 -0.08460909 25.41945422 -4 25.375 C-4.74958984 25.37048828 -5.49917969 25.36597656 -6.27148438 25.36132812 C-8.11852383 25.34956354 -9.96552213 25.33162865 -11.8125 25.3125 C-11.8125 23.9925 -11.8125 22.6725 -11.8125 21.3125 C-7.1925 20.9825 -2.5725 20.6525 2.1875 20.3125 C2.5175 18.6625 2.8475 17.0125 3.1875 15.3125 C2.08341797 15.38210937 2.08341797 15.38210937 0.95703125 15.453125 C-6.96209735 15.74603861 -6.96209735 15.74603861 -11 13.6875 C-12.8125 11.3125 -12.8125 11.3125 -13.4375 8.375 C-11.92941541 0.98538552 -6.78135568 -0.42180681 0 0 Z " fill="#EDEDF5" transform="translate(285.8125,111.6875)"/>
<path d="M0 0 C7.26 0 14.52 0 22 0 C22 1.32 22 2.64 22 4 C19.03 4 16.06 4 13 4 C13 10.93 13 17.86 13 25 C11.35 25 9.7 25 8 25 C8 18.07 8 11.14 8 4 C5.36 4 2.72 4 0 4 C0 2.68 0 1.36 0 0 Z " fill="#F9F9FB" transform="translate(196,112)"/>
<path d="M0 0 C2.31 0 4.62 0 7 0 C7 8.25 7 16.5 7 25 C5.35 25 3.7 25 2 25 C1.67 21.37 1.34 17.74 1 14 C0.01 14.495 0.01 14.495 -1 15 C-1.33 14.34 -1.66 13.68 -2 13 C-2.99 13.66 -3.98 14.32 -5 15 C-3.33333333 10 -1.66666667 5 0 0 Z " fill="#E5E6F1" transform="translate(158,112)"/>
<path d="M0 0 C1.87109375 0.31640625 1.87109375 0.31640625 3.80859375 1.44140625 C5.28740767 4.05107787 5.62323074 6.3420501 5.87109375 9.31640625 C5.54109375 10.30640625 5.21109375 11.29640625 4.87109375 12.31640625 C4.21109375 12.31640625 3.55109375 12.31640625 2.87109375 12.31640625 C2.87109375 12.97640625 2.87109375 13.63640625 2.87109375 14.31640625 C-5.34215128 14.9362738 -5.34215128 14.9362738 -8.19140625 12.69140625 C-9.7310622 8.79094452 -9.75932162 5.81364275 -8.12890625 1.94140625 C-5.41734755 -0.26173519 -3.41753417 -0.19439185 0 0 Z M-4.12890625 1.31640625 C-0.12890625 2.31640625 -0.12890625 2.31640625 -0.12890625 2.31640625 Z M-6.12890625 3.31640625 C-6.78890625 4.96640625 -7.44890625 6.61640625 -8.12890625 8.31640625 C-7.13890625 9.30640625 -6.14890625 10.29640625 -5.12890625 11.31640625 C-5.12890625 8.67640625 -5.12890625 6.03640625 -5.12890625 3.31640625 C-5.45890625 3.31640625 -5.78890625 3.31640625 -6.12890625 3.31640625 Z M1.87109375 3.31640625 C1.19308341 6.21713806 1.19308341 6.21713806 0.87109375 9.31640625 C1.53109375 9.97640625 2.19109375 10.63640625 2.87109375 11.31640625 C3.54910409 8.41567444 3.54910409 8.41567444 3.87109375 5.31640625 C3.21109375 4.65640625 2.55109375 3.99640625 1.87109375 3.31640625 Z M-2.12890625 9.31640625 C-2.12890625 9.97640625 -2.12890625 10.63640625 -2.12890625 11.31640625 C-3.11890625 11.64640625 -4.10890625 11.97640625 -5.12890625 12.31640625 C-3.23711422 12.99788855 -3.23711422 12.99788855 -1.12890625 13.31640625 C-0.46890625 12.65640625 0.19109375 11.99640625 0.87109375 11.31640625 C0.21109375 11.31640625 -0.44890625 11.31640625 -1.12890625 11.31640625 C-1.45890625 10.65640625 -1.78890625 9.99640625 -2.12890625 9.31640625 Z " fill="#FBFBFC" transform="translate(306.12890625,56.68359375)"/>
<path d="M0 0 C1.32 0.33 2.64 0.66 4 1 C4.33 2.32 4.66 3.64 5 5 C5.4125 4.175 5.825 3.35 6.25 2.5 C6.8275 1.675 7.405 0.85 8 0 C9.32 0 10.64 0 12 0 C11.34 3.96 10.68 7.92 10 12 C7.69 12 5.38 12 3 12 C2.67 11.34 2.34 10.68 2 10 C1.67 10.66 1.34 11.32 1 12 C0.01 12 -0.98 12 -2 12 C-1.44687265 7.97007218 -0.8441938 3.97977076 0 0 Z M7 8 C8 10 8 10 8 10 Z " fill="#F27C80" transform="translate(98,144)"/>
<path d="M0 0 C1.9453125 -0.29296875 1.9453125 -0.29296875 4.125 -0.1875 C5.40375 -0.125625 6.6825 -0.06375 8 0 C9.37553268 3.82092412 8.81309902 7.08234111 8 11 C5.20129973 12.39935013 3.09501208 12.25265405 0 12 C-1.9375 10.875 -1.9375 10.875 -3 9 C-2.75921963 5.14751405 -2.15973378 3.23960066 0 0 Z M1.3125 3.25 C0.879375 3.8275 0.44625 4.405 0 5 C0.22757731 7.16299211 0.22757731 7.16299211 1 9 C2.32 9 3.64 9 5 9 C4.01 8.67 3.02 8.34 2 8 C2 7.01 2 6.02 2 5 C3.32 5 4.64 5 6 5 C5.67 4.01 5.34 3.02 5 2 C2.9178462 1.80159082 2.9178462 1.80159082 1.3125 3.25 Z " fill="#F48B8E" transform="translate(251,144)"/>
<path d="M0 0 C2.97 0 5.94 0 9 0 C9.95585284 3.7172055 9.90395705 6.28373213 9 10 C9 10.66 9 11.32 9 12 C8.01 12 7.02 12 6 12 C5.34 10.68 4.68 9.36 4 8 C3.34 8 2.68 8 2 8 C1.67 9.32 1.34 10.64 1 12 C0.01 12 -0.98 12 -2 12 C-1.33333333 8 -0.66666667 4 0 0 Z M3 2 C3 2.99 3 3.98 3 5 C4.32 4.67 5.64 4.34 7 4 C7 3.34 7 2.68 7 2 C5.68 2 4.36 2 3 2 Z " fill="#F48B8E" transform="translate(134,144)"/>
<path d="M0 0 C1.175625 0.0825 2.35125 0.165 3.5625 0.25 C5.5625 3.25 5.5625 3.25 5.375 6.8125 C4.5625 10.25 4.5625 10.25 1.5625 12.25 C-0.48046875 12.4453125 -0.48046875 12.4453125 -2.625 12.375 C-4.5121875 12.313125 -4.5121875 12.313125 -6.4375 12.25 C-6.12980293 10.43667846 -5.81620936 8.62435655 -5.5 6.8125 C-5.23896484 5.29849609 -5.23896484 5.29849609 -4.97265625 3.75390625 C-4.15978504 -0.04938167 -4.07396958 0.2962887 0 0 Z M-1.4375 2.25 C-2.0975 4.89 -2.7575 7.53 -3.4375 10.25 C0.5339169 9.62158027 0.5339169 9.62158027 2.5625 7.25 C2.24208603 4.64719432 2.24208603 4.64719432 1.5625 2.25 C0.5725 2.25 -0.4175 2.25 -1.4375 2.25 Z " fill="#F59296" transform="translate(193.4375,143.75)"/>
<path d="M0 0 C3.375 -0.125 3.375 -0.125 7 0 C9 2 9 2 9.3125 5.4375 C9 9 9 9 7.875 10.9375 C5.1769493 12.46639539 3.04470288 12.25912365 0 12 C-0.66 11.67 -1.32 11.34 -2 11 C-2.99444068 7.65506316 -3.10348268 5.31044803 -2 2 C-1.34 2 -0.68 2 0 2 C0 1.34 0 0.68 0 0 Z M3 2 C1.33378575 3.1645201 1.33378575 3.1645201 0 5 C0.23043864 7.65466049 0.23043864 7.65466049 1 10 C3.75641416 9.50243908 3.75641416 9.50243908 6 8 C6.04063832 6.33382885 6.042721 4.66611905 6 3 C5.01 2.67 4.02 2.34 3 2 Z " fill="#F16F74" transform="translate(81,144)"/>
<path d="M0 0 C2.64 0 5.28 0 8 0 C8.33 1.32 8.66 2.64 9 4 C6.83125748 3.49396008 5.00032373 3.00016187 3 2 C4.63412443 3.70840281 5.86906094 4.93453047 8 6 C8 7.65 8 9.3 8 11 C5.26094655 12.36952673 3.02912668 12.12621361 0 12 C-0.66 11.67 -1.32 11.34 -2 11 C-2 9.68 -2 8.36 -2 7 C-1.01 7 -0.02 7 1 7 C1.33 7.66 1.66 8.32 2 9 C2.99 9.33 3.98 9.66 5 10 C5 9.34 5 8.68 5 8 C2.525 7.01 2.525 7.01 0 6 C0 4.02 0 2.04 0 0 Z " fill="#F49194" transform="translate(162,144)"/>
<path d="M0 0 C2.31 0 4.62 0 7 0 C7.33 1.32 7.66 2.64 8 4 C7.01 4 6.02 4 5 4 C5 3.34 5 2.68 5 2 C4.01 2.495 4.01 2.495 3 3 C5.475 4.98 5.475 4.98 8 7 C7.34 8.65 6.68 10.3 6 12 C0.25 12.125 0.25 12.125 -2 11 C-2 9.68 -2 8.36 -2 7 C-1.01 7.33 -0.02 7.66 1 8 C1 8.66 1 9.32 1 10 C1.99 9.67 2.98 9.34 4 9 C2.35 7.68 0.7 6.36 -1 5 C-0.67 3.35 -0.34 1.7 0 0 Z " fill="#F48A8E" transform="translate(48,144)"/>
<path d="M0 0 C0.99 0 1.98 0 3 0 C2.67 1.65 2.34 3.3 2 5 C3.65 5 5.3 5 7 5 C7 3.35 7 1.7 7 0 C7.99 0 8.98 0 10 0 C9 8.57142857 9 8.57142857 8 12 C7.01 12 6.02 12 5 12 C5.33 10.35 5.66 8.7 6 7 C4.68 7 3.36 7 2 7 C1.67 8.65 1.34 10.3 1 12 C0.01 12 -0.98 12 -2 12 C-1.34 8.04 -0.68 4.08 0 0 Z " fill="#F2797E" transform="translate(268,144)"/>
<path d="M0 0 C3.3 0 6.6 0 10 0 C10 0.66 10 1.32 10 2 C8.865625 2.12375 7.73125 2.2475 6.5625 2.375 C4.7990625 2.684375 4.7990625 2.684375 3 3 C2.67 3.66 2.34 4.32 2 5 C3.98 5 5.96 5 8 5 C8 5.66 8 6.32 8 7 C6.02 7 4.04 7 2 7 C2 7.66 2 8.32 2 9 C4.97 9.495 4.97 9.495 8 10 C8 10.66 8 11.32 8 12 C4.7 12 1.4 12 -2 12 C-1.34 8.04 -0.68 4.08 0 0 Z " fill="#F27276" transform="translate(207,144)"/>
<path d="M0 0 C1.23556641 0.01740234 1.23556641 0.01740234 2.49609375 0.03515625 C3.32238281 0.04417969 4.14867188 0.05320313 5 0.0625 C5.63808594 0.07410156 6.27617188 0.08570313 6.93359375 0.09765625 C6.93359375 0.75765625 6.93359375 1.41765625 6.93359375 2.09765625 C4.62359375 2.09765625 2.31359375 2.09765625 -0.06640625 2.09765625 C-0.06640625 3.08765625 -0.06640625 4.07765625 -0.06640625 5.09765625 C1.91359375 5.09765625 3.89359375 5.09765625 5.93359375 5.09765625 C5.93359375 5.75765625 5.93359375 6.41765625 5.93359375 7.09765625 C3.62359375 7.09765625 1.31359375 7.09765625 -1.06640625 7.09765625 C-1.06640625 7.75765625 -1.06640625 8.41765625 -1.06640625 9.09765625 C1.90359375 9.59265625 1.90359375 9.59265625 4.93359375 10.09765625 C4.93359375 10.75765625 4.93359375 11.41765625 4.93359375 12.09765625 C1.63359375 12.09765625 -1.66640625 12.09765625 -5.06640625 12.09765625 C-4.75870918 10.28433471 -4.44511561 8.4720128 -4.12890625 6.66015625 C-3.86787109 5.14615234 -3.86787109 5.14615234 -3.6015625 3.6015625 C-2.86070054 0.13519379 -2.86070054 0.13519379 0 0 Z " fill="#F4898D" transform="translate(120.06640625,143.90234375)"/>
<path d="M0 0 C0.99 0 1.98 0 3 0 C2.67 2.97 2.34 5.94 2 9 C2.66 9 3.32 9 4 9 C4.99 6.03 5.98 3.06 7 0 C7.99 0 8.98 0 10 0 C9.71788123 1.6266848 9.42397625 3.25132896 9.125 4.875 C8.96257813 5.77992188 8.80015625 6.68484375 8.6328125 7.6171875 C8 10 8 10 6 12 C2.9375 12.1875 2.9375 12.1875 0 12 C-1 11 -1 11 -1.1328125 9.00390625 C-1.13023438 8.19824219 -1.12765625 7.39257812 -1.125 6.5625 C-1.12757812 5.75941406 -1.13015625 4.95632812 -1.1328125 4.12890625 C-1 2 -1 2 0 0 Z " fill="#F48B8F" transform="translate(30,144)"/>
<path d="M0 0 C1.9453125 -0.29296875 1.9453125 -0.29296875 4.125 -0.1875 C5.40375 -0.125625 6.6825 -0.06375 8 0 C8.33 1.32 8.66 2.64 9 4 C8.01 4.33 7.02 4.66 6 5 C5.67 4.34 5.34 3.68 5 3 C3.02 3.99 3.02 3.99 1 5 C1.33 6.32 1.66 7.64 2 9 C2.66 9 3.32 9 4 9 C4.33 8.34 4.66 7.68 5 7 C5.99 7 6.98 7 8 7 C7.67 8.32 7.34 9.64 7 11 C3.625 11.625 3.625 11.625 0 12 C-2 10 -2 10 -2.25 6.5625 C-2 3 -2 3 0 0 Z " fill="#F38185" transform="translate(13,144)"/>
<path d="M0 0 C1.32 0 2.64 0 4 0 C3.34 3.96 2.68 7.92 2 12 C-1 12 -1 12 -2.75 10.75 C-4 9 -4 9 -3.875 7.125 C-2.79203254 4.49493618 -1.71228021 2.28304028 0 0 Z M-1 8 C0 10 0 10 0 10 Z " fill="#F6A6A9" transform="translate(106,144)"/>
<path d="M0 0 C0.33 1.65 0.66 3.3 1 5 C-0.87511574 5 -2.75041553 4.98213296 -4.625 4.9375 C-6.95562735 4.72620721 -6.95562735 4.72620721 -8 6 C-6.02 6.495 -6.02 6.495 -4 7 C-4.33 7.66 -4.66 8.32 -5 9 C-6.32 9.33 -7.64 9.66 -9 10 C-9 7.03 -9 4.06 -9 1 C-3.375 -1.125 -3.375 -1.125 0 0 Z " fill="#EFEFF6" transform="translate(310,58)"/>
<path d="M0 0 C3.3 0 6.6 0 10 0 C10 0.66 10 1.32 10 2 C8.68 2 7.36 2 6 2 C5.67 4.97 5.34 7.94 5 11 C4.01 11.33 3.02 11.66 2 12 C1.875 5.25 1.875 5.25 3 3 C2.01 2.67 1.02 2.34 0 2 C0 1.34 0 0.68 0 0 Z " fill="#F27478" transform="translate(285,144)"/>
<path d="M0 0 C3.3 0 6.6 0 10 0 C10 0.66 10 1.32 10 2 C9.01 2.33 8.02 2.66 7 3 C6.19436362 5.10584438 6.19436362 5.10584438 5.8125 7.5625 C5.65394531 8.38878906 5.49539062 9.21507812 5.33203125 10.06640625 C5.22246094 10.70449219 5.11289063 11.34257812 5 12 C4.01 12 3.02 12 2 12 C2.875 4.25 2.875 4.25 4 2 C2.68 2 1.36 2 0 2 C0 1.34 0 0.68 0 0 Z " fill="#F17175" transform="translate(63,144)"/>
<path d="M0 0 C2.36038857 3.54058286 3.69776886 7.09806253 5.1875 11.0625 C5.47302734 11.79533203 5.75855469 12.52816406 6.05273438 13.28320312 C6.76356416 15.16664262 7.38849705 17.08200952 8 19 C7.67 19.66 7.34 20.32 7 21 C5.35 17.04 3.7 13.08 2 9 C1.67 12.96 1.34 16.92 1 21 C0.67 21 0.34 21 0 21 C0 14.07 0 7.14 0 0 Z " fill="#E1E1EE" transform="translate(142,116)"/>
<path d="M0 0 C0.99 0.33 1.98 0.66 3 1 C2.34 3.97 1.68 6.94 1 10 C2.98 10 4.96 10 7 10 C6.67 10.66 6.34 11.32 6 12 C3.03 12 0.06 12 -3 12 C-2.01 8.04 -1.02 4.08 0 0 Z " fill="#F38488" transform="translate(224,144)"/>
<path d="M0 0 C3.375 -0.125 3.375 -0.125 7 0 C9 2 9 2 9.125 5.625 C9.08375 6.73875 9.0425 7.8525 9 9 C6 7 6 7 5.3125 4.875 C5.209375 4.25625 5.10625 3.6375 5 3 C3.68 3 2.36 3 1 3 C0.67 3.66 0.34 4.32 0 5 C-0.66 4.67 -1.32 4.34 -2 4 C-2 3.34 -2 2.68 -2 2 C-1.34 2 -0.68 2 0 2 C0 1.34 0 0.68 0 0 Z " fill="#F59A9D" transform="translate(81,144)"/>
<path d="M0 0 C0.99 0 1.98 0 3 0 C2 8.57142857 2 8.57142857 1 12 C0.01 12 -0.98 12 -2 12 C-1.44687265 7.97007218 -0.8441938 3.97977076 0 0 Z " fill="#F49195" transform="translate(239,144)"/>
<path d="M0 0 C3.375 -0.1875 3.375 -0.1875 7 0 C9 3 9 3 8.75 5.625 C8.5025 6.40875 8.255 7.1925 8 8 C7.01 8.495 7.01 8.495 6 9 C5.67 7.02 5.34 5.04 5 3 C3.68 2.67 2.36 2.34 1 2 C0.67 2.99 0.34 3.98 0 5 C0 3.35 0 1.7 0 0 Z " fill="#F16A6F" transform="translate(190,144)"/>
<path d="M0 0 C0.99 0 1.98 0 3 0 C2.90460937 0.62648437 2.80921875 1.25296875 2.7109375 1.8984375 C2.60007813 2.71570313 2.48921875 3.53296875 2.375 4.375 C2.25898437 5.18710938 2.14296875 5.99921875 2.0234375 6.8359375 C2.01570313 7.55007812 2.00796875 8.26421875 2 9 C2.66 9.66 3.32 10.32 4 11 C2.35 11 0.7 11 -1 11 C-1.0270043 9.54176788 -1.04639787 8.08339325 -1.0625 6.625 C-1.07410156 5.81289062 -1.08570312 5.00078125 -1.09765625 4.1640625 C-1 2 -1 2 0 0 Z " fill="#F2787D" transform="translate(30,144)"/>
<path d="M0 0 C2.97 0 5.94 0 9 0 C9 0.66 9 1.32 9 2 C6.69 2 4.38 2 2 2 C2 2.99 2 3.98 2 5 C3.65 5 5.3 5 7 5 C7 5.33 7 5.66 7 6 C4.69 6 2.38 6 0 6 C0 4.02 0 2.04 0 0 Z " fill="#F06166" transform="translate(118,144)"/>
<path d="M0 0 C3.3 0 6.6 0 10 0 C10 0.66 10 1.32 10 2 C8.39125 2.12375 8.39125 2.12375 6.75 2.25 C2.7261549 3.05476902 1.51830747 3.87729874 -1 7 C-0.67 4.69 -0.34 2.38 0 0 Z " fill="#F3878A" transform="translate(207,144)"/>
<path d="M0 0 C1.98 0 3.96 0 6 0 C6 0.33 6 0.66 6 1 C4.35 1 2.7 1 1 1 C0.67 4.3 0.34 7.6 0 11 C-0.99 11 -1.98 11 -3 11 C-2.44894091 7.0507432 -1.61064629 3.65079826 0 0 Z " fill="#F16B70" transform="translate(135,145)"/>
<path d="M0 0 C2.64 0 5.28 0 8 0 C8.33 1.32 8.66 2.64 9 4 C6.61435923 3.42415568 4.33317216 2.77772405 2 2 C1.67 2.99 1.34 3.98 1 5 C0.67 5 0.34 5 0 5 C0 3.35 0 1.7 0 0 Z " fill="#F38084" transform="translate(162,144)"/>
<path d="M0 0 C1.79244141 0.01740234 1.79244141 0.01740234 3.62109375 0.03515625 C5.41740234 0.04869141 5.41740234 0.04869141 7.25 0.0625 C8.17683594 0.07410156 9.10367188 0.08570313 10.05859375 0.09765625 C10.05859375 0.42765625 10.05859375 0.75765625 10.05859375 1.09765625 C9.32253906 1.1234375 8.58648437 1.14921875 7.828125 1.17578125 C0.13918219 1.58825668 0.13918219 1.58825668 -5.94140625 6.09765625 C-3.64266867 0.12093853 -3.64266867 0.12093853 0 0 Z " fill="#ACAFD2" transform="translate(103.94140625,63.90234375)"/>
<path d="M0 0 C0.66 0.66 1.32 1.32 2 2 C5.08347826 2.16681109 5.08347826 2.16681109 8 2 C7.67 2.66 7.34 3.32 7 4 C5.68 3.67 4.36 3.34 3 3 C2.67 4.65 2.34 6.3 2 8 C1.01 8 0.02 8 -1 8 C-0.67 5.36 -0.34 2.72 0 0 Z " fill="#F7A9AB" transform="translate(267,148)"/>
<path d="M0 0 C2 2 2 2 2.125 5.125 C2.08375 6.07375 2.0425 7.0225 2 8 C1.01 8.33 0.02 8.66 -1 9 C-1.125 2.25 -1.125 2.25 0 0 Z " fill="#F48B8F" transform="translate(288,147)"/>
<path d="M0 0 C1.32 0 2.64 0 4 0 C3.38722388 2.96175123 2.74627478 4.38058783 1 7 C0.34 6.67 -0.32 6.34 -1 6 C-0.67 4.02 -0.34 2.04 0 0 Z " fill="#F1676C" transform="translate(106,144)"/>
<path d="M0 0 C0.33 0 0.66 0 1 0 C1 1.65 1 3.3 1 5 C2.98 5.495 2.98 5.495 5 6 C4.67 6.66 4.34 7.32 4 8 C2.68 8.33 1.36 8.66 0 9 C0 6.03 0 3.06 0 0 Z " fill="#DEDFED" transform="translate(301,59)"/>
<path d="M0 0 C-0.33 1.32 -0.66 2.64 -1 4 C-3.31 4.33 -5.62 4.66 -8 5 C-3.375 0 -3.375 0 0 0 Z " fill="#F48B8F" transform="translate(21,151)"/>
<path d="M0 0 C0.99 0.33 1.98 0.66 3 1 C3 1.66 3 2.32 3 3 C4.32 3.33 5.64 3.66 7 4 C2.25 5.125 2.25 5.125 0 4 C0 2.68 0 1.36 0 0 Z " fill="#F2787C" transform="translate(46,151)"/>
<path d="M0 0 C1.98 0.495 1.98 0.495 4 1 C3.34 2.32 2.68 3.64 2 5 C1.01 4.67 0.02 4.34 -1 4 C-0.67 2.68 -0.34 1.36 0 0 Z " fill="#FEFEFE" transform="translate(151,157)"/>
<path d="M0 0 C2.1519437 3.22791555 2.20086443 4.28400809 2 8 C1.01 8 0.02 8 -1 8 C-0.67 5.36 -0.34 2.72 0 0 Z " fill="#F5989B" transform="translate(66,148)"/>
<path d="M0 0 C0.99 0 1.98 0 3 0 C2.25 5.75 2.25 5.75 0 8 C0 5.36 0 2.72 0 0 Z " fill="#F1696E" transform="translate(268,144)"/>
<path d="M0 0 C0.66 0 1.32 0 2 0 C1.67 1.65 1.34 3.3 1 5 C0.34 5 -0.32 5 -1 5 C-0.67 3.35 -0.34 1.7 0 0 Z " fill="#F6A6A9" transform="translate(152,144)"/>
</svg>
