<?xml version="1.0" encoding="UTF-8"?>
<svg version="1.1" xmlns="http://www.w3.org/2000/svg" width="300" height="250">
<path d="M0 0 C2.64 0 5.28 0 8 0 C8.33 2.31 8.66 4.62 9 7 C9.25652344 6.4946875 9.51304688 5.989375 9.77734375 5.46875 C11.04080542 3.32469383 12.15485404 1.68085214 14 0 C17.08355042 -0.61361622 19.89810712 -0.42575 23 0 C22.20994338 1.43838552 21.41788955 2.87567415 20.625 4.3125 C20.18414062 5.11300781 19.74328125 5.91351563 19.2890625 6.73828125 C18.26486665 8.53527943 17.14732862 10.27900708 16 12 C16.1855164 14.87550418 16.98516893 15.98269708 18.875 18.1875 C20.95938454 20.19482151 20.95938454 20.19482151 24 21 C24.26554687 19.81921875 24.53109375 18.6384375 24.8046875 17.421875 C25.16119002 15.86452189 25.51797572 14.30723358 25.875 12.75 C26.04902344 11.97269531 26.22304687 11.19539063 26.40234375 10.39453125 C26.57636719 9.64042969 26.75039062 8.88632813 26.9296875 8.109375 C27.08679199 7.41811523 27.24389648 6.72685547 27.40576172 6.01464844 C28 4 28 4 30 0 C33.63 0 37.26 0 41 0 C48.45650373 18.64125932 48.45650373 18.64125932 48 27 C45.36 27 42.72 27 40 27 C39.773125 26.360625 39.54625 25.72125 39.3125 25.0625 C38.14749104 22.72806339 38.14749104 22.72806339 35.375 22.25 C34.59125 22.1675 33.8075 22.085 33 22 C33.061875 22.763125 33.12375 23.52625 33.1875 24.3125 C33 27 33 27 31.984375 28.6484375 C28.89325174 30.75380885 25.66617977 30.39315532 22.0625 30.3125 C20.98838867 30.31733398 20.98838867 30.31733398 19.89257812 30.32226562 C16.12035497 30.28380923 13.19858855 30.09620294 10 28 C9.34 28.66 8.68 29.32 8 30 C5.23474281 30.35452015 3.66914082 30.48547875 1.37402344 28.8203125 C-0.48745987 26.35421094 -0.44388096 24.63396568 -0.546875 21.5625 C-0.58683594 20.50289062 -0.62679687 19.44328125 -0.66796875 18.3515625 C-0.69503906 17.24554688 -0.72210938 16.13953125 -0.75 15 C-0.79253906 13.89398438 -0.83507812 12.78796875 -0.87890625 11.6484375 C-1.14835963 3.4450789 -1.14835963 3.4450789 0 0 Z M35 7 C34.34 9.97 33.68 12.94 33 16 C34.32 16 35.64 16 37 16 C36.67 13.03 36.34 10.06 36 7 C35.67 7 35.34 7 35 7 Z M8 18 C8.33 18.99 8.66 19.98 9 21 C9 20.01 9 19.02 9 18 C8.67 18 8.34 18 8 18 Z " fill="#716E9E" transform="translate(99,92)"/>
<path d="M0 0 C0 4.83790022 -1.7202248 6.68995796 -4.625 10.25 C-5.0785083 10.8262915 -5.5320166 11.40258301 -5.99926758 11.99633789 C-7.97398965 14.5038378 -9.97975309 16.97594466 -12.03515625 19.41796875 C-15.29154084 23.33090506 -15.29154084 23.33090506 -16.125 28.25 C-14.8805343 31.29202727 -13.41650845 32.81734721 -11 35 C-11 35.66 -11 36.32 -11 37 C-9.515 37.495 -9.515 37.495 -8 38 C-5.80859375 40.29296875 -5.80859375 40.29296875 -3.4375 43.1875 C-2.65246094 44.12980469 -1.86742187 45.07210937 -1.05859375 46.04296875 C1.00112442 49.00161515 2.05212225 51.54152713 3 55 C-10.73322153 56.51655207 -10.73322153 56.51655207 -15.75 53.16015625 C-18.05494253 50.55474799 -20.02622822 47.86368045 -22 45 C-23.61198818 43.03094221 -25.23689239 41.07238232 -26.875 39.125 C-28.25879123 37.42377996 -29.6347609 35.71614393 -31 34 C-31.57492188 33.28714844 -32.14984375 32.57429688 -32.7421875 31.83984375 C-34.39951678 29.41561365 -34.29557003 27.88180782 -34 25 C-33.00102287 22.00306862 -32.34869747 20.97290587 -30 19 C-29.34 19 -28.68 19 -28 19 C-27.76410156 18.46632813 -27.52820313 17.93265625 -27.28515625 17.3828125 C-25.63114816 14.31611057 -23.5569869 11.62731949 -21.4375 8.875 C-18.46232182 5.10438856 -18.46232182 5.10438856 -16 1 C-10.62136627 0.05638005 -5.45066266 -0.09733326 0 0 Z " fill="#F7A723" transform="translate(96,91)"/>
<path d="M0 0 C0.67675781 -0.00386719 1.35351562 -0.00773437 2.05078125 -0.01171875 C5.14073767 -0.00562416 7.54679311 0.1405977 10.5 1.125 C8.87545276 4.75430766 6.65412626 7.71856212 4.25 10.875 C3.65372803 11.66898193 3.65372803 11.66898193 3.04541016 12.47900391 C1.25734242 14.85467242 -0.55654645 17.19281069 -2.4609375 19.4765625 C-3.01007812 20.14429687 -3.55921875 20.81203125 -4.125 21.5 C-4.61226562 22.06460938 -5.09953125 22.62921875 -5.6015625 23.2109375 C-7.0276605 26.24914629 -6.49544575 27.94886961 -5.5 31.125 C-3.82048604 33.62084267 -1.8487431 35.79113211 0.1875 38 C1.28160428 39.23029983 2.37406697 40.46206158 3.46484375 41.6953125 C3.98933105 42.28344727 4.51381836 42.87158203 5.05419922 43.47753906 C12.5 51.96187943 12.5 51.96187943 12.5 55.125 C4.91 55.125 -2.68 55.125 -10.5 55.125 C-10.5 38.625 -10.5 22.125 -10.5 5.125 C-11.49 4.795 -12.48 4.465 -13.5 4.125 C-12.51 3.795 -11.52 3.465 -10.5 3.125 C-10.5 2.465 -10.5 1.805 -10.5 1.125 C-6.94086771 -0.06137743 -3.701855 -0.02115346 0 0 Z " fill="#E47075" transform="translate(58.5,90.875)"/>
<path d="M0 0 C3.63 0 7.26 0 11 0 C12.98 4.62 14.96 9.24 17 14 C17.33 9.38 17.66 4.76 18 0 C20.31 0 22.62 0 25 0 C25.91491538 3.12043384 26.12871801 5.92133362 26.1328125 9.16796875 C26.13474609 10.63073242 26.13474609 10.63073242 26.13671875 12.12304688 C26.13285156 13.13431641 26.12898438 14.14558594 26.125 15.1875 C26.13080078 16.72180664 26.13080078 16.72180664 26.13671875 18.28710938 C26.13542969 19.25841797 26.13414062 20.22972656 26.1328125 21.23046875 C26.13168457 22.12145264 26.13055664 23.01243652 26.12939453 23.93041992 C26 26 26 26 25 27 C21.3308423 27.14310287 17.67284559 27.04221662 14 27 C12.02 22.05 10.04 17.1 8 12 C7.67 16.95 7.34 21.9 7 27 C4.69 27 2.38 27 0 27 C-0.96648277 24.10055169 -1.12878732 22.2341852 -1.1328125 19.21875 C-1.13410156 18.29449219 -1.13539063 17.37023437 -1.13671875 16.41796875 C-1.13091797 14.97357422 -1.13091797 14.97357422 -1.125 13.5 C-1.12886719 12.53707031 -1.13273438 11.57414062 -1.13671875 10.58203125 C-1.13542969 9.65777344 -1.13414062 8.73351562 -1.1328125 7.78125 C-1.13168457 6.93626953 -1.13055664 6.09128906 -1.12939453 5.22070312 C-1 3 -1 3 0 0 Z " fill="#5B588B" transform="translate(214,92)"/>
<path d="M0 0 C3.96 0 7.92 0 12 0 C13.17349137 3.74798773 14.33902858 7.49813485 15.5 11.25 C15.83386719 12.31347656 16.16773438 13.37695312 16.51171875 14.47265625 C16.82753906 15.49746094 17.14335937 16.52226563 17.46875 17.578125 C17.90864258 18.99206543 17.90864258 18.99206543 18.35742188 20.43457031 C19 23 19 23 19 27 C16.36 27 13.72 27 11 27 C10.505 24.525 10.505 24.525 10 22 C6.56206661 22.18129815 6.56206661 22.18129815 3 23 C1.48705712 24.93597032 1.48705712 24.93597032 1 27 C-1.64 27 -4.28 27 -7 27 C-4.76800066 17.97003311 -2.48979041 8.96324548 0 0 Z M6 8 C5.67 9.32 5.34 10.64 5 12 C5.66 11.67 6.32 11.34 7 11 C6.67 10.01 6.34 9.02 6 8 Z M6 12 C5.34 13.32 4.68 14.64 4 16 C5.32 16 6.64 16 8 16 C7.67 14.68 7.34 13.36 7 12 C6.67 12 6.34 12 6 12 Z " fill="#48467D" transform="translate(192,92)"/>
<path d="M0 0 C2.31 0 4.62 0 7 0 C7.33 2.31 7.66 4.62 8 7 C8.25652344 6.4946875 8.51304688 5.989375 8.77734375 5.46875 C10.04080542 3.32469383 11.15485404 1.68085214 13 0 C16.08355042 -0.61361622 18.89810712 -0.42575 22 0 C21.20994338 1.43838552 20.41788955 2.87567415 19.625 4.3125 C19.18414062 5.11300781 18.74328125 5.91351563 18.2890625 6.73828125 C17.26486665 8.53527943 16.14732862 10.27900708 15 12 C15.35894172 15.2239493 16.78499888 17.46128038 18.5625 20.125 C21 23.78470255 21 23.78470255 21 26 C15.84977895 26.61104318 15.84977895 26.61104318 13 26 C10.72859267 23.99296074 9.23092106 21.76365449 8 19 C8 18.01 8 17.02 8 16 C7.34 16 6.68 16 6 16 C6 19.3 6 22.6 6 26 C4.02 26 2.04 26 0 26 C0 17.42 0 8.84 0 0 Z " fill="#373270" transform="translate(100,92)"/>
<path d="M0 0 C2.97 0 5.94 0 9 0 C10.32 2.64 11.64 5.28 13 8 C14.32 5.36 15.64 2.72 17 0 C19.64 0 22.28 0 25 0 C24.42379369 4.019039 23.13110824 6.69268625 21 10.125 C17.80687674 15.73970238 17.02475463 20.60092775 17 27 C14.36 27 11.72 27 9 27 C9.020625 26.45214844 9.04125 25.90429688 9.0625 25.33984375 C8.85656906 17.42437333 5.56126128 11.81536683 1.71484375 5.125 C0 2 0 2 0 0 Z " fill="#676498" transform="translate(163,92)"/>
<path d="M0 0 C2.64 0 5.28 0 8 0 C8 6.6 8 13.2 8 20 C12.29 20 16.58 20 21 20 C20 26 20 26 19 27 C17.58429877 27.08651611 16.164405 27.10704904 14.74609375 27.09765625 C13.9770874 27.09515869 13.20808105 27.09266113 12.41577148 27.09008789 C11.43294189 27.08098389 10.4501123 27.07187988 9.4375 27.0625 C4.7659375 27.0315625 4.7659375 27.0315625 0 27 C0 18.09 0 9.18 0 0 Z " fill="#656396" transform="translate(150,92)"/>
<path d="M0 0 C0.33 0.66 0.66 1.32 1 2 C1.66 2 2.32 2 3 2 C1.42964199 7.27929568 -2.01389344 10.93739994 -5.5 15.0625 C-6.68056071 16.46713677 -7.8577712 17.87459765 -9.03125 19.28515625 C-9.81338867 20.21146851 -9.81338867 20.21146851 -10.61132812 21.15649414 C-12.72092201 23.95704678 -14.07090016 25.94474186 -13.83203125 29.5 C-12.88595364 32.34267452 -11.73303263 33.82744286 -9.6875 36 C-9.05199219 36.69222656 -8.41648437 37.38445312 -7.76171875 38.09765625 C-7.18035156 38.72542969 -6.59898438 39.35320312 -6 40 C-4.64613064 41.65002828 -3.31321858 43.3174387 -2 45 C-1.40703125 45.73734375 -0.8140625 46.4746875 -0.203125 47.234375 C0.44140625 48.04390625 1.0859375 48.8534375 1.75 49.6875 C2.67039062 50.83798828 2.67039062 50.83798828 3.609375 52.01171875 C5 54 5 54 5 56 C2.7578125 56.2890625 2.7578125 56.2890625 0 56 C-2.0703125 54.0859375 -2.0703125 54.0859375 -4.125 51.375 C-4.88941406 50.37984375 -5.65382813 49.3846875 -6.44140625 48.359375 C-6.84891113 47.81861328 -7.25641602 47.27785156 -7.67626953 46.72070312 C-9.0866144 44.88741086 -10.54911356 43.10705181 -12.02734375 41.328125 C-13.03923073 40.0938879 -14.05095195 38.85951489 -15.0625 37.625 C-15.55186035 37.04282715 -16.0412207 36.4606543 -16.54541016 35.86083984 C-18.47044379 33.46746171 -19.88742591 31.48309942 -20.58984375 28.46875 C-19.75011396 24.95411934 -17.76419959 22.59261293 -15.5 19.875 C-14.58179752 18.73430747 -13.66515592 17.59235692 -12.75 16.44921875 C-12.28851563 15.8773584 -11.82703125 15.30549805 -11.3515625 14.71630859 C-8.61305906 11.23876539 -6.12203989 7.58104501 -3.59375 3.94921875 C-3.0678125 3.30597656 -2.541875 2.66273437 -2 2 C-1.34 2 -0.68 2 0 2 C0 1.34 0 0.68 0 0 Z " fill="#6669A4" transform="translate(74,90)"/>
<path d="M0 0 C8.78070526 2.19517632 14.97166986 10.85674989 20 18 C20.33 19.32 20.66 20.64 21 22 C14.07 22 7.14 22 0 22 C0 14.74 0 7.48 0 0 Z " fill="#E3242C" transform="translate(49,123)"/>
<path d="M0 0 C2.97 0.495 2.97 0.495 6 1 C8.34690879 4.8041754 9.48365086 8.76314212 11 13 C12.65 9.04 14.3 5.08 16 1 C17.65 1 19.3 1 21 1 C21 6.94 21 12.88 21 19 C19.68 18.67 18.36 18.34 17 18 C17 16.02 17 14.04 17 12 C16.34 12 15.68 12 15 12 C14.34 14.31 13.68 16.62 13 19 C11.68 19 10.36 19 9 19 C8.01 16.69 7.02 14.38 6 12 C5.67 14.31 5.34 16.62 5 19 C3.68 19 2.36 19 1 19 C0.67 12.73 0.34 6.46 0 0 Z M17 7 C18 9 18 9 18 9 Z M16 9 C17 11 17 11 17 11 Z " fill="#9796B3" transform="translate(138,126)"/>
<path d="M0 0 C2.64 0 5.28 0 8 0 C8 8.91 8 17.82 8 27 C5.36 27 2.72 27 0 27 C0 18.09 0 9.18 0 0 Z " fill="#59578D" transform="translate(244,92)"/>
<path d="M0 0 C0.84119973 2.39957614 1.11193544 3.64922558 0.328125 6.10546875 C-0.02765625 6.79253906 -0.3834375 7.47960937 -0.75 8.1875 C-1.26820312 9.22970703 -1.26820312 9.22970703 -1.796875 10.29296875 C-3 12 -3 12 -6 13 C-6.33 13.66 -6.66 14.32 -7 15 C-5.68 14.34 -4.36 13.68 -3 13 C-3 13.66 -3 14.32 -3 15 C-0.13275314 14.42655063 0.8614515 14.1385485 3 12 C3.99 12.33 4.98 12.66 6 13 C4.79618552 15.49361571 3.54571278 17.68143083 2 20 C1.83300768 23.12521833 1.83300768 23.12521833 2 26 C1.01 26 0.02 26 -1 26 C-1.99 23.03 -2.98 20.06 -4 17 C-5.32 17.33 -6.64 17.66 -8 18 C-8 18.66 -8 19.32 -8 20 C-9.65 20.33 -11.3 20.66 -13 21 C-13 22.65 -13 24.3 -13 26 C-12.01 26 -11.02 26 -10 26 C-10 25.34 -10 24.68 -10 24 C-9.34 24 -8.68 24 -8 24 C-8.33 26.64 -8.66 29.28 -9 32 C-11.90802461 29.78071806 -13.95312762 28.07030857 -16 25 C-16.28386448 21.21514027 -16.11255954 18.30604816 -13.5625 15.3125 C-12 14 -12 14 -10 14 C-9.75507812 13.44828125 -9.51015625 12.8965625 -9.2578125 12.328125 C-7.74261886 9.52360509 -5.88915874 7.21896877 -3.875 4.75 C-3.15054688 3.85796875 -2.42609375 2.9659375 -1.6796875 2.046875 C-0.84824219 1.03367187 -0.84824219 1.03367187 0 0 Z " fill="#F3AD36" transform="translate(78,96)"/>
<path d="M0 0 C3.63 0 7.26 0 11 0 C13.44563344 5.70647802 14.42801938 9.79371906 14 16 C13.67 16.66 13.34 17.32 13 18 C11.68 18 10.36 18 9 18 C8.67 16.02 8.34 14.04 8 12 C7.01 11.67 6.02 11.34 5 11 C4.34 12.32 3.68 13.64 3 15 C3 13.68 3 12.36 3 11 C0.63158688 12.57894208 -1.06745228 13.9754262 -3 16 C-2.88544319 14.08268082 -2.75793742 12.1661325 -2.625 10.25 C-2.55539063 9.18265625 -2.48578125 8.1153125 -2.4140625 7.015625 C-2 4 -2 4 0 0 Z " fill="#646293" transform="translate(129,92)"/>
<path d="M0 0 C0.33 0 0.66 0 1 0 C1 8.58 1 17.16 1 26 C2.98 26 4.96 26 7 26 C7 22.7 7 19.4 7 16 C7.66 16 8.32 16 9 16 C9 17.32 9 18.64 9 20 C9.99 20.33 10.98 20.66 12 21 C13.1875 23.5625 13.1875 23.5625 14 26 C16.64 26 19.28 26 22 26 C21.01 24.02 20.02 22.04 19 20 C20.65 20.33 22.3 20.66 24 21 C24.33 20.34 24.66 19.68 25 19 C24.67 20.98 24.34 22.96 24 25 C25.98 25.33 27.96 25.66 30 26 C30.33 24.68 30.66 23.36 31 22 C31.66 22 32.32 22 33 22 C33.35825831 26.4185192 33.35825831 26.4185192 31.984375 28.6484375 C28.89325174 30.75380885 25.66617977 30.39315532 22.0625 30.3125 C20.98838867 30.31733398 20.98838867 30.31733398 19.89257812 30.32226562 C16.12035497 30.28380923 13.19858855 30.09620294 10 28 C9.34 28.66 8.68 29.32 8 30 C5.23474281 30.35452015 3.66914082 30.48547875 1.37402344 28.8203125 C-0.48745987 26.35421094 -0.44388096 24.63396568 -0.546875 21.5625 C-0.58683594 20.50289062 -0.62679687 19.44328125 -0.66796875 18.3515625 C-0.69503906 17.24554688 -0.72210938 16.13953125 -0.75 15 C-0.79253906 13.89398438 -0.83507812 12.78796875 -0.87890625 11.6484375 C-1.14835963 3.4450789 -1.14835963 3.4450789 0 0 Z " fill="#DDDDEC" transform="translate(99,92)"/>
<path d="M0 0 C5.61 0 11.22 0 17 0 C16.01948361 4.90258194 15.30095776 6.4989842 12 10 C11.34 10 10.68 10 10 10 C10 9.34 10 8.68 10 8 C9.01 8.495 9.01 8.495 8 9 C8 10.32 8 11.64 8 13 C6.02 13.99 6.02 13.99 4 15 C4 15.99 4 16.98 4 18 C2.68 18 1.36 18 0 18 C0 12.06 0 6.12 0 0 Z " fill="#E7212A" transform="translate(49,94)"/>
<path d="M0 0 C1.93681161 -0.08107583 3.8745934 -0.13922475 5.8125 -0.1875 C6.89144531 -0.22230469 7.97039062 -0.25710937 9.08203125 -0.29296875 C12 0 12 0 13.87109375 1.35546875 C15.45399372 3.66135418 15.27410689 5.25893108 15 8 C14.67 8.99 14.34 9.98 14 11 C14.27769908 13.3406065 14.60539977 15.67624308 15 18 C13.68 18 12.36 18 11 18 C10.34 16.02 9.68 14.04 9 12 C6.03 11.505 6.03 11.505 3 11 C3 13.31 3 15.62 3 18 C2.01 18 1.02 18 0 18 C-0.19620767 15.93831015 -0.38160753 13.87559002 -0.5625 11.8125 C-0.66691406 10.66394531 -0.77132812 9.51539063 -0.87890625 8.33203125 C-0.98859985 5.31368801 -0.74002389 2.91076064 0 0 Z M3 3 C3.33 4.65 3.66 6.3 4 8 C5.98 8 7.96 8 10 8 C10.33 6.35 10.66 4.7 11 3 C8.36 3 5.72 3 3 3 Z " fill="#7A779B" transform="translate(219,127)"/>
<path d="M0 0 C3.17030133 2.76385245 3.91484046 4.31872368 4.4375 8.5 C3.9421493 12.46280559 2.84563205 15.15436795 0 18 C-2.1796875 18.203125 -2.1796875 18.203125 -4.875 18.25 C-5.75929687 18.27578125 -6.64359375 18.3015625 -7.5546875 18.328125 C-10 18 -10 18 -11.765625 16.7578125 C-14.04235702 13.51563082 -14.11579035 9.87557126 -14 6 C-12.79071258 3.00860479 -11.75924934 1.59655306 -9.25 -0.375 C-5.81792041 -1.32835544 -3.42177384 -0.91654656 0 0 Z M-8 3 C-10.44897847 6.67346771 -10.31537716 8.66356399 -10 13 C-8.11499729 15.31563087 -8.11499729 15.31563087 -5 15.25 C-1.88500271 15.31563087 -1.88500271 15.31563087 0 13 C0.3176246 11.08993694 0.3176246 11.08993694 0.25 9 C0.25515625 8.29875 0.2603125 7.5975 0.265625 6.875 C0.15705515 4.7564331 0.15705515 4.7564331 -2 3 C-5 2.58333333 -5 2.58333333 -8 3 Z " fill="#908FB1" transform="translate(176,127)"/>
<path d="M0 0 C2.91352832 2.12608823 3.84290273 3.47260202 4.875 6.9375 C5.03926455 10.96198146 4.22187499 13.48091218 1.69921875 16.6171875 C-1.0137506 18.82498324 -3.46373117 18.47391737 -6.83984375 18.34765625 C-9 18 -9 18 -11.5 16.375 C-13.34433156 13.45480836 -13.85914846 11.45086274 -14 8 C-13.03603828 4.54580384 -11.8108456 2.24867648 -9 0 C-5.41563853 -1.19478716 -3.63093708 -0.96330984 0 0 Z M-9 4 C-10.19150921 8.36886712 -10.021829 10.95634201 -8 15 C-5.66705225 15.04241723 -3.33297433 15.04092937 -1 15 C0.25949049 13.96593327 0.25949049 13.96593327 0.09765625 11.71484375 C0.08605469 10.79832031 0.07445312 9.88179687 0.0625 8.9375 C0.04896484 7.55884766 0.04896484 7.55884766 0.03515625 6.15234375 C0.02355469 5.44207031 0.01195312 4.73179687 0 4 C-4.61507774 2.95785309 -4.61507774 2.95785309 -9 4 Z " fill="#5F5B84" transform="translate(211,127)"/>
<path d="M0 0 C1.98 0 3.96 0 6 0 C6.33 4.29 6.66 8.58 7 13 C7.99 13.33 8.98 13.66 10 14 C9.01 14.66 8.02 15.32 7 16 C6.41810734 18.42521494 6.41810734 18.42521494 6.3125 21.125 C6.24675781 22.03507812 6.18101563 22.94515625 6.11328125 23.8828125 C6.07589844 24.58148438 6.03851563 25.28015625 6 26 C4.02 26 2.04 26 0 26 C0 17.42 0 8.84 0 0 Z " fill="#2F2B6C" transform="translate(100,92)"/>
<path d="M0 0 C0.99386719 0.02707031 1.98773438 0.05414063 3.01171875 0.08203125 C4.15060547 0.13423828 4.15060547 0.13423828 5.3125 0.1875 C5.3125 1.1775 5.3125 2.1675 5.3125 3.1875 C0.8575 3.6825 0.8575 3.6825 -3.6875 4.1875 C-4.0175 5.1775 -4.3475 6.1675 -4.6875 7.1875 C-1.70898438 7.08984375 -1.70898438 7.08984375 1.26953125 6.9921875 C3.3125 7.1875 3.3125 7.1875 6.3125 9.1875 C6.625 12.6875 6.625 12.6875 6.3125 16.1875 C4.3125 18.1875 4.3125 18.1875 1.2734375 18.3828125 C0.09007812 18.35960937 -1.09328125 18.33640625 -2.3125 18.3125 C-3.50101563 18.29445312 -4.68953125 18.27640625 -5.9140625 18.2578125 C-6.82929688 18.23460937 -7.74453125 18.21140625 -8.6875 18.1875 C-8.6875 17.1975 -8.6875 16.2075 -8.6875 15.1875 C-5.3875 14.8575 -2.0875 14.5275 1.3125 14.1875 C1.6425 13.1975 1.9725 12.2075 2.3125 11.1875 C1.24 11.22875 0.1675 11.27 -0.9375 11.3125 C-4.34497485 11.1989175 -5.89489631 10.97476636 -8.6875 9.1875 C-9.05203202 3.7195197 -9.05203202 3.7195197 -7.53125 1.5 C-4.95755085 -0.33212482 -3.12239214 -0.11020208 0 0 Z " fill="#9995B7" transform="translate(245.6875,126.8125)"/>
<path d="M0 0 C7.37674304 4.21528174 11.27176397 7.81529191 14 16 C10.37 16 6.74 16 3 16 C3 15.34 3 14.68 3 14 C2.01 14 1.02 14 0 14 C0 12.68 0 11.36 0 10 C-0.99 9.67 -1.98 9.34 -3 9 C-3.9375 7.25 -3.9375 7.25 -4 5 C-2.0625 2.25 -2.0625 2.25 0 0 Z " fill="#F8A61D" transform="translate(80,127)"/>
<path d="M0 0 C1.53166168 4.08443115 0.63081652 7.79455657 0 12 C3.3 12 6.6 12 10 12 C10 11.01 10 10.02 10 9 C8.35 9 6.7 9 5 9 C5.33 7.35 5.66 5.7 6 4 C6.66 4.33 7.32 4.66 8 5 C8 5.66 8 6.32 8 7 C8.66 7.33 9.32 7.66 10 8 C10.33 7.01 10.66 6.02 11 5 C11 6.98 11 8.96 11 11 C12.98 11 14.96 11 17 11 C17.38218767 12.65614657 17.71395102 14.32457024 18 16 C17.67 16.33 17.34 16.66 17 17 C17.99 17.33 18.98 17.66 20 18 C19.67 16.02 19.34 14.04 19 12 C21 15 21 15 21 19 C18.36 19 15.72 19 13 19 C12.505 16.525 12.505 16.525 12 14 C8.56206661 14.18129815 8.56206661 14.18129815 5 15 C3.48705712 16.93597032 3.48705712 16.93597032 3 19 C0.36 19 -2.28 19 -5 19 C-4.35561067 16.39546825 -3.7095496 13.7913709 -3.0625 11.1875 C-2.88009766 10.44951172 -2.69769531 9.71152344 -2.50976562 8.95117188 C-1.7577385 5.92939016 -0.98514427 2.95543282 0 0 Z " fill="#74729E" transform="translate(190,100)"/>
<path d="M0 0 C1.7074998 1.28062485 3.37373596 2.61767557 5 4 C5 4.66 5 5.32 5 6 C5.99 6.33 6.98 6.66 8 7 C10.19140625 9.29296875 10.19140625 9.29296875 12.5625 12.1875 C13.34753906 13.12980469 14.13257812 14.07210937 14.94140625 15.04296875 C17.00112442 18.00161515 18.05212225 20.54152713 19 24 C16.39521117 24.0809313 13.79293347 24.14045434 11.1875 24.1875 C10.08051758 24.22520508 10.08051758 24.22520508 8.95117188 24.26367188 C3.49005469 24.33780469 3.49005469 24.33780469 0.98828125 22.61328125 C0 21 0 21 0 19 C0.99 19 1.98 19 3 19 C3 19.66 3 20.32 3 21 C6.63 21 10.26 21 14 21 C13.38125 20.0925 12.7625 19.185 12.125 18.25 C10 15 10 15 9.125 12.9375 C7.972546 10.68028236 7.972546 10.68028236 5 8.625 C1.77452664 5.80271081 0.95417416 4.1029489 0 0 Z " fill="#F0BD65" transform="translate(80,122)"/>
<path d="M0 0 C-3.09990301 10.09117362 -3.09990301 10.09117362 -6 14 C-6.66 14 -7.32 14 -8 14 C-8 17.3 -8 20.6 -8 24 C-9.98 24 -11.96 24 -14 24 C-14 21.03 -14 18.06 -14 15 C-12.68 14.34 -11.36 13.68 -10 13 C-7.41272404 10.89184922 -6.56583839 9.28186266 -6 6 C-6.66 5.67 -7.32 5.34 -8 5 C-7.67 3.35 -7.34 1.7 -7 0 C-3.86650268 -1.04449911 -3.01031744 -0.93423645 0 0 Z " fill="#2E2A67" transform="translate(187,94)"/>
<path d="M0 0 C1.65 0 3.3 0 5 0 C5 5.94 5 11.88 5 18 C3.68 17.67 2.36 17.34 1 17 C1 15.02 1 13.04 1 11 C0.34 11 -0.32 11 -1 11 C-1.33 12.65 -1.66 14.3 -2 16 C-2.33 15.34 -2.66 14.68 -3 14 C-3.99 14 -4.98 14 -6 14 C-4.16508812 9.25981099 -2.08058541 4.63586749 0 0 Z M1 6 C2 8 2 8 2 8 Z M0 8 C1 10 1 10 1 10 Z " fill="#7E7BA2" transform="translate(154,127)"/>
<path d="M0 0 C4.95 0 9.9 0 15 0 C15 0.99 15 1.98 15 3 C13.35 3 11.7 3 10 3 C10 7.95 10 12.9 10 18 C8.68 18 7.36 18 6 18 C6 13.05 6 8.1 6 3 C4.02 3 2.04 3 0 3 C0 2.01 0 1.02 0 0 Z " fill="#78759A" transform="translate(181,127)"/>
<path d="M0 0 C0.33 0 0.66 0 1 0 C1.33 2.31 1.66 4.62 2 7 C2.25652344 6.4946875 2.51304688 5.989375 2.77734375 5.46875 C4.04080542 3.32469383 5.15485404 1.68085214 7 0 C10.08355042 -0.61361622 12.89810712 -0.42575 16 0 C15.23570339 1.44098611 14.46327445 2.87766054 13.6875 4.3125 C13.25824219 5.11300781 12.82898438 5.91351563 12.38671875 6.73828125 C11.09940446 8.83787272 9.81593292 10.35447721 8 12 C7.67 10.68 7.34 9.36 7 8 C3.95865509 9.66924071 3.95865509 9.66924071 3 12 C2.01 11.34 1.02 10.68 0 10 C-0.29296875 7.6171875 -0.29296875 7.6171875 -0.1875 4.875 C-0.16042969 3.96492188 -0.13335937 3.05484375 -0.10546875 2.1171875 C-0.07066406 1.41851562 -0.03585938 0.71984375 0 0 Z " fill="#5A588E" transform="translate(106,92)"/>
<path d="M0 0 C1.62490954 -0.02698189 3.24994633 -0.04638757 4.875 -0.0625 C5.77992187 -0.07410156 6.68484375 -0.08570312 7.6171875 -0.09765625 C10 0 10 0 12 1 C10.63055898 3.94956528 9.12169591 6.52468811 7 9 C6.34 9 5.68 9 5 9 C5 8.34 5 7.68 5 7 C4.01 7.495 4.01 7.495 3 8 C2.34786708 10.02463255 2.34786708 10.02463255 2 12 C1 11 0 10 -1 9 C-0.91062197 7.47480724 -0.75462854 5.95318071 -0.5625 4.4375 C-0.46066406 3.61121094 -0.35882813 2.78492187 -0.25390625 1.93359375 C-0.17011719 1.29550781 -0.08632813 0.65742187 0 0 Z " fill="#E52528" transform="translate(54,95)"/>
<path d="M0 0 C2.475 0.99 2.475 0.99 5 2 C4.67 4.31 4.34 6.62 4 9 C5.65 9 7.3 9 9 9 C9 9.99 9 10.98 9 12 C9.66 12.33 10.32 12.66 11 13 C2.42857143 13.14285714 2.42857143 13.14285714 -1 12 C-2.36884358 7.48281619 -1.47075246 4.41225737 0 0 Z " fill="#2E2A6C" transform="translate(191,100)"/>
<path d="M0 0 C2.02054804 1.64169528 4.02043058 3.30911778 6 5 C6 5.33 6 5.66 6 6 C4.824375 6.12375 4.824375 6.12375 3.625 6.25 C0.85250896 6.72806339 0.85250896 6.72806339 -0.3125 9.0625 C-0.539375 9.701875 -0.76625 10.34125 -1 11 C-3.31 11 -5.62 11 -8 11 C-7.01 8.03 -6.02 5.06 -5 2 C-3.68 2 -2.36 2 -1 2 C-0.67 1.34 -0.34 0.68 0 0 Z " fill="#2F2C6C" transform="translate(130,107)"/>
<path d="M0 0 C0.99 0 1.98 0 3 0 C3 0.66 3 1.32 3 2 C3.99 2 4.98 2 6 2 C6 1.34 6 0.68 6 0 C6.99 0 7.98 0 9 0 C8.67 2.97 8.34 5.94 8 9 C5.03 9 2.06 9 -1 9 C-0.67 6.03 -0.34 3.06 0 0 Z " fill="#ECC7C6" transform="translate(110,150)"/>
<path d="M0 0 C2 3 2 3 1.625 6.1875 C1.41875 7.115625 1.2125 8.04375 1 9 C1.99 9 2.98 9 4 9 C4 6.03 4 3.06 4 0 C4.33 0 4.66 0 5 0 C5 6.27 5 12.54 5 19 C3.35 19 1.7 19 0 19 C0 12.73 0 6.46 0 0 Z " fill="#2D296A" transform="translate(215,99)"/>
<path d="M0 0 C2.97 0 5.94 0 9 0 C11.03435531 3.72965139 12 5.66905042 12 10 C10.68 10 9.36 10 8 10 C7.67 10.66 7.34 11.32 7 12 C5.74335022 9.09399739 5 7.20395416 5 4 C4.360625 3.896875 3.72125 3.79375 3.0625 3.6875 C2.381875 3.460625 1.70125 3.23375 1 3 C0.67 2.01 0.34 1.02 0 0 Z " fill="#585588" transform="translate(163,92)"/>
<path d="M0 0 C0.33 0 0.66 0 1 0 C1 7.92 1 15.84 1 24 C3.31 23.01 5.62 22.02 8 21 C10.43359375 20.70703125 10.43359375 20.70703125 12.4375 20.8125 C14.2009375 20.9053125 14.2009375 20.9053125 16 21 C16 22.32 16 23.64 16 25 C10.72 25 5.44 25 0 25 C0 16.75 0 8.5 0 0 Z " fill="#2C2865" transform="translate(151,93)"/>
<path d="M0 0 C1.50433594 0.01353516 1.50433594 0.01353516 3.0390625 0.02734375 C3.80992187 0.03894531 4.58078125 0.05054687 5.375 0.0625 C5.375 1.0525 5.375 2.0425 5.375 3.0625 C0.92 3.5575 0.92 3.5575 -3.625 4.0625 C-3.955 5.3825 -4.285 6.7025 -4.625 8.0625 C-2.645 8.0625 -0.665 8.0625 1.375 8.0625 C1.375 8.3925 1.375 8.7225 1.375 9.0625 C-4.77734375 9.16015625 -4.77734375 9.16015625 -6.625 9.0625 C-7.625 8.0625 -7.625 8.0625 -7.6875 4.5 C-7.666875 3.365625 -7.64625 2.23125 -7.625 1.0625 C-4.98041621 -0.25979189 -2.94738699 -0.03427194 0 0 Z " fill="#8784A7" transform="translate(245.625,126.9375)"/>
<path d="M0 0 C0.12375 1.2375 0.2475 2.475 0.375 3.75 C0.75746305 6.8762197 1.30549523 9.28879237 3 12 C1.35 12.33 -0.3 12.66 -2 13 C-1.67 11.68 -1.34 10.36 -1 9 C-2.32 9 -3.64 9 -5 9 C-5.33 9.99 -5.66 10.98 -6 12 C-6.33 10.68 -6.66 9.36 -7 8 C-6.34 7.67 -5.68 7.34 -5 7 C-5.99 6.01 -6.98 5.02 -8 4 C-7.01 3.67 -6.02 3.34 -5 3 C-0.92 0 -0.92 0 0 0 Z " fill="#373574" transform="translate(114,99)"/>
<path d="M0 0 C1.32 0 2.64 0 4 0 C5.80619523 4.46236469 6.11658501 7.31034294 5 12 C3.68 12 2.36 12 1 12 C-0.41404314 8.19975907 -1.34892324 5.07077118 -1 1 C-0.67 0.67 -0.34 0.34 0 0 Z " fill="#2D2B6C" transform="translate(137,98)"/>
<path d="M0 0 C0.67675781 -0.00386719 1.35351562 -0.00773437 2.05078125 -0.01171875 C5.14073767 -0.00562416 7.54679311 0.1405977 10.5 1.125 C9.84 2.445 9.18 3.765 8.5 5.125 C8.17 4.465 7.84 3.805 7.5 3.125 C1.89 3.125 -3.72 3.125 -9.5 3.125 C-9.5 5.105 -9.5 7.085 -9.5 9.125 C-9.603125 8.485625 -9.70625 7.84625 -9.8125 7.1875 C-10.039375 6.506875 -10.26625 5.82625 -10.5 5.125 C-11.49 4.795 -12.48 4.465 -13.5 4.125 C-12.51 3.795 -11.52 3.465 -10.5 3.125 C-10.5 2.465 -10.5 1.805 -10.5 1.125 C-6.94086771 -0.06137743 -3.701855 -0.02115346 0 0 Z " fill="#E98D92" transform="translate(58.5,90.875)"/>
<path d="M0 0 C0.66 0 1.32 0 2 0 C3.37535339 1.97133986 4.70211044 3.97681922 6 6 C7.11375 7.36125 7.11375 7.36125 8.25 8.75 C10 11 10 11 10 13 C7.73828125 13.25 7.73828125 13.25 5 13 C2.98046875 11.25 2.98046875 11.25 1.1875 9 C0.58292969 8.2575 -0.02164063 7.515 -0.64453125 6.75 C-1.09183594 6.1725 -1.53914063 5.595 -2 5 C-1.67 4.34 -1.34 3.68 -1 3 C-0.34 3.33 0.32 3.66 1 4 C0.67 2.68 0.34 1.36 0 0 Z " fill="#797DB0" transform="translate(69,133)"/>
<path d="M0 0 C4 1 4 1 5.4375 2.5625 C6.33031957 6.4313848 4.59101988 9.47580543 3 13 C2.01 13 1.02 13 0 13 C0 8.71 0 4.42 0 0 Z " fill="#E52129" transform="translate(49,123)"/>
<path d="M0 0 C1.4540625 0.0309375 1.4540625 0.0309375 2.9375 0.0625 C3.2675 1.3825 3.5975 2.7025 3.9375 4.0625 C3.2775 4.0625 2.6175 4.0625 1.9375 4.0625 C2.2675 5.7125 2.5975 7.3625 2.9375 9.0625 C1.9475 9.0625 0.9575 9.0625 -0.0625 9.0625 C-0.0625 8.0725 -0.0625 7.0825 -0.0625 6.0625 C-0.7225 6.0625 -1.3825 6.0625 -2.0625 6.0625 C-2.3925 7.0525 -2.7225 8.0425 -3.0625 9.0625 C-3.7225 9.0625 -4.3825 9.0625 -5.0625 9.0625 C-4.06477273 0.08295455 -4.06477273 0.08295455 0 0 Z " fill="#DA9BA1" transform="translate(140.0625,149.9375)"/>
<path d="M0 0 C0.66 0 1.32 0 2 0 C2.35740879 4.4080417 2.35740879 4.4080417 1 6.65625 C-2.16071096 8.77985268 -5.52083438 8.31239079 -9.1875 8.1875 C-10.31188477 8.16719727 -10.31188477 8.16719727 -11.45898438 8.14648438 C-13.30629767 8.11118539 -15.15324066 8.05737917 -17 8 C-16.67 7.01 -16.34 6.02 -16 5 C-11.05 5 -6.1 5 -1 5 C-0.67 3.35 -0.34 1.7 0 0 Z " fill="#F9F9FC" transform="translate(130,114)"/>
<path d="M0 0 C1.99954746 -0.04254356 4.00041636 -0.04080783 6 0 C6.33 0.33 6.66 0.66 7 1 C6.71269945 3.33944736 6.38063221 5.6739143 6 8 C3.625 9.0625 3.625 9.0625 1 10 C0.34 9.67 -0.32 9.34 -1 9 C-0.67 6.03 -0.34 3.06 0 0 Z M2 2 C2 3.65 2 5.3 2 7 C2.66 6.67 3.32 6.34 4 6 C4 4.68 4 3.36 4 2 C3.34 2 2.68 2 2 2 Z " fill="#EAC1C7" transform="translate(176,150)"/>
<path d="M0 0 C1 4 1 4 1 7 C1.66 5.68 2.32 4.36 3 3 C3.99 3 4.98 3 6 3 C6 4.65 6 6.3 6 8 C7.32 8 8.64 8 10 8 C10.33 6.68 10.66 5.36 11 4 C11.33 6.31 11.66 8.62 12 11 C11.071875 10.835 10.14375 10.67 9.1875 10.5 C6.04378647 9.92251612 6.04378647 9.92251612 3 10 C1.35 10 -0.3 10 -2 10 C-1.34 6.7 -0.68 3.4 0 0 Z " fill="#605C94" transform="translate(126,100)"/>
<path d="M0 0 C-1.56818272 5.452999 -3.03810217 9.76486783 -7 14 C-6.67 11.36 -6.34 8.72 -6 6 C-6.66 5.67 -7.32 5.34 -8 5 C-7.67 3.35 -7.34 1.7 -7 0 C-3.86650268 -1.04449911 -3.01031744 -0.93423645 0 0 Z " fill="#676492" transform="translate(187,94)"/>
<path d="M0 0 C0.33 0.66 0.66 1.32 1 2 C1.66 2 2.32 2 3 2 C1.49087042 6.98012761 -1.55661849 10.24259942 -5 14 C-5.66 13.67 -6.32 13.34 -7 13 C-6.46968862 8.4923533 -4.74778884 5.58045212 -2 2 C-1.34 2 -0.68 2 0 2 C0 1.34 0 0.68 0 0 Z " fill="#5F63A0" transform="translate(74,90)"/>
<path d="M0 0 C2.375 0.3125 2.375 0.3125 3.375 1.3125 C3.6875 4.1875 3.6875 4.1875 3.375 7.3125 C1.5625 9.25 1.5625 9.25 -0.625 10.3125 C-3.625 9.3125 -3.625 9.3125 -5 7 C-5.625 4.3125 -5.625 4.3125 -4.5625 2 C-2.625 0.3125 -2.625 0.3125 0 0 Z M-1.625 2.3125 C-1.955 3.6325 -2.285 4.9525 -2.625 6.3125 C-1.635 6.3125 -0.645 6.3125 0.375 6.3125 C0.045 5.6525 -0.285 4.9925 -0.625 4.3125 C0.035 3.6525 0.695 2.9925 1.375 2.3125 C0.385 2.3125 -0.605 2.3125 -1.625 2.3125 Z " fill="#E6C1C5" transform="translate(223.625,149.6875)"/>
<path d="M0 0 C0.06058594 0.68707031 0.12117187 1.37414062 0.18359375 2.08203125 C0.26738281 2.98308594 0.35117188 3.88414062 0.4375 4.8125 C0.51871094 5.70582031 0.59992188 6.59914062 0.68359375 7.51953125 C0.93489767 10.12743559 0.93489767 10.12743559 2 13 C3.98 13 5.96 13 8 13 C8 13.33 8 13.66 8 14 C0.29942806 14.29617584 0.29942806 14.29617584 -3 12 C-3.71484375 9.94140625 -3.71484375 9.94140625 -3.9375 7.5625 C-4.02902344 6.78003906 -4.12054688 5.99757812 -4.21484375 5.19140625 C-4 3 -4 3 -2.56640625 1.21484375 C-1 0 -1 0 0 0 Z " fill="#757397" transform="translate(166,130)"/>
<path d="M0 0 C0.99 0.33 1.98 0.66 3 1 C3 2.65 3 4.3 3 6 C3.66 4.02 4.32 2.04 5 0 C5.99 0.33 6.98 0.66 8 1 C6.25 7.75 6.25 7.75 4 10 C0.46428571 9.46428571 0.46428571 9.46428571 -1 8 C-0.82364548 5.30917128 -0.38164079 2.67148554 0 0 Z " fill="#E7C4C7" transform="translate(61,150)"/>
<path d="M0 0 C2.31 0.33 4.62 0.66 7 1 C7 2.32 7 3.64 7 5 C6.34 5 5.68 5 5 5 C5.66 6.98 6.32 8.96 7 11 C5.35 11.33 3.7 11.66 2 12 C1.875 6.25 1.875 6.25 3 4 C2.01 4 1.02 4 0 4 C0 2.68 0 1.36 0 0 Z " fill="#3E3D79" transform="translate(198,93)"/>
<path d="M0 0 C1.2065625 0.0309375 1.2065625 0.0309375 2.4375 0.0625 C3.21091204 2.84678335 3.61324966 4.53525102 2.6875 7.3125 C1.4375 9.0625 1.4375 9.0625 -1.5625 10.0625 C-2.5525 9.4025 -3.5425 8.7425 -4.5625 8.0625 C-3.54737544 0.08652135 -3.54737544 0.08652135 0 0 Z M-2.5625 5.0625 C-2.2325 5.7225 -1.9025 6.3825 -1.5625 7.0625 C-0.9025 6.7325 -0.2425 6.4025 0.4375 6.0625 C-0.5525 5.7325 -1.5425 5.4025 -2.5625 5.0625 Z " fill="#E7BEC2" transform="translate(159.5625,149.9375)"/>
<path d="M0 0 C2.31 0 4.62 0 7 0 C6.67 1.65 6.34 3.3 6 5 C4.68 5.33 3.36 5.66 2 6 C3.32 6.33 4.64 6.66 6 7 C6 7.66 6 8.32 6 9 C0.25 10.125 0.25 10.125 -2 9 C-1.34 6.03 -0.68 3.06 0 0 Z " fill="#DFB1B5" transform="translate(189,150)"/>
<path d="M0 0 C0.66 0 1.32 0 2 0 C2 0.66 2 1.32 2 2 C2.66 2 3.32 2 4 2 C3.67 4.97 3.34 7.94 3 11 C2.01 11 1.02 11 0 11 C0 9.35 0 7.7 0 6 C-0.66 6 -1.32 6 -2 6 C-2 6.66 -2 7.32 -2 8 C-2.99 8 -3.98 8 -5 8 C-5 6.35 -5 4.7 -5 3 C-3.35 2.67 -1.7 2.34 0 2 C0 1.34 0 0.68 0 0 Z " fill="#F9A617" transform="translate(70,114)"/>
<path d="M0 0 C0.33 0 0.66 0 1 0 C1 6.27 1 12.54 1 19 C-0.32 19 -1.64 19 -3 19 C-3.33 19.66 -3.66 20.32 -4 21 C-4.66 21.33 -5.32 21.66 -6 22 C-6.66 19.69 -7.32 17.38 -8 15 C-7.01 15 -6.02 15 -5 15 C-5.33 16.32 -5.66 17.64 -6 19 C-5.34 19 -4.68 19 -4 19 C-3.67 16.36 -3.34 13.72 -3 11 C-2.01 12.485 -2.01 12.485 -1 14 C-0.67 9.38 -0.34 4.76 0 0 Z " fill="#8381AD" transform="translate(232,92)"/>
<path d="M0 0 C2.5625 0.1875 2.5625 0.1875 4.5625 2.1875 C4.5 5.1875 4.5 5.1875 3.5625 8.1875 C1 9.5625 1 9.5625 -1.4375 10.1875 C-3 9.0625 -3 9.0625 -4.4375 7.1875 C-3.88641641 0.29895511 -3.88641641 0.29895511 0 0 Z M-1.4375 2.1875 C-1.7675 3.5075 -2.0975 4.8275 -2.4375 6.1875 C-1.1175 6.1875 0.2025 6.1875 1.5625 6.1875 C1.5625 4.8675 1.5625 3.5475 1.5625 2.1875 C0.5725 2.1875 -0.4175 2.1875 -1.4375 2.1875 Z " fill="#E2B7B8" transform="translate(100.4375,149.8125)"/>
<path d="M0 0 C1.4540625 0.0309375 1.4540625 0.0309375 2.9375 0.0625 C2.6075 0.97 2.2775 1.8775 1.9375 2.8125 C0.74144277 6.13295807 0.74144277 6.13295807 0.9375 10.0625 C-2.0325 9.5675 -2.0325 9.5675 -5.0625 9.0625 C-4.06477273 0.08295455 -4.06477273 0.08295455 0 0 Z M-2.0625 5.0625 C-2.0625 5.7225 -2.0625 6.3825 -2.0625 7.0625 C-1.4025 6.7325 -0.7425 6.4025 -0.0625 6.0625 C-0.7225 5.7325 -1.3825 5.4025 -2.0625 5.0625 Z " fill="#E3B5BA" transform="translate(128.0625,149.9375)"/>
<path d="M0 0 C0.66 0.66 1.32 1.32 2 2 C1.9765625 4.3828125 1.9765625 4.3828125 1.625 7.125 C1.51414063 8.03507812 1.40328125 8.94515625 1.2890625 9.8828125 C1.19367188 10.58148438 1.09828125 11.28015625 1 12 C0.34 12 -0.32 12 -1 12 C-1.33 11.01 -1.66 10.02 -2 9 C-2.66 8.67 -3.32 8.34 -4 8 C-4.40729228 5.67843403 -4.74438677 3.3431213 -5 1 C-2.625 0.375 -2.625 0.375 0 0 Z " fill="#57538C" transform="translate(227,99)"/>
<path d="M0 0 C0.66 0 1.32 0 2 0 C2 0.99 2 1.98 2 3 C2.680625 2.2575 2.680625 2.2575 3.375 1.5 C5 0 5 0 7 0 C6.67 2.97 6.34 5.94 6 9 C5.01 8.67 4.02 8.34 3 8 C3.33 7.01 3.66 6.02 4 5 C3.34 5 2.68 5 2 5 C1.67 6.32 1.34 7.64 1 9 C0.01 9 -0.98 9 -2 9 C-1.34 6.03 -0.68 3.06 0 0 Z " fill="#E6BCBF" transform="translate(233,150)"/>
<path d="M0 0 C3.63 0 7.26 0 11 0 C14.34821429 8.03571429 14.34821429 8.03571429 13 12 C11 9 11 9 10 6 C9.01 6.495 9.01 6.495 8 7 C7.34444881 9.52733235 7.34444881 9.52733235 7 12 C6.01 11.67 5.02 11.34 4 11 C3.875 6.25 3.875 6.25 5 4 C6.98 4 8.96 4 11 4 C10.67 3.34 10.34 2.68 10 2 C7.64400765 1.53248212 7.64400765 1.53248212 4.9375 1.375 C4.01839844 1.30023438 3.09929687 1.22546875 2.15234375 1.1484375 C1.08693359 1.07496094 1.08693359 1.07496094 0 1 C0 0.67 0 0.34 0 0 Z " fill="#7474A0" transform="translate(129,92)"/>
<path d="M0 0 C2.125 0.9375 2.125 0.9375 4 2 C4 5.79557881 3.49821059 7.62902617 2 11 C0.35 10.67 -1.3 10.34 -3 10 C-3.33 9.01 -3.66 8.02 -4 7 C-3.01 7 -2.02 7 -1 7 C-1.33 6.34 -1.66 5.68 -2 5 C-2 3.68 -2 2.36 -2 1 C-1.34 0.67 -0.68 0.34 0 0 Z " fill="#E4BBC0" transform="translate(76,149)"/>
<path d="M0 0 C4.2687882 0.4743098 6.31511656 2.80716564 9 6 C9.8125 8.8125 9.8125 8.8125 10 11 C5.57882285 9.64908476 3.556657 7.8349855 1 4 C0.25 1.6875 0.25 1.6875 0 0 Z " fill="#565B9A" transform="translate(60,126)"/>
<path d="M0 0 C0.66 0.99 1.32 1.98 2 3 C1.01 3.66 0.02 4.32 -1 5 C-1.33 4.67 -1.66 4.34 -2 4 C-4.95817107 3.74994614 -4.95817107 3.74994614 -8 4 C-8.66 4.66 -9.32 5.32 -10 6 C-10.66 4.68 -11.32 3.36 -12 2 C-7.75883767 -1.21300176 -5.11663457 -1.35156385 0 0 Z " fill="#7B7A9D" transform="translate(176,127)"/>
<path d="M0 0 C1.98 0 3.96 0 6 0 C6 0.66 6 1.32 6 2 C6.66 2 7.32 2 8 2 C8 2.66 8 3.32 8 4 C7.38125 4.12375 6.7625 4.2475 6.125 4.375 C3.80879168 4.87197356 3.80879168 4.87197356 2 7 C1.401875 6.649375 0.80375 6.29875 0.1875 5.9375 C-2.10813214 4.66695302 -2.10813214 4.66695302 -5 6 C-4.67 5.01 -4.34 4.02 -4 3 C-3.01 2.67 -2.02 2.34 -1 2 C-0.67 1.34 -0.34 0.68 0 0 Z " fill="#F8A61A" transform="translate(76,105)"/>
<path d="M0 0 C1.7074998 1.28062485 3.37373596 2.61767557 5 4 C5 4.66 5 5.32 5 6 C5.99 6.33 6.98 6.66 8 7 C10.296875 9.3984375 10.296875 9.3984375 12.75 12.375 C13.56984375 13.35210937 14.3896875 14.32921875 15.234375 15.3359375 C15.81703125 16.21507812 16.3996875 17.09421875 17 18 C16.67 18.99 16.34 19.98 16 21 C15.49210937 20.33613281 14.98421875 19.67226562 14.4609375 18.98828125 C10.01288438 13.16086783 10.01288438 13.16086783 4.625 8.25 C1.61767316 5.67229128 0.88547225 3.80753068 0 0 Z " fill="#FEF4D1" transform="translate(80,122)"/>
<path d="M0 0 C0.33 0.99 0.66 1.98 1 3 C-0.66666667 3 -2.33333333 3 -4 3 C-4.33 4.32 -4.66 5.64 -5 7 C-3.35 6.34 -1.7 5.68 0 5 C-0.33 6.32 -0.66 7.64 -1 9 C-2.875 9.625 -2.875 9.625 -5 10 C-7 8 -7 8 -7.125 4.375 C-7.08375 3.26125 -7.0425 2.1475 -7 1 C-4.53721199 -0.231394 -2.7204945 -0.07159196 0 0 Z " fill="#EDC0C6" transform="translate(55,150)"/>
<path d="M0 0 C-0.99 1.485 -0.99 1.485 -2 3 C-5.625 3.6875 -5.625 3.6875 -9 4 C-9.33 5.32 -9.66 6.64 -10 8 C-10.33 7.01 -10.66 6.02 -11 5 C-11.33 7.97 -11.66 10.94 -12 14 C-14 10 -14 10 -13.3125 6.4375 C-11.55767302 1.84152457 -11.55767302 1.84152457 -9 0 C-5.52176885 -1.15941038 -3.54104422 -0.70820884 0 0 Z " fill="#9C9ABC" transform="translate(211,127)"/>
<path d="M0 0 C2 3 2 3 1.875 4.875 C0.71866351 7.68324575 -1.02866839 9.71071168 -3 12 C-3.99 11.67 -4.98 11.34 -6 11 C-5.39305845 7.84669446 -4.3583335 5.81111133 -2.4375 3.25 C-1.98246094 2.63640625 -1.52742188 2.0228125 -1.05859375 1.390625 C-0.70925781 0.93171875 -0.35992187 0.4728125 0 0 Z " fill="#696CA5" transform="translate(66,100)"/>
<path d="M0 0 C5.625 -0.25 5.625 -0.25 9 2 C8.67 2.66 8.34 3.32 8 4 C8.33 4.99 8.66 5.98 9 7 C9.66 7.33 10.32 7.66 11 8 C10.67 9.32 10.34 10.64 10 12 C8.33032474 10.19019128 6.66417692 8.3773524 5 6.5625 C4.28457031 5.7880957 4.28457031 5.7880957 3.5546875 4.99804688 C0 1.11328125 0 1.11328125 0 0 Z " fill="#F4B64D" transform="translate(69,129)"/>
<path d="M0 0 C0 4 0 4 -1.5 5.75 C-1.995 6.1625 -2.49 6.575 -3 7 C-3 5.68 -3 4.36 -3 3 C-4.58294782 2.94562393 -6.16644256 2.90703729 -7.75 2.875 C-8.63171875 2.85179688 -9.5134375 2.82859375 -10.421875 2.8046875 C-13.1135858 3.00860498 -14.69904974 3.63448279 -17 5 C-16.67 3.68 -16.34 2.36 -16 1 C-10.59255982 0.22750855 -5.46137814 -0.09752461 0 0 Z " fill="#F4CB82" transform="translate(96,91)"/>
<path d="M0 0 C0.33 0 0.66 0 1 0 C1.66 3.96 2.32 7.92 3 12 C5.31 12 7.62 12 10 12 C10 12.33 10 12.66 10 13 C8.35425434 13.02688151 6.70838587 13.04634123 5.0625 13.0625 C4.14597656 13.07410156 3.22945312 13.08570313 2.28515625 13.09765625 C0 13 0 13 -1 12 C-1.09851171 10.16884117 -1.12972629 8.33380067 -1.125 6.5 C-1.12757813 5.4996875 -1.13015625 4.499375 -1.1328125 3.46875 C-1 1 -1 1 0 0 Z " fill="#4F4B79" transform="translate(200,131)"/>
<path d="M0 0 C0.66 0 1.32 0 2 0 C2.38218767 1.65614657 2.71395102 3.32457024 3 5 C2.67 5.33 2.34 5.66 2 6 C2.99 6.33 3.98 6.66 5 7 C4.67 5.02 4.34 3.04 4 1 C6 4 6 4 6 8 C3.36 8 0.72 8 -2 8 C-2.125 5.125 -2.125 5.125 -2 2 C-1.34 1.34 -0.68 0.68 0 0 Z " fill="#625F93" transform="translate(205,111)"/>
<path d="M0 0 C3.3 0 6.6 0 10 0 C10.33 0.99 10.66 1.98 11 3 C9.35 3.33 7.7 3.66 6 4 C6 4.33 6 4.66 6 5 C4.35 5 2.7 5 1 5 C0.67 3.35 0.34 1.7 0 0 Z " fill="#302C6D" transform="translate(129,93)"/>
<path d="M0 0 C0.99 0 1.98 0 3 0 C3.74609375 1.671875 3.74609375 1.671875 4 4 C2.34765625 6.578125 2.34765625 6.578125 0.0625 9.25 C-1.06478516 10.58804688 -1.06478516 10.58804688 -2.21484375 11.953125 C-2.80394531 12.62859375 -3.39304688 13.3040625 -4 14 C-4.33 13.01 -4.66 12.02 -5 11 C-5.66 10.67 -6.32 10.34 -7 10 C-5.68 10 -4.36 10 -3 10 C-3.33 8.68 -3.66 7.36 -4 6 C-2.35 5.67 -0.7 5.34 1 5 C0.67 3.35 0.34 1.7 0 0 Z " fill="#E46263" transform="translate(56,102)"/>
<path d="M0 0 C0.33 0 0.66 0 1 0 C1 8.25 1 16.5 1 25 C-0.32 25 -1.64 25 -3 25 C-3 24.01 -3 23.02 -3 22 C-2.34 22 -1.68 22 -1 22 C-0.67 14.74 -0.34 7.48 0 0 Z " fill="#2E2A64" transform="translate(250,93)"/>
<path d="M0 0 C0.99 0 1.98 0 3 0 C2.67 5.28 2.34 10.56 2 16 C1.34 16 0.68 16 0 16 C0 10.72 0 5.44 0 0 Z " fill="#3C376F" transform="translate(140,128)"/>
<path d="M0 0 C1.125 3.75 1.125 3.75 0 6 C2.97 6.495 2.97 6.495 6 7 C6 7.33 6 7.66 6 8 C1.05 8 -3.9 8 -9 8 C-9 7.67 -9 7.34 -9 7 C-6.69 7 -4.38 7 -2 7 C-3.485 4.03 -3.485 4.03 -5 1 C-3.35 1.33 -1.7 1.66 0 2 C0 1.34 0 0.68 0 0 Z " fill="#C1C1D7" transform="translate(123,111)"/>
<path d="M0 0 C2 1 2 1 2.625 2.5625 C3.16368951 6.06398181 3.05903219 9.45806833 3 13 C0.03 13 -2.94 13 -6 13 C-5.67 12.34 -5.34 11.68 -5 11 C-2.03 11.495 -2.03 11.495 1 12 C0.835 11.13375 0.67 10.2675 0.5 9.375 C0.02781452 6.18774801 -0.07655118 3.21514973 0 0 Z " fill="#302C6D" transform="translate(235,105)"/>
<path d="M0 0 C2.12508244 3.18762365 2.5020163 5.26512223 3 9 C1.02 9 -0.96 9 -3 9 C-3 8.01 -3 7.02 -3 6 C-3.33 5.34 -3.66 4.68 -4 4 C-3.34 4 -2.68 4 -2 4 C-1.34 2.68 -0.68 1.36 0 0 Z " fill="#2B2867" transform="translate(143,109)"/>
<path d="M0 0 C0.99 0 1.98 0 3 0 C2.67 2.97 2.34 5.94 2 9 C0.35 9 -1.3 9 -3 9 C-2.30058404 5.85262818 -1.23921302 2.97411124 0 0 Z " fill="#E3B3B9" transform="translate(116,150)"/>
<path d="M0 0 C2.31 0 4.62 0 7 0 C7 0.66 7 1.32 7 2 C6.34 2 5.68 2 5 2 C4.67 4.31 4.34 6.62 4 9 C3.01 9 2.02 9 1 9 C1.020625 7.88625 1.04125 6.7725 1.0625 5.625 C1.26380718 2.16784079 1.26380718 2.16784079 0 0 Z " fill="#E7BCC3" transform="translate(245,150)"/>
<path d="M0 0 C0.99 0.495 0.99 0.495 2 1 C2 2.32 2 3.64 2 5 C2.61875 5.0825 3.2375 5.165 3.875 5.25 C6 6 6 6 7.25 8.0625 C7.4975 8.701875 7.745 9.34125 8 10 C7.401875 9.773125 6.80375 9.54625 6.1875 9.3125 C5.465625 9.209375 4.74375 9.10625 4 9 C2.35658567 10.43492267 2.35658567 10.43492267 1 12 C0.83211627 10.37512529 0.66573213 8.75009558 0.5 7.125 C0.4071875 6.22007812 0.314375 5.31515625 0.21875 4.3828125 C0 2 0 2 0 0 Z " fill="#DE222A" transform="translate(57,130)"/>
<path d="M0 0 C0.66 0 1.32 0 2 0 C1.67 2.31 1.34 4.62 1 7 C2.32 7 3.64 7 5 7 C5 7.66 5 8.32 5 9 C0.25 10.125 0.25 10.125 -2 9 C-1.34 6.03 -0.68 3.06 0 0 Z " fill="#E3B8BC" transform="translate(201,150)"/>
<path d="M0 0 C0.33 0 0.66 0 1 0 C1.22151549 1.79008467 1.42682213 3.58218162 1.625 5.375 C1.74101562 6.37273437 1.85703125 7.37046875 1.9765625 8.3984375 C1.98429688 9.25695312 1.99203125 10.11546875 2 11 C0 13 0 13 -2.1640625 13.1953125 C-3.38222656 13.16050781 -3.38222656 13.16050781 -4.625 13.125 C-5.44226563 13.10695312 -6.25953125 13.08890625 -7.1015625 13.0703125 C-7.72804687 13.04710937 -8.35453125 13.02390625 -9 13 C-8.67 12.01 -8.34 11.02 -8 10 C-4.535 9.505 -4.535 9.505 -1 9 C-0.67 6.03 -0.34 3.06 0 0 Z " fill="#9E9DBC" transform="translate(211,132)"/>
<path d="M0 0 C2.64 0 5.28 0 8 0 C7.67 0.66 7.34 1.32 7 2 C6.34 2 5.68 2 5 2 C4.67 3.98 4.34 5.96 4 8 C3.01 8 2.02 8 1 8 C1.20625 7.236875 1.4125 6.47375 1.625 5.6875 C2.33391203 2.78114056 2.33391203 2.78114056 0 0 Z " fill="#E5BEBE" transform="translate(85,150)"/>
<path d="M0 0 C0.66 0 1.32 0 2 0 C2.12117188 0.60328125 2.24234375 1.2065625 2.3671875 1.828125 C2.53476562 2.62734375 2.70234375 3.4265625 2.875 4.25 C3.03742187 5.03890625 3.19984375 5.8278125 3.3671875 6.640625 C3.99150075 8.96831144 4.84838542 10.89031952 6 13 C4.02 12.01 2.04 11.02 0 10 C0 6.7 0 3.4 0 0 Z " fill="#E1696D" transform="translate(49,113)"/>
<path d="M0 0 C1.32 0.33 2.64 0.66 4 1 C2.79618552 3.49361571 1.54571278 5.68143083 0 8 C-0.16699232 11.12521833 -0.16699232 11.12521833 0 14 C-2 12 -2 12 -2.01171875 9.6875 C-1.90472656 8.800625 -1.79773438 7.91375 -1.6875 7 C-1.58824219 6.113125 -1.48898438 5.22625 -1.38671875 4.3125 C-1 2 -1 2 0 0 Z " fill="#F5C870" transform="translate(80,108)"/>
<path d="M0 0 C-0.6875 1.9375 -0.6875 1.9375 -2 4 C-4.625 4.75 -4.625 4.75 -7 5 C-7 3.35 -7 1.7 -7 0 C-3.86650268 -1.04449911 -3.01031744 -0.93423645 0 0 Z " fill="#2E2A6B" transform="translate(187,94)"/>
<path d="M0 0 C0.33 0.99 0.66 1.98 1 3 C4.00847418 4.22520264 4.00847418 4.22520264 7 5 C7 5.66 7 6.32 7 7 C1.25 8.125 1.25 8.125 -1 7 C-0.67 4.69 -0.34 2.38 0 0 Z " fill="#E5BDBE" transform="translate(188,152)"/>
<path d="M0 0 C1.65 1.32 3.3 2.64 5 4 C4.67 4.66 4.34 5.32 4 6 C2 6 0 6 -2 6 C-2.33 5.01 -2.66 4.02 -3 3 C-2.01 2.67 -1.02 2.34 0 2 C0 1.34 0 0.68 0 0 Z " fill="#E9555B" transform="translate(65,138)"/>
<path d="M0 0 C2 2 2 2 2 5 C-0.97 5 -3.94 5 -7 5 C-6.67 4.01 -6.34 3.02 -6 2 C-2.9375 0.8125 -2.9375 0.8125 0 0 Z " fill="#403C80" transform="translate(234,112)"/>
<path d="M0 0 C0.33 0 0.66 0 1 0 C1 2.31 1 4.62 1 7 C-3.29 7 -7.58 7 -12 7 C-12 6.67 -12 6.34 -12 6 C-8.7 5.67 -5.4 5.34 -2 5 C-1.34 3.35 -0.68 1.7 0 0 Z " fill="#3C3668" transform="translate(250,137)"/>
<path d="M0 0 C1.32 0.33 2.64 0.66 4 1 C4.66 0.67 5.32 0.34 6 0 C7.32 1.32 8.64 2.64 10 4 C9.67 4.66 9.34 5.32 9 6 C8.01 5.67 7.02 5.34 6 5 C5.67 5.66 5.34 6.32 5 7 C3.35 4.69 1.7 2.38 0 0 Z " fill="#838DBA" transform="translate(55,122)"/>
<path d="M0 0 C0.66 0 1.32 0 2 0 C1.67 2.64 1.34 5.28 1 8 C-0.7074998 6.71937515 -2.37373596 5.38232443 -4 4 C-4 3.34 -4 2.68 -4 2 C-2.68 2 -1.36 2 0 2 C0 1.34 0 0.68 0 0 Z " fill="#F2B94F" transform="translate(68,120)"/>
<path d="M0 0 C1.89213369 2.38573379 3.02391783 4.07175348 4 7 C2.35 7.33 0.7 7.66 -1 8 C-0.67 6.68 -0.34 5.36 0 4 C-0.99 3.67 -1.98 3.34 -3 3 C-2.01 2.01 -1.02 1.02 0 0 Z " fill="#4F4C88" transform="translate(113,104)"/>
<path d="M0 0 C0.99 0.66 1.98 1.32 3 2 C3 2.99 3 3.98 3 5 C1.33333333 6.66666667 -0.33333333 8.33333333 -2 10 C-1.85950482 8.52031676 -1.71245174 7.04125484 -1.5625 5.5625 C-1.48128906 4.73878906 -1.40007812 3.91507812 -1.31640625 3.06640625 C-1 1 -1 1 0 0 Z " fill="#312D6D" transform="translate(128,98)"/>
<path d="M0 0 C0.95465783 2.16967689 1.14401212 3.56328793 0.3984375 5.82421875 C-0.35870385 7.5684743 -1.17609198 9.28627131 -2 11 C-2.33 11 -2.66 11 -3 11 C-3.36923077 3.49230769 -3.36923077 3.49230769 -1.5 1 C-1.005 0.67 -0.51 0.34 0 0 Z " fill="#F3B647" transform="translate(78,96)"/>
<path d="M0 0 C1.65 0.33 3.3 0.66 5 1 C3.70700306 3.88437779 2.34058637 5.87219421 0 8 C0.33 6.35 0.66 4.7 1 3 C0.01 2.67 -0.98 2.34 -2 2 C-1.34 2 -0.68 2 0 2 C0 1.34 0 0.68 0 0 Z " fill="#E8545D" transform="translate(61,95)"/>
<path d="M0 0 C0.33 0.66 0.66 1.32 1 2 C1.66 2 2.32 2 3 2 C1.25 6.875 1.25 6.875 -1 8 C-1.33 7.34 -1.66 6.68 -2 6 C-2.66 5.67 -3.32 5.34 -4 5 C-3.34 4.01 -2.68 3.02 -2 2 C-1.34 2 -0.68 2 0 2 C0 1.34 0 0.68 0 0 Z " fill="#888AB5" transform="translate(74,90)"/>
<path d="M0 0 C0.99 0 1.98 0 3 0 C3.33 2.31 3.66 4.62 4 7 C3.01 7 2.02 7 1 7 C0.34 5.02 -0.32 3.04 -1 1 C-0.67 0.67 -0.34 0.34 0 0 Z " fill="#5D5C86" transform="translate(230,128)"/>
<path d="M0 0 C0.33 1.32 0.66 2.64 1 4 C2.98 3.34 4.96 2.68 7 2 C6.67 3.32 6.34 4.64 6 6 C4.125 6.625 4.125 6.625 2 7 C0 5 0 5 -0.125 2.375 C-0.08375 1.59125 -0.0425 0.8075 0 0 Z " fill="#DCAEB0" transform="translate(48,153)"/>
<path d="M0 0 C0.33 0 0.66 0 1 0 C2.125 7.625 2.125 7.625 1 11 C0.34 11 -0.32 11 -1 11 C-1.02688151 9.35425434 -1.04634123 7.70838587 -1.0625 6.0625 C-1.07410156 5.14597656 -1.08570313 4.22945312 -1.09765625 3.28515625 C-1 1 -1 1 0 0 Z " fill="#4C457B" transform="translate(165,130)"/>
<path d="M0 0 C0.66 0.33 1.32 0.66 2 1 C1.67 3.64 1.34 6.28 1 9 C0.34 9 -0.32 9 -1 9 C-1.66666667 7 -2.33333333 5 -3 3 C-2.01 3 -1.02 3 0 3 C0 2.01 0 1.02 0 0 Z " fill="#2F2B66" transform="translate(227,102)"/>
<path d="M0 0 C1.65 0 3.3 0 5 0 C5.33 1.32 5.66 2.64 6 4 C5.01 4.66 4.02 5.32 3 6 C3 5.01 3 4.02 3 3 C2.01 3 1.02 3 0 3 C0 2.01 0 1.02 0 0 Z " fill="#312E70" transform="translate(165,93)"/>
<path d="M0 0 C0.99 0.33 1.98 0.66 3 1 C2.625 3.4375 2.625 3.4375 2 6 C1.01 6.495 1.01 6.495 0 7 C-0.66 6.67 -1.32 6.34 -2 6 C-2 5.34 -2 4.68 -2 4 C-1.34 3.67 -0.68 3.34 0 3 C0 2.01 0 1.02 0 0 Z " fill="#DCA8AD" transform="translate(223,153)"/>
<path d="M0 0 C0.33 1.32 0.66 2.64 1 4 C2.32 4 3.64 4 5 4 C5 4.66 5 5.32 5 6 C1.25 7.125 1.25 7.125 -1 6 C-1.042721 4.33388095 -1.04063832 2.66617115 -1 1 C-0.67 0.67 -0.34 0.34 0 0 Z " fill="#DCAAAF" transform="translate(176,153)"/>
<path d="M0 0 C0.66 0 1.32 0 2 0 C2 0.99 2 1.98 2 3 C1.34 3 0.68 3 0 3 C0.33 4.65 0.66 6.3 1 8 C0.01 8 -0.98 8 -2 8 C-1.67 6.35 -1.34 4.7 -1 3 C-1.99 3 -2.98 3 -4 3 C-3.67 2.34 -3.34 1.68 -3 1 C-2.01 1.33 -1.02 1.66 0 2 C0 1.34 0 0.68 0 0 Z " fill="#EAC6C7" transform="translate(142,151)"/>
<path d="M0 0 C2.35964273 0.40683495 3.85934088 0.89814339 5.8125 2.3125 C6.4003125 3.1478125 6.4003125 3.1478125 7 4 C6.57421875 6.10546875 6.57421875 6.10546875 6 8 C4.9970458 6.85675161 3.99770973 5.71032809 3 4.5625 C2.443125 3.92441406 1.88625 3.28632813 1.3125 2.62890625 C0 1 0 1 0 0 Z " fill="#F4BF6B" transform="translate(73,133)"/>
<path d="M0 0 C1.65 0 3.3 0 5 0 C5.33 1.32 5.66 2.64 6 4 C4.02 4 2.04 4 0 4 C0 2.68 0 1.36 0 0 Z " fill="#2F2A6C" transform="translate(198,93)"/>
<path d="M0 0 C0.66 0 1.32 0 2 0 C2.125 5.75 2.125 5.75 1 8 C0.01 7.67 -0.98 7.34 -2 7 C-1.34 4.69 -0.68 2.38 0 0 Z " fill="#E6C3C9" transform="translate(212,150)"/>
<path d="M0 0 C2.66666667 2.66666667 5.33333333 5.33333333 8 8 C7.67 8.66 7.34 9.32 7 10 C4.625 8.9375 4.625 8.9375 2 7 C0.6875 3.3125 0.6875 3.3125 0 0 Z " fill="#ED9093" transform="translate(57,128)"/>
<path d="M0 0 C4.21422242 2.88341534 5.76075855 5.04303419 7 10 C2.78577758 7.11658466 1.23924145 4.95696581 0 0 Z " fill="#F2CC7F" transform="translate(80,122)"/>
<path d="M0 0 C0.66 0.33 1.32 0.66 2 1 C1.6875 2.875 1.6875 2.875 1 5 C0.01 5.66 -0.98 6.32 -2 7 C-3.19232613 9.05003955 -3.19232613 9.05003955 -4 11 C-4.18172269 4.2762605 -4.18172269 4.2762605 -1.4375 1.3125 C-0.7259375 0.6628125 -0.7259375 0.6628125 0 0 Z " fill="#F6D994" transform="translate(66,110)"/>
<path d="M0 0 C2.55803184 3.83704776 4.34505724 7.75712791 3.625 12.4375 C3.41875 12.953125 3.2125 13.46875 3 14 C3 13.34 3 12.68 3 12 C2.34 12 1.68 12 1 12 C0.67 8.04 0.34 4.08 0 0 Z " fill="#9996BA" transform="translate(205,98)"/>
<path d="M0 0 C1.32 0.33 2.64 0.66 4 1 C4 1.99 4 2.98 4 4 C0.88772805 4 -1.94152152 3.54372951 -5 3 C-5 2.67 -5 2.34 -5 2 C-3.35 1.67 -1.7 1.34 0 1 C0 0.67 0 0.34 0 0 Z " fill="#8F8FB3" transform="translate(173,127)"/>
<path d="M0 0 C2.31 0 4.62 0 7 0 C7 0.99 7 1.98 7 3 C4.625 3.1875 4.625 3.1875 2 3 C1.34 2.01 0.68 1.02 0 0 Z " fill="#FDFEFE" transform="translate(100,119)"/>
<path d="M0 0 C2 3 2 3 1.625 5.1875 C1.41875 5.785625 1.2125 6.38375 1 7 C-0.65 6.67 -2.3 6.34 -4 6 C-4 5.34 -4 4.68 -4 4 C-2.68 4 -1.36 4 0 4 C0 2.68 0 1.36 0 0 Z " fill="#807EAB" transform="translate(136,104)"/>
<path d="M0 0 C0.99 0 1.98 0 3 0 C4.85776765 3.13498292 5.20140476 5.37471432 5 9 C2.67527795 6.14693203 1.2491742 3.45925163 0 0 Z " fill="#7A789C" transform="translate(165,96)"/>
<path d="M0 0 C2.97 0 5.94 0 9 0 C8.01 1.98 7.02 3.96 6 6 C5.67 6 5.34 6 5 6 C5 4.35 5 2.7 5 1 C3.35 1 1.7 1 0 1 C0 0.67 0 0.34 0 0 Z " fill="#6F6D92" transform="translate(113,92)"/>
<path d="M0 0 C0.33 0.66 0.66 1.32 1 2 C1.99 2 2.98 2 4 2 C4 3.32 4 4.64 4 6 C2.68 6 1.36 6 0 6 C0 4.02 0 2.04 0 0 Z " fill="#514D79" transform="translate(147,139)"/>
<path d="M0 0 C1.32 0 2.64 0 4 0 C4 0.66 4 1.32 4 2 C3.34 2 2.68 2 2 2 C1.67 3.32 1.34 4.64 1 6 C0.34 5.67 -0.32 5.34 -1 5 C-0.67 3.35 -0.34 1.7 0 0 Z " fill="#EE1F2A" transform="translate(57,95)"/>
<path d="M0 0 C0.103125 0.639375 0.20625 1.27875 0.3125 1.9375 C0.539375 2.618125 0.76625 3.29875 1 4 C1.99 4.33 2.98 4.66 4 5 C3.34 5 2.68 5 2 5 C1.67 5.99 1.34 6.98 1 8 C0.34 8 -0.32 8 -1 8 C-0.67 5.36 -0.34 2.72 0 0 Z " fill="#EFC9D0" transform="translate(136,151)"/>
<path d="M0 0 C0.66 0 1.32 0 2 0 C2.33 0.99 2.66 1.98 3 3 C5.97 3.495 5.97 3.495 9 4 C9 4.33 9 4.66 9 5 C6.36 5 3.72 5 1 5 C0.67 3.35 0.34 1.7 0 0 Z " fill="#2E285B" transform="translate(238,131)"/>
<path d="M0 0 C0.66 0 1.32 0 2 0 C2 2.31 2 4.62 2 7 C1.01 7.495 1.01 7.495 0 8 C-0.38063221 5.6739143 -0.71269945 3.33944736 -1 1 C-0.67 0.67 -0.34 0.34 0 0 Z " fill="#3F3E69" transform="translate(177,130)"/>
<path d="M0 0 C0.99 0 1.98 0 3 0 C3 3.3 3 6.6 3 10 C2.34 10 1.68 10 1 10 C0.67 6.7 0.34 3.4 0 0 Z " fill="#F1A82B" transform="translate(76,112)"/>
<path d="M0 0 C0.99 0.33 1.98 0.66 3 1 C1.70700306 3.88437779 0.34058637 5.87219421 -2 8 C-1.125 1.125 -1.125 1.125 0 0 Z " fill="#F8C773" transform="translate(88,99)"/>
<path d="M0 0 C0.66 0.33 1.32 0.66 2 1 C0.92598892 3.91517292 0.22189824 5.77810176 -2 8 C-2 6.02 -2 4.04 -2 2 C-1.34 2 -0.68 2 0 2 C0 1.34 0 0.68 0 0 Z " fill="#615F8B" transform="translate(116,96)"/>
<path d="M0 0 C0.33 0.66 0.66 1.32 1 2 C0.34 1.67 -0.32 1.34 -1 1 C-0.67 0.67 -0.34 0.34 0 0 Z " fill="#E2C7CB" transform="translate(150,150)"/>
<path d="" fill="#FFFFFF" transform="translate(0,0)"/>
<path d="" fill="#FFFFFF" transform="translate(0,0)"/>
<path d="" fill="#FFFFFF" transform="translate(0,0)"/>
<path d="" fill="#FFFFFF" transform="translate(0,0)"/>
<path d="" fill="#FFFFFF" transform="translate(0,0)"/>
<path d="" fill="#FFFFFF" transform="translate(0,0)"/>
<path d="" fill="#FFFFFF" transform="translate(0,0)"/>
<path d="" fill="#FFFFFF" transform="translate(0,0)"/>
</svg>
