<?xml version="1.0" encoding="UTF-8"?>
<svg version="1.1" xmlns="http://www.w3.org/2000/svg" width="763" height="300">
<path d="M0 0 C1.27212483 3.81637449 0.49762334 4.97941898 -0.95703125 8.6796875 C-1.40522217 9.82630859 -1.85341309 10.97292969 -2.31518555 12.15429688 C-2.81330983 13.39492539 -3.31243719 14.63515158 -3.8125 15.875 C-4.06198395 16.50059814 -4.3114679 17.12619629 -4.56851196 17.77075195 C-16.64152877 48.0153617 -28.81034487 73.37913817 -59.97387695 86.9140625 C-67.1670397 89.95283903 -74.50173898 92.50965627 -81.93408203 94.89526367 C-84.40551427 95.69740386 -86.85965583 96.54278185 -89.31640625 97.38867188 C-98.77775545 100.51867055 -105.42472012 101.89423048 -115 98 C-116.45060639 97.53137372 -117.90232762 97.06617512 -119.35546875 96.60546875 C-135.94887625 90.61934562 -144.52730662 83.03671065 -152.09765625 67.171875 C-159 52.28406109 -159 52.28406109 -159 48 C-124.52596961 56.81560445 -124.52596961 56.81560445 -115 72 C-110.59674017 80.04168054 -106.99429178 88.03575917 -105 97 C-104.34 97 -103.68 97 -103 97 C-102.88462891 96.14059814 -102.76925781 95.28119629 -102.65039062 94.39575195 C-101.98148141 90.90331264 -100.93973174 87.95581982 -99.59375 84.66796875 C-99.10165039 83.4651123 -98.60955078 82.26225586 -98.10253906 81.02294922 C-97.56937664 79.74404158 -97.03517679 78.465566 -96.5 77.1875 C-96.23022339 76.5396051 -95.96044678 75.89171021 -95.68249512 75.22418213 C-84.53388369 48.52349722 -72.07897558 26.09474602 -44.21801758 14.4597168 C-29.83061853 8.72187504 -14.80724284 4.50542604 0 0 Z " fill="#EF4E23" transform="translate(753,15)"/>
<path d="M0 0 C7.81131647 6.45693498 10.26969795 14.47581133 11.6875 24.3125 C12.75051277 37.46182239 10.87383583 49.67205475 2.6875 60.3125 C-4.26152365 68.14200423 -11.6528971 72.03752468 -22.109375 72.6875 C-33.11352665 73.08138924 -42.11379751 72.47885952 -51.125 65.625 C-59.10415113 58.1915927 -61.79191392 47.75230457 -62.44140625 37.22265625 C-62.79174566 24.30680999 -60.04793577 12.57644742 -51.08984375 3.03125 C-38.58156485 -9.06466806 -14.1476321 -9.57966971 0 0 Z M-42.3125 7.3125 C-49.44922076 17.43668526 -50.72691479 29.40610689 -48.8125 41.4609375 C-46.67606445 51.09917514 -42.74981504 58.80832882 -34.3125 64.3125 C-27.53927692 66.97340907 -21.04739677 67.26162255 -14.30078125 64.484375 C-8.18730093 60.88114495 -4.53942661 54.86956169 -2.3125 48.3125 C0.73300984 36.23769692 -0.40082603 21.75953152 -6.625 10.9375 C-10.02574357 5.95382774 -14.33599061 1.84137449 -20.3125 0.3125 C-28.61335552 -0.58143829 -36.35474786 1.19372754 -42.3125 7.3125 Z " fill="#000000" transform="translate(471.3125,129.6875)"/>
<path d="M0 0 C8.03840866 5.40915063 12.12048778 12.55545108 14 22 C14.30071856 25.44195085 14.32489582 28.85902382 14.3125 32.3125 C14.32861328 33.19873047 14.34472656 34.08496094 14.36132812 34.99804688 C14.36947227 46.16366622 10.99065221 56.99787145 2.9609375 65.04296875 C0.7254906 66.89530903 -1.5323572 68.4724116 -4 70 C-5.03833984 70.65162109 -5.03833984 70.65162109 -6.09765625 71.31640625 C-11.88897193 74.24781295 -17.69716315 74.37744415 -24.0625 74.4375 C-25.32090698 74.4528479 -25.32090698 74.4528479 -26.60473633 74.46850586 C-36.77754889 74.32604066 -43.48787792 71.43516115 -50.83203125 64.3984375 C-57.8558415 56.62795193 -59.38349713 46.8514079 -59.3125 36.6875 C-59.30758545 35.85299316 -59.3026709 35.01848633 -59.29760742 34.15869141 C-59.09706561 23.56802669 -56.66658887 13.34657953 -49.4375 5.25 C-37.26347703 -6.02224349 -14.29896158 -8.37193088 0 0 Z M-38.75 8.5 C-46.85179416 18.78946397 -47.09097424 30.43359302 -46 43 C-44.73883713 50.85801483 -41.29795799 57.61043207 -35.75 63.3125 C-29.45747383 67.17382288 -23.71168403 68.63596524 -16.359375 67.57421875 C-10.5025496 66.14879932 -6.23487598 63.13118259 -3 58 C3.05093172 46.65450302 3.30092933 33.26920766 0 21 C-3.19933447 12.62031901 -6.52016337 6.55725709 -14.8125 2.6875 C-23.88694573 0.73026661 -32.10920261 1.6048742 -38.75 8.5 Z " fill="#000000" transform="translate(160,128)"/>
<path d="M0 0 C3.38549308 4.60427059 4.044377 8.43885138 3.5625 14.125 C1.97242638 20.89951535 -1.59159838 26.50700673 -7.3828125 30.44921875 C-9.03411936 31.40189579 -10.73235299 32.2724265 -12.4375 33.125 C-9.39767696 38.6820615 -5.96578143 43.81104752 -2.25 48.9375 C-1.67846191 49.72850098 -1.10692383 50.51950195 -0.51806641 51.33447266 C3.31100925 56.57058593 7.2877703 61.47349213 11.7578125 66.1796875 C13.51418468 68.07291985 15.05190423 70.03268412 16.5625 72.125 C2.85514708 73.62216233 2.85514708 73.62216233 -1.82421875 70.56640625 C-3.50854609 68.45825684 -4.95067571 66.31284593 -6.31201172 63.984375 C-8.20789323 60.85226359 -10.33310567 57.87773846 -12.41918945 54.87036133 C-14.12757227 52.39918546 -15.80760361 49.91065888 -17.484375 47.41796875 C-18.46722457 45.98593103 -19.45142036 44.55481547 -20.4375 43.125 C-21.43523438 41.66513672 -21.43523438 41.66513672 -22.453125 40.17578125 C-24.90174199 37.64522235 -27.1097787 37.13376849 -30.4375 36.125 C-30.32659862 40.43798184 -30.19621566 44.75016994 -30.0625 49.0625 C-30.0315625 50.27486328 -30.000625 51.48722656 -29.96875 52.73632812 C-29.7499075 59.46573509 -29.16568565 65.61269065 -27.4375 72.125 C-33.0475 72.125 -38.6575 72.125 -44.4375 72.125 C-44.11297852 70.39507812 -43.78845703 68.66515625 -43.45410156 66.8828125 C-42.40185606 60.54381646 -42.1468528 54.41464699 -42.171875 48 C-42.16996155 46.89124512 -42.1680481 45.78249023 -42.16607666 44.64013672 C-42.16472585 42.31412527 -42.16834436 39.988106 -42.17675781 37.66210938 C-42.18747285 34.13393971 -42.17682433 30.60627913 -42.1640625 27.078125 C-42.16538429 24.80208223 -42.16794709 22.52603977 -42.171875 20.25 C-42.16782654 19.21214355 -42.16377808 18.17428711 -42.15960693 17.10498047 C-42.20468618 9.94414924 -43.06930055 3.15108936 -44.4375 -3.875 C-40.62511411 -4.04438469 -36.81259128 -4.21029962 -33 -4.375 C-31.93072266 -4.42269531 -30.86144531 -4.47039062 -29.75976562 -4.51953125 C-7.13464794 -5.48819072 -7.13464794 -5.48819072 0 0 Z M-29.4375 1.125 C-30.43750799 4.45223611 -30.56647955 7.48286012 -30.5703125 10.94921875 C-30.57160156 12.05974609 -30.57289062 13.17027344 -30.57421875 14.31445312 C-30.57035156 15.46880859 -30.56648438 16.62316406 -30.5625 17.8125 C-30.56636719 18.97845703 -30.57023437 20.14441406 -30.57421875 21.34570312 C-30.57292969 22.45236328 -30.57164063 23.55902344 -30.5703125 24.69921875 C-30.56918457 25.71588623 -30.56805664 26.73255371 -30.56689453 27.7800293 C-30.70129165 30.08356639 -30.70129165 30.08356639 -29.4375 31.125 C-23.87784273 31.57884957 -19.30569753 30.80250864 -14.4375 28.125 C-9.2987201 22.85445651 -9.08784543 18.09549752 -9.15625 11.015625 C-9.26482763 7.96177692 -9.26482763 7.96177692 -11.125 5 C-15.30067829 1.6143149 -18.93954418 0.87203721 -24.25 1 C-25.22582031 1.01804688 -26.20164062 1.03609375 -27.20703125 1.0546875 C-27.94308594 1.07789063 -28.67914063 1.10109375 -29.4375 1.125 Z " fill="#000000" transform="translate(72.4375,128.875)"/>
<path d="M0 0 C5.61 0 11.22 0 17 0 C16.67257812 1.22589844 16.34515625 2.45179687 16.0078125 3.71484375 C14.68500812 9.66746345 14.77986297 15.49202571 14.875 21.5625 C14.88853516 23.21862305 14.88853516 23.21862305 14.90234375 24.90820312 C14.92569872 27.6057017 14.95844946 30.30273077 15 33 C20.21965008 29.29077682 24.8394756 25.44584553 29.125 20.6875 C29.63780518 20.12353516 30.15061035 19.55957031 30.67895508 18.97851562 C35.94386428 13.0934669 40.42614308 7.86928458 42 0 C47.28 0 52.56 0 58 0 C56.89640311 3.31079068 56.1303911 3.96670423 53.51171875 6.12109375 C48.70231013 10.20346134 44.26009525 14.59253629 39.8125 19.0625 C39.03197266 19.83916016 38.25144531 20.61582031 37.44726562 21.41601562 C33.41014648 25.45998315 29.5658248 29.53378658 26 34 C27.83109325 38.08633804 30.39718185 41.64642907 32.9375 45.3125 C33.42041504 46.01238037 33.90333008 46.71226074 34.40087891 47.43334961 C38.6562664 53.56862439 43.04783349 59.59841144 47.4921875 65.59765625 C50.03750802 69.03514065 52.52190478 72.51379078 55 76 C52.62119979 76.19066719 50.25780356 76.32817662 47.875 76.4375 C46.87726562 76.52547852 46.87726562 76.52547852 45.859375 76.61523438 C42.93913494 76.71543869 40.6664875 76.52971932 38.34033203 74.6809082 C36.73481455 72.86527266 35.35477219 71.00934413 34 69 C33.36989014 68.06812866 33.36989014 68.06812866 32.72705078 67.11743164 C31.48595525 65.20459378 30.29980576 63.26667506 29.125 61.3125 C25.37305772 55.17386974 21.48269316 49.1824047 17.3984375 43.2578125 C16 41 16 41 16 39 C15.34 39 14.68 39 14 39 C14.11083072 43.4796334 14.24123188 47.95849749 14.375 52.4375 C14.4059375 53.69755859 14.436875 54.95761719 14.46875 56.25585938 C14.68337004 63.10581559 15.22638206 69.37416711 17 76 C11.39 76 5.78 76 0 76 C0.32452148 74.27007812 0.64904297 72.54015625 0.98339844 70.7578125 C2.03564394 64.41881646 2.2906472 58.28964699 2.265625 51.875 C2.26753845 50.76624512 2.2694519 49.65749023 2.27142334 48.51513672 C2.27277415 46.18912527 2.26915564 43.863106 2.26074219 41.53710938 C2.25002715 38.00893971 2.26067567 34.48127913 2.2734375 30.953125 C2.27211571 28.67708223 2.26955291 26.40103977 2.265625 24.125 C2.26967346 23.08714355 2.27372192 22.04928711 2.27789307 20.97998047 C2.23263849 13.79129843 1.32582072 7.06753288 0 0 Z " fill="#000000" transform="translate(591,125)"/>
<path d="M0 0 C5.28 0 10.56 0 16 0 C16.7734375 2.35511719 17.546875 4.71023437 18.34375 7.13671875 C28.66583334 39.23407965 28.66583334 39.23407965 42.43359375 69.9453125 C44 73 44 73 45 76 C40.38 76 35.76 76 31 76 C28.00670872 69.04499968 25.23052186 62.0675604 22.6875 54.9375 C22.42114746 54.19959229 22.15479492 53.46168457 21.88037109 52.70141602 C20.81570064 49.67832515 20 47.22939001 20 44 C6.635 44.495 6.635 44.495 -7 45 C-13.70467334 59.9872521 -13.70467334 59.9872521 -16 76 C-21.28 76 -26.56 76 -32 76 C-30.3751307 72.75026141 -28.67190937 69.9587314 -26.6875 66.9375 C-17.16810276 51.77689486 -9.81102038 35.03066893 -3.6875 18.25 C-3.30859619 17.22165039 -2.92969238 16.19330078 -2.53930664 15.13378906 C-2.03065063 13.68311035 -2.03065063 13.68311035 -1.51171875 12.203125 C-1.21740967 11.36426758 -0.92310059 10.52541016 -0.61987305 9.66113281 C0.2646728 6.31914779 0.2646728 6.31914779 0 0 Z M6 11 C4.32468327 14.93387538 2.66124197 18.87266263 1 22.8125 C0.52304687 23.93205078 0.04609375 25.05160156 -0.4453125 26.20507812 C-0.89648438 27.27822266 -1.34765625 28.35136719 -1.8125 29.45703125 C-2.23144531 30.44678955 -2.65039062 31.43654785 -3.08203125 32.45629883 C-4.16972572 35.01959994 -4.16972572 35.01959994 -4 38 C2.93 38 9.86 38 17 38 C15.11498356 31.71661188 13.22612855 25.56587364 10.9375 19.4375 C10.68162109 18.72787109 10.42574219 18.01824219 10.16210938 17.28710938 C8.96220485 13.43203633 8.96220485 13.43203633 6 11 Z " fill="#000000" transform="translate(284,125)"/>
<path d="M0 0 C4.95 0 9.9 0 15 0 C17.01005306 5.26804158 18.87635957 10.55079447 20.6015625 15.91796875 C29.82899597 44.86893445 29.82899597 44.86893445 43.04907227 72.14575195 C44 74 44 74 44 76 C39.38 76 34.76 76 30 76 C28.43043327 71.76522742 26.86284605 67.52983067 25.30029297 63.29248047 C24.76792764 61.85064416 24.23440373 60.40923508 23.69970703 58.96826172 C22.93218234 56.8992202 22.1688116 54.82868749 21.40625 52.7578125 C21.16563843 52.11192169 20.92502686 51.46603088 20.67712402 50.80056763 C19 46.22774341 19 46.22774341 19 44 C5.635 44.495 5.635 44.495 -8 45 C-9.299375 48.25875 -10.59875 51.5175 -11.9375 54.875 C-12.34605225 55.88030762 -12.75460449 56.88561523 -13.17553711 57.92138672 C-15.55753518 64.03801959 -16.62518343 69.44368469 -17 76 C-22.28 76 -27.56 76 -33 76 C-31.17767595 72.73500275 -29.33608653 69.51961765 -27.3046875 66.37890625 C-18.43806418 52.57640962 -11.83358907 37.67936781 -6 22.375 C-5.62625244 21.40457764 -5.25250488 20.43415527 -4.86743164 19.43432617 C-2.48512518 13.00193332 -1.06149186 6.77806784 0 0 Z M6 11 C3.16175972 16.53833613 0.60426874 22.11563013 -1.75 27.875 C-2.06582031 28.63296875 -2.38164063 29.3909375 -2.70703125 30.171875 C-4.39392756 33.95950668 -4.39392756 33.95950668 -5 38 C1.93 38 8.86 38 16 38 C13.67674712 28.70698849 10.45657902 19.91551288 7 11 C6.67 11 6.34 11 6 11 Z " fill="#000000" transform="translate(529,125)"/>
<path d="M0 0 C34.49671408 8.82140506 34.49671408 8.82140506 44 24 C46.97716839 29.51895134 49.57233737 35.22088593 52 41 C52.30728027 41.71381836 52.61456055 42.42763672 52.93115234 43.16308594 C54.45950232 46.90559506 55.25560321 49.14422739 54 53 C50.20151004 51.81246158 46.41280327 50.5961558 42.625 49.375 C41.56410156 49.04371094 40.50320313 48.71242187 39.41015625 48.37109375 C25.93822313 43.99064924 16.55253205 38.0497399 9.92041016 25.38476562 C0 5.72001985 0 5.72001985 0 0 Z " fill="#FEC905" transform="translate(594,63)"/>
<path d="M0 0 C2.06132142 -0.10864945 4.12431321 -0.18588321 6.1875 -0.25 C7.33605469 -0.29640625 8.48460937 -0.3428125 9.66796875 -0.390625 C13.7171264 0.08407109 15.17023351 1.11138222 18 4 C23.80670171 12.76841137 26.89213083 23.47646698 30.33911133 33.33276367 C30.87549704 35.00775546 30.87549704 35.00775546 32 36 C34.16659352 32.01091635 36.30440888 28.00708427 38.4375 24 C39.04916016 22.87464844 39.66082031 21.74929687 40.29101562 20.58984375 C43.43494837 14.64937415 45.94502307 9.78572421 46 3 C45.505 1.515 45.505 1.515 45 0 C50.28 0 55.56 0 61 0 C59.21854519 4.45363703 57.12775967 7.9798876 54.4375 11.875 C40.38162122 32.24129084 40.38162122 32.24129084 35 56 C34.96003906 56.90878906 34.92007813 57.81757813 34.87890625 58.75390625 C34.73516369 64.83337101 35.45780564 70.12038399 37 76 C31.39 76 25.78 76 20 76 C20.66 73.69 21.32 71.38 22 69 C24.61501749 45.81204661 17.61159763 24.22076396 3.14453125 5.9921875 C2.54616455 5.27144043 1.94779785 4.55069336 1.33129883 3.80810547 C0 2 0 2 0 0 Z " fill="#000000" transform="translate(188,125)"/>
<path d="M0 0 C5.61 0 11.22 0 17 0 C16.34 2.64 15.68 5.28 15 8 C14.71744094 11.34822291 14.71744094 11.34822291 14.77294922 14.69140625 C14.77310028 15.95210937 14.77325134 17.2128125 14.77340698 18.51171875 C14.7836162 19.86198083 14.79404812 21.21224124 14.8046875 22.5625 C14.80842409 23.9635396 14.81126801 25.36458184 14.81326294 26.765625 C14.8208486 30.42839956 14.84045263 34.09101202 14.8626709 37.75372314 C14.88323938 41.50115772 14.89228803 45.24861883 14.90234375 48.99609375 C14.92370408 56.33080256 14.95777767 63.66537844 15 71 C17.71037002 70.7434505 20.41734615 70.47028951 23.125 70.1875 C23.88554687 70.11724609 24.64609375 70.04699219 25.4296875 69.97460938 C31.75074498 69.29346094 36.51816937 67.70592216 41 63 C41.66 63 42.32 63 43 63 C42.719172 64.98073365 42.42503386 66.95958448 42.125 68.9375 C41.96257812 70.03964844 41.80015625 71.14179688 41.6328125 72.27734375 C41.42398438 73.17582031 41.21515625 74.07429688 41 75 C37.66844749 76.66577625 33.93463941 76.12007856 30.2734375 76.09765625 C28.97921371 76.09553383 28.97921371 76.09553383 27.65884399 76.09336853 C24.8975277 76.08776188 22.13629188 76.07520827 19.375 76.0625 C17.5052095 76.05748586 15.63541774 76.0529228 13.765625 76.04882812 C9.17705223 76.03779029 4.58853977 76.0205212 0 76 C0.15355957 75.30124756 0.30711914 74.60249512 0.46533203 73.88256836 C2.49624925 62.93323521 2.15884625 51.52025221 2.13037109 40.42260742 C2.12499951 37.93727544 2.13035804 35.4521235 2.13671875 32.96679688 C2.14196073 21.86883108 1.8288719 10.97323141 0 0 Z " fill="#000000" transform="translate(347,125)"/>
</svg>
