<?xml version="1.0" encoding="UTF-8"?>
<svg version="1.1" xmlns="http://www.w3.org/2000/svg" width="1794" height="1758">
<path d="M0 0 C18.15 0 36.3 0 55 0 C55 0.99 55 1.98 55 3 C56.20011719 2.96648437 57.40023437 2.93296875 58.63671875 2.8984375 C65.09421681 2.90598866 71.42140984 3.76443065 77.8125 4.625 C78.46417145 4.71269653 79.1158429 4.80039307 79.78726196 4.89074707 C157.231227 15.44440271 228.23050195 52.06471133 290.95654297 97.52148438 C293.11169378 99.08081452 295.27580563 100.62709553 297.44140625 102.171875 C307.79029727 109.57282605 317.95157783 117.19659523 328 125 C328.63454102 125.49274414 329.26908203 125.98548828 329.92285156 126.49316406 C336.80996923 131.85221376 343.63089644 137.28391981 350.3671875 142.83203125 C352.11729526 144.27314373 353.87249612 145.70809403 355.6328125 147.13671875 C361.43963465 151.85158746 367.14283905 156.67218172 372.80566406 161.55786133 C376.34272681 164.60269736 379.9238192 167.57634381 383.5625 170.5 C388.92366488 174.84902756 393.95570739 179.50799484 399 184.21484375 C401.96412294 186.97846336 404.99575617 189.65498708 408.05859375 192.30859375 C415.63261831 198.9072912 423.01036358 205.73161979 430.40283203 212.53222656 C432.05692762 214.05231563 433.71392155 215.56920363 435.37109375 217.0859375 C440.70966746 221.98168021 445.97165053 226.90915298 451.04732609 232.07977962 C452.88628976 233.88817963 454.77840195 235.57224461 456.73887634 237.2469635 C460.95421982 240.91295266 464.92232335 244.78119506 468.86547852 248.73608398 C469.60642761 249.47528076 470.34737671 250.21447754 471.11077881 250.97607422 C473.5359928 253.39692148 475.95757094 255.82136749 478.37890625 258.24609375 C480.07691607 259.94342905 481.77507425 261.64061595 483.47337341 263.33766174 C487.02285749 266.88567586 490.57053779 270.43548112 494.11694336 273.98657227 C498.64816276 278.5234885 503.18385716 283.05590014 507.7209177 287.58697414 C511.22556415 291.08799603 514.72781173 294.59140985 518.22935295 298.09553719 C519.90026526 299.76711352 521.57191227 301.4379558 523.24432564 303.10803032 C525.5866265 305.44777347 527.92566724 307.79072972 530.26391602 310.13452148 C531.28732338 311.1548925 531.28732338 311.1548925 532.33140564 312.19587708 C536.19563611 316.07697639 539.87774011 320.06217703 543.44164944 324.22134495 C545.83084759 326.94830477 548.4052925 329.47062222 551 332 C554.94490897 335.89117859 558.7000639 339.85189991 562.29296875 344.07421875 C564.91837633 347.036063 567.75400783 349.77627625 570.59375 352.53125 C573.22194811 355.22771299 575.67256996 358.0425766 578.13964844 360.88574219 C581.13688531 364.29205075 584.25717881 367.57938703 587.375 370.875 C592.2548049 376.05605694 597.0883207 381.26811867 601.828125 386.578125 C604.36366658 389.40552748 606.92995761 392.20401982 609.5 395 C616.14729054 402.23816082 622.73287718 409.52663676 629.1875 416.9375 C631.27211164 419.30964429 633.38428644 421.65556065 635.5 424 C640.33227276 429.36016811 645.09818856 434.77009574 649.78515625 440.2578125 C650.81507479 441.46356676 651.84502353 442.66929523 652.875 443.875 C653.39465332 444.48351807 653.91430664 445.09203613 654.44970703 445.71899414 C657.47892533 449.25623858 660.55148583 452.74392577 663.6875 456.1875 C667.53851005 460.42708043 671.14843955 464.82932112 674.75 469.28125 C676.93501569 471.92147729 679.19171391 474.4672972 681.5 477 C685.32170863 481.19729034 688.91474189 485.53710231 692.484375 489.94921875 C695.42925052 493.52056624 698.45720087 497.0121164 701.5 500.5 C705.99829517 505.65918214 710.39311143 510.8815006 714.69921875 516.203125 C717.37247487 519.45278779 720.12084885 522.63147073 722.875 525.8125 C727.36221636 531.0039275 731.6464799 536.31672193 735.84838867 541.74047852 C739.66286769 546.6365834 743.67205004 551.34306351 747.73266602 556.03564453 C751.18805495 560.03425589 754.53413127 564.10032329 757.8125 568.24609375 C760.66072412 571.83180447 763.54822469 575.38483486 766.4375 578.9375 C767.00331787 579.63343262 767.56913574 580.32936523 768.15209961 581.04638672 C771.2619626 584.86927341 774.37748938 588.68743179 777.5 592.5 C778.19996094 593.3559375 778.89992188 594.211875 779.62109375 595.09375 C780.91805393 596.67821366 782.2156047 598.26219753 783.51611328 599.84375 C789.64678215 607.3017897 795.71688405 614.72777585 801.21875 622.66796875 C802.98556967 625.08871554 802.98556967 625.08871554 805.3203125 627.31640625 C808.60185053 630.60272786 811.47077201 634.13119922 814.375 637.75 C814.94573242 638.45866211 815.51646484 639.16732422 816.10449219 639.89746094 C817.23037042 641.29759978 818.35477048 642.6989288 819.47753906 644.1015625 C820.76669633 645.70908125 822.06585353 647.30857265 823.3671875 648.90625 C824.29917969 650.06640625 824.29917969 650.06640625 825.25 651.25 C825.77078125 651.89453125 826.2915625 652.5390625 826.828125 653.203125 C828.08623142 655.13222151 828.45130603 656.78630365 829 659 C829.66 659.33 830.32 659.66 831 660 C831 660.66 831 661.32 831 662 C831.66 662 832.32 662 833 662 C833 662.66 833 663.32 833 664 C837.96309296 662.37418243 837.96309296 662.37418243 841.4375 658.8125 C841.623125 658.214375 841.80875 657.61625 842 657 C842.99 657 843.98 657 845 657 C845.33 656.01 845.66 655.02 846 654 C846.66 654 847.32 654 848 654 C848.03351562 653.33871094 848.06703125 652.67742188 848.1015625 651.99609375 C849.44872392 647.50360328 852.34422784 644.57450428 855.375 641.0625 C856.66020918 639.54020545 857.9440465 638.01675172 859.2265625 636.4921875 C859.86625977 635.73518555 860.50595703 634.97818359 861.16503906 634.19824219 C863.76544036 631.08301956 866.26404378 627.89426588 868.75 624.6875 C872.88429296 619.37594648 877.15422628 614.19693507 881.484375 609.04296875 C884.13080173 605.84177866 886.69824725 602.58909846 889.25 599.3125 C893.99259316 593.22458672 898.87903206 587.26578206 903.80322266 581.32421875 C907.48271987 576.87375047 911.0847653 572.37427891 914.625 567.8125 C918.81745405 562.41812689 923.18812489 557.20620157 927.65844727 552.04052734 C931.42787352 547.68341132 935.09068695 543.24998587 938.72265625 538.77734375 C941.74419944 535.09240857 944.83035951 531.46431679 947.91650391 527.83349609 C950.79557843 524.44026525 953.63211492 521.0172328 956.4375 517.5625 C960.85262824 512.13999847 965.40012477 506.83872545 969.9609375 501.5390625 C972.82597089 498.20834749 975.6665794 494.85761621 978.5 491.5 C983.29064069 485.82689555 988.11537695 480.18374342 992.953125 474.55078125 C995.0096645 472.15611701 997.06137314 469.75743831 999.109375 467.35546875 C1003.57771331 462.11935532 1008.05417904 456.90432668 1012.6875 451.8125 C1015.64132181 448.56329601 1018.44449748 445.24125315 1021.1875 441.8125 C1026.09003486 435.74679782 1031.42258037 430.11835023 1036.76953125 424.4453125 C1039.7128424 421.31956818 1042.56830219 418.13126839 1045.37109375 414.87890625 C1048.85160176 410.86421955 1052.43973477 406.94386283 1056 403 C1057.50028679 401.33359149 1059.00028872 399.66692647 1060.5 398 C1061.24507812 397.17242187 1061.99015625 396.34484375 1062.7578125 395.4921875 C1064.23292618 393.85260121 1065.70691652 392.21200345 1067.1796875 390.5703125 C1072.6149613 384.51607514 1078.10132485 378.5101045 1083.60595703 372.51904297 C1084.95677503 371.04710084 1086.30460973 369.57242264 1087.65234375 368.09765625 C1094.42919545 360.68391981 1101.26809934 353.32993705 1108.13232422 345.99707031 C1110.06064731 343.93515098 1111.98558279 341.87010669 1113.91015625 339.8046875 C1125.81675631 327.04380223 1125.81675631 327.04380223 1131.875 321.1875 C1133.72049259 319.28772822 1135.44074263 317.34477881 1137.16651917 315.33766174 C1140.77889826 311.19934866 1144.57156637 307.28700569 1148.46069336 303.40991211 C1149.17062943 302.69822372 1149.88056549 301.98653534 1150.61201477 301.25328064 C1152.93546668 298.92546446 1155.26251363 296.60128203 1157.58984375 294.27734375 C1159.21991827 292.64659463 1160.84984441 291.01569717 1162.47962952 289.38465881 C1165.88640855 285.97641016 1169.29497758 282.56996467 1172.70483398 279.16479492 C1177.06014794 274.81517777 1181.41095661 270.46108617 1185.76042843 266.10562801 C1189.12248049 262.73995049 1192.48692545 259.37667309 1195.85208321 256.01410103 C1197.45667333 254.41017468 1199.06053011 252.80551431 1200.66361809 251.20008659 C1202.90996177 248.95118368 1205.15952016 246.70554439 1207.40991211 244.46069336 C1208.06210724 243.806474 1208.71430237 243.15225464 1209.38626099 242.47821045 C1213.21457845 238.66720604 1217.15562783 235.04435409 1221.25438786 231.52530766 C1223.61857207 229.45949465 1225.81046652 227.24871006 1228 225 C1231.47472342 221.43136514 1235.10337123 218.14187147 1238.86328125 214.8828125 C1242.49615995 211.68162871 1245.99137033 208.33607411 1249.5 205 C1254.32305152 200.41414774 1259.18972248 195.91009541 1264.21826172 191.54980469 C1266.44865042 189.60975159 1268.63078013 187.61949697 1270.8125 185.625 C1274.27530082 182.49577173 1277.80679003 179.49499651 1281.4375 176.5625 C1285.24087503 173.48663412 1288.90082652 170.31246834 1292.5 167 C1296.91990023 162.93694724 1301.46827153 159.10027112 1306.140625 155.33203125 C1308.6380189 153.29522229 1311.09216465 151.21669944 1313.53515625 149.11523438 C1319.70946598 143.81321656 1326.07314983 138.81660512 1332.56323242 133.90722656 C1337.257275 130.35191325 1341.86672433 126.71191613 1346.4375 123 C1354.70823496 116.31750186 1363.33257766 110.15368185 1372 104 C1373.42984422 102.97808382 1374.85953474 101.95595257 1376.2890625 100.93359375 C1386.38204559 93.73767062 1396.61942338 86.774294 1407 80 C1407.73379883 79.52095215 1408.46759766 79.0419043 1409.22363281 78.54833984 C1468.0802883 40.3238526 1530.79141815 11.99988957 1601 4 C1601.84312744 3.90050049 1602.68625488 3.80100098 1603.55493164 3.69848633 C1610.66742027 2.91415355 1617.78845528 2.66603619 1624.9375 2.4375 C1626.21713623 2.3957666 1627.49677246 2.3540332 1628.81518555 2.31103516 C1638.88249524 2.00064808 1648.92951493 1.79825802 1659 2 C1659.67208496 2.00725098 1660.34416992 2.01450195 1661.03662109 2.02197266 C1680.80242367 2.30578437 1699.95006067 7.80951264 1715 21 C1715.62648438 21.54398438 1716.25296875 22.08796875 1716.8984375 22.6484375 C1726.74133432 31.80362101 1732.35474185 44.86200175 1733.203125 58.19140625 C1733.41819675 73.6586496 1729.9425675 87.48799794 1719.15625 99.03125 C1700.85815228 115.73820879 1676.78689329 121.12349794 1652.625 121.25 C1651.15933594 121.2809375 1651.15933594 121.2809375 1649.6640625 121.3125 C1639.90601341 121.36440452 1630.67151712 119.35002536 1623 113 C1620.07869264 109.74371606 1618.02533833 106.07098597 1615.9375 102.25 C1613.17229736 97.61159557 1610.33383284 95.81375972 1605.1875 94.375 C1562.5989277 83.86758321 1514.08267691 106.67216162 1476 124 C1475.01 124.44875488 1474.02 124.89750977 1473 125.35986328 C1460.21329693 131.19424553 1447.85990052 137.72282752 1435.58544922 144.5625 C1433.1681149 145.90652875 1430.74400808 147.23712984 1428.31640625 148.5625 C1389.66523986 169.72389767 1352.88702307 194.46094868 1317.26904297 220.35595703 C1315.05104815 221.96301289 1312.82586587 223.55948907 1310.59765625 225.15234375 C1298.88508189 233.53573909 1287.41025593 242.21045881 1276 251 C1275.19997559 251.61552734 1274.39995117 252.23105469 1273.57568359 252.86523438 C1264.8764221 259.56672668 1256.26295319 266.35981145 1247.76318359 273.31274414 C1243.48846363 276.80631056 1239.16881997 280.2339217 1234.8125 283.625 C1229.11115151 288.07029657 1223.57970199 292.68920859 1218.08203125 297.3828125 C1215.25316987 299.79496524 1212.38424878 302.15419998 1209.5 304.5 C1204.89671896 308.24685666 1200.36092349 312.06623705 1195.84033203 315.91186523 C1192.38858671 318.84262139 1188.89786441 321.71710951 1185.375 324.5625 C1180.66857442 328.38902862 1176.20351894 332.43160438 1171.7421875 336.5390625 C1169.09984117 338.91039895 1166.39305833 341.15252997 1163.625 343.375 C1158.19108991 347.75944247 1153.10173982 352.45500063 1148 357.21484375 C1145.03587706 359.97846336 1142.00424383 362.65498708 1138.94140625 365.30859375 C1132.34165918 371.058474 1125.90472495 376.99331264 1119.4597168 382.9152832 C1116.34438736 385.77544568 1113.21182594 388.61484644 1110.0625 391.4375 C1103.98468686 396.8969029 1097.98408261 402.43834198 1092 408 C1091.3409668 408.61246582 1090.68193359 409.22493164 1090.00292969 409.85595703 C1079.41780212 419.68249316 1079.41780212 419.68249316 1069.1875 429.875 C1067.29070043 431.7176053 1065.35079659 433.43263353 1063.34570312 435.15429688 C1059.14460338 438.82101294 1055.19796054 442.6899517 1051.28125 446.65625 C1050.22798523 447.7151947 1050.22798523 447.7151947 1049.15344238 448.79553223 C1046.93315397 451.02791358 1044.71616045 453.26352111 1042.5 455.5 C1039.57590521 458.45090378 1036.64836943 461.39833203 1033.71875 464.34375 C1033.063302 465.00749634 1032.407854 465.67124268 1031.73254395 466.35510254 C1027.89981246 470.2077949 1023.95822516 473.86463831 1019.82997131 477.39955139 C1016.73141023 480.1094779 1013.83720349 483.01809298 1010.9375 485.9375 C1010.36451172 486.50662109 1009.79152344 487.07574219 1009.20117188 487.66210938 C1006.28463857 490.58520406 1003.48647574 493.56249914 1000.80297852 496.70141602 C996.95089041 501.12178828 992.85561812 505.25430441 988.6875 509.375 C987.5286731 510.52814697 987.5286731 510.52814697 986.34643555 511.70458984 C983.07623964 514.9585983 979.8000651 518.20656266 976.52441406 521.45507812 C974.11834715 523.84295352 971.71536962 526.23390793 969.3125 528.625 C968.21844849 529.706604 968.21844849 529.706604 967.10229492 530.81005859 C963.09600232 534.79738157 959.27112744 538.87447211 955.60217285 543.1751709 C952.73211801 546.44408136 949.60447844 549.45592616 946.5 552.5 C942.06744382 556.88514916 937.75671699 561.27811904 933.734375 566.046875 C930.98279075 569.14550592 928.00342359 572.01689295 925.0546875 574.92578125 C921.73868857 578.21429953 918.63970868 581.62205554 915.609375 585.171875 C913.46485215 587.6078864 911.15753595 589.85495259 908.84179688 592.12670898 C907.068559 593.93026866 905.41281003 595.78835113 903.765625 597.70703125 C900.04656542 601.98532574 896.16293273 606.08719277 892.25 610.1875 C882.93390229 620.02181709 874.18068763 630.19479142 866 641 C870.46273722 639.52348099 873.77319808 637.05178319 877.375 634.125 C877.98585449 633.63741211 878.59670898 633.14982422 879.22607422 632.64746094 C881.15607302 631.10484012 883.0790138 629.55382523 885 628 C895.63202347 619.40278582 906.44238996 611.09690339 917.41064453 602.93212891 C919.97590449 601.01797962 922.5340719 599.09476382 925.08984375 597.16796875 C935.96252539 588.97320976 946.91419942 580.904149 958 573 C958.69270996 572.50338867 959.38541992 572.00677734 960.09912109 571.49511719 C985.75282192 553.13610971 1012.16537511 535.58383622 1039 519 C1040.07185547 518.33742188 1041.14371094 517.67484375 1042.24804688 516.9921875 C1057.96275096 507.29843057 1073.83727877 497.93157509 1090 489 C1091.34771484 488.25290771 1091.34771484 488.25290771 1092.72265625 487.49072266 C1099.12409685 483.9480549 1105.55392335 480.4606894 1112 477 C1112.94472168 476.49001465 1113.88944336 475.9800293 1114.86279297 475.45458984 C1161.24228611 450.5049245 1211.14185192 429.17682819 1263 419 C1264.00426025 418.79753662 1265.00852051 418.59507324 1266.04321289 418.38647461 C1275.11506708 416.75967292 1284.11414045 416.66124447 1293.30151367 416.68432617 C1295.92994546 416.6874909 1298.55725283 416.66392272 1301.18554688 416.63867188 C1321.34201825 416.56348904 1340.16273248 420.52843348 1355.3125 434.8125 C1368.8480652 449.23382815 1370.54509843 466.95347469 1370.08007812 485.77929688 C1369.28839916 507.73390623 1357.52979378 530.00149061 1343 546 C1342.38898438 546.70382812 1341.77796875 547.40765625 1341.1484375 548.1328125 C1333.40574115 556.53446173 1320.39107458 566.20366294 1308.74853516 567.19091797 C1302.27954189 567.15979752 1296.022963 566.48693686 1289.625 565.5625 C1276.39070251 563.68853782 1263.3999826 562.84592375 1250.03515625 562.8671875 C1248.51077764 562.86651106 1246.98639913 562.86553823 1245.46202087 562.86428833 C1242.27927617 562.8628233 1239.09655974 562.86492446 1235.91381836 562.86962891 C1231.90008079 562.87528234 1227.88641013 562.87197161 1223.87267494 562.86619186 C1196.26383754 562.03700528 1196.26383754 562.03700528 1169 565 C1167.15343905 565.18352722 1165.3039427 565.33870324 1163.453125 565.47265625 C1125.13126712 568.54037347 1087.23448498 575.54057863 1050 585 C1049.28684631 585.1796228 1048.57369263 585.35924561 1047.83892822 585.54431152 C985.2918671 601.30970622 924.68863622 625.58362556 868 656.3125 C866.84516113 656.93257935 866.84516113 656.93257935 865.66699219 657.56518555 C864.62526855 658.14586792 864.62526855 658.14586792 863.5625 658.73828125 C862.98628906 659.05837158 862.41007813 659.37846191 861.81640625 659.70825195 C859.25644619 661.52878269 857.1770319 663.7452503 855 666 C856.32946655 665.61630249 856.32946655 665.61630249 857.68579102 665.22485352 C936.44975599 642.61653848 1015.55281885 630.9292593 1174.515625 645.32421875 C1175.57769857 645.47420161 1175.57769857 645.47420161 1176.66122818 645.62721443 C1183.69245284 646.62039865 1190.72307246 647.61708641 1197.75032425 648.63804436 C1219.72888098 651.82862355 1241.39577055 654.41398683 1263.625 654.3125 C1264.46752319 654.31067719 1265.31004639 654.30885437 1266.17810059 654.30697632 C1278.66944267 654.26166221 1290.78338041 653.82349534 1303 651 C1303.76505859 650.83371094 1304.53011719 650.66742187 1305.31835938 650.49609375 C1331.13510368 644.78723137 1356.16030007 633.28850109 1377 617 C1377.93714844 616.27296875 1378.87429688 615.5459375 1379.83984375 614.796875 C1413.00972008 588.33711713 1436.7599718 553.05855838 1455.00048828 515.05517578 C1456.03522745 512.92756604 1457.10696586 510.82153502 1458.18359375 508.71484375 C1491.37407711 442.74397933 1508.55777756 368.48512534 1526.41661072 297.2628479 C1542.98760199 231.19351651 1542.98760199 231.19351651 1553 199 C1553.38639648 197.7517041 1553.77279297 196.5034082 1554.17089844 195.21728516 C1565.1995097 159.91740914 1565.1995097 159.91740914 1577 147 C1577.75023437 146.16984375 1578.50046875 145.3396875 1579.2734375 144.484375 C1589.02264344 134.21234098 1601.96395881 125.36609362 1616.5625 124.375 C1621.67854463 124.67255607 1626.31668574 126.82989939 1630.984375 128.80859375 C1637.71632908 131.46823882 1644.35724148 131.19151786 1651.5 131.1875 C1652.66515137 131.18814453 1653.83030273 131.18878906 1655.03076172 131.18945312 C1662.86665231 131.14125248 1670.33414916 130.73800667 1678 129 C1677.8984375 131.203125 1677.8984375 131.203125 1677 134 C1674.89287591 135.79253937 1672.92595253 137.25630433 1670.625 138.75 C1669.33390866 139.6298427 1668.04486613 140.51269883 1666.7578125 141.3984375 C1666.1174707 141.83639648 1665.47712891 142.27435547 1664.81738281 142.72558594 C1660.32758867 145.87399075 1656.1824948 149.46096594 1652 153 C1650.86460751 153.94794562 1649.72918954 154.89586074 1648.59375 155.84375 C1637.29429636 165.33640294 1627.13532053 175.36163353 1618 187 C1617.20980469 187.96164063 1616.41960937 188.92328125 1615.60546875 189.9140625 C1602.89519237 205.72684729 1594.816596 223.1215788 1587.73834229 242.02996826 C1586.95439718 244.12167662 1586.16587808 246.21161896 1585.37646484 248.30126953 C1582.25248889 256.57435411 1579.14925167 264.85504058 1576.05859375 273.140625 C1572.26022112 283.3217564 1568.42325029 293.48807315 1564.5776062 303.65142822 C1562.41372008 309.37150011 1560.25324654 315.09286181 1558.09233093 320.8140564 C1556.44887377 325.1651258 1554.80498414 329.5160288 1553.15917969 333.86621094 C1506.01862034 456.9028636 1506.01862034 456.9028636 1467.57324219 582.7668457 C1467.04894142 584.76126026 1466.5245273 586.75564501 1466 588.75 C1465.74271118 589.72834808 1465.48542236 590.70669617 1465.22033691 591.71469116 C1459.41981665 613.70493824 1452.4299101 634.89451161 1443.06005859 655.64941406 C1442.0624896 657.86143486 1441.08679703 660.08200647 1440.11328125 662.3046875 C1415.40452369 717.72680844 1370.04995732 763.2243927 1313.28515625 785.25 C1256.10631458 806.80654633 1195.48653601 809.74624108 1135.02752686 810.55407715 C1116.40514542 810.80330155 1097.7984653 811.20798522 1079.1875 811.9375 C1078.18123566 811.97520508 1077.17497131 812.01291016 1076.13821411 812.05175781 C1056.63860389 812.79250669 1036.97136966 813.67679212 1017.6875 816.8125 C1016.61612793 816.98354248 1015.54475586 817.15458496 1014.44091797 817.33081055 C987.59276469 821.78419153 960.29605925 829.41769495 939 847 C938.07445312 847.76054688 937.14890625 848.52109375 936.1953125 849.3046875 C906.52343455 874.9418625 893.45133907 914.69779877 890.19189453 952.76416016 C889.82940549 958.87666623 889.81405449 964.99086443 889.81469727 971.11206055 C889.81253319 973.40237677 889.7943752 975.69219173 889.77539062 977.98242188 C889.687339 998.89987116 892.98966016 1019.39144925 896.03583431 1040.03111362 C903.52946721 1090.84855396 909.97772173 1141.71449299 913.9375 1192.9375 C914.09070709 1194.90438782 914.09070709 1194.90438782 914.24700928 1196.91101074 C921.31745028 1289.12615303 925.16816222 1407.80170889 862.078125 1486.640625 C855.39862234 1494.2241205 846.71542758 1503.53039475 836.375 1505.5 C822.4970825 1503.44401222 810.53626511 1488.33074917 802.5859375 1477.64453125 C756.3775307 1413.46999445 753.52715093 1323.19649493 755 1247 C755.01484436 1246.22207092 755.02968872 1245.44414185 755.04498291 1244.64263916 C756.59672832 1170.07676707 767.264662 1095.0974281 778.52514648 1021.46337891 C778.68494492 1020.4164537 778.84474335 1019.3695285 779.00938416 1018.2908783 C779.30246761 1016.3781595 779.59800066 1014.46581334 779.89674377 1012.55397034 C781.26533478 1003.65731587 782.15180824 994.86772785 782.203125 985.86328125 C782.21018463 985.02946426 782.21724426 984.19564728 782.22451782 983.33656311 C782.51096959 939.55345334 776.44106819 895.52508311 747 861 C746.20980469 860.04738281 745.41960938 859.09476563 744.60546875 858.11328125 C715.61098087 824.52838979 667.57258109 816.83349993 625.59912109 813.65234375 C597.15688608 811.6350028 568.61183162 811.00436831 540.10742188 810.7097168 C469.63180076 809.97545636 396.50038088 806.97042445 333 773 C331.84371094 772.38640625 330.68742187 771.7728125 329.49609375 771.140625 C304.40840852 757.32670048 281.31772248 737.85823335 264 715 C263.27562744 714.04963867 263.27562744 714.04963867 262.53662109 713.08007812 C254.57148069 702.56442676 247.56856476 691.72103468 241.20068359 680.17089844 C240.127357 678.23026808 239.03129218 676.30520608 237.92578125 674.3828125 C221.62698927 645.22351326 212.0952452 612.79783596 203.87283325 580.61294556 C198.9780125 561.48703442 193.22438858 542.73185474 187 524 C186.6803125 523.03682861 186.360625 522.07365723 186.03125 521.08129883 C174.95154102 487.74324591 163.29114714 454.620933 151.3059082 421.59875488 C150.18477843 418.50920292 149.06478333 415.41924265 147.94534969 412.32907581 C134.97619751 376.53081082 121.76477236 340.83237235 108.2322998 305.24255371 C106.1127794 299.66545411 103.99823287 294.08646823 101.8828125 288.5078125 C98.28037355 279.00929308 94.66846603 269.51441948 91.05033875 260.02186584 C88.97511935 254.57367096 86.91534308 249.12003674 84.87109375 243.66015625 C73.98183731 214.68393056 59.39340055 191.38126321 38 169 C37.36449219 168.32324219 36.72898437 167.64648438 36.07421875 166.94921875 C32.00037511 162.71981068 27.51883828 159.05907982 22.9453125 155.3828125 C19.98513333 152.98797259 17.08762379 150.52953864 14.1875 148.0625 C10.9176109 145.30823073 7.64774708 142.71245248 4.12890625 140.28515625 C3.48348877 139.83970459 2.83807129 139.39425293 2.1730957 138.93530273 C0.91333124 138.07696125 -0.35488788 137.23086953 -1.63208008 136.39868164 C-3.359375 135.2265625 -3.359375 135.2265625 -6 133 C-6 131.68 -6 130.36 -6 129 C-2.69634083 129.46251228 0.59778996 129.92736359 3.88085938 130.52026367 C18.46693034 132.76365984 35.79235563 132.77734673 49.14453125 125.89453125 C55.31068895 122.92179417 62.2408839 125.65712764 68.29370117 127.74633789 C85.74727889 134.18777118 99.20529419 148.37586161 106.96191406 165.0703125 C118.84535159 191.78739549 125.72534096 220.56348794 132.91957474 248.79921341 C134.1211052 253.5058396 135.33365419 258.20962773 136.54467773 262.91381836 C140.84612182 279.63909711 145.10677208 296.37441803 149.30859375 313.125 C156.54677009 341.96662402 164.12137187 370.61552331 173 399 C173.42088898 400.34714081 173.42088898 400.34714081 173.85028076 401.72149658 C184.60992236 436.08288363 196.30745805 470.09651232 211 503 C211.61174072 504.37019287 211.61174072 504.37019287 212.23583984 505.76806641 C225.66925997 535.53782279 242.70078958 564.65733376 264.93359375 588.74609375 C266.76740558 590.7463006 268.51037367 592.79343238 270.25 594.875 C299.55206736 628.26728728 344.09797748 649.61391228 388 654 C393.35402444 654.30749543 398.7093659 654.33014681 404.07080078 654.31567383 C406.44222888 654.31257548 408.8123244 654.33584922 411.18359375 654.36132812 C436.64667648 654.47260717 461.93935922 650.45676298 487.06707764 646.72753906 C494.75354457 645.58784627 502.4448346 644.48136011 510.13671875 643.37890625 C511.26022358 643.21781561 511.26022358 643.21781561 512.40642548 643.05347061 C529.56553971 640.59837433 546.72712506 638.46928313 564 637 C565.28986816 636.88720703 566.57973633 636.77441406 567.90869141 636.65820312 C649.83874525 629.76527016 731.02482492 641.070019 819 667 C819.33 666.67 819.66 666.34 820 666 C813.15688221 661.57803445 806.06387369 657.70210073 798.875 653.875 C798.25452789 653.54441589 797.63405579 653.21383179 796.99478149 652.87322998 C792.6690224 650.5710161 788.33570657 648.28341955 784 646 C782.60322021 645.26040039 782.60322021 645.26040039 781.17822266 644.50585938 C703.81556008 603.77454426 616.18054863 578.12752155 511.875 565.75 C511.09188446 565.66691589 510.30876892 565.58383179 509.50192261 565.49822998 C504.33821373 564.95598706 499.17168753 564.45968846 494 564 C492.81970215 563.89252441 491.6394043 563.78504883 490.42333984 563.67431641 C477.33557902 562.67002673 464.20256906 562.84823114 451.08496094 562.86962891 C447.59596909 562.87529236 444.10705404 562.87195355 440.61806488 562.86620045 C411.07167977 562.51332365 411.07167977 562.51332365 381.75 565.5625 C367.34064882 568.00187835 356.33180389 567.18136792 343.8125 558.75 C321.24749916 541.8079929 306.59006771 517.89055014 302 490 C299.325808 470.96918608 302.8612609 453.78675616 314 438 C324.01894253 425.53310425 340.46514 419.10195358 356 417 C358.72853237 416.88539226 361.43147637 416.81328327 364.16015625 416.796875 C364.93801483 416.78972473 365.71587341 416.78257446 366.51730347 416.77520752 C399.66556919 416.54015731 399.66556919 416.54015731 415 420 C416.68440186 420.37922607 416.68440186 420.37922607 418.40283203 420.76611328 C476.8495527 434.29977275 532.75728249 460.58708713 584.52880859 490.58300781 C587.51676457 492.29631511 590.53627026 493.94599684 593.56201172 495.59130859 C635.31318056 518.35159429 675.39402311 545.30012196 714 573 C714.73798828 573.52770996 715.47597656 574.05541992 716.23632812 574.59912109 C721.50985442 578.37351085 726.76154926 582.17710308 732 586 C732.77730469 586.5671875 733.55460938 587.134375 734.35546875 587.71875 C751.85412814 600.50732978 769.18778982 613.55257277 785.9921875 627.24609375 C786.6610498 627.7887085 787.32991211 628.33132324 788.01904297 628.89038086 C789.3007455 629.9318234 790.57868832 630.97791752 791.85205078 632.02954102 C795.38918858 634.90084745 798.81420386 637.11128711 803 639 C798.77442904 630.78978977 793.06543434 624.39921219 786.72998047 617.80664062 C784.30387686 615.27302975 781.91051748 612.70935292 779.51513672 610.14672852 C777.61052607 608.10951839 775.70218926 606.07585855 773.79296875 604.04296875 C770.16771159 600.18077877 766.55101041 596.31067907 762.9375 592.4375 C762.369104 591.8285791 761.80070801 591.2196582 761.21508789 590.59228516 C758.22576229 587.38904296 755.23983561 584.18269824 752.2578125 580.97265625 C751.63914307 580.30758057 751.02047363 579.64250488 750.38305664 578.95727539 C749.21449397 577.70095691 748.04692556 576.44371247 746.88061523 575.18530273 C743.5305461 571.5858513 740.1074027 568.07922932 736.59960938 564.63305664 C734.96265832 562.96187752 733.44480194 561.22583304 731.9375 559.4375 C727.95314313 554.80263588 723.60276504 550.54794721 719.23803711 546.27514648 C716.33223312 543.41179278 713.54889703 540.5150534 710.90625 537.40625 C705.46331916 531.10071182 699.41932043 525.35265069 693.5 519.5 C691.11155018 517.13845147 688.72665005 514.773397 686.34375 512.40625 C685.81124634 511.88204468 685.27874268 511.35783936 684.73010254 510.81774902 C681.90672666 508.01239703 679.22129581 505.13919562 676.62084961 502.12524414 C672.83875701 497.75646475 668.81300123 493.66878767 664.72265625 489.58984375 C663.95247665 488.81870743 663.18229706 488.04757111 662.38877869 487.25306702 C660.77058627 485.63419847 659.15114788 484.01657449 657.53051758 482.40014648 C655.06932768 479.94431282 652.61352191 477.48318635 650.15820312 475.02148438 C648.57584133 473.43978347 646.99316933 471.85839283 645.41015625 470.27734375 C644.68594986 469.55111313 643.96174347 468.82488251 643.21559143 468.0766449 C639.216329 464.09545477 635.11522274 460.30648941 630.84300232 456.62062073 C628.19291772 454.29030242 625.73001913 451.8240448 623.25 449.3125 C622.49638184 448.5532019 622.49638184 448.5532019 621.72753906 447.77856445 C619.6204205 445.65540351 617.51945787 443.52619158 615.41796875 441.39746094 C609.99508572 435.91066055 604.57651542 430.49226677 598.703125 425.48046875 C595.23951103 422.4696667 592.1107345 419.12545099 588.90625 415.84375 C586.0968039 413.03031604 583.10593382 410.44955518 580.1015625 407.84765625 C576.56584183 404.73911373 573.16429786 401.49060251 569.75 398.25 C560.42402403 389.43665266 550.98758889 380.75809259 541.4375 372.1875 C538.91239133 369.92137684 536.39383372 367.64809385 533.875 365.375 C528.55317482 360.58865258 523.18487465 355.8633524 517.7421875 351.21484375 C516.53643324 350.18492521 515.33070477 349.15497647 514.125 348.125 C513.51648193 347.60534668 512.90796387 347.08569336 512.28100586 346.55029297 C508.74376142 343.52107467 505.25607423 340.44851417 501.8125 337.3125 C497.57291957 333.46148995 493.17067888 329.85156045 488.71875 326.25 C486.07852271 324.06498431 483.5327028 321.80828609 481 319.5 C476.75832974 315.6390781 472.37966073 311.99450297 467.921875 308.38671875 C464.72588762 305.7760927 461.57937757 303.11268932 458.4375 300.4375 C453.94479282 296.61948342 449.40315944 292.88026267 444.78125 289.21875 C441.92460511 286.93985352 439.09319749 284.63215973 436.26342773 282.32006836 C429.73256712 276.98738986 423.14904641 271.75099241 416.4453125 266.63671875 C413.195351 264.1568858 409.97113384 261.64488163 406.74853516 259.12963867 C391.96310975 247.59186968 377.15165575 236.09406253 361.81787109 225.29101562 C359.00909667 223.29628031 356.22539505 221.26729228 353.43847656 219.2421875 C278.54595726 164.86686745 188.24238697 101.86160136 76.296875 92.4609375 C66.13389455 93.95097052 66.13389455 93.95097052 57.8046875 99.33203125 C56.12707558 101.81213718 54.6658912 104.30144373 53.25 106.9375 C49.14694169 113.79634375 44.46932208 117.51151438 36.8125 119.875 C13.21451819 124.86802386 -16.67824639 120.09408048 -37 107 C-38.16595703 106.24976562 -38.16595703 106.24976562 -39.35546875 105.484375 C-50.6252475 97.49272467 -57.28502582 85.82486481 -60.60546875 72.5859375 C-63.06118117 56.49007985 -59.58013254 41.23232866 -50 28 C-38.06284911 13.80171643 -22.03393232 6.38652469 -4 3 C-2.68 3 -1.36 3 0 3 C0 2.01 0 1.02 0 0 Z M804 641 C804.99 642.485 804.99 642.485 806 644 C806.99 643.67 807.98 643.34 809 643 C808.67 642.34 808.34 641.68 808 641 C806.68 641 805.36 641 804 641 Z M863 642 C861.28288757 644.44496043 861.28288757 644.44496043 860 647 C862.49552484 646.21869929 862.49552484 646.21869929 865 645 C865.33 644.01 865.66 643.02 866 642 C865.01 642 864.02 642 863 642 Z M850 666 C849.34 666.66 848.68 667.32 848 668 C849.65 667.67 851.3 667.34 853 667 C852.01 666.67 851.02 666.34 850 666 Z " fill="#2CB574" transform="translate(61,0)"/>
<path d="M0 0 C18.15 0 36.3 0 55 0 C55 0.99 55 1.98 55 3 C56.20011719 2.96648437 57.40023437 2.93296875 58.63671875 2.8984375 C65.09421681 2.90598866 71.42140984 3.76443065 77.8125 4.625 C78.46417145 4.71269653 79.1158429 4.80039307 79.78726196 4.89074707 C157.231227 15.44440271 228.23050195 52.06471133 290.95654297 97.52148438 C293.11169378 99.08081452 295.27580563 100.62709553 297.44140625 102.171875 C307.79029727 109.57282605 317.95157783 117.19659523 328 125 C328.63454102 125.49274414 329.26908203 125.98548828 329.92285156 126.49316406 C336.80996923 131.85221376 343.63089644 137.28391981 350.3671875 142.83203125 C352.11729526 144.27314373 353.87249612 145.70809403 355.6328125 147.13671875 C361.43963465 151.85158746 367.14283905 156.67218172 372.80566406 161.55786133 C376.34272681 164.60269736 379.9238192 167.57634381 383.5625 170.5 C388.92366488 174.84902756 393.95570739 179.50799484 399 184.21484375 C401.96412294 186.97846336 404.99575617 189.65498708 408.05859375 192.30859375 C415.63261831 198.9072912 423.01036358 205.73161979 430.40283203 212.53222656 C432.05692762 214.05231563 433.71392155 215.56920363 435.37109375 217.0859375 C440.70966746 221.98168021 445.97165053 226.90915298 451.04732609 232.07977962 C452.88628976 233.88817963 454.77840195 235.57224461 456.73887634 237.2469635 C460.95421982 240.91295266 464.92232335 244.78119506 468.86547852 248.73608398 C469.60642761 249.47528076 470.34737671 250.21447754 471.11077881 250.97607422 C473.5359928 253.39692148 475.95757094 255.82136749 478.37890625 258.24609375 C480.07691607 259.94342905 481.77507425 261.64061595 483.47337341 263.33766174 C487.02285749 266.88567586 490.57053779 270.43548112 494.11694336 273.98657227 C498.64816276 278.5234885 503.18385716 283.05590014 507.7209177 287.58697414 C511.22556415 291.08799603 514.72781173 294.59140985 518.22935295 298.09553719 C519.90026526 299.76711352 521.57191227 301.4379558 523.24432564 303.10803032 C525.5866265 305.44777347 527.92566724 307.79072972 530.26391602 310.13452148 C531.28732338 311.1548925 531.28732338 311.1548925 532.33140564 312.19587708 C536.19563611 316.07697639 539.87774011 320.06217703 543.44164944 324.22134495 C545.83084759 326.94830477 548.4052925 329.47062222 551 332 C554.94490897 335.89117859 558.7000639 339.85189991 562.29296875 344.07421875 C564.91837633 347.036063 567.75400783 349.77627625 570.59375 352.53125 C573.22194811 355.22771299 575.67256996 358.0425766 578.13964844 360.88574219 C581.13688531 364.29205075 584.25717881 367.57938703 587.375 370.875 C592.2548049 376.05605694 597.0883207 381.26811867 601.828125 386.578125 C604.36366658 389.40552748 606.92995761 392.20401982 609.5 395 C616.14729054 402.23816082 622.73287718 409.52663676 629.1875 416.9375 C631.27211164 419.30964429 633.38428644 421.65556065 635.5 424 C640.33227276 429.36016811 645.09818856 434.77009574 649.78515625 440.2578125 C650.81507479 441.46356676 651.84502353 442.66929523 652.875 443.875 C653.39465332 444.48351807 653.91430664 445.09203613 654.44970703 445.71899414 C657.47892533 449.25623858 660.55148583 452.74392577 663.6875 456.1875 C667.53851005 460.42708043 671.14843955 464.82932112 674.75 469.28125 C676.93501569 471.92147729 679.19171391 474.4672972 681.5 477 C685.32170863 481.19729034 688.91474189 485.53710231 692.484375 489.94921875 C695.42925052 493.52056624 698.45720087 497.0121164 701.5 500.5 C705.99829517 505.65918214 710.39311143 510.8815006 714.69921875 516.203125 C717.37247487 519.45278779 720.12084885 522.63147073 722.875 525.8125 C727.36221636 531.0039275 731.6464799 536.31672193 735.84838867 541.74047852 C739.66286769 546.6365834 743.67205004 551.34306351 747.73266602 556.03564453 C751.18805495 560.03425589 754.53413127 564.10032329 757.8125 568.24609375 C760.66072412 571.83180447 763.54822469 575.38483486 766.4375 578.9375 C767.00331787 579.63343262 767.56913574 580.32936523 768.15209961 581.04638672 C771.2619626 584.86927341 774.37748938 588.68743179 777.5 592.5 C778.19996094 593.3559375 778.89992188 594.211875 779.62109375 595.09375 C780.91805393 596.67821366 782.2156047 598.26219753 783.51611328 599.84375 C789.64678215 607.3017897 795.71688405 614.72777585 801.21875 622.66796875 C802.98556967 625.08871554 802.98556967 625.08871554 805.3203125 627.31640625 C808.60185053 630.60272786 811.47077201 634.13119922 814.375 637.75 C814.94573242 638.45866211 815.51646484 639.16732422 816.10449219 639.89746094 C817.23037042 641.29759978 818.35477048 642.6989288 819.47753906 644.1015625 C820.76669633 645.70908125 822.06585353 647.30857265 823.3671875 648.90625 C824.29917969 650.06640625 824.29917969 650.06640625 825.25 651.25 C825.77078125 651.89453125 826.2915625 652.5390625 826.828125 653.203125 C828.08623142 655.13222151 828.45130603 656.78630365 829 659 C829.66 659.33 830.32 659.66 831 660 C831 660.66 831 661.32 831 662 C831.66 662 832.32 662 833 662 C833 662.66 833 663.32 833 664 C837.96309296 662.37418243 837.96309296 662.37418243 841.4375 658.8125 C841.623125 658.214375 841.80875 657.61625 842 657 C842.99 657 843.98 657 845 657 C845.33 656.01 845.66 655.02 846 654 C846.66 654 847.32 654 848 654 C848.03351562 653.33871094 848.06703125 652.67742188 848.1015625 651.99609375 C849.44872392 647.50360328 852.34422784 644.57450428 855.375 641.0625 C856.66020918 639.54020545 857.9440465 638.01675172 859.2265625 636.4921875 C859.86625977 635.73518555 860.50595703 634.97818359 861.16503906 634.19824219 C863.76544036 631.08301956 866.26404378 627.89426588 868.75 624.6875 C872.88429296 619.37594648 877.15422628 614.19693507 881.484375 609.04296875 C884.13080173 605.84177866 886.69824725 602.58909846 889.25 599.3125 C893.99259316 593.22458672 898.87903206 587.26578206 903.80322266 581.32421875 C907.48271987 576.87375047 911.0847653 572.37427891 914.625 567.8125 C918.81745405 562.41812689 923.18812489 557.20620157 927.65844727 552.04052734 C931.42787352 547.68341132 935.09068695 543.24998587 938.72265625 538.77734375 C941.74419944 535.09240857 944.83035951 531.46431679 947.91650391 527.83349609 C950.79557843 524.44026525 953.63211492 521.0172328 956.4375 517.5625 C960.85262824 512.13999847 965.40012477 506.83872545 969.9609375 501.5390625 C972.82597089 498.20834749 975.6665794 494.85761621 978.5 491.5 C983.29064069 485.82689555 988.11537695 480.18374342 992.953125 474.55078125 C995.0096645 472.15611701 997.06137314 469.75743831 999.109375 467.35546875 C1003.57771331 462.11935532 1008.05417904 456.90432668 1012.6875 451.8125 C1015.64132181 448.56329601 1018.44449748 445.24125315 1021.1875 441.8125 C1026.09003486 435.74679782 1031.42258037 430.11835023 1036.76953125 424.4453125 C1039.7128424 421.31956818 1042.56830219 418.13126839 1045.37109375 414.87890625 C1048.85160176 410.86421955 1052.43973477 406.94386283 1056 403 C1057.50028679 401.33359149 1059.00028872 399.66692647 1060.5 398 C1061.24507812 397.17242187 1061.99015625 396.34484375 1062.7578125 395.4921875 C1064.23292618 393.85260121 1065.70691652 392.21200345 1067.1796875 390.5703125 C1072.6149613 384.51607514 1078.10132485 378.5101045 1083.60595703 372.51904297 C1084.95677503 371.04710084 1086.30460973 369.57242264 1087.65234375 368.09765625 C1094.42919545 360.68391981 1101.26809934 353.32993705 1108.13232422 345.99707031 C1110.06064731 343.93515098 1111.98558279 341.87010669 1113.91015625 339.8046875 C1125.81675631 327.04380223 1125.81675631 327.04380223 1131.875 321.1875 C1133.72049259 319.28772822 1135.44074263 317.34477881 1137.16651917 315.33766174 C1140.77889826 311.19934866 1144.57156637 307.28700569 1148.46069336 303.40991211 C1149.17062943 302.69822372 1149.88056549 301.98653534 1150.61201477 301.25328064 C1152.93546668 298.92546446 1155.26251363 296.60128203 1157.58984375 294.27734375 C1159.21991827 292.64659463 1160.84984441 291.01569717 1162.47962952 289.38465881 C1165.88640855 285.97641016 1169.29497758 282.56996467 1172.70483398 279.16479492 C1177.06014794 274.81517777 1181.41095661 270.46108617 1185.76042843 266.10562801 C1189.12248049 262.73995049 1192.48692545 259.37667309 1195.85208321 256.01410103 C1197.45667333 254.41017468 1199.06053011 252.80551431 1200.66361809 251.20008659 C1202.90996177 248.95118368 1205.15952016 246.70554439 1207.40991211 244.46069336 C1208.06210724 243.806474 1208.71430237 243.15225464 1209.38626099 242.47821045 C1213.21457845 238.66720604 1217.15562783 235.04435409 1221.25438786 231.52530766 C1223.61857207 229.45949465 1225.81046652 227.24871006 1228 225 C1231.47472342 221.43136514 1235.10337123 218.14187147 1238.86328125 214.8828125 C1242.49615995 211.68162871 1245.99137033 208.33607411 1249.5 205 C1254.32305152 200.41414774 1259.18972248 195.91009541 1264.21826172 191.54980469 C1266.44865042 189.60975159 1268.63078013 187.61949697 1270.8125 185.625 C1274.27530082 182.49577173 1277.80679003 179.49499651 1281.4375 176.5625 C1285.24087503 173.48663412 1288.90082652 170.31246834 1292.5 167 C1296.91990023 162.93694724 1301.46827153 159.10027112 1306.140625 155.33203125 C1308.6380189 153.29522229 1311.09216465 151.21669944 1313.53515625 149.11523438 C1319.70946598 143.81321656 1326.07314983 138.81660512 1332.56323242 133.90722656 C1337.257275 130.35191325 1341.86672433 126.71191613 1346.4375 123 C1354.70823496 116.31750186 1363.33257766 110.15368185 1372 104 C1373.42984422 102.97808382 1374.85953474 101.95595257 1376.2890625 100.93359375 C1386.38204559 93.73767062 1396.61942338 86.774294 1407 80 C1407.73379883 79.52095215 1408.46759766 79.0419043 1409.22363281 78.54833984 C1468.0802883 40.3238526 1530.79141815 11.99988957 1601 4 C1601.84312744 3.90050049 1602.68625488 3.80100098 1603.55493164 3.69848633 C1610.66742027 2.91415355 1617.78845528 2.66603619 1624.9375 2.4375 C1626.21713623 2.3957666 1627.49677246 2.3540332 1628.81518555 2.31103516 C1638.88249524 2.00064808 1648.92951493 1.79825802 1659 2 C1659.67208496 2.00725098 1660.34416992 2.01450195 1661.03662109 2.02197266 C1680.80242367 2.30578437 1699.95006067 7.80951264 1715 21 C1715.62648438 21.54398438 1716.25296875 22.08796875 1716.8984375 22.6484375 C1726.74133432 31.80362101 1732.35474185 44.86200175 1733.203125 58.19140625 C1733.41819675 73.6586496 1729.9425675 87.48799794 1719.15625 99.03125 C1700.85815228 115.73820879 1676.78689329 121.12349794 1652.625 121.25 C1651.15933594 121.2809375 1651.15933594 121.2809375 1649.6640625 121.3125 C1639.90601341 121.36440452 1630.67151712 119.35002536 1623 113 C1620.07869264 109.74371606 1618.02533833 106.07098597 1615.9375 102.25 C1613.17229736 97.61159557 1610.33383284 95.81375972 1605.1875 94.375 C1562.5989277 83.86758321 1514.08267691 106.67216162 1476 124 C1475.01 124.44875488 1474.02 124.89750977 1473 125.35986328 C1460.21329693 131.19424553 1447.85990052 137.72282752 1435.58544922 144.5625 C1433.1681149 145.90652875 1430.74400808 147.23712984 1428.31640625 148.5625 C1389.66523986 169.72389767 1352.88702307 194.46094868 1317.26904297 220.35595703 C1315.05104815 221.96301289 1312.82586587 223.55948907 1310.59765625 225.15234375 C1298.88508189 233.53573909 1287.41025593 242.21045881 1276 251 C1275.19997559 251.61552734 1274.39995117 252.23105469 1273.57568359 252.86523438 C1264.8764221 259.56672668 1256.26295319 266.35981145 1247.76318359 273.31274414 C1243.48846363 276.80631056 1239.16881997 280.2339217 1234.8125 283.625 C1229.11115151 288.07029657 1223.57970199 292.68920859 1218.08203125 297.3828125 C1215.25316987 299.79496524 1212.38424878 302.15419998 1209.5 304.5 C1204.89671896 308.24685666 1200.36092349 312.06623705 1195.84033203 315.91186523 C1192.38858671 318.84262139 1188.89786441 321.71710951 1185.375 324.5625 C1180.66857442 328.38902862 1176.20351894 332.43160438 1171.7421875 336.5390625 C1169.09984117 338.91039895 1166.39305833 341.15252997 1163.625 343.375 C1158.19108991 347.75944247 1153.10173982 352.45500063 1148 357.21484375 C1145.03587706 359.97846336 1142.00424383 362.65498708 1138.94140625 365.30859375 C1132.34165918 371.058474 1125.90472495 376.99331264 1119.4597168 382.9152832 C1116.34438736 385.77544568 1113.21182594 388.61484644 1110.0625 391.4375 C1103.98468686 396.8969029 1097.98408261 402.43834198 1092 408 C1091.3409668 408.61246582 1090.68193359 409.22493164 1090.00292969 409.85595703 C1079.41780212 419.68249316 1079.41780212 419.68249316 1069.1875 429.875 C1067.29070043 431.7176053 1065.35079659 433.43263353 1063.34570312 435.15429688 C1059.14460338 438.82101294 1055.19796054 442.6899517 1051.28125 446.65625 C1050.22798523 447.7151947 1050.22798523 447.7151947 1049.15344238 448.79553223 C1046.93315397 451.02791358 1044.71616045 453.26352111 1042.5 455.5 C1039.57590521 458.45090378 1036.64836943 461.39833203 1033.71875 464.34375 C1033.063302 465.00749634 1032.407854 465.67124268 1031.73254395 466.35510254 C1027.89981246 470.2077949 1023.95822516 473.86463831 1019.82997131 477.39955139 C1016.73141023 480.1094779 1013.83720349 483.01809298 1010.9375 485.9375 C1010.36451172 486.50662109 1009.79152344 487.07574219 1009.20117188 487.66210938 C1006.28463857 490.58520406 1003.48647574 493.56249914 1000.80297852 496.70141602 C996.95089041 501.12178828 992.85561812 505.25430441 988.6875 509.375 C987.5286731 510.52814697 987.5286731 510.52814697 986.34643555 511.70458984 C983.07623964 514.9585983 979.8000651 518.20656266 976.52441406 521.45507812 C974.11834715 523.84295352 971.71536962 526.23390793 969.3125 528.625 C968.21844849 529.706604 968.21844849 529.706604 967.10229492 530.81005859 C963.09600232 534.79738157 959.27112744 538.87447211 955.60217285 543.1751709 C952.73211801 546.44408136 949.60447844 549.45592616 946.5 552.5 C942.06744382 556.88514916 937.75671699 561.27811904 933.734375 566.046875 C930.98279075 569.14550592 928.00342359 572.01689295 925.0546875 574.92578125 C921.73868857 578.21429953 918.63970868 581.62205554 915.609375 585.171875 C913.46485215 587.6078864 911.15753595 589.85495259 908.84179688 592.12670898 C907.068559 593.93026866 905.41281003 595.78835113 903.765625 597.70703125 C900.04657659 601.98531289 896.1631531 606.08741587 892.25 610.1875 C886.38113927 616.37704865 880.72061943 622.68085059 875.28125 629.25 C873.34950603 631.57867766 871.37774704 633.8577392 869.375 636.125 C866.86087528 638.8167087 866.86087528 638.8167087 866 642 C865.01 642.33 864.02 642.66 863 643 C861.684787 645.14587384 861 646.47013105 861 649 C860.278125 649.2475 859.55625 649.495 858.8125 649.75 C855.75680536 651.10808651 853.58526754 652.90383713 851 655 C850.34 655 849.68 655 849 655 C848.67 655.99 848.34 656.98 848 658 C847.34 658 846.68 658 846 658 C845.896875 658.639375 845.79375 659.27875 845.6875 659.9375 C845.460625 660.618125 845.23375 661.29875 845 662 C844.01 662.33 843.02 662.66 842 663 C841.67 664.65 841.34 666.3 841 668 C837.75 668.8125 837.75 668.8125 834 669 C832.0625 667 832.0625 667 830 664 C828.73404207 662.84614633 827.43945972 661.72328203 826.125 660.625 C822.9140908 657.88802574 820.24913605 655.02863887 817.5859375 651.76953125 C815.15024703 649.05187661 812.3589313 646.78811419 809.5390625 644.48046875 C809.03117188 643.99191406 808.52328125 643.50335937 808 643 C808 642.34 808 641.68 808 641 C806.35 641.33 804.7 641.66 803 642 C802.731875 640.783125 802.46375 639.56625 802.1875 638.3125 C798.8789474 628.35548153 789.40496132 620.20487338 782.0546875 613.05078125 C779.45015194 610.45119728 777.07415559 607.69014453 774.6796875 604.8984375 C772.47834607 602.41040974 770.11911485 600.10805923 767.75 597.78125 C765.29365151 595.28103815 763.03690632 592.62319484 760.75 589.96875 C759.06201714 588.06976929 757.31230266 586.27994012 755.5 584.5 C753.10722509 582.14966899 750.86808888 579.735776 748.6875 577.1875 C745.92381971 573.97666245 743.01380404 570.97732835 740 568 C737.13073759 565.16510001 734.35513289 562.32879341 731.75 559.25 C727.83916666 554.66873808 723.53856413 550.48512068 719.23730469 546.27441406 C716.3317393 543.41131338 713.54867158 540.51478819 710.90625 537.40625 C705.46331916 531.10071182 699.41932043 525.35265069 693.5 519.5 C691.11155018 517.13845147 688.72665005 514.773397 686.34375 512.40625 C685.81124634 511.88204468 685.27874268 511.35783936 684.73010254 510.81774902 C681.90672666 508.01239703 679.22129581 505.13919562 676.62084961 502.12524414 C672.83875701 497.75646475 668.81300123 493.66878767 664.72265625 489.58984375 C663.95247665 488.81870743 663.18229706 488.04757111 662.38877869 487.25306702 C660.77058627 485.63419847 659.15114788 484.01657449 657.53051758 482.40014648 C655.06932768 479.94431282 652.61352191 477.48318635 650.15820312 475.02148438 C648.57584133 473.43978347 646.99316933 471.85839283 645.41015625 470.27734375 C644.68594986 469.55111313 643.96174347 468.82488251 643.21559143 468.0766449 C639.216329 464.09545477 635.11522274 460.30648941 630.84300232 456.62062073 C628.19291772 454.29030242 625.73001913 451.8240448 623.25 449.3125 C622.49638184 448.5532019 622.49638184 448.5532019 621.72753906 447.77856445 C619.6204205 445.65540351 617.51945787 443.52619158 615.41796875 441.39746094 C609.99508572 435.91066055 604.57651542 430.49226677 598.703125 425.48046875 C595.23951103 422.4696667 592.1107345 419.12545099 588.90625 415.84375 C586.0968039 413.03031604 583.10593382 410.44955518 580.1015625 407.84765625 C576.56584183 404.73911373 573.16429786 401.49060251 569.75 398.25 C560.42402403 389.43665266 550.98758889 380.75809259 541.4375 372.1875 C538.91239133 369.92137684 536.39383372 367.64809385 533.875 365.375 C528.55317482 360.58865258 523.18487465 355.8633524 517.7421875 351.21484375 C516.53643324 350.18492521 515.33070477 349.15497647 514.125 348.125 C513.51648193 347.60534668 512.90796387 347.08569336 512.28100586 346.55029297 C508.74376142 343.52107467 505.25607423 340.44851417 501.8125 337.3125 C497.57291957 333.46148995 493.17067888 329.85156045 488.71875 326.25 C486.07852271 324.06498431 483.5327028 321.80828609 481 319.5 C476.75832974 315.6390781 472.37966073 311.99450297 467.921875 308.38671875 C464.72588762 305.7760927 461.57937757 303.11268932 458.4375 300.4375 C453.94479282 296.61948342 449.40315944 292.88026267 444.78125 289.21875 C441.92460511 286.93985352 439.09319749 284.63215973 436.26342773 282.32006836 C429.73256712 276.98738986 423.14904641 271.75099241 416.4453125 266.63671875 C413.195351 264.1568858 409.97113384 261.64488163 406.74853516 259.12963867 C391.96310975 247.59186968 377.15165575 236.09406253 361.81787109 225.29101562 C359.00909667 223.29628031 356.22539505 221.26729228 353.43847656 219.2421875 C278.54595726 164.86686745 188.24238697 101.86160136 76.296875 92.4609375 C66.13389455 93.95097052 66.13389455 93.95097052 57.8046875 99.33203125 C56.12707558 101.81213718 54.6658912 104.30144373 53.25 106.9375 C49.14694169 113.79634375 44.46932208 117.51151438 36.8125 119.875 C13.21451819 124.86802386 -16.67824639 120.09408048 -37 107 C-38.16595703 106.24976562 -38.16595703 106.24976562 -39.35546875 105.484375 C-50.6252475 97.49272467 -57.28502582 85.82486481 -60.60546875 72.5859375 C-63.06118117 56.49007985 -59.58013254 41.23232866 -50 28 C-38.06284911 13.80171643 -22.03393232 6.38652469 -4 3 C-2.68 3 -1.36 3 0 3 C0 2.01 0 1.02 0 0 Z " fill="#CC2A30" transform="translate(61,0)"/>
<path d="M0 0 C14.42952609 13.57666272 23.40312085 30.52492718 24.14794922 50.48876953 C24.41632476 67.10485989 20.47238724 84.45776207 8.72265625 96.87890625 C-1.52630197 105.9507564 -13.00322552 108.4317137 -26.30859375 107.96875 C-32.95526455 107.38906018 -36.79461903 105.35359538 -41.4375 100.6875 C-50.78330964 88.28626498 -52.60535614 70.15204165 -55.94506836 55.40478516 C-61.84411854 26.65037159 -61.84411854 26.65037159 -80.20703125 4.83984375 C-90.33309057 -1.18157967 -102.98258968 -1.77346742 -114.390625 0.15625 C-117.08048355 0.84749857 -119.64790924 1.65658434 -122.25 2.625 C-123.29027344 3.00785156 -123.29027344 3.00785156 -124.3515625 3.3984375 C-138.24863211 9.43341992 -146.09930467 22.85674879 -151.89453125 36.15625 C-159.78119761 56.33884287 -159.73049849 79.00650085 -153.25 99.625 C-153.01394043 100.38296875 -152.77788086 101.1409375 -152.53466797 101.921875 C-144.49865515 126.95734497 -130.40088178 147.83872546 -113.70898438 167.86181641 C-111.72888886 170.25476317 -109.80813376 172.69404796 -107.875 175.125 C-103.41554391 180.58370459 -98.59691562 185.68886959 -93.74072266 190.79296875 C-90.05184861 194.67249492 -86.47778866 198.62409186 -82.96923828 202.66723633 C-80.21616725 205.80226567 -77.3591204 208.83693038 -74.5 211.875 C-69.28460339 217.43966048 -64.10696787 223.03512019 -58.9609375 228.6640625 C-56.06793515 231.8275574 -53.15956329 234.97674157 -50.25 238.125 C-45.48097824 243.28677376 -40.72563445 248.46082317 -35.98046875 253.64453125 C-34.11114081 255.68643328 -32.23840159 257.72513497 -30.36328125 259.76171875 C-22.75606469 268.02846834 -15.36782086 276.45996305 -8.07446289 285.00390625 C-5.40842523 288.12367629 -2.72699798 291.22716853 -0.0078125 294.30078125 C37.24735104 336.49795628 57.22526785 383.7652415 54.75 440.625 C53.36862114 459.59775401 48.588342 478.30582292 40.75 495.625 C40.46286133 496.26501953 40.17572266 496.90503906 39.87988281 497.56445312 C21.54836072 537.79471242 -13.34683041 566.97059929 -54.25 582.625 C-68.02183992 587.59266008 -82.3032779 590.99248812 -96.5 594.5 C-97.29886627 594.69931122 -98.09773254 594.89862244 -98.92080688 595.10397339 C-114.37140949 598.93925754 -128.92561717 599.86276382 -144.8125 599.875 C-145.7195166 599.87600708 -146.6265332 599.87701416 -147.56103516 599.87805176 C-162.63531552 599.86676265 -177.36134232 599.18633965 -192.25 596.625 C-193.43674316 596.42414795 -193.43674316 596.42414795 -194.64746094 596.21923828 C-206.80444124 594.04363985 -217.94102796 589.46755982 -229.25 584.625 C-230.83067786 583.96472092 -232.41140588 583.30456189 -233.9921875 582.64453125 C-249.44570028 576.09410169 -262.29119286 568.43863194 -274.25 556.625 C-274.90355469 556.04363281 -275.55710937 555.46226562 -276.23046875 554.86328125 C-281.70408017 549.89068689 -285.42091183 543.61549135 -289.21289062 537.33691406 C-290.1286823 535.82525418 -291.07025932 534.32928064 -292.015625 532.8359375 C-303.08637081 514.32878162 -303.22735929 489.08664791 -298.0847168 468.59741211 C-291.25397011 444.25193033 -275.92412033 426.04401233 -254.25 413.625 C-234.52975648 402.72710489 -211.8013405 398.64764808 -189.625 404.1875 C-172.68499255 409.25700697 -157.91484427 417.16575385 -145.25 429.625 C-144.4765625 430.38554688 -143.703125 431.14609375 -142.90625 431.9296875 C-130.50360526 444.88450478 -124.44809625 460.67797484 -121.375 478.125 C-121.24246826 478.8665332 -121.10993652 479.60806641 -120.97338867 480.37207031 C-120.05671232 486.18360124 -120.02600084 491.27492161 -122.8125 496.625 C-127.23141572 502.0636655 -132.11918601 507.34145348 -139.25 508.625 C-144.20454834 509.13669925 -148.02437455 509.16972242 -152.625 507.125 C-158.48069899 501.54814382 -159.9927372 494.310445 -161.5625 486.625 C-165.30645379 469.80828426 -171.63216505 453.890765 -186.25 443.625 C-199.20047604 436.39191931 -212.80157273 434.48753351 -227.17578125 438.52734375 C-243.24229668 444.26392677 -254.45642457 454.71318049 -262.25 469.625 C-268.16790739 482.49072684 -268.64562952 496.22334128 -264.25 509.625 C-260.46413885 519.45742897 -256.07529191 527.52339878 -247.25 533.625 C-245.73986328 534.70974609 -245.73986328 534.70974609 -244.19921875 535.81640625 C-229.09734333 546.2984392 -212.04714752 552.44680448 -194.25 556.625 C-193.1043457 556.89401123 -193.1043457 556.89401123 -191.93554688 557.16845703 C-180.25174482 559.74185788 -168.47309491 559.92717643 -156.5625 560 C-155.83150085 560.0080365 -155.10050171 560.016073 -154.34735107 560.02435303 C-140.87509768 560.136688 -125.90697516 559.70662195 -113.875 553 C-113.22200928 552.65227539 -112.56901855 552.30455078 -111.89624023 551.94628906 C-92.50010628 541.25516864 -81.00332224 522.55604391 -74.84204102 501.73803711 C-74.28117326 499.70675332 -73.75589519 497.67064016 -73.25 495.625 C-73.08628906 494.96935059 -72.92257812 494.31370117 -72.75390625 493.63818359 C-68.07091762 473.80804887 -68.24998657 451.36295625 -73.25 431.625 C-73.49943359 430.60720459 -73.49943359 430.60720459 -73.75390625 429.56884766 C-82.15325941 395.93254912 -102.50720363 368.61296741 -124.63671875 342.703125 C-127.02882269 339.8979268 -129.36455851 337.05036843 -131.6875 334.1875 C-139.76303635 324.28381192 -148.12819547 314.66514763 -156.8046875 305.28515625 C-158.80160793 303.11278754 -160.75828734 300.91960837 -162.6875 298.6875 C-167.23565534 293.44463835 -171.98714943 288.38724274 -176.70361328 283.29638672 C-180.90424393 278.75620399 -185.07897417 274.19236765 -189.25 269.625 C-190.03246094 268.77164062 -190.81492187 267.91828125 -191.62109375 267.0390625 C-196.19050858 262.01824967 -200.54661753 256.87035451 -204.8125 251.58984375 C-207.01443141 248.91153295 -209.26587953 246.29159671 -211.54541016 243.67993164 C-247.61098561 202.25733556 -277.15084093 153.22490618 -274.25 96.625 C-271.23934727 57.96337911 -253.97662977 24.3693687 -225.25 -1.375 C-221.15532055 -4.74483407 -216.76561994 -7.60205863 -212.25 -10.375 C-211.1878125 -11.04789063 -210.125625 -11.72078125 -209.03125 -12.4140625 C-186.58746632 -25.99569795 -160.13550688 -33.23959124 -134.25 -36.375 C-133.30125 -36.50519531 -132.3525 -36.63539063 -131.375 -36.76953125 C-87.33659753 -41.93028154 -34.01889299 -29.29832262 0 0 Z " fill="#2CADE3" transform="translate(1728.25,906.375)"/>
<path d="M0 0 C5.85272165 5.46682791 9.0236192 11.70850392 9.3984375 19.76953125 C9.41097706 21.45049222 9.40261696 23.13171913 9.375 24.8125 C9.36629883 25.69325195 9.35759766 26.57400391 9.34863281 27.48144531 C9.20167964 34.01242957 8.45347316 39.89804304 6 46 C5.7215625 46.73347656 5.443125 47.46695312 5.15625 48.22265625 C2.94456921 53.32286842 -0.12558748 57.2228298 -5 60 C-10.26132927 61.65755152 -14.05596834 61.32384408 -19.10791016 59.0144043 C-22.61701423 57.13307172 -25.74616068 54.74333325 -28.9375 52.375 C-34.66516257 48.22797022 -40.44942198 44.3864745 -46.625 40.9375 C-47.26300537 40.58026855 -47.90101074 40.22303711 -48.55834961 39.85498047 C-60.39851659 33.37801503 -73.18522234 30.35235582 -86.60546875 33 C-105.94728443 38.69793419 -122.22662979 51.70760227 -137 65 C-137.85988525 65.77303467 -138.71977051 66.54606934 -139.60571289 67.3425293 C-146.66391972 73.72968858 -153.48468954 80.32770751 -160.2019043 87.0715332 C-161.82552229 88.70056572 -163.45449603 90.32410728 -165.08398438 91.94726562 C-170.5996707 97.45902665 -175.96235709 103.04302584 -181 109 C-182.03368092 110.19138581 -183.06882942 111.38149994 -184.10546875 112.5703125 C-187.40775673 116.37665342 -190.70463796 120.18766263 -194 124 C-194.80872559 124.93465088 -194.80872559 124.93465088 -195.63378906 125.88818359 C-201.13794383 132.2545772 -206.59418384 138.63827159 -211.80859375 145.24609375 C-214.10612849 148.13337003 -216.44189018 150.98655569 -218.78344727 153.83813477 C-221.0265186 156.58143876 -223.24336634 159.34544573 -225.4609375 162.109375 C-226.8522206 163.81846389 -228.27688471 165.48990269 -229.71875 167.15625 C-230.4715625 168.0740625 -231.224375 168.991875 -232 169.9375 C-232.99 171.09572266 -232.99 171.09572266 -234 172.27734375 C-235.60553002 176.64865009 -233.74715083 179.93379433 -232 184 C-231.51515137 185.13429443 -231.03030273 186.26858887 -230.53076172 187.43725586 C-229.03891151 190.87654493 -227.50759242 194.29729463 -225.96716309 197.71505737 C-224.16060683 201.72401666 -222.36859368 205.73948386 -220.57421875 209.75390625 C-220.19806427 210.59442032 -219.82190979 211.43493439 -219.43435669 212.30091858 C-215.70078342 220.65055599 -212.02651991 229.02579565 -208.35891724 237.40457153 C-193.55106178 271.22786997 -178.51343509 304.94819767 -163.33273315 338.60565186 C-160.69562927 344.4534499 -158.06511695 350.30418369 -155.4375 356.15625 C-145.99745268 377.17623477 -136.48794323 398.16282646 -126.87121582 419.1026001 C-126.04739998 420.89676873 -125.22435987 422.69129348 -124.40136719 424.48583984 C-121.46220341 430.8922238 -118.50700631 437.29091139 -115.53710938 443.68310547 C-114.50300276 445.91458139 -113.47312605 448.1480219 -112.44726562 450.38330078 C-102.98337825 470.9977937 -92.94604082 491.32306035 -82.81504822 511.61577606 C-81.76520949 513.71952207 -80.71674636 515.82394862 -79.6685791 517.92852783 C-71.80626225 533.70705328 -63.79852782 549.37287445 -55.2300415 564.78369141 C-53.51728561 567.86976257 -51.83183875 570.97025801 -50.14453125 574.0703125 C-37.17014926 597.71775188 -23.32162705 620.78756437 -8 643 C-7.54044922 643.66660645 -7.08089844 644.33321289 -6.60742188 645.02001953 C15.09977749 676.32723591 42.87977622 713.60277288 82.125 722.44140625 C96.71613621 724.5447656 110.01936931 723.56153383 123.10546875 716.26953125 C126 715 126 715 128.66796875 715.015625 C131.77765024 716.32825437 132.6477614 717.84208451 134.3125 720.75 C134.82425781 721.61109375 135.33601563 722.4721875 135.86328125 723.359375 C137.12238804 726.28431036 137.62135193 727.86798215 137 731 C133.04989213 735.17721879 127.57275472 737.3907499 122.4375 739.8125 C121.51291992 740.24973389 120.58833984 740.68696777 119.63574219 741.13745117 C110.30884225 745.45783729 100.78087106 748.87102881 91 752 C90.30551758 752.23025879 89.61103516 752.46051758 88.89550781 752.69775391 C79.75581625 755.71992751 70.50606792 757.833859 61.0625 759.6875 C59.52795166 759.99131592 59.52795166 759.99131592 57.96240234 760.30126953 C42.21486091 763.26118522 26.62806103 764.38579168 10.625 764.3125 C9.7718219 764.31034485 8.9186438 764.3081897 8.03961182 764.30596924 C-4.51068866 764.25518445 -16.74272415 763.94815524 -29 761 C-29.82983398 760.80664062 -30.65966797 760.61328125 -31.51464844 760.4140625 C-71.1726342 750.88555869 -106.64796224 725.54007401 -131.83984375 693.71875 C-134.07981618 690.89954419 -136.40893886 688.17312201 -138.75 685.4375 C-149.59600115 672.42229861 -158.99139021 658.32572158 -168 644 C-168.50499023 643.20255371 -169.00998047 642.40510742 -169.53027344 641.58349609 C-194.07506497 602.7725165 -215.61268309 561.62309177 -235 520 C-235.64226248 518.6265561 -236.28468777 517.25318833 -236.92724609 515.87988281 C-248.67330062 490.75495977 -259.97894712 465.45067268 -271 440 C-271.56040985 438.70645599 -271.56040985 438.70645599 -272.13214111 437.38677979 C-283.27595059 411.65207147 -294.15311755 385.81208126 -304.81671143 359.87493896 C-306.0836778 356.79669493 -307.35382397 353.71977606 -308.62451172 350.64306641 C-310.91305092 345.10085727 -313.19500308 339.55597417 -315.47271729 334.00930786 C-316.35461146 331.86391176 -317.23831241 329.71925732 -318.1239624 327.57540894 C-320.49280757 321.83782992 -322.82396185 316.08858526 -325.08526611 310.30770874 C-325.83917705 308.40572731 -326.63456622 306.52024146 -327.44091797 304.63989258 C-331.4112714 294.24256252 -330.59894001 282.77690376 -330.52148438 271.81469727 C-330.49994686 268.17852874 -330.52140827 264.54431341 -330.546875 260.90820312 C-330.54423331 258.57812068 -330.53911162 256.24803943 -330.53125 253.91796875 C-330.53934692 252.84073044 -330.54744385 251.76349213 -330.55578613 250.65361023 C-330.47496171 244.1245526 -329.55843656 239.50657781 -326 234 C-325.51917969 233.24404541 -325.03835938 232.48809082 -324.54296875 231.70922852 C-324.09566406 231.10522217 -323.64835938 230.50121582 -323.1875 229.87890625 C-322.67582275 229.18031494 -322.16414551 228.48172363 -321.63696289 227.76196289 C-320.82666626 226.67322876 -320.82666626 226.67322876 -320 225.5625 C-318.8311519 223.9693948 -317.66320324 222.37562935 -316.49609375 220.78125 C-315.61606689 219.58242187 -315.61606689 219.58242187 -314.71826172 218.359375 C-312.12051343 214.79236172 -309.59238973 211.17778305 -307.0625 207.5625 C-301.10009025 199.07479952 -294.94916268 190.73162126 -288.7734375 182.3984375 C-287.03026895 180.04093643 -285.29498702 177.677859 -283.5625 175.3125 C-267.73737954 153.71928185 -251.41245343 132.54046024 -234.4765625 111.80859375 C-233.16952459 110.2076452 -231.86576644 108.60402024 -230.5625 107 C-222.44398412 97.02582335 -214.20365498 87.18637755 -205.484375 77.73046875 C-204.18165634 76.29870721 -202.88303753 74.86230024 -201.62988281 73.38696289 C-196.11743097 66.91541312 -190.12092875 60.93483553 -184.11328125 54.92797852 C-182.26271033 53.07522532 -180.42029924 51.21461294 -178.578125 49.35351562 C-171.6949847 42.43776503 -164.70216317 36.00687652 -157 30 C-155.91546023 29.11997431 -154.83190091 28.23873663 -153.75 27.35546875 C-118.31264311 -0.58165209 -41.61546274 -35.05787467 0 0 Z " fill="#2FB774" transform="translate(1319,994)"/>
<path d="M0 0 C14.05967567 13.20089791 23.11078183 31.41566406 23.97265625 50.84375 C24.05 51.93623047 24.05 51.93623047 24.12890625 53.05078125 C24.82287958 70.48686107 18.83123281 87.59905993 7.68359375 100.92578125 C-0.77957987 110.03527793 -11.3787047 116.30923431 -23.8828125 117.08203125 C-33.14704116 117.320833 -41.54671738 117.43796343 -49.0078125 111.18359375 C-59.34007626 100.45478255 -61.07769965 86.28363048 -61.73828125 72.05078125 C-61.84977584 70.01755149 -61.96177087 67.98434913 -62.07421875 65.95117188 C-62.24034978 62.8100739 -62.40173108 59.66891539 -62.55371094 56.52709961 C-63.6116596 28.69935007 -63.6116596 28.69935007 -77.27734375 5.40625 C-86.18770899 -1.81245833 -95.89943952 -2.21843627 -107.02734375 -1.15625 C-131.88640007 2.21370793 -151.79365727 17.34305756 -166.83496094 36.83374023 C-207.47361125 91.62530576 -215.76904616 168.48812008 -219.02734375 234.84375 C-219.08519043 235.97844727 -219.14303711 237.11314453 -219.20263672 238.28222656 C-223.38868525 323.51862121 -223.34424796 427.28180755 -163.02734375 520.84375 C-162.33253906 521.68292969 -161.63773438 522.52210938 -160.921875 523.38671875 C-144.18273334 543.05292343 -119.61228419 554.61499027 -94.02734375 556.84375 C-56.420371 559.50655308 -21.61645063 542.06818378 6.20727539 518.17553711 C9.91086183 514.91914436 13.11685511 511.4761898 16.2578125 507.671875 C19.59630158 504.11284792 23.59520785 501.00681077 27.97265625 498.84375 C30.89168487 499.10864406 31.68043356 499.51905813 33.66015625 501.71875 C37.45160239 507.85728184 37.0486835 516.84693988 35.97265625 523.84375 C34.30398019 527.35850289 31.88614308 529.32617253 28.97265625 531.84375 C27.6927224 533.2560908 26.41388333 534.66963183 25.15673828 536.10229492 C-4.73895446 569.97308245 -47.6179546 591.86065669 -92.02734375 598.84375 C-93.05384033 599.0188208 -94.08033691 599.1938916 -95.13793945 599.37426758 C-99.93357988 599.95314 -104.64657062 600.02523819 -109.47265625 600.046875 C-110.47835663 600.05257507 -111.48405701 600.05827515 -112.52023315 600.06414795 C-114.65003418 600.07356994 -116.7798496 600.08012076 -118.90966797 600.08398438 C-122.09370236 600.0935734 -125.27705752 600.12457453 -128.4609375 600.15625 C-170.72673169 600.37566782 -213.47226443 588.20214783 -247.02734375 561.84375 C-247.90390625 561.18761719 -248.78046875 560.53148437 -249.68359375 559.85546875 C-263.90207787 548.82757821 -276.46603706 535.37243451 -287.02734375 520.84375 C-287.96900391 519.57724609 -287.96900391 519.57724609 -288.9296875 518.28515625 C-346.52760484 438.74517517 -354.14828215 326.03567625 -340.90234375 193.3828125 C-329.33456606 122.79467386 -298.80021293 47.65049371 -239.27734375 4.28125 C-175.32573803 -41.36634945 -63.20947305 -57.0357967 0 0 Z " fill="#28ACE2" transform="translate(538.02734375,905.15625)"/>
<path d="M0 0 C0.77785858 -0.00715027 1.55571716 -0.01430054 2.35714722 -0.02166748 C35.50541294 -0.25671769 35.50541294 -0.25671769 50.83984375 3.203125 C51.96277832 3.45594238 53.08571289 3.70875977 54.24267578 3.96923828 C112.68939645 17.50289775 168.59712624 43.79021213 220.36865234 73.78613281 C223.35660832 75.49944011 226.37611401 77.14912184 229.40185547 78.79443359 C271.15302431 101.55471929 311.23386686 128.50324696 349.83984375 156.203125 C350.57783203 156.73083496 351.31582031 157.25854492 352.07617188 157.80224609 C357.34969817 161.57663585 362.60139301 165.38022808 367.83984375 169.203125 C368.61714844 169.7703125 369.39445312 170.3375 370.1953125 170.921875 C387.69397189 183.71045478 405.02763357 196.75569777 421.83203125 210.44921875 C422.50089355 210.9918335 423.16975586 211.53444824 423.85888672 212.09350586 C425.14058925 213.1349484 426.41853207 214.18104252 427.69189453 215.23266602 C431.22903233 218.10397245 434.65404761 220.31441211 438.83984375 222.203125 C438.83984375 223.193125 438.83984375 224.183125 438.83984375 225.203125 C441.14984375 225.863125 443.45984375 226.523125 445.83984375 227.203125 C445.83984375 227.863125 445.83984375 228.523125 445.83984375 229.203125 C446.67515625 229.5434375 446.67515625 229.5434375 447.52734375 229.890625 C449.84755747 231.20750306 451.44255252 232.71207134 453.26953125 234.63671875 C456.04227961 237.40256973 459.06876843 239.89272958 462.046875 242.43359375 C462.63855469 243.01753906 463.23023438 243.60148438 463.83984375 244.203125 C463.83984375 244.863125 463.83984375 245.523125 463.83984375 246.203125 C464.76796875 246.6053125 464.76796875 246.6053125 465.71484375 247.015625 C467.83984375 248.203125 467.83984375 248.203125 469.83984375 251.203125 C473.42341616 251.45328373 473.42341616 251.45328373 476.83984375 251.203125 C476.94296875 250.419375 477.04609375 249.635625 477.15234375 248.828125 C477.83984375 246.203125 477.83984375 246.203125 480.83984375 244.203125 C481.16984375 243.213125 481.49984375 242.223125 481.83984375 241.203125 C484.203125 238.94140625 484.203125 238.94140625 487.15234375 236.515625 C488.11785156 235.70738281 489.08335937 234.89914062 490.078125 234.06640625 C492.83984375 232.203125 492.83984375 232.203125 496.83984375 232.203125 C497.49984375 230.883125 498.15984375 229.563125 498.83984375 228.203125 C499.49984375 228.203125 500.15984375 228.203125 500.83984375 228.203125 C500.90171875 227.584375 500.96359375 226.965625 501.02734375 226.328125 C501.29546875 225.626875 501.56359375 224.925625 501.83984375 224.203125 C502.55011719 223.92984375 503.26039063 223.6565625 503.9921875 223.375 C507.54634325 221.91238446 510.2612834 219.72815447 513.21484375 217.328125 C514.13112549 216.59674316 514.13112549 216.59674316 515.06591797 215.85058594 C516.99591677 214.30796512 518.91885755 212.75695023 520.83984375 211.203125 C531.47186722 202.60591082 542.28223371 194.30002839 553.25048828 186.13525391 C555.81574824 184.22110462 558.37391565 182.29788882 560.9296875 180.37109375 C571.80236914 172.17633476 582.75404317 164.107274 593.83984375 156.203125 C594.53255371 155.70651367 595.22526367 155.20990234 595.93896484 154.69824219 C621.59266567 136.33923471 648.00521886 118.78696122 674.83984375 102.203125 C675.91169922 101.54054688 676.98355469 100.87796875 678.08789062 100.1953125 C693.80259471 90.50155557 709.67712252 81.13470009 725.83984375 72.203125 C726.73832031 71.70506348 727.63679688 71.20700195 728.5625 70.69384766 C734.9639406 67.1511799 741.3937671 63.6638144 747.83984375 60.203125 C749.25692627 59.43814697 749.25692627 59.43814697 750.70263672 58.65771484 C797.08212986 33.7080495 846.98169567 12.37995319 898.83984375 2.203125 C899.844104 2.00066162 900.84836426 1.79819824 901.88305664 1.58959961 C910.95491083 -0.03720208 919.9539842 -0.13563053 929.14135742 -0.11254883 C931.76978921 -0.1093841 934.39709658 -0.13295228 937.02539062 -0.15820312 C957.181862 -0.23338596 976.00257623 3.73155848 991.15234375 18.015625 C1004.68790895 32.43695315 1006.38494218 50.15659969 1005.91992188 68.98242188 C1005.12824291 90.93703123 993.36963753 113.20461561 978.83984375 129.203125 C978.22882813 129.90695312 977.6178125 130.61078125 976.98828125 131.3359375 C969.2455849 139.73758673 956.23091833 149.40678794 944.58837891 150.39404297 C938.11938564 150.36292252 931.86280675 149.69006186 925.46484375 148.765625 C912.23054626 146.89166282 899.23982635 146.04904875 885.875 146.0703125 C884.35062139 146.06963606 882.82624288 146.06866323 881.30186462 146.06741333 C878.11911992 146.0659483 874.93640349 146.06804946 871.75366211 146.07275391 C867.73992454 146.07840734 863.72625388 146.07509661 859.71251869 146.06931686 C832.10368129 145.24013028 832.10368129 145.24013028 804.83984375 148.203125 C802.9932828 148.38665222 801.14378645 148.54182824 799.29296875 148.67578125 C760.97111087 151.74349847 723.07432873 158.74370363 685.83984375 168.203125 C685.12669006 168.3827478 684.41353638 168.56237061 683.67877197 168.74743652 C618.60526833 185.14963753 543.60787599 209.45756655 488.83984375 249.203125 C486.86568107 250.25321153 484.86401509 251.25300376 482.83984375 252.203125 C482.21078125 252.55632812 481.58171875 252.90953125 480.93359375 253.2734375 C476.38645306 255.77436488 473.14375783 256.94753399 467.83984375 256.203125 C463.15459525 254.71653991 459.65742749 252.96605133 456.03515625 249.5859375 C450.21697899 244.48687826 443.03997211 241.24527194 436.21484375 237.703125 C434.68712132 236.90350326 433.1594528 236.10377849 431.63183594 235.30395508 C353.70401952 194.65337068 270.27094993 166.05305072 147.71484375 148.953125 C146.93172821 148.87004089 146.14861267 148.78695679 145.34176636 148.70135498 C140.17805748 148.15911206 135.01153128 147.66281346 129.83984375 147.203125 C128.6595459 147.09564941 127.47924805 146.98817383 126.26318359 146.87744141 C113.17542277 145.87315173 100.04241281 146.05135614 86.92480469 146.07275391 C83.43581284 146.07841736 79.94689779 146.07507855 76.45790863 146.06932545 C46.91152352 145.71644865 46.91152352 145.71644865 17.58984375 148.765625 C3.18049257 151.20500335 -7.82835236 150.38449292 -20.34765625 141.953125 C-42.91265709 125.0111179 -57.57008854 101.09367514 -62.16015625 73.203125 C-64.83434825 54.17231108 -61.29889535 36.98988116 -50.16015625 21.203125 C-38.42863655 6.60521383 -18.18286686 0.10933834 0 0 Z " fill="#2AABE1" transform="translate(425.16015625,416.796875)"/>
<path d="M0 0 C25.14292669 10.65024303 45.26768635 35.91532645 55.3125 60.625 C65.30089163 86.16443751 64.56940195 114.18834522 53.75 139.31640625 C48.01440515 151.61027055 41.19424511 162.02778031 32 172 C31.43023438 172.65097656 30.86046875 173.30195312 30.2734375 173.97265625 C22.8619621 182.01125649 8.04923903 195.02499124 -2.90234375 196.3515625 C-18.39563502 194.5931814 -36.81695991 174.51386403 -45.9375 163.0625 C-54.91225686 151.36963453 -61.1258122 138.19016237 -65 124 C-65.31839844 122.85789062 -65.63679687 121.71578125 -65.96484375 120.5390625 C-72.42271072 93.57672392 -66.48932346 66.38152319 -52.4921875 42.8984375 C-43.19181161 27.96869078 -19.77493813 -2.23223073 0 0 Z " fill="#2FB774" transform="translate(900,359)"/>
<path d="M0 0 C2.34611369 0.24849802 4.174999 0.67655819 6.3203125 1.640625 C4.20946748 5.41721672 1.8202568 8.47036471 -1.1171875 11.640625 C-6.87905489 17.51885429 -6.87905489 17.51885429 -10.6796875 24.640625 C-12.1646875 25.135625 -12.1646875 25.135625 -13.6796875 25.640625 C-14.9949005 27.78649884 -15.6796875 29.11075605 -15.6796875 31.640625 C-16.4015625 31.888125 -17.1234375 32.135625 -17.8671875 32.390625 C-20.92288214 33.74871151 -23.09441996 35.54446213 -25.6796875 37.640625 C-26.3396875 37.640625 -26.9996875 37.640625 -27.6796875 37.640625 C-28.0096875 38.630625 -28.3396875 39.620625 -28.6796875 40.640625 C-29.3396875 40.640625 -29.9996875 40.640625 -30.6796875 40.640625 C-30.7828125 41.28 -30.8859375 41.919375 -30.9921875 42.578125 C-31.2190625 43.25875 -31.4459375 43.939375 -31.6796875 44.640625 C-32.6696875 44.970625 -33.6596875 45.300625 -34.6796875 45.640625 C-35.0096875 47.290625 -35.3396875 48.940625 -35.6796875 50.640625 C-38.9296875 51.453125 -38.9296875 51.453125 -42.6796875 51.640625 C-44.6171875 49.640625 -44.6171875 49.640625 -46.6796875 46.640625 C-47.94564543 45.48677133 -49.24022778 44.36390703 -50.5546875 43.265625 C-53.7655967 40.52865074 -56.43055145 37.66926387 -59.09375 34.41015625 C-61.52944047 31.69250161 -64.3207562 29.42873919 -67.140625 27.12109375 C-67.64851562 26.63253906 -68.15640625 26.14398437 -68.6796875 25.640625 C-68.6796875 24.980625 -68.6796875 24.320625 -68.6796875 23.640625 C-70.3296875 23.970625 -71.9796875 24.300625 -73.6796875 24.640625 C-73.86144531 24.04894531 -74.04320312 23.45726562 -74.23046875 22.84765625 C-75.63635807 18.428117 -77.05495931 14.51522375 -79.6796875 10.640625 C-76.77368489 9.38397522 -74.88364166 8.640625 -71.6796875 8.640625 C-69.88019341 10.64073836 -68.28095543 12.6146723 -66.6796875 14.765625 C-65.70231916 16.04855529 -64.72443915 17.3310959 -63.74609375 18.61328125 C-63.24352051 19.27730957 -62.74094727 19.94133789 -62.22314453 20.62548828 C-60.70278996 22.61046244 -59.15064651 24.56472905 -57.58203125 26.51171875 C-57.08509766 27.13095215 -56.58816406 27.75018555 -56.07617188 28.38818359 C-55.12414386 29.5724835 -54.16856861 30.75394313 -53.20898438 31.93212891 C-50.71878885 35.0578238 -49.08630782 37.91880184 -47.6796875 41.640625 C-46.6896875 42.135625 -46.6896875 42.135625 -45.6796875 42.640625 C-45.6796875 43.300625 -45.6796875 43.960625 -45.6796875 44.640625 C-45.0196875 44.640625 -44.3596875 44.640625 -43.6796875 44.640625 C-43.6796875 45.300625 -43.6796875 45.960625 -43.6796875 46.640625 C-38.71659454 45.01480743 -38.71659454 45.01480743 -35.2421875 41.453125 C-34.96375 40.5559375 -34.96375 40.5559375 -34.6796875 39.640625 C-33.6896875 39.640625 -32.6996875 39.640625 -31.6796875 39.640625 C-31.3496875 38.650625 -31.0196875 37.660625 -30.6796875 36.640625 C-30.0196875 36.640625 -29.3596875 36.640625 -28.6796875 36.640625 C-28.64617188 35.97933594 -28.61265625 35.31804688 -28.578125 34.63671875 C-27.23136109 30.14555389 -24.33718925 27.21244019 -21.3046875 23.703125 C-15.74964996 17.20895448 -15.74964996 17.20895448 -10.62109375 10.37890625 C-3.94652179 0.94348334 -3.94652179 0.94348334 0 0 Z " fill="#D66C5A" transform="translate(937.6796875,617.359375)"/>
<path d="M0 0 C2.34611369 0.24849802 4.174999 0.67655819 6.3203125 1.640625 C4.20946748 5.41721672 1.8202568 8.47036471 -1.1171875 11.640625 C-6.87905489 17.51885429 -6.87905489 17.51885429 -10.6796875 24.640625 C-11.6696875 24.970625 -12.6596875 25.300625 -13.6796875 25.640625 C-14.9949005 27.78649884 -15.6796875 29.11075605 -15.6796875 31.640625 C-16.4015625 31.888125 -17.1234375 32.135625 -17.8671875 32.390625 C-20.92288214 33.74871151 -23.09441996 35.54446213 -25.6796875 37.640625 C-26.3396875 37.640625 -26.9996875 37.640625 -27.6796875 37.640625 C-27.6796875 38.300625 -27.6796875 38.960625 -27.6796875 39.640625 C-28.9996875 39.640625 -30.3196875 39.640625 -31.6796875 39.640625 C-31.3496875 38.650625 -31.0196875 37.660625 -30.6796875 36.640625 C-30.0196875 36.640625 -29.3596875 36.640625 -28.6796875 36.640625 C-28.64617188 35.97933594 -28.61265625 35.31804688 -28.578125 34.63671875 C-27.23136109 30.14555389 -24.33718925 27.21244019 -21.3046875 23.703125 C-15.74964996 17.20895448 -15.74964996 17.20895448 -10.62109375 10.37890625 C-3.94652179 0.94348334 -3.94652179 0.94348334 0 0 Z " fill="#D5604F" transform="translate(937.6796875,617.359375)"/>
<path d="M0 0 C18.15 0 36.3 0 55 0 C55 0.99 55 1.98 55 3 C36.85 3 18.7 3 0 3 C0 2.01 0 1.02 0 0 Z " fill="#E3907B" transform="translate(61,0)"/>
<path d="M0 0 C1.98 0 3.96 0 6 0 C5.01 0.495 5.01 0.495 4 1 C3.855625 1.66 3.71125 2.32 3.5625 3 C3.376875 3.66 3.19125 4.32 3 5 C2.01 5.33 1.02 5.66 0 6 C-0.33 7.65 -0.66 9.3 -1 11 C-3.31 11.33 -5.62 11.66 -8 12 C-8.66 10.68 -9.32 9.36 -10 8 C-9.44570313 7.75765625 -8.89140625 7.5153125 -8.3203125 7.265625 C-7.59585938 6.93046875 -6.87140625 6.5953125 -6.125 6.25 C-5.40570312 5.92515625 -4.68640625 5.6003125 -3.9453125 5.265625 C-1.6629326 3.78070314 -0.99624102 2.49584592 0 0 Z " fill="#C7928A" transform="translate(903,657)"/>
</svg>
