<?xml version="1.0" encoding="UTF-8"?>
<svg version="1.1" xmlns="http://www.w3.org/2000/svg" width="1890" height="1417">
<path d="M0 0 C2.64 0 5.28 0 8 0 C8 4.29 8 8.58 8 13 C6.68 13.33 5.36 13.66 4 14 C4.0928125 15.2684375 4.0928125 15.2684375 4.1875 16.5625 C3.96441475 20.65239618 2.74850533 23.30871096 1 27 C-1.06992622 31.63663473 -2.70189329 36.10713623 -4 41 C-4.66 41 -5.32 41 -6 41 C-5.9071875 42.0209375 -5.9071875 42.0209375 -5.8125 43.0625 C-6.11961292 47.87393568 -8.36184662 51.7747455 -10.5625 56 C-12.15167604 59.3165413 -13.0763073 62.44733578 -14 66 C-14.66 66 -15.32 66 -16 66 C-16 67.65 -16 69.3 -16 71 C-16.66 71 -17.32 71 -18 71 C-17.938125 72.175625 -17.938125 72.175625 -17.875 73.375 C-18 76 -18 76 -20 78 C-20.64767793 80.57061311 -20.64767793 80.57061311 -21 83 C-21.66 83 -22.32 83 -23 83 C-23 84.65 -23 86.3 -23 88 C-23.66 88 -24.32 88 -25 88 C-26.485 92.95 -26.485 92.95 -28 98 C-28.66 98 -29.32 98 -30 98 C-30.06316406 98.79277344 -30.12632812 99.58554687 -30.19140625 100.40234375 C-31.2875075 105.27920001 -33.53638935 109.20817171 -35.9375 113.5625 C-39.84609877 120.60358293 -39.84609877 120.60358293 -43 128 C-43.66 128 -44.32 128 -45 128 C-45.33 129.65 -45.66 131.3 -46 133 C-46.66 133 -47.32 133 -48 133 C-48.09667969 133.54914063 -48.19335938 134.09828125 -48.29296875 134.6640625 C-49.18440141 137.60923781 -50.62910925 139.80125054 -52.3125 142.375 C-52.94671875 143.34824219 -53.5809375 144.32148437 -54.234375 145.32421875 C-55.10835937 146.64873047 -55.10835937 146.64873047 -56 148 C-56.680625 149.051875 -57.36125 150.10375 -58.0625 151.1875 C-59.72632213 153.60272567 -61.40474225 155.99980074 -63.125 158.375 C-63.62257813 159.06335938 -64.12015625 159.75171875 -64.6328125 160.4609375 C-65.08398438 160.96882812 -65.53515625 161.47671875 -66 162 C-66.66 162 -67.32 162 -68 162 C-68.268125 162.804375 -68.53625 163.60875 -68.8125 164.4375 C-69.204375 165.283125 -69.59625 166.12875 -70 167 C-70.99 167.33 -71.98 167.66 -73 168 C-73.67843951 169.32738165 -74.34267341 170.66203738 -75 172 C-79.96208053 177.58925799 -85.35792446 182.58979077 -91.50390625 186.84375 C-93.15394397 187.94602773 -93.15394397 187.94602773 -94 190 C-98.5 193 -98.5 193 -101 193 C-101 193.66 -101 194.32 -101 195 C-103.64738916 196.4606285 -104.89448334 197 -108 197 C-108.33 197.99 -108.66 198.98 -109 200 C-111.51171875 201.5 -111.51171875 201.5 -114.6875 203 C-115.72261719 203.495 -116.75773437 203.99 -117.82421875 204.5 C-118.87222656 204.995 -119.92023438 205.49 -121 206 C-124.01505738 207.49467522 -127.01535334 209.00799653 -130 210.5625 C-132.95057867 211.97631895 -135.89344482 212.98856343 -139 214 C-139.33 214.33 -139.66 214.66 -140 215 C-141.66617115 215.04063832 -143.33388095 215.042721 -145 215 C-145 215.66 -145 216.32 -145 217 C-145.83660156 217.27714844 -146.67320312 217.55429687 -147.53515625 217.83984375 C-149.90132611 218.63212385 -152.26317106 219.43740875 -154.62109375 220.25390625 C-155.89320613 220.69017136 -157.16534183 221.12636846 -158.4375 221.5625 C-159.06720703 221.78357422 -159.69691406 222.00464844 -160.34570312 222.23242188 C-164.59131677 223.67671593 -168.57011157 224.49127733 -173 225 C-173 225.66 -173 226.32 -173 227 C-173.81984375 227.19335938 -174.6396875 227.38671875 -175.484375 227.5859375 C-176.56203125 227.84632813 -177.6396875 228.10671875 -178.75 228.375 C-179.81734375 228.63023437 -180.8846875 228.88546875 -181.984375 229.1484375 C-184.57313495 229.87946039 -186.62442531 230.78912391 -189 232 C-190.051875 232.12375 -191.10375 232.2475 -192.1875 232.375 C-195.50395637 232.91868137 -197.53091035 233.59385533 -200.5 235 C-204.36982207 236.83032125 -207.75306763 237.39329538 -212 238 C-213.39108708 238.58832537 -214.76529175 239.21739565 -216.125 239.875 C-220.9829474 242.1867129 -225.92361619 243.23287796 -231.1796875 244.2890625 C-234.17935545 244.87799042 -234.17935545 244.87799042 -237 247 C-238.92082991 247.57929791 -240.86172679 248.09382367 -242.8125 248.5625 C-243.82957031 248.81128906 -244.84664062 249.06007813 -245.89453125 249.31640625 C-252.69228739 250.81276767 -255.55683054 250.93898958 -262 248 C-264.33177975 247.65596692 -266.66487041 247.32050798 -269 247 C-269.66 246.34 -270.32 245.68 -271 245 C-273.17244495 244.47492034 -275.36416023 244.02814753 -277.5625 243.625 C-282.6715548 242.59176636 -287.01082003 241.30998798 -291.671875 239.03125 C-294.49498547 237.78074469 -297.35048297 236.93285571 -300.3125 236.0625 C-306.75642551 234.15123018 -312.83778145 231.66425332 -319 229 C-320.66445004 228.32781825 -322.33042903 227.65935955 -324 227 C-324 226.34 -324 225.68 -324 225 C-326.65228812 223.92474806 -329.28368454 222.90543849 -332 222 C-332 221.34 -332 220.68 -332 220 C-332.66 219.814375 -333.32 219.62875 -334 219.4375 C-338.26905268 217.39191226 -341.74163706 214.42815357 -345 211 C-345 210.34 -345 209.68 -345 209 C-345.66 209 -346.32 209 -347 209 C-351.98641281 203.56378191 -356.01839921 197.18957941 -360 191 C-360.928125 189.6078125 -360.928125 189.6078125 -361.875 188.1875 C-363 186 -363 186 -363 182 C-363.66 182 -364.32 182 -365 182 C-365.33 180.35 -365.66 178.7 -366 177 C-366.66 177 -367.32 177 -368 177 C-368 175.35 -368 173.7 -368 172 C-368.66 172 -369.32 172 -370 172 C-370.268125 171.29875 -370.53625 170.5975 -370.8125 169.875 C-371.97573666 166.93874995 -371.97573666 166.93874995 -373.5625 164 C-374.88154573 161.24720892 -375.40838955 158.95805226 -376 156 C-376.66 155.67 -377.32 155.34 -378 155 C-378.78125 152.56640625 -378.78125 152.56640625 -379.5 149.5625 C-380.42124104 145.33222175 -380.42124104 145.33222175 -383 142 C-383.89646222 139.35945904 -384.72352319 136.73781554 -385.5 134.0625 C-387.16420825 128.28571031 -387.16420825 128.28571031 -390 123 C-390.125 120.3125 -390.125 120.3125 -390 118 C-385.44291188 118.67201299 -381.11362613 119.72871562 -376.6875 121 C-375.45386719 121.350625 -374.22023438 121.70125 -372.94921875 122.0625 C-370 123 -370 123 -369 124 C-368.01 124.103125 -367.02 124.20625 -366 124.3125 C-362.96064565 124.70010997 -360.62743897 125.53940692 -357.875 126.875 C-352.98936471 129.20390387 -348.01179368 130.23742114 -342.72265625 131.2890625 C-340 132 -340 132 -338 134 C-336.01178687 134.39764263 -334.01055661 134.73775349 -332 135 C-332 135.66 -332 136.32 -332 137 C-331.34 136.9175 -330.68 136.835 -330 136.75 C-325.74972444 137.10418963 -322.70746319 138.99376763 -319 141 C-317.50255968 141.75509767 -316.00265013 142.50532383 -314.5 143.25 C-313.345 143.8275 -312.19 144.405 -311 145 C-311 145.66 -311 146.32 -311 147 C-310.401875 147.12375 -309.80375 147.2475 -309.1875 147.375 C-307 148 -307 148 -304 150 C-304 150.66 -304 151.32 -304 152 C-303.01 152 -302.02 152 -301 152 C-299.3125 153.375 -299.3125 153.375 -298 155 C-298 155.66 -298 156.32 -298 157 C-297.34 157 -296.68 157 -296 157 C-293.375 159.3125 -293.375 159.3125 -291 162 C-291 162.99 -291 163.98 -291 165 C-290.39929687 165.24878906 -289.79859375 165.49757813 -289.1796875 165.75390625 C-282.98959718 169.29268548 -279.62828695 178.33873441 -276.3828125 184.421875 C-275.21352205 186.60190805 -274.00197997 188.74199709 -272.75 190.875 C-270.32610945 195.20337598 -268.83776032 199.11306479 -268 204 C-267.34 204 -266.68 204 -266 204 C-266 205.65 -266 207.3 -266 209 C-265.34 209 -264.68 209 -264 209 C-263.75765625 209.7734375 -263.5153125 210.546875 -263.265625 211.34375 C-261.69835169 216.21435321 -260.17736591 220.92086557 -257.75 225.4375 C-256.12157942 228.75249905 -255.55029691 230.40237531 -256 234 C-255.34 234 -254.68 234 -254 234 C-253.67 235.65 -253.34 237.3 -253 239 C-252.67 239 -252.34 239 -252 239 C-251.80664062 238.24074219 -251.61328125 237.48148438 -251.4140625 236.69921875 C-251.15367187 235.70535156 -250.89328125 234.71148438 -250.625 233.6875 C-250.36976563 232.70136719 -250.11453125 231.71523438 -249.8515625 230.69921875 C-249 228 -249 228 -247 225 C-246.40678131 223.11966003 -245.86904181 221.22129792 -245.375 219.3125 C-245.11460937 218.31863281 -244.85421875 217.32476563 -244.5859375 216.30078125 C-244.39257812 215.54152344 -244.19921875 214.78226563 -244 214 C-243.34 214 -242.68 214 -242 214 C-241.67 211.69 -241.34 209.38 -241 207 C-240.34 207 -239.68 207 -239 207 C-239.0825 206.34 -239.165 205.68 -239.25 205 C-238.96750193 201.61002319 -237.74941555 199.36676965 -236.15625 196.40234375 C-233.93885308 191.79525219 -232.52619847 186.87084619 -231 182 C-230.34 182 -229.68 182 -229 182 C-229 180.35 -229 178.7 -229 177 C-228.34 177 -227.68 177 -227 177 C-226.87625 176.13375 -226.7525 175.2675 -226.625 174.375 C-225.09090909 166.09090909 -225.09090909 166.09090909 -222 163 C-220.52011102 160.38843122 -219.62819619 157.93158222 -219 155 C-218.34 155 -217.68 155 -217 155 C-216.9175 154.360625 -216.835 153.72125 -216.75 153.0625 C-215.70152727 148.78123635 -213.88118084 144.97432572 -212 141 C-211.65453125 140.2678125 -211.3090625 139.535625 -210.953125 138.78125 C-209.22513902 135.21894044 -207.37822182 132.17096243 -205 129 C-204.29485154 126.85266073 -204.29485154 126.85266073 -204 125 C-203.34 125 -202.68 125 -202 125 C-201.896875 124.27039063 -201.79375 123.54078125 -201.6875 122.7890625 C-200.93471159 119.73513679 -199.8201028 117.92139381 -198 115.375 C-196.18765887 112.82203869 -194.99770625 110.99311875 -194 108 C-193.34 108 -192.68 108 -192 108 C-191.64421875 106.96746094 -191.64421875 106.96746094 -191.28125 105.9140625 C-189.74713732 102.42489158 -187.72117659 99.44883963 -185.5 96.375 C-185.06437744 95.76688477 -184.62875488 95.15876953 -184.17993164 94.53222656 C-180.42901307 89.39309874 -176.30780574 84.72242852 -171.93359375 80.109375 C-169.96145677 78.15184781 -169.96145677 78.15184781 -169 76 C-168.34 76 -167.68 76 -167 76 C-166.67 75.01 -166.34 74.02 -166 73 C-164.26773725 71.39187335 -162.4654991 69.85802684 -160.625 68.375 C-159.64789062 67.57835937 -158.67078125 66.78171875 -157.6640625 65.9609375 C-155 64 -155 64 -152 63 C-152 62.34 -152 61.68 -152 61 C-148.14807262 58.01279101 -144.22216377 55.47001081 -139.95703125 53.1015625 C-135.01633126 50.32056969 -130.15488316 47.37041603 -125.37109375 44.328125 C-122.67710425 42.81913582 -121.03847513 42.73955927 -118 43 C-118 42.34 -118 41.68 -118 41 C-117.319375 40.731875 -116.63875 40.46375 -115.9375 40.1875 C-111.49637692 38.39215237 -107.09945369 36.50744017 -102.75 34.5 C-98.78157219 32.77734156 -94.64431487 31.78218398 -90.453125 30.74609375 C-87.78065045 30.06219171 -87.78065045 30.06219171 -85 28 C-81.95683195 27.15467554 -78.89322728 26.4759238 -75.8125 25.78125 C-72.825789 25.10902686 -72.825789 25.10902686 -70 23 C-66.69716596 21.72390503 -63.77035476 20.96938064 -60.25 20.5 C-56.92159951 20.31584196 -56.92159951 20.31584196 -55 18 C-53.01638647 17.47526502 -51.01181722 17.02831242 -49 16.625 C-43.89139034 15.5146765 -39.34098914 14.03062873 -34.55078125 11.9765625 C-30.68204781 10.49542412 -26.70050378 9.61620797 -22.6640625 8.7109375 C-20.20034631 8.05346485 -18.25849208 7.14830505 -16 6 C-14.9275 5.855625 -13.855 5.71125 -12.75 5.5625 C-8.40881085 4.91132163 -5.02828134 3.73632816 -1 2 C-0.67 1.34 -0.34 0.68 0 0 Z " fill="#EF4D23" transform="translate(1860,374)"/>
<path d="M0 0 C0.85751358 -0.00315216 1.71502716 -0.00630432 2.598526 -0.009552 C3.52563889 -0.00752777 4.45275177 -0.00550354 5.40795898 -0.00341797 C6.35718735 -0.00437469 7.30641571 -0.00533142 8.28440857 -0.00631714 C10.29263373 -0.00699827 12.30086109 -0.00514866 14.30908203 -0.00097656 C17.39482529 0.00437852 20.48042337 -0.00092687 23.56616211 -0.00732422 C25.51342806 -0.00666354 27.46069392 -0.00538259 29.40795898 -0.00341797 C30.3370961 -0.0054422 31.26623322 -0.00746643 32.223526 -0.009552 C33.50506813 -0.00482376 33.50506813 -0.00482376 34.8125 0 C35.56813736 0.00079559 36.32377472 0.00159119 37.10231018 0.00241089 C38.84155273 0.12939453 38.84155273 0.12939453 39.84155273 1.12939453 C42.35644789 1.41333431 44.87144855 1.57750693 47.39624023 1.75048828 C49.84155273 2.12939453 49.84155273 2.12939453 52.84155273 4.12939453 C54.35154639 4.58377794 55.87440063 4.99636768 57.40405273 5.37939453 C63.18291595 7.04134498 67.84015625 9.85528446 72.84155273 13.12939453 C73.48866211 13.52771484 74.13577148 13.92603516 74.80249023 14.33642578 C76.18947219 15.20573137 77.52376433 16.15839255 78.84155273 17.12939453 C78.84155273 17.78939453 78.84155273 18.44939453 78.84155273 19.12939453 C79.39842773 19.33564453 79.95530273 19.54189453 80.52905273 19.75439453 C83.81167645 21.70622485 85.54828519 24.07170448 87.84155273 27.12939453 C87.84155273 27.78939453 87.84155273 28.44939453 87.84155273 29.12939453 C88.50155273 29.12939453 89.16155273 29.12939453 89.84155273 29.12939453 C92.58530944 32.08420945 92.84155273 32.90411361 92.84155273 37.12939453 C93.50155273 37.12939453 94.16155273 37.12939453 94.84155273 37.12939453 C95.17155273 38.77939453 95.50155273 40.42939453 95.84155273 42.12939453 C96.50155273 42.12939453 97.16155273 42.12939453 97.84155273 42.12939453 C97.84155273 43.77939453 97.84155273 45.42939453 97.84155273 47.12939453 C98.50155273 47.12939453 99.16155273 47.12939453 99.84155273 47.12939453 C100.96655273 51.87939453 100.96655273 51.87939453 99.84155273 54.12939453 C100.50155273 54.12939453 101.16155273 54.12939453 101.84155273 54.12939453 C102.92559946 56.29748799 103.06900306 57.7288268 103.27905273 60.12939453 C103.58919399 63.32440979 104.10140361 66.33334772 104.85717773 69.44970703 C106.30591306 76.57809093 106.18959674 83.76376283 106.15405273 91.00439453 C106.15231552 92.09456375 106.15231552 92.09456375 106.15054321 93.20675659 C106.1040063 107.98497067 105.39496043 122.30032046 99.84155273 136.12939453 C99.18155273 136.12939453 98.52155273 136.12939453 97.84155273 136.12939453 C97.77967773 137.07814453 97.71780273 138.02689453 97.65405273 139.00439453 C96.78243338 145.28518104 93.30982903 150.92698009 89.84155273 156.12939453 C89.18155273 156.12939453 88.52155273 156.12939453 87.84155273 156.12939453 C87.76420898 156.68884766 87.68686523 157.24830078 87.60717773 157.82470703 C86.57574065 160.92954314 84.82700825 162.62829777 82.59155273 165.00439453 C79.93640583 167.85340931 77.35434802 170.67809386 74.96655273 173.75439453 C74.26530273 174.53814453 73.56405273 175.32189453 72.84155273 176.12939453 C71.85155273 176.12939453 70.86155273 176.12939453 69.84155273 176.12939453 C69.84155273 176.78939453 69.84155273 177.44939453 69.84155273 178.12939453 C67.28008703 180.42588102 66.36187701 181.12939453 62.84155273 181.12939453 C62.84155273 181.78939453 62.84155273 182.44939453 62.84155273 183.12939453 C58.25969816 185.74474507 53.7935247 188.27240504 48.84155273 190.12939453 C48.51155273 190.45939453 48.18155273 190.78939453 47.84155273 191.12939453 C45.8419691 191.17020236 43.84110019 191.17193809 41.84155273 191.12939453 C41.51155273 192.11939453 41.18155273 193.10939453 40.84155273 194.12939453 C32.66192886 194.17568181 24.48235946 194.21124525 16.3026371 194.23301888 C12.50468961 194.24346774 8.70683156 194.25764689 4.90893555 194.28027344 C1.24553927 194.30196274 -2.41777084 194.31395484 -6.08122635 194.31914902 C-7.48071271 194.32285184 -8.88019421 194.33008231 -10.27964401 194.34085464 C-12.23578057 194.35531678 -14.19200335 194.356211 -16.14819336 194.35644531 C-17.82031387 194.36310715 -17.82031387 194.36310715 -19.5262146 194.36990356 C-22.15844727 194.12939453 -22.15844727 194.12939453 -24.15844727 192.12939453 C-24.98344727 191.86126953 -25.80844727 191.59314453 -26.65844727 191.31689453 C-31.39934194 189.7083767 -35.71502567 187.41709674 -40.15844727 185.12939453 C-41.49087603 184.46092179 -42.82388619 183.79360004 -44.15844727 183.12939453 C-44.15844727 182.46939453 -44.15844727 181.80939453 -44.15844727 181.12939453 C-45.14844727 181.12939453 -46.13844727 181.12939453 -47.15844727 181.12939453 C-48.9753098 179.52628053 -50.53266177 177.91815608 -52.15844727 176.12939453 C-52.90223633 175.34306641 -53.64602539 174.55673828 -54.41235352 173.74658203 C-61.48522004 166.14012846 -61.48522004 166.14012846 -63.15844727 161.12939453 C-63.81844727 161.12939453 -64.47844727 161.12939453 -65.15844727 161.12939453 C-65.48844727 159.47939453 -65.81844727 157.82939453 -66.15844727 156.12939453 C-66.81844727 156.12939453 -67.47844727 156.12939453 -68.15844727 156.12939453 C-68.42657227 155.44876953 -68.69469727 154.76814453 -68.97094727 154.06689453 C-69.8208841 151.9644192 -70.7229737 149.88273198 -71.65844727 147.81689453 C-72.78315149 145.05199666 -73.59559025 142.62388761 -74.28344727 139.75439453 C-74.77427292 136.33975221 -74.77427292 136.33975221 -76.15844727 135.12939453 C-76.36683741 133.48832211 -76.52596452 131.8408316 -76.65844727 130.19189453 C-76.91059669 126.52381988 -76.91059669 126.52381988 -78.15844727 123.12939453 C-78.27031712 120.07356123 -78.32259207 117.04130437 -78.32641602 113.98486328 C-78.32974442 113.064095 -78.33307281 112.14332672 -78.33650208 111.19465637 C-78.34157515 109.23679097 -78.34391028 107.27891689 -78.34375 105.32104492 C-78.34591059 102.36703519 -78.36398936 99.41341496 -78.38305664 96.45947266 C-78.46224353 70.58508892 -78.46224353 70.58508892 -74.15844727 64.12939453 C-74.01407227 63.07751953 -73.86969727 62.02564453 -73.72094727 60.94189453 C-73.08223105 56.61281798 -71.79166752 53.17694039 -70.15844727 49.12939453 C-69.49844727 49.12939453 -68.83844727 49.12939453 -68.15844727 49.12939453 C-68.15844727 47.47939453 -68.15844727 45.82939453 -68.15844727 44.12939453 C-67.49844727 44.12939453 -66.83844727 44.12939453 -66.15844727 44.12939453 C-65.82844727 42.47939453 -65.49844727 40.82939453 -65.15844727 39.12939453 C-64.49844727 39.12939453 -63.83844727 39.12939453 -63.15844727 39.12939453 C-63.03469727 38.53126953 -62.91094727 37.93314453 -62.78344727 37.31689453 C-62.15844727 35.12939453 -62.15844727 35.12939453 -60.15844727 32.12939453 C-59.49844727 32.12939453 -58.83844727 32.12939453 -58.15844727 32.12939453 C-57.8890332 31.54673828 -57.61961914 30.96408203 -57.34204102 30.36376953 C-51.29524553 18.94869686 -37.74869314 10.03867689 -25.74438477 5.97314453 C-23.43105123 5.2675526 -21.11096084 4.5835766 -18.78344727 3.92626953 C-16.25620806 3.38422707 -16.25620806 3.38422707 -15.15844727 2.12939453 C-13.68447987 1.92171224 -12.20353466 1.76223436 -10.72094727 1.62939453 C-6.90848171 1.286701 -3.82350898 0.00402145 0 0 Z M-0.15844727 19.12939453 C-1.18969727 19.23251953 -2.22094727 19.33564453 -3.28344727 19.44189453 C-8.45634728 20.35966711 -12.57764036 22.63161048 -17.15844727 25.12939453 C-17.15844727 25.78939453 -17.15844727 26.44939453 -17.15844727 27.12939453 C-19.15844727 28.12939453 -21.15844727 29.12939453 -23.15844727 30.12939453 C-23.15844727 30.78939453 -23.15844727 31.44939453 -23.15844727 32.12939453 C-24.14844727 32.45939453 -25.13844727 32.78939453 -26.15844727 33.12939453 C-27.60042353 34.68666312 -27.60042353 34.68666312 -28.84594727 36.56689453 C-29.28293945 37.18435547 -29.71993164 37.80181641 -30.17016602 38.43798828 C-31.32661087 40.09070558 -31.32661087 40.09070558 -31.15844727 42.12939453 C-31.81844727 42.12939453 -32.47844727 42.12939453 -33.15844727 42.12939453 C-39.90780308 56.40174774 -43.35826436 69.17398067 -43.84594727 85.00439453 C-43.88574707 86.17663574 -43.92554688 87.34887695 -43.96655273 88.55664062 C-44.25677021 98.76146454 -44.17277064 108.96362025 -43.15844727 119.12939453 C-42.82844727 119.45939453 -42.49844727 119.78939453 -42.15844727 120.12939453 C-41.87555546 122.38354831 -41.71073536 124.63780109 -41.53735352 126.90283203 C-41.26643901 129.40859531 -41.26643901 129.40859531 -39.15844727 132.12939453 C-38.03419272 135.76668866 -37.04684905 139.42772041 -36.15844727 143.12939453 C-35.49844727 143.12939453 -34.83844727 143.12939453 -34.15844727 143.12939453 C-34.0230957 143.67466797 -33.88774414 144.21994141 -33.74829102 144.78173828 C-31.90426172 151.24136185 -28.88192538 156.31486142 -24.15844727 161.12939453 C-23.49844727 161.12939453 -22.83844727 161.12939453 -22.15844727 161.12939453 C-22.15844727 161.78939453 -22.15844727 162.44939453 -22.15844727 163.12939453 C-21.49844727 163.12939453 -20.83844727 163.12939453 -20.15844727 163.12939453 C-19.82844727 164.11939453 -19.49844727 165.10939453 -19.15844727 166.12939453 C-16.79132157 168.04479488 -16.79132157 168.04479488 -13.90844727 169.81689453 C-12.95454102 170.43951172 -12.00063477 171.06212891 -11.01782227 171.70361328 C-8.06465815 173.17616096 -6.400606 173.44296098 -3.15844727 173.12939453 C-3.15844727 173.78939453 -3.15844727 174.44939453 -3.15844727 175.12939453 C12.66000395 179.67990789 26.54709133 179.37757592 41.84155273 173.12939453 C41.84155273 172.46939453 41.84155273 171.80939453 41.84155273 171.12939453 C42.37780273 171.06751953 42.91405273 171.00564453 43.46655273 170.94189453 C47.0118143 169.72904189 49.10079194 167.68328527 51.84155273 165.12939453 C51.84155273 164.46939453 51.84155273 163.80939453 51.84155273 163.12939453 C52.44483398 162.88189453 53.04811523 162.63439453 53.66967773 162.37939453 C56.19878226 160.9237948 57.1092778 159.61815244 58.59155273 157.12939453 C59.01952148 156.42814453 59.44749023 155.72689453 59.88842773 155.00439453 C60.99260161 153.18280718 60.99260161 153.18280718 60.84155273 151.12939453 C61.50155273 151.12939453 62.16155273 151.12939453 62.84155273 151.12939453 C62.84155273 149.47939453 62.84155273 147.82939453 62.84155273 146.12939453 C63.50155273 146.12939453 64.16155273 146.12939453 64.84155273 146.12939453 C68.66895797 136.56088145 70.1490286 127.3789316 71.14453125 117.16113281 C71.73978124 111.23116602 71.73978124 111.23116602 72.84155273 110.12939453 C72.94130306 107.61803349 72.98037456 105.14036038 72.96655273 102.62939453 C72.97041992 101.92685547 72.97428711 101.22431641 72.97827148 100.50048828 C73.28546204 97.02510645 73.28546204 97.02510645 71.84155273 94.12939453 C71.62688263 92.00182252 71.41900021 89.87333578 71.24633789 87.74194336 C70.15790712 74.34201531 68.168631 61.17054693 61.84155273 49.12939453 C61.37620117 48.21416016 60.91084961 47.29892578 60.43139648 46.35595703 C57.69001781 41.12560284 54.97251777 36.3751086 50.84155273 32.12939453 C50.18155273 32.12939453 49.52155273 32.12939453 48.84155273 32.12939453 C48.84155273 31.46939453 48.84155273 30.80939453 48.84155273 30.12939453 C42.44247246 24.05847222 35.70746751 20.01598601 26.84155273 19.12939453 C25.85155273 18.46939453 24.86155273 17.80939453 23.84155273 17.12939453 C21.68391665 16.82269431 21.68391665 16.82269431 19.31420898 16.86376953 C18.43958008 16.86119141 17.56495117 16.85861328 16.66381836 16.85595703 C15.7530957 16.86369141 14.84237305 16.87142578 13.90405273 16.87939453 C12.99719727 16.87166016 12.0903418 16.86392578 11.15600586 16.85595703 C10.28008789 16.85853516 9.40416992 16.86111328 8.50170898 16.86376953 C7.70385986 16.86602539 6.90601074 16.86828125 6.08398438 16.87060547 C3.60371413 17.15684243 2.03378766 17.97466943 -0.15844727 19.12939453 Z " fill="#FFFFFF" transform="translate(327.158447265625,642.87060546875)"/>
<path d="M0 0 C0.85428589 -0.00315216 1.70857178 -0.00630432 2.58874512 -0.009552 C3.51272095 -0.00752777 4.43669678 -0.00550354 5.38867188 -0.00341797 C6.33552856 -0.00437469 7.28238525 -0.00533142 8.25793457 -0.00631714 C10.26196357 -0.00699833 12.26599476 -0.00514827 14.27001953 -0.00097656 C17.34477678 0.00437253 20.41938794 -0.00092361 23.49414062 -0.00732422 C25.43815137 -0.00666343 27.38216201 -0.00538224 29.32617188 -0.00341797 C30.71213562 -0.00645432 30.71213562 -0.00645432 32.12609863 -0.009552 C32.98038452 -0.00639984 33.83467041 -0.00324768 34.71484375 0 C35.4682605 0.00079559 36.22167725 0.00159119 36.9979248 0.00241089 C38.85742188 0.12939453 38.85742188 0.12939453 40.85742188 1.12939453 C43.15666684 1.39964161 45.45543675 1.57437294 47.76367188 1.75048828 C49.85742188 2.12939453 49.85742188 2.12939453 51.85742188 4.12939453 C54.1855173 4.81412848 56.51979964 5.47792604 58.85742188 6.12939453 C66.05638843 8.84598568 72.4704146 12.87138968 78.85742188 17.12939453 C78.85742188 17.78939453 78.85742188 18.44939453 78.85742188 19.12939453 C79.84742188 19.45939453 80.83742188 19.78939453 81.85742188 20.12939453 C81.85742188 20.78939453 81.85742188 21.44939453 81.85742188 22.12939453 C82.51742188 22.12939453 83.17742187 22.12939453 83.85742188 22.12939453 C83.85742188 22.78939453 83.85742188 23.44939453 83.85742188 24.12939453 C84.51742188 24.12939453 85.17742187 24.12939453 85.85742188 24.12939453 C92.23760387 30.96530381 99.85742188 42.49935544 99.85742188 52.12939453 C100.51742188 52.12939453 101.17742187 52.12939453 101.85742188 52.12939453 C102.07398438 53.83095703 102.07398438 53.83095703 102.29492188 55.56689453 C102.46913665 58.93716654 102.46913665 58.93716654 103.85742188 60.12939453 C103.93013929 62.48253008 103.94113055 64.83773122 103.91992188 67.19189453 C103.91089844 68.48224609 103.901875 69.77259766 103.89257812 71.10205078 C103.87517578 72.60058594 103.87517578 72.60058594 103.85742188 74.12939453 C104.51742188 74.12939453 105.17742187 74.12939453 105.85742188 74.12939453 C107.29844657 85.47746401 108.10002423 97.44252105 105.36914062 108.63720703 C104.32425637 113.72603265 104.16578801 118.95208938 103.85742188 124.12939453 C103.19742187 124.12939453 102.53742188 124.12939453 101.85742188 124.12939453 C101.85742188 127.09939453 101.85742188 130.06939453 101.85742188 133.12939453 C100.86742187 133.45939453 99.87742187 133.78939453 98.85742188 134.12939453 C98.91929687 134.81001953 98.98117187 135.49064453 99.04492188 136.19189453 C98.79873924 140.04875578 97.49940026 142.64019047 95.85742188 146.12939453 C95.19742187 146.12939453 94.53742188 146.12939453 93.85742188 146.12939453 C93.68919922 147.23734375 93.68919922 147.23734375 93.51757812 148.36767578 C91.09197225 158.51503291 80.51824293 169.35936662 72.85742188 176.12939453 C71.86742187 176.12939453 70.87742187 176.12939453 69.85742188 176.12939453 C69.85742188 176.78939453 69.85742188 177.44939453 69.85742188 178.12939453 C61.49897474 184.63519617 51.68097888 191.42351038 40.85742188 192.12939453 C40.85742188 192.78939453 40.85742188 193.44939453 40.85742188 194.12939453 C32.677798 194.17568181 24.4982286 194.21124525 16.31850624 194.23301888 C12.52055875 194.24346774 8.7227007 194.25764689 4.92480469 194.28027344 C1.26140842 194.30196274 -2.4019017 194.31395484 -6.06535721 194.31914902 C-7.46484357 194.32285184 -8.86432507 194.33008231 -10.26377487 194.34085464 C-12.21991143 194.35531678 -14.17613421 194.356211 -16.13232422 194.35644531 C-17.80444473 194.36310715 -17.80444473 194.36310715 -19.51034546 194.36990356 C-22.14257812 194.12939453 -22.14257812 194.12939453 -24.14257812 192.12939453 C-26.1376588 191.44814747 -28.13896505 190.78512245 -30.14257812 190.12939453 C-33.16599886 188.84703011 -36.15655656 187.49632885 -39.14257812 186.12939453 C-39.14257812 185.46939453 -39.14257812 184.80939453 -39.14257812 184.12939453 C-40.24279297 183.73300781 -40.24279297 183.73300781 -41.36523438 183.32861328 C-48.38406688 180.29797815 -54.87512672 174.47199878 -59.14257812 168.12939453 C-59.14257812 167.46939453 -59.14257812 166.80939453 -59.14257812 166.12939453 C-60.13257813 165.79939453 -61.12257813 165.46939453 -62.14257812 165.12939453 C-64.14257812 162.12939453 -64.14257812 162.12939453 -64.14257812 159.12939453 C-65.13257813 158.79939453 -66.12257813 158.46939453 -67.14257812 158.12939453 C-67.14257812 156.80939453 -67.14257812 155.48939453 -67.14257812 154.12939453 C-67.80257812 154.12939453 -68.46257813 154.12939453 -69.14257812 154.12939453 C-69.45195313 153.16001953 -69.76132812 152.19064453 -70.08007812 151.19189453 C-70.83781154 148.28873661 -70.83781154 148.28873661 -72.14257812 147.12939453 C-72.18338595 145.12981089 -72.18512169 143.12894199 -72.14257812 141.12939453 C-72.80257812 141.12939453 -73.46257813 141.12939453 -74.14257812 141.12939453 C-74.34173828 140.08138672 -74.34173828 140.08138672 -74.54492188 139.01220703 C-74.72152344 138.10212891 -74.898125 137.19205078 -75.08007812 136.25439453 C-75.25410156 135.34947266 -75.428125 134.44455078 -75.60742188 133.51220703 C-76.04221514 131.12983136 -76.04221514 131.12983136 -77.14257812 129.12939453 C-77.40727693 125.71772105 -77.58673037 122.31253957 -77.74804688 118.89501953 C-77.87945767 114.8818785 -77.87945767 114.8818785 -79.14257812 111.12939453 C-79.23762338 109.70479173 -79.27330673 108.27591286 -79.27539062 106.84814453 C-79.27667969 106.00638672 -79.27796875 105.16462891 -79.27929688 104.29736328 C-79.27542969 103.41693359 -79.2715625 102.53650391 -79.26757812 101.62939453 C-79.27144531 100.74896484 -79.2753125 99.86853516 -79.27929688 98.96142578 C-79.27800781 98.11966797 -79.27671875 97.27791016 -79.27539062 96.41064453 C-79.2742627 95.63785156 -79.27313477 94.86505859 -79.27197266 94.06884766 C-79.14257812 92.12939453 -79.14257812 92.12939453 -78.14257812 90.12939453 C-78.01569609 88.79044103 -77.94087813 87.44626978 -77.89648438 86.10205078 C-77.84717773 84.91385742 -77.84717773 84.91385742 -77.796875 83.70166016 C-77.73582483 82.03252256 -77.67851465 80.36324384 -77.625 78.69384766 C-77.59083984 77.90042969 -77.55667969 77.10701172 -77.52148438 76.28955078 C-77.49642822 75.56388916 -77.47137207 74.83822754 -77.44555664 74.09057617 C-77.14257812 72.12939453 -77.14257812 72.12939453 -75.14257812 69.12939453 C-74.42788552 65.92399821 -73.84103473 62.72601196 -73.28710938 59.49072266 C-72.34554369 54.33236009 -72.34554369 54.33236009 -70.14257812 52.12939453 C-69.4949002 49.55878142 -69.4949002 49.55878142 -69.14257812 47.12939453 C-68.48257813 47.12939453 -67.82257812 47.12939453 -67.14257812 47.12939453 C-67.04332031 46.41525391 -66.9440625 45.70111328 -66.84179688 44.96533203 C-64.91167326 37.13700945 -58.630748 29.87282813 -53.14257812 24.12939453 C-52.48257812 24.12939453 -51.82257813 24.12939453 -51.14257812 24.12939453 C-51.14257812 23.46939453 -51.14257812 22.80939453 -51.14257812 22.12939453 C-49.19951546 20.43259329 -47.26220636 18.86476811 -45.20507812 17.31689453 C-44.60896729 16.86693115 -44.01285645 16.41696777 -43.39868164 15.95336914 C-35.73692297 10.25224387 -29.08804634 6.77066058 -19.64648438 4.80517578 C-16.99310454 4.31220835 -16.99310454 4.31220835 -15.14257812 2.12939453 C-13.04882812 1.75048828 -13.04882812 1.75048828 -10.64257812 1.56689453 C-6.8541643 1.26554343 -3.79535361 0.00400782 0 0 Z M-0.14257812 19.12939453 C-1.84414062 19.34595703 -1.84414062 19.34595703 -3.58007812 19.56689453 C-7.29247857 20.15306302 -9.88399434 21.3014085 -13.14257812 23.12939453 C-13.14257812 23.78939453 -13.14257812 24.44939453 -13.14257812 25.12939453 C-13.72265625 25.24154297 -14.30273438 25.35369141 -14.90039062 25.46923828 C-23.91130321 28.122277 -29.39696118 36.96379649 -33.83007812 44.62939453 C-36.66258318 49.91310588 -38.65929539 55.30290311 -40.26757812 61.06689453 C-41.14257812 64.12939453 -41.14257812 64.12939453 -42.14257812 65.12939453 C-42.3518971 67.29235727 -42.51054882 69.46034163 -42.64257812 71.62939453 C-43.03146701 78.01828342 -43.03146701 78.01828342 -44.14257812 79.12939453 C-44.23041354 81.34794717 -44.24952421 83.56927949 -44.24023438 85.78955078 C-44.23881943 86.45401718 -44.23740448 87.11848358 -44.23594666 87.80308533 C-44.23033331 89.93273352 -44.21777866 92.06227793 -44.20507812 94.19189453 C-44.20006484 95.63264823 -44.19550164 97.07340356 -44.19140625 98.51416016 C-44.18035957 102.05260555 -44.16308604 105.59098992 -44.14257812 109.12939453 C-43.48257812 109.12939453 -42.82257813 109.12939453 -42.14257812 109.12939453 C-42.16578125 110.17740234 -42.18898438 111.22541016 -42.21289062 112.30517578 C-42.23165116 113.6840749 -42.24985106 115.06298173 -42.26757812 116.44189453 C-42.28433594 117.1321875 -42.30109375 117.82248047 -42.31835938 118.53369141 C-42.35475606 122.30074849 -42.28636676 123.91371157 -40.14257812 127.12939453 C-39.74870025 129.453274 -39.40771728 131.78733202 -39.14257812 134.12939453 C-38.48257812 134.12939453 -37.82257813 134.12939453 -37.14257812 134.12939453 C-37.18382812 135.07814453 -37.22507812 136.02689453 -37.26757812 137.00439453 C-37.4923163 140.23184309 -37.4923163 140.23184309 -35.14257812 142.12939453 C-34.51757812 144.25439453 -34.51757812 144.25439453 -34.14257812 146.12939453 C-33.48257812 146.12939453 -32.82257813 146.12939453 -32.14257812 146.12939453 C-32.04847656 146.84482422 -31.954375 147.56025391 -31.85742188 148.29736328 C-31.02404579 151.59898983 -29.67610271 153.67590369 -27.70507812 156.44189453 C-27.08761719 157.32490234 -26.47015625 158.20791016 -25.83398438 159.11767578 C-25.27582031 159.78154297 -24.71765625 160.44541016 -24.14257812 161.12939453 C-23.48257812 161.12939453 -22.82257813 161.12939453 -22.14257812 161.12939453 C-22.14257812 161.78939453 -22.14257812 162.44939453 -22.14257812 163.12939453 C-21.48257812 163.12939453 -20.82257813 163.12939453 -20.14257812 163.12939453 C-19.81257813 164.11939453 -19.48257812 165.10939453 -19.14257812 166.12939453 C-12.07901005 172.25494351 -4.25374244 174.50730322 4.64648438 176.40283203 C7.85742188 177.12939453 7.85742188 177.12939453 8.85742188 178.12939453 C21.94914921 178.90475879 33.29360155 177.76517329 44.85742188 171.12939453 C45.65921875 170.70529297 46.46101563 170.28119141 47.28710938 169.84423828 C50.33800514 167.80876223 52.30391801 165.54035485 54.60742188 162.69189453 C55.38601563 161.74443359 56.16460938 160.79697266 56.96679688 159.82080078 C58.64504566 157.43172349 59.45422691 155.97191907 59.85742188 153.12939453 C60.51742188 153.12939453 61.17742187 153.12939453 61.85742188 153.12939453 C65.49364978 144.2880079 68.72134445 135.7235066 70.42773438 126.29345703 C70.85742188 124.12939453 70.85742188 124.12939453 71.85742188 121.12939453 C71.96675724 118.25010749 72.02147676 115.3957799 72.02539062 112.51611328 C72.02871902 111.66894241 72.03204742 110.82177155 72.03547668 109.94892883 C72.04053898 108.15598086 72.04288523 106.36302347 72.04272461 104.57006836 C72.04490525 101.83773083 72.06305205 99.10580094 72.08203125 96.37353516 C72.08496655 94.62939591 72.08695043 92.88525475 72.08789062 91.14111328 C72.0986689 89.92206551 72.0986689 89.92206551 72.10966492 88.6783905 C72.09130525 84.07942875 71.54914414 80.4720125 69.85742188 76.12939453 C69.59530749 74.51219825 69.38074661 72.88596664 69.23242188 71.25439453 C69.12027344 70.08263672 69.12027344 70.08263672 69.00585938 68.88720703 C68.956875 68.30712891 68.90789062 67.72705078 68.85742188 67.12939453 C68.19742187 67.12939453 67.53742188 67.12939453 66.85742188 67.12939453 C66.85742188 64.48939453 66.85742188 61.84939453 66.85742188 59.12939453 C66.19742187 59.12939453 65.53742188 59.12939453 64.85742188 59.12939453 C64.36242188 55.66439453 64.36242188 55.66439453 63.85742188 52.12939453 C63.19742187 52.12939453 62.53742188 52.12939453 61.85742188 52.12939453 C61.85742188 50.47939453 61.85742188 48.82939453 61.85742188 47.12939453 C61.19742187 47.12939453 60.53742188 47.12939453 59.85742188 47.12939453 C59.67179687 46.32501953 59.48617188 45.52064453 59.29492188 44.69189453 C57.34798196 39.86686951 54.42394079 35.91461507 50.85742188 32.12939453 C50.19742187 32.12939453 49.53742188 32.12939453 48.85742188 32.12939453 C48.85742188 31.46939453 48.85742188 30.80939453 48.85742188 30.12939453 C48.19742187 30.12939453 47.53742188 30.12939453 46.85742188 30.12939453 C46.36242188 28.64439453 46.36242188 28.64439453 45.85742188 27.12939453 C43.04232194 24.85204443 43.04232194 24.85204443 39.85742188 25.12939453 C39.85742188 24.46939453 39.85742188 23.80939453 39.85742188 23.12939453 C35.60454526 20.84736318 31.51182934 19.38250423 26.85742188 18.12939453 C25.86742187 17.63439453 25.86742187 17.63439453 24.85742188 17.12939453 C21.59220308 16.89028005 18.31793259 16.94420109 15.04492188 16.94189453 C14.14193359 16.92964844 13.23894531 16.91740234 12.30859375 16.90478516 C7.6597725 16.89453794 4.10813325 17.0519792 -0.14257812 19.12939453 Z " fill="#FFFFFF" transform="translate(1091.142578125,642.87060546875)"/>
<path d="M0 0 C1.33708008 -0.00193359 1.33708008 -0.00193359 2.70117188 -0.00390625 C3.63380859 -0.00003906 4.56644531 0.00382813 5.52734375 0.0078125 C6.46384766 0.00394531 7.40035156 0.00007812 8.36523438 -0.00390625 C9.70038086 -0.00197266 9.70038086 -0.00197266 11.0625 0 C11.88242432 0.00112793 12.70234863 0.00225586 13.54711914 0.00341797 C15.46484375 0.1328125 15.46484375 0.1328125 16.46484375 1.1328125 C18.15029301 1.26610814 19.83858771 1.36401063 21.52734375 1.4453125 C27.02431834 1.90043071 30.78957482 3.31390035 35.46484375 6.1328125 C36.79790523 6.88329559 38.13122559 7.63331909 39.46484375 8.3828125 C40.45484375 8.9603125 41.44484375 9.5378125 42.46484375 10.1328125 C42.46484375 10.7928125 42.46484375 11.4528125 42.46484375 12.1328125 C43.45484375 12.4628125 44.44484375 12.7928125 45.46484375 13.1328125 C45.46484375 13.7928125 45.46484375 14.4528125 45.46484375 15.1328125 C46.12484375 15.1328125 46.78484375 15.1328125 47.46484375 15.1328125 C51.70800647 20.10299687 53.01651489 24.74412626 53.46484375 31.1328125 C53.79484375 31.4628125 54.12484375 31.7928125 54.46484375 32.1328125 C54.5647135 34.97616298 54.60362256 37.78978413 54.58984375 40.6328125 C54.59371094 41.43074219 54.59757812 42.22867188 54.6015625 43.05078125 C54.59145142 49.00620483 54.59145142 49.00620483 53.46484375 50.1328125 C53.27921875 51.6796875 53.27921875 51.6796875 53.08984375 53.2578125 C51.98097895 60.13277429 48.7808818 66.64873775 44.46484375 72.1328125 C43.80484375 72.1328125 43.14484375 72.1328125 42.46484375 72.1328125 C42.29984375 72.8134375 42.13484375 73.4940625 41.96484375 74.1953125 C40.08115008 77.88421261 37.59942403 79.87209384 34.4375 82.484375 C32.4800159 84.06412559 32.4800159 84.06412559 30.91015625 85.72265625 C27.06472491 89.47455007 17.98637837 95.1328125 12.46484375 95.1328125 C14.39517404 98.64877125 16.20586171 101.80908495 18.71484375 104.9453125 C20.46484375 107.1328125 20.46484375 107.1328125 20.46484375 109.1328125 C21.12484375 109.1328125 21.78484375 109.1328125 22.46484375 109.1328125 C25.46484375 113.51742788 25.46484375 113.51742788 25.46484375 116.1328125 C26.12484375 116.1328125 26.78484375 116.1328125 27.46484375 116.1328125 C31.33984375 122.7578125 31.33984375 122.7578125 32.46484375 126.1328125 C33.94984375 126.6278125 33.94984375 126.6278125 35.46484375 127.1328125 C36.65234375 130.1953125 36.65234375 130.1953125 37.46484375 133.1328125 C38.12484375 133.1328125 38.78484375 133.1328125 39.46484375 133.1328125 C40.796875 134.85546875 40.796875 134.85546875 42.27734375 137.1953125 C44.22090315 140.22287186 46.19881712 143.17901159 48.33984375 146.0703125 C50.46484375 149.1328125 50.46484375 149.1328125 50.46484375 151.1328125 C51.12484375 151.1328125 51.78484375 151.1328125 52.46484375 151.1328125 C54.19140625 153.25 54.19140625 153.25 56.08984375 156.0078125 C56.72148437 156.91273438 57.353125 157.81765625 58.00390625 158.75 C59.46484375 161.1328125 59.46484375 161.1328125 59.46484375 163.1328125 C60.45484375 163.4628125 61.44484375 163.7928125 62.46484375 164.1328125 C63.8515625 165.69140625 63.8515625 165.69140625 65.15234375 167.5703125 C65.58933594 168.18777344 66.02632812 168.80523438 66.4765625 169.44140625 C67.46484375 171.1328125 67.46484375 171.1328125 67.46484375 173.1328125 C68.12484375 173.1328125 68.78484375 173.1328125 69.46484375 173.1328125 C71.08984375 174.5078125 71.08984375 174.5078125 72.46484375 176.1328125 C72.46484375 176.7928125 72.46484375 177.4528125 72.46484375 178.1328125 C73.12484375 178.1328125 73.78484375 178.1328125 74.46484375 178.1328125 C74.46484375 178.7928125 74.46484375 179.4528125 74.46484375 180.1328125 C75.45484375 180.4628125 76.44484375 180.7928125 77.46484375 181.1328125 C77.46484375 181.7928125 77.46484375 182.4528125 77.46484375 183.1328125 C78.12484375 183.1328125 78.78484375 183.1328125 79.46484375 183.1328125 C79.46484375 183.7928125 79.46484375 184.4528125 79.46484375 185.1328125 C80.78484375 185.4628125 82.10484375 185.7928125 83.46484375 186.1328125 C83.46484375 186.7928125 83.46484375 187.4528125 83.46484375 188.1328125 C84.12484375 188.1328125 84.78484375 188.1328125 85.46484375 188.1328125 C85.46484375 190.1128125 85.46484375 192.0928125 85.46484375 194.1328125 C80.50291934 194.33204041 75.54336841 194.47640697 70.57836914 194.57226562 C68.8933859 194.61225757 67.20867607 194.66667408 65.5246582 194.73632812 C49.74004413 195.37238961 49.74004413 195.37238961 44.08984375 190.46875 C42.10571289 188.26660156 42.10571289 188.26660156 40.46484375 186.1328125 C39.99618896 185.58592773 39.52753418 185.03904297 39.04467773 184.47558594 C37.92661159 183.12514451 36.90883814 181.69333784 35.90234375 180.2578125 C35.24105469 179.33226562 34.57976562 178.40671875 33.8984375 177.453125 C32.46484375 175.1328125 32.46484375 175.1328125 32.46484375 173.1328125 C31.80484375 173.1328125 31.14484375 173.1328125 30.46484375 173.1328125 C27.46484375 168.74819712 27.46484375 168.74819712 27.46484375 166.1328125 C26.80484375 166.1328125 26.14484375 166.1328125 25.46484375 166.1328125 C24.17578125 164.453125 24.17578125 164.453125 22.83984375 162.2578125 C22.39382812 161.53851562 21.9478125 160.81921875 21.48828125 160.078125 C20.46484375 158.1328125 20.46484375 158.1328125 20.46484375 156.1328125 C19.80484375 156.1328125 19.14484375 156.1328125 18.46484375 156.1328125 C16.16835726 153.5713468 15.46484375 152.65313678 15.46484375 149.1328125 C14.80484375 149.1328125 14.14484375 149.1328125 13.46484375 149.1328125 C12.1328125 147.41015625 12.1328125 147.41015625 10.65234375 145.0703125 C8.70878435 142.04275314 6.73087038 139.08661341 4.58984375 136.1953125 C2.46484375 133.1328125 2.46484375 133.1328125 2.46484375 131.1328125 C1.80484375 131.1328125 1.14484375 131.1328125 0.46484375 131.1328125 C-0.82421875 129.453125 -0.82421875 129.453125 -2.16015625 127.2578125 C-2.60617188 126.53851562 -3.0521875 125.81921875 -3.51171875 125.078125 C-4.53515625 123.1328125 -4.53515625 123.1328125 -4.53515625 121.1328125 C-5.19515625 121.1328125 -5.85515625 121.1328125 -6.53515625 121.1328125 C-9.53515625 116.74819712 -9.53515625 116.74819712 -9.53515625 114.1328125 C-10.19515625 114.1328125 -10.85515625 114.1328125 -11.53515625 114.1328125 C-12.78652238 112.65093156 -14.03544782 111.16677601 -15.26171875 109.6640625 C-18.30865468 106.00026224 -20.48665378 105.01658201 -25.17578125 104.55859375 C-25.99079102 104.47649658 -26.80580078 104.39439941 -27.64550781 104.30981445 C-28.2690918 104.25140381 -28.89267578 104.19299316 -29.53515625 104.1328125 C-29.29717543 112.83414697 -29.05415976 121.53532183 -28.80466557 130.23633385 C-28.68898217 134.2763064 -28.5750519 138.31631272 -28.46508789 142.35644531 C-28.35895767 146.25337564 -28.24827501 150.15015219 -28.13439751 154.04686356 C-28.09169856 155.53560423 -28.05065683 157.02439336 -28.01127815 158.51322556 C-27.95596083 160.59409233 -27.89482164 162.67471084 -27.83227539 164.75537109 C-27.79896622 165.94117767 -27.76565704 167.12698425 -27.7313385 168.34872437 C-27.71698849 171.08851222 -27.71698849 171.08851222 -26.53515625 173.1328125 C-26.46519611 174.83983985 -26.45075471 176.54949253 -26.47265625 178.2578125 C-26.48167969 179.16789063 -26.49070313 180.07796875 -26.5 181.015625 C-26.51160156 181.71429687 -26.52320313 182.41296875 -26.53515625 183.1328125 C-25.87515625 183.1328125 -25.21515625 183.1328125 -24.53515625 183.1328125 C-24.53515625 184.7828125 -24.53515625 186.4328125 -24.53515625 188.1328125 C-23.54515625 188.1328125 -22.55515625 188.1328125 -21.53515625 188.1328125 C-21.49243525 189.79893155 -21.49451793 191.46664135 -21.53515625 193.1328125 C-22.53515625 194.1328125 -22.53515625 194.1328125 -24.28785706 194.25306702 C-25.04952682 194.25084641 -25.81119659 194.24862579 -26.59594727 194.24633789 C-27.45676407 194.24626236 -28.31758087 194.24618683 -29.20448303 194.24610901 C-30.13989426 194.24094772 -31.07530548 194.23578644 -32.0390625 194.23046875 C-32.99207748 194.2290538 -33.94509247 194.22763885 -34.92698669 194.22618103 C-37.9839079 194.22056402 -41.04075702 194.20800866 -44.09765625 194.1953125 C-46.16471249 194.19029969 -48.23176987 194.18573641 -50.29882812 194.18164062 C-55.37763213 194.17058906 -60.45638195 194.15331305 -65.53515625 194.1328125 C-65.53515625 190.8328125 -65.53515625 187.5328125 -65.53515625 184.1328125 C-64.87515625 184.1328125 -64.21515625 184.1328125 -63.53515625 184.1328125 C-62.26484383 180.32187524 -62.21445469 176.61058154 -62.03515625 172.6328125 C-61.67029139 164.53821791 -61.67029139 164.53821791 -60.53515625 161.1328125 C-60.44293577 159.42227972 -60.40887075 157.7083476 -60.40817261 155.99533081 C-60.40535278 154.93246857 -60.40253296 153.86960632 -60.39962769 152.77453613 C-60.40266403 151.02578186 -60.40266403 151.02578186 -60.40576172 149.24169922 C-60.40313324 147.4000267 -60.40313324 147.4000267 -60.40045166 145.52114868 C-60.39680125 142.15357641 -60.39766139 138.78606546 -60.40083075 135.41849661 C-60.4033598 131.89822907 -60.40101539 128.37796417 -60.39944458 124.85769653 C-60.39762496 118.94793221 -60.40002426 113.03818039 -60.40478516 107.12841797 C-60.41023241 100.28749272 -60.40846093 93.44659725 -60.40295875 86.60567272 C-60.39842771 80.73812666 -60.39777688 74.87058958 -60.40039742 69.00304234 C-60.4019596 65.49586761 -60.40215548 61.98870689 -60.39886093 58.48153305 C-60.39544845 54.57605573 -60.40017177 50.67061206 -60.40576172 46.76513672 C-60.40373749 45.59525208 -60.40171326 44.42536743 -60.39962769 43.22003174 C-60.40244751 42.16280914 -60.40526733 41.10558655 -60.40817261 40.0163269 C-60.40854963 39.09197783 -60.40892666 38.16762875 -60.40931511 37.21526909 C-60.30350606 35.14340697 -60.30350606 35.14340697 -61.53515625 34.1328125 C-61.62167236 32.71711127 -61.64220529 31.2972175 -61.6328125 29.87890625 C-61.62958984 29.02490234 -61.62636719 28.17089844 -61.62304688 27.29101562 C-61.61466797 26.39318359 -61.60628906 25.49535156 -61.59765625 24.5703125 C-61.59314453 23.66861328 -61.58863281 22.76691406 -61.58398438 21.83789062 C-61.5721585 19.60279936 -61.55567845 17.36783813 -61.53515625 15.1328125 C-62.19515625 15.1328125 -62.85515625 15.1328125 -63.53515625 15.1328125 C-63.53515625 14.1428125 -63.53515625 13.1528125 -63.53515625 12.1328125 C-64.19515625 12.1328125 -64.85515625 12.1328125 -65.53515625 12.1328125 C-65.53515625 8.8328125 -65.53515625 5.5328125 -65.53515625 2.1328125 C-64.80044098 2.12250504 -64.06572571 2.11219757 -63.30874634 2.10157776 C-56.39270333 2.00369567 -49.47674263 1.90119452 -42.56084633 1.79347324 C-39.00511416 1.73825335 -35.44937374 1.68483487 -31.89355469 1.63549805 C-27.80785023 1.57873082 -23.722301 1.51419196 -19.63671875 1.44921875 C-18.35648834 1.43250626 -17.07625793 1.41579376 -15.75723267 1.39857483 C-14.57615936 1.37862961 -13.39508606 1.35868439 -12.17822266 1.33813477 C-11.13453522 1.32259048 -10.09084778 1.3070462 -9.01553345 1.29103088 C-5.78684196 1.085079 -3.35468053 0.00460853 0 0 Z M-26.53515625 17.1328125 C-26.67953125 17.8959375 -26.82390625 18.6590625 -26.97265625 19.4453125 C-27.53515625 22.1328125 -27.53515625 22.1328125 -28.53515625 25.1328125 C-28.88342871 29.31083966 -28.96337342 33.50552277 -29.09765625 37.6953125 C-29.14011475 38.95625732 -29.18257324 40.21720215 -29.22631836 41.51635742 C-29.71375012 57.05131423 -29.62783713 72.59236768 -29.53515625 88.1328125 C-26.42219815 89.68929155 -23.13603792 89.31727298 -19.72265625 89.3203125 C-19.01044922 89.33255859 -18.29824219 89.34480469 -17.56445312 89.35742188 C-13.39992009 89.36897932 -10.29006143 88.91672652 -6.53515625 87.1328125 C-5.44203125 86.8440625 -4.34890625 86.5553125 -3.22265625 86.2578125 C0.95932233 84.98195463 4.62213649 83.18891041 8.46484375 81.1328125 C8.46484375 80.4728125 8.46484375 79.8128125 8.46484375 79.1328125 C9.02171875 78.9471875 9.57859375 78.7615625 10.15234375 78.5703125 C15.39303689 75.31258433 17.81455859 69.90881055 19.46484375 64.1328125 C19.79484375 63.8028125 20.12484375 63.4728125 20.46484375 63.1328125 C20.77631882 58.57754336 20.74339782 54.00990899 20.77734375 49.4453125 C20.80634766 48.16462891 20.83535156 46.88394531 20.86523438 45.56445312 C21.01504569 36.52174115 21.01504569 36.52174115 16.46484375 29.1328125 C15.77054996 27.8136543 15.0895388 26.48631844 14.46484375 25.1328125 C13.80484375 25.1328125 13.14484375 25.1328125 12.46484375 25.1328125 C12.46484375 24.4728125 12.46484375 23.8128125 12.46484375 23.1328125 C4.26653698 17.0501978 -4.7599967 16.72392259 -14.59765625 16.9453125 C-15.74943359 16.95884766 -16.90121094 16.97238281 -18.08789062 16.98632812 C-20.90414597 17.02138525 -23.7193939 17.07052394 -26.53515625 17.1328125 Z " fill="#FFFFFF" transform="translate(134.53515625,642.8671875)"/>
<path d="M0 0 C14.52 0 29.04 0 44 0 C44 1.98 44 3.96 44 6 C43.34 6 42.68 6 42 6 C42 7.32 42 8.64 42 10 C41.34 10 40.68 10 40 10 C40.02320313 10.58007812 40.04640625 11.16015625 40.0703125 11.7578125 C40.08835937 12.53898438 40.10640625 13.32015625 40.125 14.125 C40.14820313 14.89070312 40.17140625 15.65640625 40.1953125 16.4453125 C40 19 40 19 39.00772095 21.78433228 C37.98713805 25.04104287 37.72568308 27.60619188 37.68115234 31.00537109 C37.66128265 32.16612152 37.64141296 33.32687195 37.62094116 34.52279663 C37.60938995 35.76050812 37.59783875 36.9982196 37.5859375 38.2734375 C37.56657135 39.55231842 37.5472052 40.83119934 37.5272522 42.14883423 C37.47771721 45.53207162 37.43639765 48.91520382 37.39910889 52.29858398 C37.35894517 55.75774773 37.30790956 59.21674963 37.2578125 62.67578125 C37.16189296 69.45041644 37.0768079 76.22512263 37 83 C40.47988948 81.86546069 43.77259982 80.73783087 47 79 C47 78.34 47 77.68 47 77 C50.46153846 74 50.46153846 74 53 74 C53 73.34 53 72.68 53 72 C53.66 72 54.32 72 55 72 C55 71.34 55 70.68 55 70 C56.375 68.375 56.375 68.375 58 67 C58.66 67 59.32 67 60 67 C60 66.34 60 65.68 60 65 C60.66 65 61.32 65 62 65 C62.38478516 64.12214844 62.38478516 64.12214844 62.77734375 63.2265625 C64.10562162 60.80765392 65.56524801 59.26801128 67.5625 57.375 C70.14015389 54.95478041 70.14015389 54.95478041 72 52 C72.66 52 73.32 52 74 52 C74 51.34 74 50.68 74 50 C75.10943689 48.89056311 76.22487568 47.7867225 77.36328125 46.70703125 C80.24977562 43.69653473 82.70186713 40.32355835 85.23046875 37.01171875 C85.81441406 36.34785156 86.39835937 35.68398438 87 35 C87.66 35 88.32 35 89 35 C89.27328125 34.41476562 89.5465625 33.82953125 89.828125 33.2265625 C90.97064583 31.05577292 92.23038589 29.29494256 93.75 27.375 C94.83958308 25.92133019 95.92260318 24.46272462 97 23 C97.55816406 22.24589844 98.11632813 21.49179687 98.69140625 20.71484375 C103.79377552 13.15350133 103.21300603 10.2309216 104 0 C117.86 0 131.72 0 146 0 C146 6 146 6 144.35546875 7.86328125 C143.64003906 8.34152344 142.92460938 8.81976562 142.1875 9.3125 C141.47980469 9.80363281 140.77210938 10.29476562 140.04296875 10.80078125 C138 12 138 12 135 13 C135 13.66 135 14.32 135 15 C131.53846154 18 131.53846154 18 129 18 C128.69255859 18.81404297 128.69255859 18.81404297 128.37890625 19.64453125 C126.45834995 22.92525491 123.75139557 25.19211346 120.9375 27.6875 C119.75526853 28.75774434 118.57428475 29.82936849 117.39453125 30.90234375 C116.52562256 31.6910083 116.52562256 31.6910083 115.63916016 32.49560547 C109.89736183 37.76533459 104.58602039 43.37116038 99.5 49.26953125 C97.75123565 51.28698596 95.99703817 53.22485496 94 55 C93.34 55 92.68 55 92 55 C91.34 56.65 90.68 58.3 90 60 C89.34 60 88.68 60 88 60 C88 60.66 88 61.32 88 62 C86.38025441 63.71230248 84.7041054 65.37163262 83 67 C80.32820474 69.60966048 78.07429779 71.88855331 76 75 C75.34 75 74.68 75 74 75 C74 75.66 74 76.32 74 77 C72.625 78.625 72.625 78.625 71 80 C70.34 80 69.68 80 69 80 C68.71125 80.61875 68.4225 81.2375 68.125 81.875 C67 84 67 84 65 86 C65.36688761 89.09820635 66.60130926 91.1573369 68.40625 93.65234375 C68.89899414 94.34062256 69.39173828 95.02890137 69.89941406 95.73803711 C70.6917041 96.82677124 70.6917041 96.82677124 71.5 97.9375 C72.58890603 99.45807247 73.67744362 100.97890886 74.765625 102.5 C75.30896484 103.25539063 75.85230469 104.01078125 76.41210938 104.7890625 C78.71179895 107.9910903 80.98904859 111.20803349 83.25 114.4375 C84.34054687 115.98244141 84.34054687 115.98244141 85.453125 117.55859375 C87 120 87 120 87 122 C87.66 122 88.32 122 89 122 C90.80068015 124.42649031 92.47836549 126.84739297 94.125 129.375 C94.59292969 130.07367187 95.06085938 130.77234375 95.54296875 131.4921875 C99 136.73316782 99 136.73316782 99 139 C99.66 139 100.32 139 101 139 C102.2890625 140.6796875 102.2890625 140.6796875 103.625 142.875 C104.07101562 143.59429688 104.51703125 144.31359375 104.9765625 145.0546875 C106 147 106 147 106 149 C106.99 149.33 107.98 149.66 109 150 C110.484375 152.265625 110.484375 152.265625 112 155 C115.9750062 160.94283105 120.20684549 166.63919445 124.71484375 172.1875 C126 174 126 174 126 176 C126.66 176 127.32 176 128 176 C130.625 178.375 130.625 178.375 133 181 C133 181.66 133 182.32 133 183 C133.99 183.33 134.98 183.66 136 184 C136 184.66 136 185.32 136 186 C136.99 186 137.98 186 139 186 C139.042721 187.66611905 139.04063832 189.33382885 139 191 C136.99136157 193.00863843 132.95733287 192.18785641 130.203125 192.203125 C129.4173407 192.20882507 128.6315564 192.21452515 127.82196045 192.22039795 C126.15410718 192.22986429 124.48623507 192.23638839 122.81835938 192.24023438 C120.27440291 192.24990721 117.73126549 192.28090043 115.1875 192.3125 C113.56771314 192.31903318 111.94792048 192.32428241 110.328125 192.328125 C109.19035614 192.3466452 109.19035614 192.3466452 108.02960205 192.36553955 C102.41929512 192.34206151 99.2192817 191.11818644 95.19921875 187.28125 C94.70035156 186.6934375 94.20148438 186.105625 93.6875 185.5 C93.17574219 184.9121875 92.66398437 184.324375 92.13671875 183.71875 C91 182 91 182 91 179 C90.34 179 89.68 179 89 179 C86.95830515 176.09451118 86 174.59857954 86 171 C85.34 171 84.68 171 84 171 C81 166.61538462 81 166.61538462 81 164 C80.34 164 79.68 164 79 164 C78.319375 162.2984375 78.319375 162.2984375 77.625 160.5625 C76.42904194 156.95278308 76.42904194 156.95278308 74 156 C73.05504867 154.38008343 72.11678131 152.75576574 71.21875 151.109375 C69.39252677 147.94860403 67.27675986 144.99580852 65.171875 142.015625 C64 140 64 140 64 137 C63.34 137 62.68 137 62 137 C59.95830515 134.09451118 59 132.59857954 59 129 C58.34 129 57.68 129 57 129 C54 124.61538462 54 124.61538462 54 122 C53.34 122 52.68 122 52 122 C49 116.25 49 116.25 49 114 C48.34 114 47.68 114 47 114 C45.2734375 111.4453125 45.2734375 111.4453125 43.375 108.125 C42.74335937 107.03445313 42.11171875 105.94390625 41.4609375 104.8203125 C40 102 40 102 40 100 C39.01 100 38.02 100 37 100 C37.08457159 108.48459447 37.17951937 116.96898368 37.28752708 125.45330906 C37.3373634 129.39339779 37.38369398 133.33346136 37.421875 137.27368164 C37.45888855 141.07987149 37.50529088 144.88584403 37.55806351 148.69184685 C37.57652244 150.14017848 37.59166141 151.58855655 37.60334396 153.03695869 C37.62035319 155.07377254 37.6494207 157.11009784 37.68115234 159.14672852 C37.69447601 160.30366714 37.70779968 161.46060577 37.7215271 162.65260315 C38.02591276 166.31148554 38.90734291 169.50265683 40 173 C40.22967634 174.36858687 40.42670489 175.74393485 40.5625 177.125 C40.90357743 180.1459715 41.35147539 183.03531605 42 186 C42.66 186 43.32 186 44 186 C44 187.98 44 189.96 44 192 C29.48 192 14.96 192 0 192 C0 190.02 0 188.04 0 186 C0.66 186 1.32 186 2 186 C1.979375 185.195625 1.95875 184.39125 1.9375 183.5625 C2 181 2 181 3 180 C3.22571184 178.58879098 3.39388349 177.16823957 3.53515625 175.74609375 C3.62216797 174.89208984 3.70917969 174.03808594 3.79882812 173.15820312 C3.88583984 172.26037109 3.97285156 171.36253906 4.0625 170.4375 C4.15337891 169.53580078 4.24425781 168.63410156 4.33789062 167.70507812 C4.56253923 165.47041566 4.78305769 163.23542161 5 161 C5.66 161 6.32 161 7 161 C6.89289801 144.06733169 6.78016162 127.13471163 6.66066074 110.2021265 C6.60531058 102.34057688 6.5518257 94.47902273 6.50268555 86.61743164 C6.45986561 79.76771678 6.41359325 72.91803558 6.36312145 66.06837267 C6.33650278 62.43932582 6.31164936 58.81028573 6.29092598 55.18120003 C6.2677645 51.13645577 6.23689742 47.09180646 6.20532227 43.04711914 C6.1995668 41.83511841 6.19381134 40.62311768 6.18788147 39.37438965 C6.17809265 38.27917496 6.16830383 37.18396027 6.15821838 36.05555725 C6.15176583 35.09781434 6.14531328 34.14007143 6.1386652 33.15330601 C6.23914817 31.01908012 6.23914817 31.01908012 5 30 C4.5837274 26.29517383 4.22969598 22.59245973 3.92578125 18.87695312 C3.44343048 13.87767351 2.30911394 10.51097394 0 6 C0 4.02 0 2.04 0 0 Z " fill="#FFFFFF" transform="translate(1463,645)"/>
<path d="M0 0 C5.65998046 -0.04934926 11.31983636 -0.08569529 16.97998047 -0.10986328 C18.90643494 -0.11993582 20.83287408 -0.13359443 22.75927734 -0.15087891 C25.52445252 -0.17507241 28.289426 -0.18647036 31.0546875 -0.1953125 C32.3516304 -0.21079636 32.3516304 -0.21079636 33.67477417 -0.22659302 C35.78453521 -0.22699106 37.89380718 -0.12265243 40 0 C42 2 42 2 42.125 5.125 C42.08375 6.07375 42.0425 7.0225 42 8 C42.66 8 43.32 8 44 8 C44 10.31 44 12.62 44 15 C44.66 15 45.32 15 46 15 C46.16435547 15.8353125 46.16435547 15.8353125 46.33203125 16.6875 C47.14899303 20.6195437 48.05111248 24.33589254 49.5625 28.0625 C51.14456997 32.03365542 51.62061615 35.75090086 52 40 C52.66 40 53.32 40 54 40 C54 42.31 54 44.62 54 47 C54.66 47 55.32 47 56 47 C56.33 49.64 56.66 52.28 57 55 C57.66 55 58.32 55 59 55 C59.0825 55.969375 59.165 56.93875 59.25 57.9375 C59.68387178 61.13649489 60.66874345 63.65678846 62.0625 66.5625 C63.79071078 70.2060924 64.41967809 72.9081386 64 77 C64.66 77 65.32 77 66 77 C66.33 79.64 66.66 82.28 67 85 C67.66 85 68.32 85 69 85 C69.17015625 85.7734375 69.3403125 86.546875 69.515625 87.34375 C70.84015386 93.03640594 72.29459224 98.07133577 75.09375 103.203125 C76.50440818 106.00011967 77.17809558 108.98635045 78 112 C78.53625 113.19625 79.0725 114.3925 79.625 115.625 C80.91212445 118.78430546 81.30413337 120.65453295 81 124 C81.99 124.33 82.98 124.66 84 125 C84.51340034 126.6086544 85.0092066 128.22490938 85.41796875 129.86328125 C87.53261117 137.6264316 91.32225523 144.91453426 94.828125 152.1171875 C96 155 96 155 96 159 C96.66 159 97.32 159 98 159 C99.4216319 162.3171411 100.39009109 165.44219804 101 169 C101.66 169 102.32 169 103 169 C103.226875 169.639375 103.45375 170.27875 103.6875 170.9375 C105.18059119 174.42137945 106.99103318 177.63129212 108.87890625 180.9140625 C110 183 110 183 111 186 C111.66 186 112.32 186 113 186 C113 187.98 113 189.96 113 192 C101.12 192 89.24 192 77 192 C72.5 183 72.5 183 73 179 C72.34 179 71.68 179 71 179 C70.5978125 177.4840625 70.5978125 177.4840625 70.1875 175.9375 C69.43373952 173.24782233 68.55096717 171.01558188 67.375 168.4375 C65.98986218 164.97465546 65.73057911 162.68208549 66 159 C65.34 159 64.68 159 64 159 C62.51660764 155.15666526 61.11375347 151.40524674 60 147.4375 C59.05912776 143.90872478 59.05912776 143.90872478 57.375 140.375 C56.08787555 137.21569454 55.69586663 135.34546705 56 132 C55.34 132 54.68 132 54 132 C53.67 129.36 53.34 126.72 53 124 C52.34 124 51.68 124 51 124 C49.69507531 119.84055256 48.87980295 116.34963091 49 112 C40.68998125 111.97685685 32.37997592 111.95907482 24.06993294 111.94818783 C20.2114867 111.94296333 16.35306247 111.93587351 12.49462891 111.92456055 C8.7728847 111.91371632 5.0511617 111.90771989 1.32940292 111.90512276 C-0.09240172 111.90327129 -1.51420517 111.89965597 -2.93600082 111.89426994 C-4.9233055 111.88703928 -6.91063139 111.88659177 -8.89794922 111.88647461 C-10.03046112 111.884254 -11.16297302 111.88203339 -12.32980347 111.87974548 C-14.97384777 111.81754044 -14.97384777 111.81754044 -17 113 C-17.72045764 114.9812585 -18.38001259 116.98504093 -19 119 C-20.55652737 123.04697115 -22.2921446 127.01500406 -24 131 C-24.33 131.825 -24.66 132.65 -25 133.5 C-26.76161963 137.90404906 -28.6566313 142.24723017 -30.625 146.5625 C-31.90766303 149.76915757 -32.58355851 152.58517981 -33 156 C-33.66 156 -34.32 156 -35 156 C-34.979375 156.94875 -34.95875 157.8975 -34.9375 158.875 C-35 162 -35 162 -36 164 C-36.66 164 -37.32 164 -38 164 C-37.979375 165.27875 -37.95875 166.5575 -37.9375 167.875 C-37.875 171.75 -37.875 171.75 -39 174 C-39.09472912 175.51845202 -39.1298841 177.04110384 -39.125 178.5625 C-39.12757813 179.36816406 -39.13015625 180.17382812 -39.1328125 181.00390625 C-39.22011391 182.99942021 -39.22011391 182.99942021 -38 184 C-38 186.64 -38 189.28 -38 192 C-51.86 192 -65.72 192 -80 192 C-80 190.02 -80 188.04 -80 186 C-79.34 186 -78.68 186 -78 186 C-77.7525 185.278125 -77.505 184.55625 -77.25 183.8125 C-75.87730408 180.72393418 -74.27646704 178.48988582 -72 176 C-71.34 176 -70.68 176 -70 176 C-69.90589844 175.45214844 -69.81179688 174.90429688 -69.71484375 174.33984375 C-68.80302594 171.35525976 -67.29279135 169.15613838 -65.5625 166.5625 C-63.25784531 163.10311227 -61.49492798 159.87199815 -60 156 C-59.02149805 154.97895449 -58.02019573 153.9793879 -57 153 C-55.38824627 150.58236941 -54.14393228 148.57572912 -53.4375 145.75 C-53.293125 145.1725 -53.14875 144.595 -53 144 C-52.34 143.67 -51.68 143.34 -51 143 C-50.34786708 140.97536745 -50.34786708 140.97536745 -50 139 C-49.34 139 -48.68 139 -48 139 C-48 137.35 -48 135.7 -48 134 C-47.34 134 -46.68 134 -46 134 C-45.67 132.35 -45.34 130.7 -45 129 C-44.34 129 -43.68 129 -43 129 C-43 127.35 -43 125.7 -43 124 C-42.34 124 -41.68 124 -41 124 C-40.67 122.35 -40.34 120.7 -40 119 C-39.34 119 -38.68 119 -38 119 C-37.88527344 118.28714844 -37.77054688 117.57429687 -37.65234375 116.83984375 C-36.95921354 113.82244456 -35.89618692 111.35255721 -34.5625 108.5625 C-32.78446265 104.75976117 -31.1990099 101.03303332 -30 97 C-29.34 97 -28.68 97 -28 97 C-28.0825 96.34 -28.165 95.68 -28.25 95 C-27.94936616 91.39239397 -26.70343047 89.09760713 -24.97265625 85.96484375 C-23.992939 83.98573622 -23.45581048 82.15430429 -23 80 C-22.34 80 -21.68 80 -21 80 C-21.04125 79.21625 -21.0825 78.4325 -21.125 77.625 C-21 75 -21 75 -19 73 C-18.44184214 71.37296983 -17.94866855 69.72306132 -17.5 68.0625 C-16.61778163 64.80692244 -15.90242149 62.85363224 -14 60 C-13.61500109 58.34450469 -13.27206865 56.6777567 -13 55 C-12.34 55 -11.68 55 -11 55 C-11.04125 54.236875 -11.0825 53.47375 -11.125 52.6875 C-11 50 -11 50 -9 47 C-8.45194412 45.18045449 -7.95621991 43.34471529 -7.5 41.5 C-6.64739282 38.05250142 -5.99550146 35.99325219 -4 33 C-3.44409231 31.09879571 -2.95040838 29.17892286 -2.5 27.25 C-1.72293995 23.92767185 -0.93645051 20.82841638 0.25 17.625 C1.05253488 13.7460814 0.86484181 10.7116836 0.546875 6.7734375 C0.44729492 5.50677246 0.34771484 4.24010742 0.24511719 2.93505859 C0.16422852 1.96648926 0.08333984 0.99791992 0 0 Z M17 30 C16.72285156 30.78246094 16.44570313 31.56492187 16.16015625 32.37109375 C15.79792969 33.38300781 15.43570313 34.39492188 15.0625 35.4375 C14.70285156 36.44683594 14.34320312 37.45617187 13.97265625 38.49609375 C13 41 13 41 12 42 C11.95936168 43.66617115 11.957279 45.33388095 12 47 C11.01 47.33 10.02 47.66 9 48 C8.04347793 50.53059243 8.04347793 50.53059243 7.4375 53.5 C7.01610584 55.3474682 6.54818572 57.18610799 6 59 C5.34 59.33 4.68 59.66 4 60 C3.16245636 61.97908504 3.16245636 61.97908504 2.5 64.3125 C1.7742299 66.69886365 1.08504796 68.84114257 -0.09375 71.04296875 C-1.28013762 73.24550601 -1.28013762 73.24550601 -1 77 C-1.66 77 -2.32 77 -3 77 C-3 78.65 -3 80.3 -3 82 C-3.66 82 -4.32 82 -5 82 C-6.32 85.96 -7.64 89.92 -9 94 C7.5 94 24 94 41 94 C41 93.34 41 92.68 41 92 C40.34 92 39.68 92 39 92 C39.04125 91.05125 39.0825 90.1025 39.125 89.125 C39.34973818 85.89755144 39.34973818 85.89755144 37 84 C36.45564855 82.121845 35.98644306 80.22144133 35.5625 78.3125 C34.44559845 73.57706538 33.09205218 69.38334743 31 65 C30.34 65 29.68 65 29 65 C29.020625 64.05125 29.04125 63.1025 29.0625 62.125 C29.22551826 59.09333717 29.22551826 59.09333717 28 57 C27.34 57 26.68 57 26 57 C26.04125 56.13375 26.0825 55.2675 26.125 54.375 C25.99542279 50.87641532 25.23980344 48.25448403 24 45 C23.34 45 22.68 45 22 45 C21.855625 43.865625 21.71125 42.73125 21.5625 41.5625 C21.38828522 38.19222799 21.38828522 38.19222799 20 37 C19.63239269 34.67182036 19.29758419 32.3381615 19 30 C18.34 30 17.68 30 17 30 Z " fill="#FFFFFF" transform="translate(703,645)"/>
<path d="M0 0 C12.87 0 25.74 0 39 0 C42.3559322 6.71186441 42.3559322 6.71186441 43.125 10.3125 C43.60777525 13.78269121 43.60777525 13.78269121 45 15 C45.12375 16.010625 45.2475 17.02125 45.375 18.0625 C46.16978365 23.06963698 47.8951297 27.39030634 49.86328125 32.0390625 C51.72374013 36.60644497 52.30841908 40.06529468 52 45 C52.99 45.33 53.98 45.66 55 46 C56.80886571 50.76017293 57.20666253 54.93676791 57 60 C57.66 60 58.32 60 59 60 C61.8052671 67.26819203 64.04773233 74.2231474 65 82 C65.66 82 66.32 82 67 82 C67.12375 83.11375 67.2475 84.2275 67.375 85.375 C67.6465813 89.03103677 67.6465813 89.03103677 70 91 C70.70426193 93.06431432 71.34114179 95.1519687 71.9375 97.25 C73.23374356 101.80522027 74.83908787 105.79004857 77 110 C77.67784992 112.33010909 78.34416793 114.66359824 79 117 C79.53625 118.19625 80.0725 119.3925 80.625 120.625 C81.91212445 123.78430546 82.30413337 125.65453295 82 129 C82.66 129 83.32 129 84 129 C87.42857143 136.28571429 87.42857143 136.28571429 87 141 C87.66 141 88.32 141 89 141 C89 142.65 89 144.3 89 146 C89.99 146.33 90.98 146.66 92 147 C92.94921875 149.72265625 92.94921875 149.72265625 93.6875 153.0625 C94.06455078 154.71958984 94.06455078 154.71958984 94.44921875 156.41015625 C94.72185547 157.69212891 94.72185547 157.69212891 95 159 C95.66 159 96.32 159 97 159 C97.99 162.3 98.98 165.6 100 169 C100.66 169 101.32 169 102 169 C102.391875 169.99 102.78375 170.98 103.1875 172 C104.75548186 175.70134179 106.78742224 178.96105581 109.01171875 182.30078125 C110 184 110 184 110 186 C110.66 186 111.32 186 112 186 C112 187.98 112 189.96 112 192 C106.90968245 192.04936158 101.81950357 192.08570105 96.72900391 192.10986328 C94.99655735 192.11993376 93.26412784 192.13359089 91.53173828 192.15087891 C89.04455361 192.17508162 86.55759325 192.18647239 84.0703125 192.1953125 C83.29317902 192.20563507 82.51604553 192.21595764 81.71536255 192.22659302 C79.80874507 192.22699271 77.90268964 192.1223214 76 192 C74 190 74 190 73.875 186.875 C73.91625 185.92625 73.9575 184.9775 74 184 C73.34 184 72.68 184 72 184 C71.690625 182.865625 71.38125 181.73125 71.0625 180.5625 C70.37075469 177.21224901 70.37075469 177.21224901 69 176 C68.95936168 174.33382885 68.957279 172.66611905 69 171 C68.34 171 67.68 171 67 171 C66.731875 170.01 66.46375 169.02 66.1875 168 C65.21438235 164.57683437 63.9976236 161.29133324 62.71875 157.97265625 C62.05736343 156.15743767 61.52212322 154.29756399 61 152.4375 C60.05912776 148.90872478 60.05912776 148.90872478 58.375 145.375 C57.08787555 142.21569454 56.69586663 140.34546705 57 137 C56.34 137 55.68 137 55 137 C53.64560332 134.29120665 53.93498549 131.99066732 54 129 C53.34 129 52.68 129 52 129 C51.731875 128.01 51.46375 127.02 51.1875 126 C50.39147542 123.18241658 49.44042301 120.47667499 48.375 117.75 C47 114 47 114 47 111 C46.01 111.33 45.02 111.66 44 112 C42.09352313 112.09357369 40.1839178 112.1279279 38.27514648 112.12939453 C37.1006041 112.13254669 35.92606171 112.13569885 34.71592712 112.13894653 C33.44713211 112.1369223 32.1783371 112.13489807 30.87109375 112.1328125 C29.57051529 112.13376923 28.26993683 112.13472595 26.9299469 112.13571167 C24.17862764 112.13718536 21.42734087 112.13504428 18.67602539 112.13037109 C15.14624419 112.12466837 11.61653894 112.1279583 8.08676052 112.13394356 C4.7231988 112.13842096 1.35965763 112.13528861 -2.00390625 112.1328125 C-3.27472549 112.13483673 -4.54554474 112.13686096 -5.85487366 112.13894653 C-7.02626389 112.13579437 -8.19765411 112.13264221 -9.40454102 112.12939453 C-10.95649925 112.12820114 -10.95649925 112.12820114 -12.53981018 112.12698364 C-15 112 -15 112 -17 111 C-17.28875 111.928125 -17.5775 112.85625 -17.875 113.8125 C-19 117 -19 117 -21 120 C-21.70812814 122.32108669 -22.38024152 124.65377147 -23 127 C-23.66 127 -24.32 127 -25 127 C-24.79375 127.61875 -24.5875 128.2375 -24.375 128.875 C-24.25125 129.57625 -24.1275 130.2775 -24 131 C-24.66 131.66 -25.32 132.32 -26 133 C-26.70626239 134.98636298 -27.36893571 136.98848259 -28 139 C-28.6590841 140.66967972 -29.32650839 142.33607955 -30 144 C-30.48133738 145.29085933 -30.96030719 146.58260281 -31.4375 147.875 C-32.40742771 150.48596701 -33.44162988 153.00691612 -34.5625 155.5625 C-38.33638486 164.58700728 -39.16815102 173.29403901 -39 182.9375 C-38.95469204 185.63105815 -38.9523572 188.30520403 -39 191 C-40 192 -40 192 -43.87719727 192.11352539 C-45.60694167 192.11336621 -47.33669081 192.10766849 -49.06640625 192.09765625 C-49.97502914 192.0962413 -50.88365204 192.09482635 -51.81980896 192.09336853 C-54.73407221 192.08775193 -57.64825981 192.07519665 -60.5625 192.0625 C-62.53320202 192.05748714 -64.50390524 192.05292386 -66.47460938 192.04882812 C-71.31643559 192.03777711 -76.15820495 192.02050138 -81 192 C-81.33 190.35 -81.66 188.7 -82 187 C-81.01 186.67 -80.02 186.34 -79 186 C-79 185.01 -79 184.02 -79 183 C-77.7151049 181.61992749 -76.36984198 180.29579647 -75 179 C-71.36879316 174.9148923 -68.62025913 170.7950742 -66 166 C-64.80150873 163.84865419 -63.59248225 161.70315577 -62.375 159.5625 C-61.78460937 158.51191406 -61.19421875 157.46132813 -60.5859375 156.37890625 C-60.06257813 155.59386719 -59.53921875 154.80882812 -59 154 C-58.34 154 -57.68 154 -57 154 C-56.91878906 153.33613281 -56.83757812 152.67226563 -56.75390625 151.98828125 C-55.75085701 148.01246432 -53.90881991 144.76286123 -51.9375 141.1875 C-51.11708418 139.66742435 -50.2981065 138.14657175 -49.48046875 136.625 C-49.06587402 135.85542969 -48.6512793 135.08585938 -48.22412109 134.29296875 C-43.3928447 125.24323842 -38.85029317 116.10887102 -35.10546875 106.55078125 C-33.94373881 103.87018177 -32.52670326 101.48750851 -31 99 C-29.15078623 95.01707804 -27.65921429 91.3508143 -27 87 C-26.34 87 -25.68 87 -25 87 C-25 85.35 -25 83.7 -25 82 C-24.34 82 -23.68 82 -23 82 C-22.01 78.04 -21.02 74.08 -20 70 C-19.34 70 -18.68 70 -18 70 C-17.70996094 68.73542969 -17.70996094 68.73542969 -17.4140625 67.4453125 C-17.15367188 66.34960938 -16.89328125 65.25390625 -16.625 64.125 C-16.36976562 63.03445313 -16.11453125 61.94390625 -15.8515625 60.8203125 C-15 58 -15 58 -13 56 C-12.60235737 54.01178687 -12.26224651 52.01055661 -12 50 C-11.34 50 -10.68 50 -10 50 C-10.04125 49.236875 -10.0825 48.47375 -10.125 47.6875 C-10 45 -10 45 -8 42 C-7.47095079 40.28543738 -6.99711103 38.55339957 -6.5625 36.8125 C-5.68286228 33.42722755 -4.7477493 30.18003615 -3.4375 26.9375 C0.03429455 17.91083416 0 9.87204068 0 0 Z M16 30 C15.54625 31.216875 15.0925 32.43375 14.625 33.6875 C12.55868581 39.19123406 10.31591915 44.59618866 8 50 C7.67 50.845625 7.34 51.69125 7 52.5625 C6 55 6 55 4.4375 58 C2.90216626 60.88742787 2.90216626 60.88742787 2.4375 63.8125 C2.293125 64.534375 2.14875 65.25625 2 66 C1.01 66.495 1.01 66.495 0 67 C-0.83868025 69.24446039 -0.83868025 69.24446039 -1.5 71.875 C-2.37982318 75.15521035 -3.08541088 77.12811631 -5 80 C-5.16713569 82.62531524 -5.16713569 82.62531524 -5 85 C-5.66 85 -6.32 85 -7 85 C-7.99 87.97 -8.98 90.94 -10 94 C6.5 94 23 94 40 94 C39.30227835 91.20911341 38.58942872 88.77479536 37.5625 86.125 C36.28488386 82.77590915 35.11149657 79.40858949 34 76 C33.62875 74.88625 33.2575 73.7725 32.875 72.625 C32.58625 71.75875 32.2975 70.8925 32 70 C31.34 70 30.68 70 30 70 C29.505 66.04 29.505 66.04 29 62 C28.34 62 27.68 62 27 62 C26.855625 60.948125 26.71125 59.89625 26.5625 58.8125 C26.12473034 55.84539451 25.62195134 52.93205634 25 50 C24.34 50 23.68 50 23 50 C22.8453125 48.515 22.8453125 48.515 22.6875 47 C22.08333505 42.73632165 20.62644561 38.96653572 19 35 C18.608125 34.01 18.21625 33.02 17.8125 32 C17.544375 31.34 17.27625 30.68 17 30 C16.67 30 16.34 30 16 30 Z " fill="#FFFFFF" transform="translate(1309,645)"/>
<path d="M0 0 C4.37409304 -0.12489723 8.7472039 -0.21493781 13.12255859 -0.2746582 C14.60646679 -0.29958838 16.09025495 -0.33354625 17.57373047 -0.37719727 C26.60991601 -0.6361574 34.35429302 -0.5175205 42 5 C44.73799979 7.80644979 46.2675409 10.5350818 48 14 C48.66 14.33 49.32 14.66 50 15 C50.72904086 16.64034193 51.38655243 18.31301918 52 20 C53.45815198 23.85368738 55.23316065 27.41878148 57.1953125 31.03515625 C58 33 58 33 58 37 C58.66 37 59.32 37 60 37 C60 38.65 60 40.3 60 42 C60.66 42 61.32 42 62 42 C62.24234375 42.7734375 62.4846875 43.546875 62.734375 44.34375 C64.5187807 49.88913387 66.40595361 55.11218253 69.12109375 60.265625 C70.9343759 63.8438351 71.90371936 67.36214076 72.5 71.3125 C72.665 72.199375 72.83 73.08625 73 74 C73.66 74.33 74.32 74.66 75 75 C75 77.31 75 79.62 75 82 C75.66 82 76.32 82 77 82 C77.99 85.96 77.99 85.96 79 90 C79.66 89.67 80.32 89.34 81 89 C81.165 88.34 81.33 87.68 81.5 87 C81.665 86.34 81.83 85.68 82 85 C82.66 84.67 83.32 84.34 84 84 C84.99945455 82.22091228 85.92528409 80.40013718 86.8125 78.5625 C87.33714844 77.48613281 87.86179687 76.40976562 88.40234375 75.30078125 C88.92957031 74.21152344 89.45679688 73.12226562 90 72 C90.95535445 70.08184678 91.91338049 68.16502005 92.875 66.25 C93.28492188 65.43015625 93.69484375 64.6103125 94.1171875 63.765625 C94.40851563 63.18296875 94.69984375 62.6003125 95 62 C95.66 62 96.32 62 97 62 C97.11085938 61.278125 97.22171875 60.55625 97.3359375 59.8125 C98.04364235 56.81516182 99.10253368 54.6704222 100.625 52 C101.42357422 50.57300781 101.42357422 50.57300781 102.23828125 49.1171875 C102.81964844 48.08851563 103.40101563 47.05984375 104 46 C105.27901157 43.71288766 106.54985633 41.42118911 107.8125 39.125 C108.39644531 38.07570313 108.98039063 37.02640625 109.58203125 35.9453125 C110.89101203 33.22638273 111.57794869 30.97080272 112 28 C112.66 28 113.32 28 114 28 C113.95875 27.21625 113.9175 26.4325 113.875 25.625 C114 23 114 23 116 21 C116.46290221 18.33757179 116.46290221 18.33757179 116.625 15.375 C116.69976563 14.37210938 116.77453125 13.36921875 116.8515625 12.3359375 C116.92503906 11.17964844 116.92503906 11.17964844 117 10 C116.01 9.67 115.02 9.34 114 9 C111.76282743 5.70311411 112 4.28645618 112 0 C125.86 0 139.72 0 154 0 C154 4.9236197 153.79457766 6.23806853 151 10 C150.34 10 149.68 10 149 10 C149 10.99 149 11.98 149 13 C148.34 13 147.68 13 147 13 C146.67 14.65 146.34 16.3 146 18 C145.34 18 144.68 18 144 18 C143.731875 18.969375 143.46375 19.93875 143.1875 20.9375 C142.795625 21.948125 142.40375 22.95875 142 24 C141.01 24.33 140.02 24.66 139 25 C139 25.99 139 26.98 139 28 C138.34 28 137.68 28 137 28 C136.67 29.65 136.34 31.3 136 33 C135.34 33 134.68 33 134 33 C133.731875 33.969375 133.46375 34.93875 133.1875 35.9375 C132.5996875 37.4534375 132.5996875 37.4534375 132 39 C131.01 39.33 130.02 39.66 129 40 C128.6278958 41.32303717 128.30257673 42.65935232 128 44 C127.01107535 45.69849205 125.9618384 47.36243183 124.875 49 C121.513287 54.13614296 118.45991071 59.39599605 115.48046875 64.76171875 C114.99191406 65.50035156 114.50335937 66.23898437 114 67 C113.34 67 112.68 67 112 67 C111.87753906 67.58007812 111.75507812 68.16015625 111.62890625 68.7578125 C110.98259272 71.06206073 110.126805 72.80278721 108.9375 74.875 C108.27234375 76.05449219 108.27234375 76.05449219 107.59375 77.2578125 C106.42721611 79.26493699 105.23618114 81.25787629 104.03125 83.2421875 C99.38213982 90.98088931 96.22598711 98.18391946 94 107 C93.34 107 92.68 107 92 107 C92.020625 108.27875 92.04125 109.5575 92.0625 110.875 C92.125 114.75 92.125 114.75 91 117 C90.79160921 118.62931934 90.6324815 120.26510311 90.5 121.90234375 C90.4175 122.87494141 90.335 123.84753906 90.25 124.84960938 C90.1675 125.86861328 90.085 126.88761719 90 127.9375 C89.83669713 129.94689079 89.67017145 131.95602299 89.5 133.96484375 C89.39171875 135.30470337 89.39171875 135.30470337 89.28125 136.67163086 C89 139 89 139 88 142 C87.85110253 143.84466442 87.7520899 145.69357275 87.68359375 147.54296875 C87.64169922 148.61611328 87.59980469 149.68925781 87.55664062 150.79492188 C87.51732422 151.91447266 87.47800781 153.03402344 87.4375 154.1875 C87.39431641 155.31865234 87.35113281 156.44980469 87.30664062 157.61523438 C87.20050901 160.41003354 87.09845615 163.20492162 87 166 C87.66 166 88.32 166 89 166 C91.11161731 179.6332574 91.11161731 179.6332574 92 186 C92.66 186 93.32 186 94 186 C94 187.98 94 189.96 94 192 C80.14 192 66.28 192 52 192 C50.99528678 186.97643389 51.14959835 185.52320403 53 181 C53.33 180.67 53.66 180.34 54 180 C60.11848039 157.82050859 59.18997537 127.35420764 54 105 C53.34 104.01 52.68 103.02 52 102 C51.3882502 99.43233454 50.84936465 96.90456398 50.375 94.3125 C50.2409375 93.61060547 50.106875 92.90871094 49.96875 92.18554688 C49.6397283 90.45818294 49.31904688 88.72923409 49 87 C48.34 87 47.68 87 47 87 C46.80664062 86.22914063 46.61328125 85.45828125 46.4140625 84.6640625 C46.15367187 83.66117188 45.89328125 82.65828125 45.625 81.625 C45.36976563 80.62726563 45.11453125 79.62953125 44.8515625 78.6015625 C44.17595681 75.87458985 44.17595681 75.87458985 42 74 C42 72.68 42 71.36 42 70 C41.34 70 40.68 70 40 70 C40 68.35 40 66.7 40 65 C39.34 65 38.68 65 38 65 C37.67 63.35 37.34 61.7 37 60 C36.34 60 35.68 60 35 60 C35 58.35 35 56.7 35 55 C34.34 55 33.68 55 33 55 C32.87625 54.360625 32.7525 53.72125 32.625 53.0625 C32.41875 52.381875 32.2125 51.70125 32 51 C31.34 50.67 30.68 50.34 30 50 C29.31305216 48.38567257 28.63057788 46.76931869 27.96875 45.14453125 C24.66339065 37.82742528 19.82943817 31.12581587 15.41796875 24.4453125 C14.13295718 22.22928703 13.44790302 20.50127659 13 18 C12.34 18 11.68 18 11 18 C8.48151017 15.5001197 6.2776935 12.71902832 4 10 C3.195625 9.113125 2.39125 8.22625 1.5625 7.3125 C-0.28122976 4.58377995 -0.13322931 3.2134909 0 0 Z " fill="#FFFFFF" transform="translate(464,645)"/>
<path d="M0 0 C4.55708812 0.67201299 8.88637387 1.72871562 13.3125 3 C14.54613281 3.350625 15.77976562 3.70125 17.05078125 4.0625 C20 5 20 5 21 6 C21.99 6.103125 22.98 6.20625 24 6.3125 C27.03935435 6.70010997 29.37256103 7.53940692 32.125 8.875 C37.01063529 11.20390387 41.98820632 12.23742114 47.27734375 13.2890625 C50 14 50 14 52 16 C53.98821313 16.39764263 55.98944339 16.73775349 58 17 C58 17.66 58 18.32 58 19 C58.66 18.9175 59.32 18.835 60 18.75 C64.25027556 19.10418963 67.29253681 20.99376763 71 23 C72.49744032 23.75509767 73.99734987 24.50532383 75.5 25.25 C76.655 25.8275 77.81 26.405 79 27 C79 27.66 79 28.32 79 29 C79.598125 29.12375 80.19625 29.2475 80.8125 29.375 C83 30 83 30 86 32 C86 32.66 86 33.32 86 34 C86.99 34 87.98 34 89 34 C90.6875 35.375 90.6875 35.375 92 37 C92 37.66 92 38.32 92 39 C92.66 39 93.32 39 94 39 C96.625 41.3125 96.625 41.3125 99 44 C99 44.99 99 45.98 99 47 C99.60070313 47.24878906 100.20140625 47.49757813 100.8203125 47.75390625 C107.01040282 51.29268548 110.37171305 60.33873441 113.6171875 66.421875 C114.78647795 68.60190805 115.99802003 70.74199709 117.25 72.875 C119.67389055 77.20337598 121.16223968 81.11306479 122 86 C122.66 86 123.32 86 124 86 C124 87.65 124 89.3 124 91 C124.66 91 125.32 91 126 91 C126.24234375 91.7734375 126.4846875 92.546875 126.734375 93.34375 C128.30164831 98.21435321 129.82263409 102.92086557 132.25 107.4375 C133.87842058 110.75249905 134.44970309 112.40237531 134 116 C134.66 116 135.32 116 136 116 C138.44064587 121.64399358 138.19289099 126.97751478 138 133 C136.51988629 132.69201674 135.04092675 132.378482 133.5625 132.0625 C132.73878906 131.88847656 131.91507813 131.71445312 131.06640625 131.53515625 C129 131 129 131 128 130 C126.865625 129.855625 125.73125 129.71125 124.5625 129.5625 C121 129 121 129 119 127 C116.82755505 126.47492034 114.63583977 126.02814753 112.4375 125.625 C107.3284452 124.59176636 102.98917997 123.30998798 98.328125 121.03125 C95.50501453 119.78074469 92.64951703 118.93285571 89.6875 118.0625 C83.24357449 116.15123018 77.16221855 113.66425332 71 111 C69.33554996 110.32781825 67.66957097 109.65935955 66 109 C66 108.34 66 107.68 66 107 C63.34771188 105.92474806 60.71631546 104.90543849 58 104 C58 103.34 58 102.68 58 102 C57.34 101.814375 56.68 101.62875 56 101.4375 C51.73094732 99.39191226 48.25836294 96.42815357 45 93 C45 92.34 45 91.68 45 91 C44.34 91 43.68 91 43 91 C38.01358719 85.56378191 33.98160079 79.18957941 30 73 C29.38125 72.071875 28.7625 71.14375 28.125 70.1875 C27 68 27 68 27 64 C26.34 64 25.68 64 25 64 C24.505 61.525 24.505 61.525 24 59 C23.34 59 22.68 59 22 59 C22 57.35 22 55.7 22 54 C21.34 54 20.68 54 20 54 C19.731875 53.29875 19.46375 52.5975 19.1875 51.875 C18.02426334 48.93874995 18.02426334 48.93874995 16.4375 46 C15.11845427 43.24720892 14.59161045 40.95805226 14 38 C13.34 37.67 12.68 37.34 12 37 C11.21875 34.56640625 11.21875 34.56640625 10.5 31.5625 C9.57875896 27.33222175 9.57875896 27.33222175 7 24 C6.10353778 21.35945904 5.27647681 18.73781554 4.5 16.0625 C2.83579175 10.28571031 2.83579175 10.28571031 0 5 C-0.125 2.3125 -0.125 2.3125 0 0 Z " fill="#FEC905" transform="translate(1470,492)"/>
<path d="M0 0 C14.19 0 28.38 0 43 0 C43 7 43 7 41 10 C40.58217613 12.21242849 40.58217613 12.21242849 40.4375 14.5625 C40.09589041 18.80821918 40.09589041 18.80821918 39 21 C38.84047833 23.52806757 38.74033323 26.03155355 38.68359375 28.5625 C38.65228615 29.75161484 38.65228615 29.75161484 38.62034607 30.9647522 C38.55290674 33.64305695 38.49434344 36.32145023 38.4375 39 C38.41665344 39.9359198 38.39580688 40.8718396 38.37432861 41.83612061 C37.5906718 77.88357853 37.73910174 113.95252828 38.4375 150 C38.4570575 151.06454407 38.47661499 152.12908813 38.49676514 153.22589111 C38.55315513 156.192422 38.61676749 159.15868792 38.68359375 162.125 C38.70031631 163.00223724 38.71703888 163.87947449 38.73426819 164.78329468 C38.72859462 169.02736285 38.72859462 169.02736285 40 173 C39.67 173.99 39.34 174.98 39 176 C43.31298184 175.88909862 47.62516994 175.75871566 51.9375 175.625 C53.75604492 175.57859375 53.75604492 175.57859375 55.61132812 175.53125 C62.35597792 175.3119118 68.46568528 174.67683025 75 173 C76.7015625 172.814375 76.7015625 172.814375 78.4375 172.625 C82.55374485 171.90285178 86.03792141 170.48597869 89.86328125 168.83984375 C92 168 92 168 94 168 C94 167.34 94 166.68 94 166 C94.99 166 95.98 166 97 166 C97 165.34 97 164.68 97 164 C101.30232558 159.23255814 101.30232558 159.23255814 105 158 C105 157.34 105 156.68 105 156 C106.65 156 108.3 156 110 156 C109.43920597 161.83225795 108.23732041 167.29037232 106.7578125 172.95703125 C105.85204871 176.59409305 105.1639913 180.24885044 104.52734375 183.94140625 C104 186 104 186 102 189 C96.00344451 191.83132359 91.02900413 192.42387465 84.46289062 192.34057617 C83.54488678 192.34101425 82.62688293 192.34145233 81.68106079 192.34190369 C78.67256769 192.33982793 75.66464472 192.31655437 72.65625 192.29296875 C70.56018376 192.28736848 68.46411357 192.28310042 66.36804199 192.28010559 C60.87053448 192.26869079 55.37326746 192.23925259 49.87585449 192.20599365 C44.25841525 192.17522012 38.64093687 192.16158471 33.0234375 192.14648438 C22.01551976 192.11437965 11.00777993 192.0632241 0 192 C-0.25 186.375 -0.25 186.375 2 183 C4.46809016 176.35316607 4.68642651 169.51764229 5.109375 162.48828125 C5.17218281 161.46765815 5.17218281 161.46765815 5.23625946 160.4264164 C6.37529354 141.41766025 6.30332537 122.38307598 6.26074219 103.34741211 C6.24937166 98.22529469 6.25610865 93.10338579 6.26763153 87.98127556 C6.30467014 68.50150991 6.17402331 49.06493621 5.046875 29.61328125 C5.00377449 28.859811 4.96067398 28.10634075 4.9162674 27.33003807 C5.15802238 20.11171878 5.15802238 20.11171878 3 14 C2.95919217 12.00041636 2.95745644 9.99954746 3 8 C2.01 7.67 1.02 7.34 0 7 C0 4.69 0 2.38 0 0 Z " fill="#FFFFFF" transform="translate(858,645)"/>
</svg>
