<?xml version="1.0" encoding="UTF-8"?>
<svg version="1.1" xmlns="http://www.w3.org/2000/svg" width="824" height="303">
<path d="M0 0 C1.02867187 -0.01417969 2.05734375 -0.02835937 3.1171875 -0.04296875 C6.17963488 0.19168631 8.35748861 0.89565428 11.125 2.1875 C10.70281184 3.8373275 10.26175575 5.48233665 9.8125 7.125 C9.56886719 8.04152344 9.32523438 8.95804688 9.07421875 9.90234375 C8.76097656 10.65644531 8.44773437 11.41054687 8.125 12.1875 C4.65174819 13.3452506 1.76432552 13.25616652 -1.875 13.1875 C-2.865 15.4975 -3.855 17.8075 -4.875 20.1875 C-4.194375 20.1153125 -3.51375 20.043125 -2.8125 19.96875 C5.87612618 19.13686026 14.4034788 19.11231447 23.125 19.1875 C27.085 28.4275 31.045 37.6675 35.125 47.1875 C37.00833593 44.3624961 38.19244166 41.81058297 39.47265625 38.6796875 C39.91287109 37.61105469 40.35308594 36.54242188 40.80664062 35.44140625 C41.26232422 34.32636719 41.71800781 33.21132812 42.1875 32.0625 C43.0928118 29.85064423 44.00024771 27.63965625 44.91015625 25.4296875 C45.31113525 24.4485498 45.71211426 23.46741211 46.12524414 22.45654297 C47.125 20.1875 47.125 20.1875 48.125 19.1875 C50.65549402 19.11436433 53.15804837 19.09502473 55.6875 19.125 C56.75387695 19.13176758 56.75387695 19.13176758 57.84179688 19.13867188 C59.60290013 19.15049136 61.36396036 19.16842737 63.125 19.1875 C60.31519288 25.98006727 57.48785731 32.76516861 54.6484375 39.54541016 C53.61965309 42.00493032 52.59321455 44.46528792 51.5703125 46.92724609 C50.01658926 50.66466377 48.44615261 54.39487554 46.875 58.125 C46.39256836 59.28999023 45.91013672 60.45498047 45.41308594 61.65527344 C37.77955289 79.6720811 37.77955289 79.6720811 29.125 84.1875 C22.79545574 86.7193177 16.11759442 85.14907864 9.91015625 83.13671875 C8.125 82.1875 8.125 82.1875 7.125 79.1875 C8.12109375 76.92578125 8.12109375 76.92578125 9.5625 74.5 C10.03558594 73.69175781 10.50867188 72.88351563 10.99609375 72.05078125 C11.36863281 71.43589844 11.74117187 70.82101563 12.125 70.1875 C13.13820313 70.42146484 13.13820313 70.42146484 14.171875 70.66015625 C15.06390625 70.85480469 15.9559375 71.04945313 16.875 71.25 C17.75671875 71.44722656 18.6384375 71.64445312 19.546875 71.84765625 C22.11179028 72.18575872 23.69591639 71.99908635 26.125 71.1875 C27.36845736 66.93040227 26.87121935 64.74691637 25.02734375 60.7578125 C24.55796387 59.72140625 24.08858398 58.685 23.60498047 57.6171875 C23.09596191 56.52664062 22.58694336 55.43609375 22.0625 54.3125 C21.04098241 52.06600633 20.02144415 49.81861155 19.00390625 47.5703125 C18.50777832 46.48008789 18.01165039 45.38986328 17.50048828 44.26660156 C15.20986999 39.13893421 13.17101223 33.92515017 11.1484375 28.6875 C10.35406234 26.28772825 10.35406234 26.28772825 9.125 25.1875 C8.795 27.1675 8.465 29.1475 8.125 31.1875 C4.165 31.1875 0.205 31.1875 -3.875 31.1875 C-3.875 43.0675 -3.875 54.9475 -3.875 67.1875 C-8.825 67.1875 -13.775 67.1875 -18.875 67.1875 C-18.875 55.3075 -18.875 43.4275 -18.875 31.1875 C-21.185 31.1875 -23.495 31.1875 -25.875 31.1875 C-25.875 27.5575 -25.875 23.9275 -25.875 20.1875 C-23.565 20.1875 -21.255 20.1875 -18.875 20.1875 C-18.84921875 19.53523438 -18.8234375 18.88296875 -18.796875 18.2109375 C-18.42461646 12.47477179 -17.80096944 8.65874297 -13.875 4.1875 C-9.28776152 0.94286791 -5.56453447 0.03469161 0 0 Z " fill="#171717" transform="translate(540.875,102.8125)"/>
<path d="M0 0 C0.94294922 -0.020625 1.88589844 -0.04125 2.85742188 -0.0625 C8.73682159 -0.0948266 13.57975904 0.7024747 19.14916992 2.57275391 C21.6777012 3.36432887 23.98242499 3.54917609 26.625 3.5625 C29.33729357 3.76293679 30.83347333 3.88853263 33.015625 5.53515625 C35.08780247 7.95865117 36.30619104 10.23107312 37.3125 13.25 C38.77621668 14.45395851 40.241736 15.6558888 41.72167969 16.83984375 C44.2928975 19.11905708 46.11834681 21.86778927 47.9375 24.75 C48.32357422 25.35585937 48.70964844 25.96171875 49.10742188 26.5859375 C58.02632495 41.18325934 59.24802264 58.44114312 55.3515625 74.828125 C52.23384513 85.095495 46.42128378 95.07942261 38.3125 102.25 C37.6525 102.25 36.9925 102.25 36.3125 102.25 C36.3125 102.91 36.3125 103.57 36.3125 104.25 C22.84658533 114.4090197 7.7929629 117.59010684 -8.6875 116.25 C-13.24962811 115.36824415 -17.39540472 114.01459277 -21.6875 112.25 C-22.97333984 111.74146484 -22.97333984 111.74146484 -24.28515625 111.22265625 C-31.76761826 107.89052974 -37.58012006 102.58978574 -43.6875 97.25 C-44.20787842 96.8389502 -44.72825684 96.42790039 -45.2644043 96.00439453 C-48.62384912 93.34620063 -50.88980925 90.84485108 -53 87.125 C-53.49113281 86.27679688 -53.98226562 85.42859375 -54.48828125 84.5546875 C-56.29014131 81.0918294 -56.81939312 78.38600992 -56.86450195 74.53833008 C-56.87733719 73.58336136 -56.89017242 72.62839264 -56.90339661 71.64448547 C-56.91078354 70.61325058 -56.91817047 69.58201569 -56.92578125 68.51953125 C-56.93788887 66.9229493 -56.93788887 66.9229493 -56.95024109 65.29411316 C-56.96407822 63.03878405 -56.97480203 60.78343402 -56.98266602 58.52807617 C-56.99984655 55.09317839 -57.04373341 51.65925119 -57.08789062 48.22460938 C-57.09802068 46.03125706 -57.1065358 43.83789658 -57.11328125 41.64453125 C-57.13078934 40.62341751 -57.14829742 39.60230377 -57.16633606 38.55024719 C-57.14363681 31.01843144 -55.77890078 25.42727303 -50.4375 19.9375 C-47.6875 18.25 -47.6875 18.25 -44.125 17.0625 C-40.10457617 15.69721536 -37.25762856 13.50072259 -33.9375 10.875 C-23.33510882 2.6242165 -13.1352596 0.07038317 0 0 Z M-38.6875 23.25 C-46.59179274 32.74423669 -50.93059561 42.85212368 -50.6875 55.25 C-50.26339844 54.86328125 -49.83929688 54.4765625 -49.40234375 54.078125 C-46.38279098 51.39702759 -43.53289872 49.05036117 -39.9375 47.1875 C-36.55871579 45.1732248 -35.34247966 43.75466281 -33.6875 40.25 C-28.8125 41.125 -28.8125 41.125 -27.6875 42.25 C-27.5625 44.75 -27.5625 44.75 -27.6875 47.25 C-28.6875 48.25 -28.6875 48.25 -31.5625 48.375 C-34.6875 48.25 -34.6875 48.25 -37.6875 47.25 C-39.98430531 48.49767069 -39.98430531 48.49767069 -42.25 50.375 C-43.03503906 50.97570312 -43.82007812 51.57640625 -44.62890625 52.1953125 C-46.93311076 54.4951447 -47.95089501 56.07961231 -48.6875 59.25 C-47.95325534 61.23580361 -47.95325534 61.23580361 -46.375 62.9375 C-45.81554687 63.61296875 -45.25609375 64.2884375 -44.6796875 64.984375 C-44.02226563 65.73203125 -43.36484375 66.4796875 -42.6875 67.25 C-41.92695312 68.14203125 -41.16640625 69.0340625 -40.3828125 69.953125 C-36.2496135 75.10845437 -36.2496135 75.10845437 -30.6875 78.25 C-30.6875 75.28 -30.6875 72.31 -30.6875 69.25 C-31.3475 69.25 -32.0075 69.25 -32.6875 69.25 C-32.3575 66.94 -32.0275 64.63 -31.6875 62.25 C-29.2125 61.755 -29.2125 61.755 -26.6875 61.25 C-24.5355563 64.47791555 -24.48663557 65.53400809 -24.6875 69.25 C-26.6675 69.745 -26.6675 69.745 -28.6875 70.25 C-28.72875 71.466875 -28.77 72.68375 -28.8125 73.9375 C-28.83570312 74.62199219 -28.85890625 75.30648437 -28.8828125 76.01171875 C-28.6345771 78.85649648 -28.05916891 80.73126293 -26.6875 83.25 C-18.04091068 89.83071118 -7.53170198 94.44672578 3.3125 95.25 C4.3025 93.765 4.3025 93.765 5.3125 92.25 C10.1875 93.125 10.1875 93.125 11.3125 94.25 C11.4375 96.75 11.4375 96.75 11.3125 99.25 C10.3125 100.25 10.3125 100.25 7.375 100.5 C6.364375 100.4175 5.35375 100.335 4.3125 100.25 C3.6525 99.26 2.9925 98.27 2.3125 97.25 C-0.5143464 96.28858057 -0.5143464 96.28858057 -3.875 95.5625 C-12.20818724 93.36046607 -19.25552164 89.53848051 -26.6875 85.25 C-25.59424837 90.14037158 -25.59424837 90.14037158 -22.8125 94.125 C-20.75245234 95.21561346 -18.97596513 95.84134551 -16.6875 96.25 C-16.6875 98.89 -16.6875 101.53 -16.6875 104.25 C-18.6675 104.25 -20.6475 104.25 -22.6875 104.25 C-13.66102639 111.47522664 -1.73776105 111.34691954 9.3125 110.25 C21.51115088 107.82397617 33.70145761 100.7084408 41.22265625 90.7109375 C50.62637253 76.53548409 53.3611032 61.94786378 50.8515625 45.16796875 C50.18243176 42.73154566 49.36495726 40.54627038 48.3125 38.25 C47.9103125 37.363125 47.508125 36.47625 47.09375 35.5625 C41.92683369 25.22866738 34.51790924 16.80354599 24.3125 11.25 C23.3225 10.92 22.3325 10.59 21.3125 10.25 C19.14523051 13.6921339 19.51821432 15.37785733 20.3125 19.25 C19.6525 20.24 18.9925 21.23 18.3125 22.25 C15.1875 22.4375 15.1875 22.4375 12.3125 22.25 C12.3125 19.94 12.3125 17.63 12.3125 15.25 C13.09625 15.0025 13.88 14.755 14.6875 14.5 C17.63567108 13.09610901 18.2149777 12.24324263 19.3125 9.25 C18.28125 8.775625 17.25 8.30125 16.1875 7.8125 C15.60742188 7.54566406 15.02734375 7.27882813 14.4296875 7.00390625 C-5.03948698 0.07115593 -25.2810114 9.08853849 -38.6875 23.25 Z M-50.6875 23.25 C-54.66696982 27.77836221 -54.3949535 33.48986035 -54.6875 39.25 C-51.65504093 36.21754093 -50.17781488 32.31044178 -48.34179688 28.48046875 C-46.71541675 25.14303795 -45.04791828 22.122925 -42.6875 19.25 C-46.07196425 19.25 -48.05662107 21.26341795 -50.6875 23.25 Z M-50.6875 60.25 C-51.90976903 72.22823651 -46.51916308 83.47649553 -39.1640625 92.578125 C-32.07122166 100.27036839 -32.07122166 100.27036839 -22.6875 104.25 C-23.0759888 98.81115673 -24.03627176 94.95852432 -26.6640625 90.1875 C-27.6875 88.25 -27.6875 88.25 -28.9375 84.6875 C-30.96256426 80.70969519 -33.26957103 78.73800478 -36.6875 75.9609375 C-38.56302008 74.35648868 -40.03818506 72.74511358 -41.5625 70.8125 C-42.26375 69.966875 -42.965 69.12125 -43.6875 68.25 C-44.3475 68.25 -45.0075 68.25 -45.6875 68.25 C-45.955625 67.486875 -46.22375 66.72375 -46.5 65.9375 C-47.63174112 63.37619116 -48.59973401 62.05307062 -50.6875 60.25 Z M-54.6875 75.25 C-53.6875 77.25 -53.6875 77.25 -53.6875 77.25 Z M-53.6875 78.25 C-52.6875 81.25 -52.6875 81.25 -52.6875 81.25 Z M-52.6875 81.25 C-51.6875 83.25 -51.6875 83.25 -51.6875 83.25 Z M-51.6875 83.25 C-50.6875 85.25 -50.6875 85.25 -50.6875 85.25 Z M-50.6875 85.25 C-49.6875 87.25 -49.6875 87.25 -49.6875 87.25 Z " fill="#C077EE" transform="translate(152.6875,79.75)"/>
<path d="M0 0 C0.721875 -0.61875 1.44375 -1.2375 2.1875 -1.875 C8.3798977 -6.55370048 14.45312802 -6.79286204 22 -6 C27.33670578 -4.40502331 31.03797746 -1.78480564 34 3 C35.93155145 7.72108921 36.26825337 11.98710144 36.1953125 17.0234375 C36.1924826 17.76961334 36.18965271 18.51578918 36.18673706 19.28457642 C36.17561687 21.64821988 36.15052821 24.01147268 36.125 26.375 C36.11495962 27.98567158 36.10583562 29.59634915 36.09765625 31.20703125 C36.0774129 35.13828937 36.03825037 39.06871171 36 43 C31.05 43 26.1 43 21 43 C20.94392578 39.71289062 20.94392578 39.71289062 20.88671875 36.359375 C20.84047395 34.23118247 20.78925134 32.10316377 20.73754883 29.97509766 C20.70434645 28.49896862 20.67629983 27.02271406 20.65356445 25.54638672 C20.61993049 23.42100668 20.56761481 21.29677196 20.51171875 19.171875 C20.48553467 17.8940918 20.45935059 16.61630859 20.43237305 15.29980469 C19.97908136 11.84035213 19.55179403 10.35080527 17 8 C12.78010372 7.53112264 10.29271531 7.30392252 6.5625 9.3125 C3.49046393 12.63029896 3.81527621 16.32882107 3.68359375 20.63671875 C3.62075195 22.58481445 3.62075195 22.58481445 3.55664062 24.57226562 C3.51683013 25.94400761 3.47711784 27.31575244 3.4375 28.6875 C3.39429165 30.07097645 3.35067661 31.45444027 3.30664062 32.83789062 C3.20042035 36.22513714 3.09969312 39.61255509 3 43 C-1.95 43 -6.9 43 -12 43 C-12.02578125 40.80859375 -12.0515625 38.6171875 -12.078125 36.359375 C-12.11656579 34.23115328 -12.16171895 32.1031722 -12.20751953 29.97509766 C-12.23570088 28.49897804 -12.25692966 27.02270831 -12.27099609 25.54638672 C-12.29246698 23.42076943 -12.33913043 21.29695121 -12.390625 19.171875 C-12.41157227 17.8940918 -12.43251953 16.61630859 -12.45410156 15.29980469 C-13.08685575 11.47498108 -13.89899885 10.26071192 -17 8 C-20.45728358 7.24988633 -20.45728358 7.24988633 -24 8 C-27.34202508 10.61336553 -28.82413573 12.11416758 -29.65942383 16.3215332 C-29.67513428 17.55218506 -29.69084473 18.78283691 -29.70703125 20.05078125 C-29.72215256 20.70958786 -29.73727386 21.36839447 -29.75285339 22.04716492 C-29.79558566 24.135962 -29.80455265 26.2233102 -29.8125 28.3125 C-29.83565614 29.73506417 -29.86102383 31.15759417 -29.88867188 32.58007812 C-29.9555202 36.05416509 -29.97661586 39.5242667 -30 43 C-34.95 43 -39.9 43 -45 43 C-45 27.16 -45 11.32 -45 -5 C-40.38 -5 -35.76 -5 -31 -5 C-30.67 -4.01 -30.34 -3.02 -30 -2 C-29.4225 -2.474375 -28.845 -2.94875 -28.25 -3.4375 C-19.0741308 -9.80963139 -8.25908693 -5.50605796 0 0 Z " fill="#171717" transform="translate(359,127)"/>
<path d="M0 0 C5.80953059 3.90760093 9.53120157 9.48388413 10.96875 16.32421875 C11.89734543 25.02980087 10.61778285 32.31282615 5.78125 39.63671875 C-1.12657709 46.2375313 -6.96344348 46.76758762 -16.4453125 46.7578125 C-20.03125 46.32421875 -20.03125 46.32421875 -26.03125 43.32421875 C-26.36125 49.92421875 -26.69125 56.52421875 -27.03125 63.32421875 C-31.65125 63.32421875 -36.27125 63.32421875 -41.03125 63.32421875 C-41.03125 41.87421875 -41.03125 20.42421875 -41.03125 -1.67578125 C-36.41125 -1.67578125 -31.79125 -1.67578125 -27.03125 -1.67578125 C-26.70125 -1.01578125 -26.37125 -0.35578125 -26.03125 0.32421875 C-25.12375 -0.17078125 -24.21625 -0.66578125 -23.28125 -1.17578125 C-15.795289 -4.3429186 -7.15636169 -3.69486066 0 0 Z M-24.03125 12.32421875 C-26.99261463 16.66755354 -27.58815438 20.1264445 -27.03125 25.32421875 C-25.75999932 28.80343115 -24.65558795 30.78907194 -21.84375 33.19921875 C-18.16373308 34.67122552 -14.89535529 35.14685054 -11.03125 34.32421875 C-7.51050049 32.34379715 -5.33221109 30.22710202 -4.03125 26.32421875 C-3.48337358 21.60888891 -3.60396411 18.19461593 -5.71875 13.88671875 C-8.77320633 10.50205092 -11.01675975 9.58248673 -15.46875 9.01171875 C-18.92837204 9.43362388 -21.10904044 10.4184299 -24.03125 12.32421875 Z " fill="#101010" transform="translate(448.03125,123.67578125)"/>
<path d="M0 0 C-0.54339792 4.56454251 -1.79463821 7.9728176 -4 12 C-4.67804688 11.77183594 -5.35609375 11.54367188 -6.0546875 11.30859375 C-12.77099902 9.23416512 -18.08165079 8.754397 -25 10 C-25.33 10.99 -25.66 11.98 -26 13 C-21.16492546 15.13949692 -16.12783839 16.19141837 -10.97070312 17.23632812 C-5.78094792 18.42185514 -2.7864686 20.22509314 1 24 C2.24350856 27.73052567 2.52198871 31.12552043 2 35 C-0.42259567 39.84519135 -3.33696883 42.32123742 -8 45 C-17.77384515 48.25794838 -31.04240967 46.96286199 -40.296875 42.875 C-40.85890625 42.58625 -41.4209375 42.2975 -42 42 C-41.52269162 40.5410574 -41.04308958 39.08286504 -40.5625 37.625 C-40.16224609 36.40683594 -40.16224609 36.40683594 -39.75390625 35.1640625 C-39 33 -39 33 -38 31 C-35.31936571 31.47305311 -32.95985635 32.01664493 -30.4375 33.0625 C-25.28750755 34.46704339 -17.9235705 35.46178525 -13 33 C-12.67 32.01 -12.34 31.02 -12 30 C-13.27875 29.76925781 -14.5575 29.53851563 -15.875 29.30078125 C-17.58350073 28.97222342 -19.29182501 28.64274716 -21 28.3125 C-21.83917969 28.16361328 -22.67835938 28.01472656 -23.54296875 27.86132812 C-29.45707879 26.69225986 -34.26689141 24.81236639 -39 21 C-41.4273579 17.15668333 -41.39227341 13.4719169 -41 9 C-39.31868146 3.74587955 -36.58884946 1.69162714 -32.03515625 -1.01953125 C-22.44166662 -5.64134679 -9.62008861 -3.36003095 0 0 Z " fill="#191919" transform="translate(278,124)"/>
<path d="M0 0 C4.95 0.495 4.95 0.495 10 1 C10.495 2.98 10.495 2.98 11 5 C11.70125 5.020625 12.4025 5.04125 13.125 5.0625 C17.49189193 6.4864865 19.34505062 9.36555473 22 13 C22.88945312 14.21429688 22.88945312 14.21429688 23.796875 15.453125 C32.78192188 28.58511659 35.5816678 43.86941218 33.5390625 59.53515625 C31.08041105 72.59493427 25.10338272 85.06560371 15 94 C14.34 94 13.68 94 13 94 C13 94.66 13 95.32 13 96 C-0.46591467 106.1590197 -15.5195371 109.34010684 -32 108 C-36.5618291 107.11830194 -40.70921117 105.76747941 -45 104 C-45.86882812 103.649375 -46.73765625 103.29875 -47.6328125 102.9375 C-54.63867726 99.77497798 -60.24073274 95.02567238 -66 90 C-65.67 89.01 -65.34 88.02 -65 87 C-65.5775 86.773125 -66.155 86.54625 -66.75 86.3125 C-72.87127979 82.74175346 -75.42223801 75.64226123 -77.609375 69.20703125 C-78.19520262 65.89710517 -78.10364416 62.5985018 -78.0625 59.25 C-78.05798828 58.55261719 -78.05347656 57.85523438 -78.04882812 57.13671875 C-78.0371002 55.42444197 -78.01916653 53.71220967 -78 52 C-75.53677554 54.46322446 -75.5250593 55.78867865 -75 59.1875 C-74.27029777 63.58887852 -73.32431333 67.74327858 -72 72 C-71.01 72 -70.02 72 -69 72 C-68.70867187 72.56847656 -68.41734375 73.13695312 -68.1171875 73.72265625 C-61.86036356 85.5083089 -52.67831509 94.2058701 -40 99 C-26.16947004 103.04974292 -12.1655009 102.22210436 0.70703125 95.609375 C3.22605229 94.17425057 5.61616853 92.64874755 8 91 C8.63679688 90.56042969 9.27359375 90.12085938 9.9296875 89.66796875 C19.03922686 82.64350173 25.32022482 70.29886512 27 59 C27.6024754 49.25171175 28.14357951 39.04053712 24 30 C23.39671875 28.6696875 23.39671875 28.6696875 22.78125 27.3125 C18.16617608 18.08235216 11.88384677 9.84622436 2.53125 5.1328125 C1 4 1 4 0 0 Z " fill="#BB6BEF" transform="translate(176,88)"/>
<path d="M0 0 C4.95 0 9.9 0 15 0 C15 21.78 15 43.56 15 66 C10.05 66 5.1 66 0 66 C0 44.22 0 22.44 0 0 Z " fill="#131313" transform="translate(467,104)"/>
<path d="M0 0 C0 4.29 0 8.58 0 13 C-1.546875 13.226875 -3.09375 13.45375 -4.6875 13.6875 C-9.62815135 14.41212886 -11.82069094 16.16236236 -15 20 C-15.77227812 23.26868785 -15.77227812 23.26868785 -15.70703125 26.83203125 C-15.73603516 28.12431641 -15.76503906 29.41660156 -15.79492188 30.74804688 C-15.8013102 32.10286219 -15.80716288 33.45768013 -15.8125 34.8125 C-15.83565748 36.1868884 -15.86102545 37.56124144 -15.88867188 38.93554688 C-15.94752287 42.29005362 -15.97662802 45.64505846 -16 49 C-20.95 49 -25.9 49 -31 49 C-31 33.16 -31 17.32 -31 1 C-26.38 1 -21.76 1 -17 1 C-16.67 1.99 -16.34 2.98 -16 4 C-15.2575 3.525625 -14.515 3.05125 -13.75 2.5625 C-9.05269371 -0.10642403 -5.39596325 -0.10376852 0 0 Z " fill="#191919" transform="translate(639,121)"/>
<path d="M0 0 C4.95 0 9.9 0 15 0 C15.02464296 6.67520882 15.04283267 13.3503914 15.05493164 20.02563477 C15.05997325 22.29842591 15.06680637 24.5712138 15.07543945 26.84399414 C15.08751261 30.10303551 15.09322987 33.36203417 15.09765625 36.62109375 C15.10281754 37.64400009 15.10797882 38.66690643 15.11329651 39.72080994 C15.11337204 40.66170975 15.11344757 41.60260956 15.11352539 42.57202148 C15.115746 43.40475082 15.11796661 44.23748016 15.12025452 45.09544373 C15 47 15 47 14 48 C9.38 48 4.76 48 0 48 C0 32.16 0 16.32 0 0 Z " fill="#1A1A1A" transform="translate(494,122)"/>
<path d="M0 0 C4.95 0 9.9 0 15 0 C15 15.84 15 31.68 15 48 C10.38 48 5.76 48 1 48 C0 47 0 47 -0.12025452 45.09544373 C-0.11803391 44.26271439 -0.11581329 43.42998505 -0.11352539 42.57202148 C-0.11344986 41.63112167 -0.11337433 40.69022186 -0.11329651 39.72080994 C-0.10813522 38.69790359 -0.10297394 37.67499725 -0.09765625 36.62109375 C-0.0962413 35.57929459 -0.09482635 34.53749542 -0.09336853 33.46412659 C-0.0877508 30.12188906 -0.0751953 26.77971743 -0.0625 23.4375 C-0.05748728 21.17773534 -0.05292398 18.91796963 -0.04882812 16.65820312 C-0.03777561 11.10544318 -0.0204991 5.55273278 0 0 Z " fill="#1A1A1A" transform="translate(287,122)"/>
<path d="M0 0 C3.29714793 0.32971479 4.6226839 0.6226839 7 3 C7.25 5.5 7.25 5.5 7 8 C5 10 5 10 2.0625 10.1875 C-1 10 -1 10 -4 9 C-7.91019192 11.05962584 -11.14751464 13.92018521 -13.875 17.375 C-14.09352738 21.96407508 -10.90567545 24.6884711 -8 28 C-7.30132812 28.81855469 -6.60265625 29.63710937 -5.8828125 30.48046875 C-2.40194173 34.80350942 -2.40194173 34.80350942 2 38 C2.33 35.36 2.66 32.72 3 30 C2.34 30 1.68 30 1 30 C0.3125 27.75 0.3125 27.75 0 25 C1.4375 22.6875 1.4375 22.6875 3 21 C5.375 21.3125 5.375 21.3125 8 22 C10 25 10 25 9.625 27.6875 C9.315625 28.8321875 9.315625 28.8321875 9 30 C7.68 30.33 6.36 30.66 5 31 C5.02812059 35.28135965 5.4538427 38.989027 7 43 C10.5958459 46.24656787 14.575575 48.09236748 19 50 C19.90234375 50.40863281 20.8046875 50.81726563 21.734375 51.23828125 C26.7173917 53.36612223 31.71656103 54.82590245 37 56 C37.66 54.68 38.32 53.36 39 52 C43.75 52.75 43.75 52.75 46 55 C46.25 57.5 46.25 57.5 46 60 C44 62 44 62 41 62.3125 C40.01 62.209375 39.02 62.10625 38 62 C37.34 61.01 36.68 60.02 36 59 C33.13870994 58.03977352 33.13870994 58.03977352 29.75 57.3125 C21.64896716 55.1740286 15.06243091 51.4220692 8 47 C9.58441944 51.77195148 9.58441944 51.77195148 12.82421875 55.33984375 C13.43910156 55.53707031 14.05398437 55.73429687 14.6875 55.9375 C16.3271875 56.4634375 16.3271875 56.4634375 18 57 C18.125 62.75 18.125 62.75 17 65 C14.125 65.1875 14.125 65.1875 11 65 C9 62 9 62 9.125 59.8125 C8.96692681 56.25585333 7.67060264 54.06716141 5.9921875 50.9765625 C5 49 5 49 4.25 45.9375 C2.33143787 41.428879 -1.2714482 39.05128139 -5 36 C-6.77376837 34.39133179 -8.38095806 32.77082712 -10 31 C-10 30.34 -10 29.68 -10 29 C-10.66 29 -11.32 29 -12 29 C-12.9765625 27.20963542 -13.953125 25.41927083 -14.9296875 23.62890625 C-15.91410024 21.83381685 -15.91410024 21.83381685 -18 21 C-18.328125 18.796875 -18.328125 18.796875 -18 16 C-15.734375 13.578125 -15.734375 13.578125 -12.75 11.25 C-11.77546875 10.47140625 -10.8009375 9.6928125 -9.796875 8.890625 C-7.36819346 7.24889055 -5.85285578 6.40755083 -3 6 C-2.87625 5.38125 -2.7525 4.7625 -2.625 4.125 C-2 2 -2 2 0 0 Z " fill="#808080" transform="translate(119,119)"/>
<path d="M0 0 C1.98 0 3.96 0 6 0 C6.23976562 0.65097656 6.47953125 1.30195312 6.7265625 1.97265625 C7.35691406 2.97619141 7.35691406 2.97619141 8 4 C10.01907596 4.51991851 10.01907596 4.51991851 12.375 4.4375 C22.9610215 5.15442076 30.53282104 9.73769883 37.84375 17.20703125 C40.04521904 19.42624131 40.04521904 19.42624131 44 19 C45.14794674 16.12160226 45.14794674 16.12160226 44.9375 13.4375 C45 11 45 11 47 9 C50 8.6875 50 8.6875 53 9 C55 12 55 12 55.0625 14.5 C54 17 54 17 50.5625 18.6875 C49.386875 19.120625 48.21125 19.55375 47 20 C46.34 20.66 45.68 21.32 45 22 C45.3843061 25.56855666 47.24422752 28.45333708 48.9375 31.5625 C51.55453182 36.65290795 52.8886062 41.15640806 53.578125 46.8203125 C53.82793132 49.2011696 53.82793132 49.2011696 56 51 C55.625 54.625 55.625 54.625 55 58 C52.75 58.75 52.75 58.75 50 59 C47.625 57.375 47.625 57.375 46 55 C46.25 52.25 46.25 52.25 47 50 C48.98 49.505 48.98 49.505 51 49 C49.31444194 41.02443261 46.98608496 34.12138499 43 27 C39.17553892 27 37.96252413 27.26420043 34.69921875 28.86328125 C33.88646484 29.25580078 33.07371094 29.64832031 32.23632812 30.05273438 C31.39521484 30.46845703 30.55410156 30.88417969 29.6875 31.3125 C28.02531756 32.12228119 26.3625658 32.93089495 24.69921875 33.73828125 C23.50570801 34.32089722 23.50570801 34.32089722 22.28808594 34.9152832 C20.2105802 35.90016989 18.12005482 36.80853466 15.99609375 37.6875 C13.02050675 38.76398069 13.02050675 38.76398069 11.375 40.6875 C10 42 10 42 7.4375 42.3125 C5 42 5 42 3 40 C3.375 36.375 3.375 36.375 4 33 C6.25 32.3125 6.25 32.3125 9 32 C9.52464844 32.56203125 10.04929688 33.1240625 10.58984375 33.703125 C12.8531786 35.25862202 12.8531786 35.25862202 14.98779297 34.56323242 C17.48092557 33.61508415 19.89116978 32.55632155 22.3125 31.4375 C23.14201172 31.07591797 23.97152344 30.71433594 24.82617188 30.34179688 C29.73397583 28.16872819 34.38884018 25.74429349 39 23 C32.74539643 14.15728461 23.94991304 9.69952037 13.53125 7.41015625 C10.933815 6.9200246 10.933815 6.9200246 8 7 C7.54625 7.515625 7.0925 8.03125 6.625 8.5625 C5 10 5 10 2.4375 10 C0 9 0 9 -1.4375 6.6875 C-2 4 -2 4 -1.125 1.6875 C-0.75375 1.130625 -0.3825 0.57375 0 0 Z " fill="#7B7B7B" transform="translate(138,96)"/>
<path d="M0 0 C-0.556875 0.268125 -1.11375 0.53625 -1.6875 0.8125 C-2.8321875 1.4003125 -2.8321875 1.4003125 -4 2 C-4.845625 2.433125 -5.69125 2.86625 -6.5625 3.3125 C-9.50375475 5.34875329 -10.57088189 6.71302835 -12 10 C-12.52137489 13.0118258 -12.77193314 15.94390412 -13 19 C-11.02 15.04 -9.04 11.08 -7 7 C-6.67 8.32 -6.34 9.64 -6 11 C-6.99 12.485 -6.99 12.485 -8 14 C-7.01 14 -6.02 14 -5 14 C-5.63896256 17.43442378 -6.49164826 20.71981399 -7.5 24.0625 C-11.10798543 37.32140211 -9.5192472 48.92851041 -6 62 C-6.66 62 -7.32 62 -8 62 C-10.86390108 56.14202052 -12.0122936 50.42590164 -13 44 C-13.67311281 54.63268942 -13.9916788 63.22890745 -7 72 C-5.08633142 73.88349813 -3.16740105 75.40025161 -1 77 C-1 77.66 -1 78.32 -1 79 C-5.06155154 77.68104254 -7.06194496 76.21235154 -9.625 72.8125 C-10.47964844 71.70841797 -10.47964844 71.70841797 -11.3515625 70.58203125 C-15.82364203 63.5771863 -16.45737651 58.06609091 -16.43359375 49.87890625 C-16.4388356 48.82017807 -16.44407745 47.76144989 -16.44947815 46.67063904 C-16.45588053 44.4392077 -16.45458456 42.20774254 -16.44604492 39.97631836 C-16.43753553 36.57669536 -16.46632221 33.17875418 -16.49804688 29.77929688 C-16.49965919 27.60416717 -16.49908078 25.4290345 -16.49609375 23.25390625 C-16.50732773 22.24534073 -16.51856171 21.23677521 -16.53013611 20.19764709 C-16.4555688 12.58413633 -14.91021581 7.14617926 -9.6875 1.5 C-6.2856803 -0.39869006 -3.83519601 -0.30079969 0 0 Z " fill="#BE76EC" transform="translate(112,98)"/>
<path d="M0 0 C2.5625 1.5625 2.5625 1.5625 4 4 C4.44672088 7.57376708 4.38696244 10.01969514 3.0625 13.375 C-0.1879401 15.93595281 -3.92528138 16.21185712 -8 16 C-10.42784054 15.02283723 -11.70215721 14.38294073 -13.3125 12.3125 C-14.32922829 8.89259577 -13.87281149 6.42890226 -13 3 C-9.83540278 -1.08760474 -4.74322107 -0.7658779 0 0 Z " fill="#1F1F1F" transform="translate(506,100)"/>
<path d="M0 0 C3.125 2.0625 3.125 2.0625 5 5 C5 8.65743868 4.81308469 10.93945475 2.5625 13.875 C-1.02509737 16.4580701 -3.61402344 16.04996238 -7.8671875 15.49609375 C-10 15 -10 15 -12.0625 13.375 C-13.38696244 10.01969514 -13.44672088 7.57376708 -13 4 C-10.04354903 -1.01311251 -5.28187442 -1.06950921 0 0 Z " fill="#202020" transform="translate(299,100)"/>
<path d="M0 0 C3.29714793 0.32971479 4.6226839 0.6226839 7 3 C7.25 5.5 7.25 5.5 7 8 C5 10 5 10 2.0625 10.1875 C-1 10 -1 10 -4 9 C-7.91019192 11.05962584 -11.14751464 13.92018521 -13.875 17.375 C-14.09352738 21.96407508 -10.90567545 24.6884711 -8 28 C-7.30132812 28.81855469 -6.60265625 29.63710937 -5.8828125 30.48046875 C-2.40194173 34.80350942 -2.40194173 34.80350942 2 38 C2.33 35.36 2.66 32.72 3 30 C3.33 30 3.66 30 4 30 C4 33.63 4 37.26 4 41 C0 41 0 41 -2.578125 38.8828125 C-3.90070313 37.51769531 -3.90070313 37.51769531 -5.25 36.125 C-6.14203125 35.22007812 -7.0340625 34.31515625 -7.953125 33.3828125 C-10 31 -10 31 -10 29 C-10.66 29 -11.32 29 -12 29 C-12.9765625 27.20963542 -13.953125 25.41927083 -14.9296875 23.62890625 C-15.91410024 21.83381685 -15.91410024 21.83381685 -18 21 C-18.328125 18.796875 -18.328125 18.796875 -18 16 C-15.734375 13.578125 -15.734375 13.578125 -12.75 11.25 C-11.77546875 10.47140625 -10.8009375 9.6928125 -9.796875 8.890625 C-7.36819346 7.24889055 -5.85285578 6.40755083 -3 6 C-2.87625 5.38125 -2.7525 4.7625 -2.625 4.125 C-2 2 -2 2 0 0 Z " fill="#8F8E8E" transform="translate(119,119)"/>
<path d="M0 0 C10.58483058 -0.9116122 10.58483058 -0.9116122 13.91015625 1.23046875 C16.12538137 3.84611357 17 5.55742752 17 9 C16.34 9 15.68 9 15 9 C14.34 7.68 13.68 6.36 13 5 C12.01 5.33 11.02 5.66 10 6 C6.8125 5.0625 6.8125 5.0625 4 4 C4.33 4.99 4.66 5.98 5 7 C4.01 7 3.02 7 2 7 C0.73647126 9.88733962 0.73647126 9.88733962 1.625 12.4375 C2 15 2 15 0.5625 17.3125 C0.046875 17.869375 -0.46875 18.42625 -1 19 C-2.98 18.67 -4.96 18.34 -7 18 C-7.625 14.625 -7.625 14.625 -8 11 C-7.34 10.34 -6.68 9.68 -6 9 C-4.68 9 -3.36 9 -2 9 C-0.43727811 4.60746227 -0.43727811 4.60746227 0 0 Z " fill="#C584EF" transform="translate(172,84)"/>
<path d="M0 0 C1.98 0 3.96 0 6 0 C6.23976562 0.65097656 6.47953125 1.30195312 6.7265625 1.97265625 C7.35691406 2.97619141 7.35691406 2.97619141 8 4 C10.01907596 4.51991851 10.01907596 4.51991851 12.375 4.4375 C22.911343 5.15105637 30.60277399 9.88243012 38.234375 16.9140625 C40 19 40 19 40 22 C39.52691406 21.63648437 39.05382812 21.27296875 38.56640625 20.8984375 C36.39211982 19.24547121 34.19686886 17.62281268 32 16 C31.30261719 15.46246094 30.60523438 14.92492187 29.88671875 14.37109375 C23.40751865 9.64494962 16.09003437 7 8 7 C7.54625 7.515625 7.0925 8.03125 6.625 8.5625 C5 10 5 10 2.4375 10 C0 9 0 9 -1.4375 6.6875 C-2 4 -2 4 -1.125 1.6875 C-0.75375 1.130625 -0.3825 0.57375 0 0 Z " fill="#858585" transform="translate(138,96)"/>
<path d="M0 0 C-0.66 0.33 -1.32 0.66 -2 1 C-2 1.66 -2 2.32 -2 3 C-1.34 3.33 -0.68 3.66 0 4 C-0.33 4.66 -0.66 5.32 -1 6 C-1.76699219 5.79503906 -2.53398437 5.59007813 -3.32421875 5.37890625 C-14.17915671 2.74396777 -24.87034494 2.2883578 -36 2 C-35 0 -35 0 -32.98828125 -0.8515625 C-21.74849338 -4.10043549 -10.97660376 -4.24900791 0 0 Z " fill="#AD4FED" transform="translate(174,83)"/>
<path d="M0 0 C2.46322446 2.46322446 2.4749407 3.78867865 3 7.1875 C3.72970223 11.58887852 4.67568667 15.74327858 6 20 C6.66 20 7.32 20 8 20 C8.33 23.3 8.66 26.6 9 30 C8.34 29.67 7.68 29.34 7 29 C7 28.34 7 27.68 7 27 C6.34 27 5.68 27 5 27 C4.3490741 25.75264433 3.70448331 24.50198168 3.0625 23.25 C2.70285156 22.55390625 2.34320313 21.8578125 1.97265625 21.140625 C-0.12226077 16.53012488 -0.12404621 12.25891462 -0.0625 7.25 C-0.05798828 6.55261719 -0.05347656 5.85523438 -0.04882812 5.13671875 C-0.0371002 3.42444197 -0.01916653 1.71220967 0 0 Z " fill="#B354F2" transform="translate(98,140)"/>
<path d="M0 0 C2.375 0.3125 2.375 0.3125 5 1 C7 4 7 4 6.625 6.6875 C6.41875 7.450625 6.2125 8.21375 6 9 C4.68 9.33 3.36 9.66 2 10 C2.33 15.28 2.66 20.56 3 26 C2.34 25.67 1.68 25.34 1 25 C-0.10746804 21.2664401 0.02083784 18.03005102 0.4375 14.1875 C0.53933594 13.21167969 0.64117187 12.23585937 0.74609375 11.23046875 C0.82988281 10.49441406 0.91367188 9.75835937 1 9 C0.01 9 -0.98 9 -2 9 C-2.6875 6.75 -2.6875 6.75 -3 4 C-1.5625 1.6875 -1.5625 1.6875 0 0 Z " fill="#363636" transform="translate(122,140)"/>
<path d="M0 0 C1.40958984 0.23009766 1.40958984 0.23009766 2.84765625 0.46484375 C7.69295331 1.15702904 12.5517789 1.34793629 17.4375 1.5625 C18.35982422 1.60568359 19.28214844 1.64886719 20.23242188 1.69335938 C22.48816163 1.79854931 24.74399499 1.90069107 27 2 C27 3.32 27 4.64 27 6 C20.07 6 13.14 6 6 6 C6 5.34 6 4.68 6 4 C4.02 3.34 2.04 2.68 0 2 C0 1.34 0 0.68 0 0 Z " fill="#B14CF4" transform="translate(133,189)"/>
<path d="M0 0 C-0.5479083 4.2829452 -2.02432804 6.85135641 -4.5625 10.3125 C-5.20316406 11.19550781 -5.84382813 12.07851562 -6.50390625 12.98828125 C-6.99761719 13.65214844 -7.49132812 14.31601563 -8 15 C-9.32 14.67 -10.64 14.34 -12 14 C-11.39794612 9.23547018 -10.87541313 5.21437612 -7.125 1.9375 C-4 0 -4 0 0 0 Z " fill="#BD6BEF" transform="translate(116,98)"/>
<path d="M0 0 C0.58700684 0.1429248 1.17401367 0.28584961 1.77880859 0.43310547 C8.47595612 1.93403205 14.77975995 2.24380924 21.625 2.125 C22.62917969 2.11597656 23.63335937 2.10695312 24.66796875 2.09765625 C27.11224126 2.07437746 29.55598408 2.04168487 32 2 C31.67 2.66 31.34 3.32 31 4 C30.01 4.33 29.02 4.66 28 5 C29.98 5 31.96 5 34 5 C34.495 5.99 34.495 5.99 35 7 C29.37742839 8.9169573 24.47630615 9.24889924 18.5625 9.125 C17.73556641 9.11597656 16.90863281 9.10695312 16.05664062 9.09765625 C14.03763292 9.07431512 12.01877644 9.03845288 10 9 C10 8.67 10 8.34 10 8 C15.28 8 20.56 8 26 8 C25.67 7.01 25.34 6.02 25 5 C23.69804687 4.95101562 22.39609375 4.90203125 21.0546875 4.8515625 C19.32810529 4.77649371 17.60154378 4.70094767 15.875 4.625 C15.0190625 4.5940625 14.163125 4.563125 13.28125 4.53125 C8.5124128 4.31114982 4.48423193 3.80839517 0 2 C0 1.34 0 0.68 0 0 Z " fill="#CA87F3" transform="translate(134,187)"/>
<path d="M0 0 C0.33 0.99 0.66 1.98 1 3 C1.99 3.33 2.98 3.66 4 4 C-0.27118644 8.88135593 -0.27118644 8.88135593 -3.6875 9.4375 C-6 9 -6 9 -8 7 C-7.75 3.4375 -7.75 3.4375 -7 0 C-4.3333581 -1.33332095 -2.83319697 -0.67102033 0 0 Z " fill="#393939" transform="translate(149,129)"/>
<path d="M0 0 C3.29714793 0.32971479 4.6226839 0.6226839 7 3 C7.25 5.5 7.25 5.5 7 8 C5 10 5 10 2 10.3125 C1.01 10.209375 0.02 10.10625 -1 10 C-3 7 -3 7 -2.75 4.4375 C-2 2 -2 2 0 0 Z " fill="#3F3F3F" transform="translate(119,119)"/>
<path d="M0 0 C0.99 0.103125 1.98 0.20625 3 0.3125 C5 3.3125 5 3.3125 4.9375 5.875 C4 8.3125 4 8.3125 1.5625 9.6875 C-1 10.3125 -1 10.3125 -3 9.3125 C-3 8.6525 -3 7.9925 -3 7.3125 C-3.66 7.3125 -4.32 7.3125 -5 7.3125 C-5.125 4.9375 -5.125 4.9375 -5 2.3125 C-3 0.3125 -3 0.3125 0 0 Z " fill="#312F30" transform="translate(188,104.6875)"/>
<path d="M0 0 C2.05078125 0.03255208 4.1015625 0.06510417 6.15234375 0.09765625 C6.83984375 2.34765625 6.83984375 2.34765625 7.15234375 5.09765625 C5.71484375 7.41015625 5.71484375 7.41015625 4.15234375 9.09765625 C1.18234375 8.60265625 1.18234375 8.60265625 -1.84765625 8.09765625 C-2.22828846 5.77157055 -2.5603557 3.43710361 -2.84765625 1.09765625 C-1.84765625 0.09765625 -1.84765625 0.09765625 0 0 Z " fill="#333434" transform="translate(166.84765625,93.90234375)"/>
<path d="M0 0 C1.99954746 -0.04254356 4.00041636 -0.04080783 6 0 C7 1 7 1 7.09765625 2.84765625 C7.04882812 5.92382812 7.04882812 5.92382812 7 9 C4.75 9.75 4.75 9.75 2 10 C-0.3125 8.0625 -0.3125 8.0625 -2 6 C-1.34 4.02 -0.68 2.04 0 0 Z " fill="#313131" transform="translate(138,96)"/>
<path d="M0 0 C-0.556875 0.268125 -1.11375 0.53625 -1.6875 0.8125 C-2.8321875 1.4003125 -2.8321875 1.4003125 -4 2 C-4.845625 2.433125 -5.69125 2.86625 -6.5625 3.3125 C-9.87753053 5.60752114 -11.57309656 7.99382326 -12.42553711 11.99975586 C-12.73895392 14.26845194 -12.97912212 16.53181364 -13.1875 18.8125 C-13.3102832 19.99489258 -13.3102832 19.99489258 -13.43554688 21.20117188 C-13.63458616 23.13302376 -13.81879107 25.06639413 -14 27 C-14.66 26.67 -15.32 26.34 -16 26 C-16.79689922 10.23910422 -16.79689922 10.23910422 -12 4 C-8.18966514 -0.11928093 -5.51275734 -0.43237312 0 0 Z " fill="#747075" transform="translate(112,98)"/>
<path d="M0 0 C2.625 0.9375 2.625 0.9375 5 2 C5.125 7.75 5.125 7.75 4 10 C1.125 10.1875 1.125 10.1875 -2 10 C-4 7 -4 7 -4 3 C-3.34 3 -2.68 3 -2 3 C-2 2.34 -2 1.68 -2 1 C-1.34 0.67 -0.68 0.34 0 0 Z " fill="#2E2D2F" transform="translate(132,174)"/>
<path d="M0 0 C3.01217112 0.64449607 5.51655836 1.65022182 8.25 3.0625 C8.95640625 3.42472656 9.6628125 3.78695312 10.390625 4.16015625 C10.92171875 4.43730469 11.4528125 4.71445313 12 5 C11.67 6.65 11.34 8.3 11 10 C13.31 10.33 15.62 10.66 18 11 C17.67 11.66 17.34 12.32 17 13 C11.65155992 12.46515599 7.64203897 10.53309233 3 8 C3.66 7.67 4.32 7.34 5 7 C5 6.34 5 5.68 5 5 C4.175 4.505 3.35 4.01 2.5 3.5 C1.675 3.005 0.85 2.51 0 2 C0 1.34 0 0.68 0 0 Z " fill="#B969ED" transform="translate(122,181)"/>
<path d="M0 0 C0.66 0 1.32 0 2 0 C2.00386719 0.99966797 2.00386719 0.99966797 2.0078125 2.01953125 C2.35719459 10.34647099 4.70578457 17.70578457 10.73046875 23.73046875 C12.12340145 24.85871115 13.5577704 25.9354972 15 27 C15 27.66 15 28.32 15 29 C7.89119632 26.69147097 4.64808615 20.87085974 1.0625 14.625 C-0.38066608 9.7012569 -0.24863876 5.09249026 0 0 Z " fill="#6A5E75" transform="translate(96,148)"/>
<path d="M0 0 C4.875 0.875 4.875 0.875 6 2 C6.1875 4.4375 6.1875 4.4375 6 7 C4 9 4 9 0.875 9.125 C-0.548125 9.063125 -0.548125 9.063125 -2 9 C-2.6875 6.75 -2.6875 6.75 -3 4 C-1.5625 1.6875 -1.5625 1.6875 0 0 Z " fill="#2B2B2B" transform="translate(159,172)"/>
<path d="M0 0 C2.4375 0.1875 2.4375 0.1875 3.4375 1.1875 C3.15019945 3.52694736 2.81813221 5.8614143 2.4375 8.1875 C0.125 8.8125 0.125 8.8125 -2.5625 9.1875 C-3.5525 8.5275 -4.5425 7.8675 -5.5625 7.1875 C-4.47938312 0.32775974 -4.47938312 0.32775974 0 0 Z " fill="#262627" transform="translate(190.5625,145.8125)"/>
<path d="M0 0 C0.99 0.33 1.98 0.66 3 1 C0.4651025 3.027918 -2.05351524 5.03858075 -4.6875 6.9375 C-8.17009092 10.0435946 -9.01267247 13.55702611 -10 18 C-12.13295393 16.31141147 -12.92661854 15.3955928 -13.4296875 12.68359375 C-12.79761831 8.73603435 -10.74149942 7.63744686 -7.625 5.25 C-6.62726563 4.47140625 -5.62953125 3.6928125 -4.6015625 2.890625 C-2 1 -2 1 0 0 Z " fill="#898B8D" transform="translate(114,125)"/>
<path d="M0 0 C1.093125 0.0825 2.18625 0.165 3.3125 0.25 C3.1875 2.5625 3.1875 2.5625 2.3125 5.25 C-0.75 7.0625 -0.75 7.0625 -3.6875 8.25 C-4.6775 6.93 -5.6675 5.61 -6.6875 4.25 C-4.79150483 0.68106792 -4.16790733 0.28256999 0 0 Z " fill="#B965F1" transform="translate(126.6875,86.75)"/>
<path d="M0 0 C6.75 0.75 6.75 0.75 9 3 C8.34 3 7.68 3 7 3 C7 3.66 7 4.32 7 5 C7.66 5.33 8.32 5.66 9 6 C8.67 6.66 8.34 7.32 8 8 C3.38 7.01 -1.24 6.02 -6 5 C-6 4.67 -6 4.34 -6 4 C-1.545 3.505 -1.545 3.505 3 3 C3 2.34 3 1.68 3 1 C2.01 0.67 1.02 0.34 0 0 Z " fill="#C77EF4" transform="translate(165,81)"/>
<path d="M0 0 C3.96 0 7.92 0 12 0 C12 1.32 12 2.64 12 4 C6.39 4 0.78 4 -5 4 C-5 3.67 -5 3.34 -5 3 C-2.36 2.67 0.28 2.34 3 2 C2.01 1.34 1.02 0.68 0 0 Z " fill="#A849EA" transform="translate(148,191)"/>
<path d="M0 0 C0.33 1.32 0.66 2.64 1 4 C1.680625 3.2575 1.680625 3.2575 2.375 2.5 C4 1 4 1 6 1 C5.54917531 2.46067199 5.08906463 3.91848032 4.625 5.375 C4.36976563 6.18710938 4.11453125 6.99921875 3.8515625 7.8359375 C3 10 3 10 1 12 C1 10.35 1 8.7 1 7 C0.34 7 -0.32 7 -1 7 C-1 7.66 -1 8.32 -1 9 C-1.66 9 -2.32 9 -3 9 C-2.01 6.03 -1.02 3.06 0 0 Z " fill="#C27DEE" transform="translate(201,155)"/>
<path d="M0 0 C0.99 0 1.98 0 3 0 C3.02725341 1.7290774 3.04650987 3.45828176 3.0625 5.1875 C3.07410156 6.15042969 3.08570312 7.11335937 3.09765625 8.10546875 C3.00486622 10.85576513 2.62111685 13.32479591 2 16 C-0.65450267 13.34549733 -0.41639121 11.69774614 -0.6875 8 C-0.77386719 6.9275 -0.86023438 5.855 -0.94921875 4.75 C-1 2 -1 2 0 0 Z " fill="#AB49EE" transform="translate(98,123)"/>
<path d="M0 0 C2.52349243 3.12432397 4.27256146 6.38060496 6 10 C5.01 11.485 5.01 11.485 4 13 C1.11424181 12.60196439 0.17810487 12.20990931 -1.75 9.9375 C-2.1625 9.298125 -2.575 8.65875 -3 8 C-2.34 7.67 -1.68 7.34 -1 7 C-0.67 7.66 -0.34 8.32 0 9 C0 6.03 0 3.06 0 0 Z " fill="#C57AF1" transform="translate(106,160)"/>
<path d="M0 0 C2.27795022 2.27795022 3.05219877 3.93787293 4 7 C3.625 9.3125 3.625 9.3125 3 11 C2.67 11 2.34 11 2 11 C1.67 13.31 1.34 15.62 1 18 C-1.21399303 14.20458337 -2.00980198 10.24370579 -3 6 C-2.01 6.33 -1.02 6.66 0 7 C0 4.69 0 2.38 0 0 Z " fill="#C887F1" transform="translate(203,110)"/>
<path d="M0 0 C-2.85687067 2.29475491 -5.62158199 3.89624245 -9 5.3125 C-10.2684375 5.86357422 -10.2684375 5.86357422 -11.5625 6.42578125 C-14 7 -14 7 -16.3125 6.10546875 C-16.869375 5.74066406 -17.42625 5.37585938 -18 5 C-15.56686628 3.96748938 -13.12943108 2.94880479 -10.6875 1.9375 C-9.65206055 1.49567383 -9.65206055 1.49567383 -8.59570312 1.04492188 C-3.33984375 -1.11328125 -3.33984375 -1.11328125 0 0 Z " fill="#858585" transform="translate(169,126)"/>
<path d="M0 0 C2.475 0.99 2.475 0.99 5 2 C4.01 2.99 3.02 3.98 2 5 C2.474375 5.94875 2.94875 6.8975 3.4375 7.875 C4.29166667 9.58333333 5.14583333 11.29166667 6 13 C5.34 13.66 4.68 14.32 4 15 C1.3876821 11.37646227 -0.64345352 8.51625537 -1 4 C-0.5625 1.6875 -0.5625 1.6875 0 0 Z " fill="#868687" transform="translate(125,162)"/>
<path d="M0 0 C0.66 0.33 1.32 0.66 2 1 C1.38461538 6.53846154 1.38461538 6.53846154 -0.5625 8.875 C-1.2740625 9.431875 -1.2740625 9.431875 -2 10 C-2.99 9.67 -3.98 9.34 -5 9 C-4.34 6.69 -3.68 4.38 -3 2 C-2.01 2 -1.02 2 0 2 C0 1.34 0 0.68 0 0 Z " fill="#B356F3" transform="translate(109,103)"/>
<path d="M0 0 C0.33 0.66 0.66 1.32 1 2 C3.22297513 2.39308423 3.22297513 2.39308423 5.8125 2.5 C9.39838736 2.71186927 11.87501406 3.19348132 15 5 C15 5.33 15 5.66 15 6 C10.05 5.67 5.1 5.34 0 5 C0 3.35 0 1.7 0 0 Z " fill="#7C7C7C" transform="translate(145,98)"/>
<path d="M0 0 C0.66 1.32 1.32 2.64 2 4 C2.99 4 3.98 4 5 4 C4.34 8.29 3.68 12.58 3 17 C2.67 17 2.34 17 2 17 C2 13.37 2 9.74 2 6 C1.01 6 0.02 6 -1 6 C-0.67 4.02 -0.34 2.04 0 0 Z " fill="#C886EE" transform="translate(99,117)"/>
<path d="M0 0 C3.01217112 0.64449607 5.51655836 1.65022182 8.25 3.0625 C8.95640625 3.42472656 9.6628125 3.78695312 10.390625 4.16015625 C10.92171875 4.43730469 11.4528125 4.71445313 12 5 C12 5.33 12 5.66 12 6 C10.02 6 8.04 6 6 6 C6 6.99 6 7.98 6 9 C5.01 8.67 4.02 8.34 3 8 C3.66 7.67 4.32 7.34 5 7 C5 6.34 5 5.68 5 5 C4.175 4.505 3.35 4.01 2.5 3.5 C1.675 3.005 0.85 2.51 0 2 C0 1.34 0 0.68 0 0 Z " fill="#C889F0" transform="translate(122,181)"/>
<path d="M0 0 C0.33 0 0.66 0 1 0 C1.12117188 0.7734375 1.24234375 1.546875 1.3671875 2.34375 C2.32852312 8.31882059 3.42659541 14.15592579 5 20 C4.34 20 3.68 20 3 20 C-0.65111665 13.45841601 -0.29887594 7.36120371 0 0 Z " fill="#C67FEF" transform="translate(101,140)"/>
<path d="M0 0 C1.98974713 2.80905477 2.1011012 4.87286664 1.75 8.1875 C1.5025 9.445625 1.255 10.70375 1 12 C0.01 12.495 0.01 12.495 -1 13 C-1.33 9.04 -1.66 5.08 -2 1 C-1.34 0.67 -0.68 0.34 0 0 Z " fill="#B95DF5" transform="translate(207,121)"/>
<path d="M0 0 C2.31 0.33 4.62 0.66 7 1 C7.33 2.65 7.66 4.3 8 6 C5.125 5.8125 5.125 5.8125 2 5 C0.625 2.4375 0.625 2.4375 0 0 Z " fill="#B55AF1" transform="translate(188,96)"/>
<path d="M0 0 C2.6875 -0.375 2.6875 -0.375 6 0 C8.2225363 1.80904117 9.37352284 3.56028425 11 6 C11 6.99 11 7.98 11 9 C10.34 9 9.68 9 9 9 C8.608125 8.21625 8.21625 7.4325 7.8125 6.625 C5.37548682 3.09553263 3.09373178 2.84964244 -1 2 C-0.67 1.34 -0.34 0.68 0 0 Z " fill="#796E7F" transform="translate(178,84)"/>
<path d="M0 0 C-0.33 1.32 -0.66 2.64 -1 4 C-4.3 4 -7.6 4 -11 4 C-8.74499851 -0.51000297 -4.55950767 -0.20725035 0 0 Z " fill="#AD48F3" transform="translate(172,189)"/>
<path d="M0 0 C0.66 0.33 1.32 0.66 2 1 C2.59355614 3.64860427 2.74209269 6.29197322 3 9 C2.236875 9.268125 1.47375 9.53625 0.6875 9.8125 C-1.87380884 10.94424112 -3.19692938 11.91223401 -5 14 C-4.67 12.35 -4.34 10.7 -4 9 C-2.68 8.67 -1.36 8.34 0 8 C0 5.36 0 2.72 0 0 Z " fill="#6D6D6D" transform="translate(189,137)"/>
<path d="M0 0 C0.99 0 1.98 0 3 0 C2.25 6.625 2.25 6.625 0 10 C-3.125 10.1875 -3.125 10.1875 -6 10 C-5.38125 9.95875 -4.7625 9.9175 -4.125 9.875 C-1.6695767 9.1523119 -1.6695767 9.1523119 -0.75 6.125 C0.11668648 3.04942969 0.11668648 3.04942969 0 0 Z " fill="#996DB6" transform="translate(172,84)"/>
<path d="M0 0 C2.26562673 2.26562673 2.94462749 3.84160705 3.09765625 7.04296875 C3.06510417 9.02864583 3.03255208 11.01432292 3 13 C2.67 12.34 2.34 11.68 2 11 C1.34 11 0.68 11 0 11 C0 7.37 0 3.74 0 0 Z " fill="#AF43F3" transform="translate(98,140)"/>
<path d="M0 0 C0.66 0 1.32 0 2 0 C2 1.32 2 2.64 2 4 C2.66 4 3.32 4 4 4 C4 6.64 4 9.28 4 12 C2 10.5 2 10.5 0 8 C-0.35800135 5.24128373 -0.18660165 2.79902476 0 0 Z " fill="#C584ED" transform="translate(98,151)"/>
<path d="M0 0 C3.33333333 3.33333333 6.66666667 6.66666667 10 10 C4.33846154 8.52307692 4.33846154 8.52307692 2.625 5.875 C2.315625 4.946875 2.315625 4.946875 2 4 C1.34 4 0.68 4 0 4 C0 2.68 0 1.36 0 0 Z " fill="#C37DED" transform="translate(112,170)"/>
<path d="M0 0 C1.27230469 0.00902344 2.54460937 0.01804687 3.85546875 0.02734375 C5.31919922 0.04474609 5.31919922 0.04474609 6.8125 0.0625 C6.8125 0.3925 6.8125 0.7225 6.8125 1.0625 C2.8525 1.0625 -1.1075 1.0625 -5.1875 1.0625 C-5.1875 1.7225 -5.1875 2.3825 -5.1875 3.0625 C-7.4975 3.0625 -9.8075 3.0625 -12.1875 3.0625 C-8.55002918 -0.57497082 -4.89839935 -0.04493944 0 0 Z " fill="#B860F3" transform="translate(157.1875,79.9375)"/>
<path d="M0 0 C0.33 0 0.66 0 1 0 C1.84681133 5.08086796 2.09038099 9.84828377 2 15 C0 14 0 14 -0.6875 12 C-1.11389971 7.90656277 -0.57491832 4.05980784 0 0 Z " fill="#545455" transform="translate(123,151)"/>
<path d="M0 0 C2.31 0.66 4.62 1.32 7 2 C7 3.32 7 4.64 7 6 C4.03 5.505 4.03 5.505 1 5 C0.67 3.35 0.34 1.7 0 0 Z " fill="#B048F5" transform="translate(116,178)"/>
<path d="M0 0 C2.32472205 2.85306797 3.7508258 5.54074837 5 9 C4.01 9 3.02 9 2 9 C0.4375 6.1875 0.4375 6.1875 -1 3 C-0.67 2.01 -0.34 1.02 0 0 Z " fill="#868584" transform="translate(98,159)"/>
<path d="M0 0 C2 3 2 3 2 7 C0.68 7.33 -0.64 7.66 -2 8 C-2 6.02 -2 4.04 -2 2 C-1.34 2 -0.68 2 0 2 C0 1.34 0 0.68 0 0 Z " fill="#AB4DEE" transform="translate(102,114)"/>
<path d="M0 0 C2.51083114 1.25541557 2.87125446 2.50063488 4 5 C3.34 5 2.68 5 2 5 C2 4.34 2 3.68 2 3 C1.05125 3.515625 0.1025 4.03125 -0.875 4.5625 C-1.90625 5.036875 -2.9375 5.51125 -4 6 C-4.66 5.67 -5.32 5.34 -6 5 C-4.02 3.35 -2.04 1.7 0 0 Z " fill="#CA88F2" transform="translate(119,90)"/>
<path d="M0 0 C0.99 0.33 1.98 0.66 3 1 C-1.75 4.875 -1.75 4.875 -4 6 C-4.66 5.34 -5.32 4.68 -6 4 C-3.1875 1.9375 -3.1875 1.9375 0 0 Z " fill="#919091" transform="translate(114,125)"/>
<path d="M0 0 C5.75 1.75 5.75 1.75 8 4 C3.82412255 5.39195915 1.86525224 3.82323219 -2 2 C-1.34 1.34 -0.68 0.68 0 0 Z " fill="#949494" transform="translate(160,103)"/>
<path d="M0 0 C2.09350689 3.4019487 2.17942163 6.05272412 2 10 C0.4375 8.9375 0.4375 8.9375 -1 7 C-0.6875 3.3125 -0.6875 3.3125 0 0 Z " fill="#AA49E7" transform="translate(105,160)"/>
<path d="M0 0 C0.66 0 1.32 0 2 0 C2.1875 2.375 2.1875 2.375 2 5 C1.01 5.66 0.02 6.32 -1 7 C-1.625 4.625 -1.625 4.625 -2 2 C-1.34 1.34 -0.68 0.68 0 0 Z " fill="#BA66F4" transform="translate(200,164)"/>
<path d="M0 0 C-0.66 0.66 -1.32 1.32 -2 2 C-5.125 1.625 -5.125 1.625 -8 1 C-8 0.34 -8 -0.32 -8 -1 C-4.37673261 -2.2077558 -3.35853631 -1.54311128 0 0 Z " fill="#BA65F3" transform="translate(137,85)"/>
<path d="M0 0 C0.99 0.33 1.98 0.66 3 1 C3.33 3.31 3.66 5.62 4 8 C2 6.8125 2 6.8125 0 5 C-0.25 2.3125 -0.25 2.3125 0 0 Z " fill="#5F4D67" transform="translate(101,135)"/>
<path d="M0 0 C0.66 0.99 1.32 1.98 2 3 C0.35 4.65 -1.3 6.3 -3 8 C-3 7.34 -3 6.68 -3 6 C-3.66 5.67 -4.32 5.34 -5 5 C-3.35 3.35 -1.7 1.7 0 0 Z " fill="#8D8D8D" transform="translate(184,112)"/>
<path d="M0 0 C6.75 0.75 6.75 0.75 9 3 C7.35 3.33 5.7 3.66 4 4 C3.67 3.01 3.34 2.02 3 1 C2.01 0.67 1.02 0.34 0 0 Z " fill="#CB8BF2" transform="translate(165,81)"/>
</svg>
