<?xml version="1.0" encoding="UTF-8"?>
<svg version="1.1" xmlns="http://www.w3.org/2000/svg" width="824" height="303">
<path d="M0 0 C-0.50797009 4.3177458 -1.19682779 8.03302114 -3 12 C-4.98567708 11.67447917 -6.97135417 11.34895833 -8.95703125 11.0234375 C-11.31755824 10.80422152 -11.31755824 10.80422152 -14 13 C-14.72965366 15.56282742 -14.72965366 15.56282742 -15 18 C-14.3915625 17.9278125 -13.783125 17.855625 -13.15625 17.78125 C-4.75550659 16.89175952 3.565624 16.90475611 12 17 C12.32274902 17.76666992 12.64549805 18.53333984 12.97802734 19.32324219 C14.18090538 22.17883398 15.38497482 25.03391961 16.58984375 27.88867188 C17.36549976 29.72747828 18.13978967 31.56686075 18.9140625 33.40625 C19.64882813 35.14648438 19.64882813 35.14648438 20.3984375 36.921875 C20.84880371 37.99018555 21.29916992 39.05849609 21.76318359 40.15917969 C22.77523275 42.48373633 23.83635226 44.74869784 25 47 C25.35827881 46.12674072 25.71655762 45.25348145 26.08569336 44.35375977 C27.41247211 41.1232764 28.74147757 37.89372835 30.07202148 34.66479492 C30.64811757 33.26542583 31.22331591 31.86568681 31.79760742 30.46557617 C32.62184312 28.45654609 33.44926745 26.44885583 34.27734375 24.44140625 C35.02359009 22.62684937 35.02359009 22.62684937 35.78491211 20.77563477 C37 18 37 18 38 17 C40.35313555 16.92728259 42.70833668 16.91629132 45.0625 16.9375 C46.99802734 16.95103516 46.99802734 16.95103516 48.97265625 16.96484375 C49.97167969 16.97644531 50.97070312 16.98804688 52 17 C49.49152671 25.13702644 46.11966115 32.84647211 42.6875 40.625 C41.56338092 43.17837011 40.44238905 45.7330818 39.32421875 48.2890625 C39.04774506 48.91929321 38.77127136 49.54952393 38.48641968 50.19885254 C35.96639133 55.98550921 33.67287895 61.85170451 31.41918945 67.74658203 C28.85372085 73.62778529 25.40280672 78.11208044 20.375 82.0625 C12.40770886 84.27563643 4.26037647 84.05230315 -3 80 C-2.39301257 75.87248551 -0.96189209 72.6678852 1 69 C1.680625 69.165 2.36125 69.33 3.0625 69.5 C9.22948084 70.61917244 9.22948084 70.61917244 15 68.8125 C16.42131926 66.23635884 15.70407883 64.81246228 15 62 C14.4690418 60.45901487 13.89854453 58.93118709 13.29296875 57.41796875 C12.7834668 56.14276367 12.7834668 56.14276367 12.26367188 54.84179688 C11.90853516 53.96587891 11.55339844 53.08996094 11.1875 52.1875 C10.67219727 50.89102539 10.67219727 50.89102539 10.14648438 49.56835938 C8.26195167 44.88354543 6.22078848 40.35662689 3.91723633 35.86450195 C2.49942372 32.98245913 1.37703105 30.00541614 0.25 27 C-0.17796875 25.865625 -0.6059375 24.73125 -1.046875 23.5625 C-1.36140625 22.716875 -1.6759375 21.87125 -2 21 C-2.33 23.97 -2.66 26.94 -3 30 C-6.96 30 -10.92 30 -15 30 C-15 41.88 -15 53.76 -15 66 C-19.62 66 -24.24 66 -29 66 C-29 54.12 -29 42.24 -29 30 C-31.64 30 -34.28 30 -37 30 C-37.19401633 28.18818595 -37.38004375 26.37551468 -37.5625 24.5625 C-37.66691406 23.55316406 -37.77132812 22.54382813 -37.87890625 21.50390625 C-37.91886719 20.67761719 -37.95882812 19.85132813 -38 19 C-37 18 -37 18 -35.15234375 17.90234375 C-33.1015625 17.93489583 -31.05078125 17.96744792 -29 18 C-29.12375 16.2365625 -29.12375 16.2365625 -29.25 14.4375 C-29.22503726 9.73618325 -28.021709 6.59510559 -25 3 C-18.54874544 -2.59108729 -7.90923839 -2.6364128 0 0 Z " fill="#EAEAEC" transform="translate(564,118)"/>
<path d="M0 0 C3.69181703 1.01270131 7.08523763 1.68379517 10.90869141 1.80004883 C16.35318973 2.76600821 17.67601506 5.16879272 20.78369141 9.48754883 C22.27923264 11.26214938 23.77957427 13.03271119 25.28369141 14.80004883 C37.31756575 29.64519802 42.33115546 45.44880222 40.78369141 64.48754883 C38.52704657 79.53881266 30.96472771 93.25519285 18.97119141 102.80004883 C4.63182456 112.58588892 -10.43572169 116.22578886 -27.46630859 113.42504883 C-41.27695775 110.63637663 -51.01083987 102.57993752 -61.21630859 93.48754883 C-62.22822266 92.75793945 -63.24013672 92.02833008 -64.28271484 91.27661133 C-68.93302538 87.36620285 -71.69957111 81.62162922 -72.679245 75.67977905 C-72.8557955 72.65392667 -72.88389375 69.66669118 -72.84521484 66.63598633 C-72.8476268 65.5371109 -72.85003876 64.43823547 -72.8525238 63.30606079 C-72.85155014 60.99835578 -72.83827255 58.690626 -72.81323242 56.38305664 C-72.77883249 52.86499308 -72.79262468 49.34943328 -72.81201172 45.83129883 C-72.80511463 43.57868405 -72.7954435 41.3260757 -72.78271484 39.07348633 C-72.78767471 38.03058441 -72.79263458 36.9876825 -72.79774475 35.91317749 C-72.69257978 29.35095041 -71.68472288 25.09542709 -68.21630859 19.48754883 C-66.25146484 17.90161133 -66.25146484 17.90161133 -64.27880859 17.11254883 C-63.58013672 16.81348633 -62.88146484 16.51442383 -62.16162109 16.20629883 C-60.66664793 15.65393927 -59.16205569 15.12756003 -57.65380859 14.61254883 C-55.2824656 13.51808283 -53.99759119 12.47708802 -52.09130859 10.73754883 C-37.4622481 -2.10595182 -18.30160883 -5.03155368 0 0 Z M-57.21630859 23.48754883 C-62.99224485 31.4279412 -66.1815993 39.76128151 -67.21630859 49.48754883 C-61.2021361 49.48754883 -56.67745852 46.43350034 -52.21630859 42.48754883 C-51.88630859 41.49754883 -51.55630859 40.50754883 -51.21630859 39.48754883 C-47.75130859 38.99254883 -47.75130859 38.99254883 -44.21630859 38.48754883 C-44.17389136 40.82049658 -44.17537922 43.1545745 -44.21630859 45.48754883 C-45.21630859 46.48754883 -45.21630859 46.48754883 -47.65380859 46.67504883 C-50.21630859 46.48754883 -50.21630859 46.48754883 -52.21630859 44.48754883 C-56.90790575 47.87527779 -61.24628679 51.26940066 -65.21630859 55.48754883 C-60.64384425 64.08378179 -55.52269487 71.23248812 -47.21630859 76.48754883 C-47.01005859 75.20879883 -46.80380859 73.93004883 -46.59130859 72.61254883 C-46.47529297 71.89325195 -46.35927734 71.17395508 -46.23974609 70.43286133 C-46.23201172 69.7909082 -46.22427734 69.14895508 -46.21630859 68.48754883 C-46.87630859 67.82754883 -47.53630859 67.16754883 -48.21630859 66.48754883 C-48.34130859 63.36254883 -48.34130859 63.36254883 -48.21630859 60.48754883 C-43.46630859 59.36254883 -43.46630859 59.36254883 -41.21630859 60.48754883 C-41.02880859 63.36254883 -41.02880859 63.36254883 -41.21630859 66.48754883 C-42.70130859 67.47754883 -42.70130859 67.47754883 -44.21630859 68.48754883 C-45.89937582 72.27445008 -45.50146273 75.63208643 -44.21630859 79.48754883 C-37.17193168 86.5052425 -26.22009449 92.56178014 -16.09130859 92.92504883 C-13.02550318 92.66599815 -13.02550318 92.66599815 -10.21630859 90.48754883 C-7.52880859 90.86254883 -7.52880859 90.86254883 -5.21630859 91.48754883 C-5.17376503 93.48709629 -5.17550076 95.48796519 -5.21630859 97.48754883 C-6.21630859 98.48754883 -6.21630859 98.48754883 -8.77880859 98.55004883 C-9.58318359 98.52942383 -10.38755859 98.50879883 -11.21630859 98.48754883 C-11.45091797 97.84301758 -11.68552734 97.19848633 -11.92724609 96.53442383 C-13.01441259 94.29425371 -13.01441259 94.29425371 -15.25537109 93.94067383 C-16.10873047 93.87364258 -16.96208984 93.80661133 -17.84130859 93.73754883 C-24.21402208 92.84165011 -29.22355638 90.24145336 -34.8203125 87.23071289 C-38.7893926 85.05874274 -38.7893926 85.05874274 -43.21630859 84.48754883 C-40.96166395 90.43010134 -40.96166395 90.43010134 -35.96630859 93.98754883 C-35.05880859 94.15254883 -34.15130859 94.31754883 -33.21630859 94.48754883 C-32.59130859 96.86254883 -32.59130859 96.86254883 -32.21630859 99.48754883 C-32.87630859 100.14754883 -33.53630859 100.80754883 -34.21630859 101.48754883 C-37.34130859 101.11254883 -37.34130859 101.11254883 -40.21630859 100.48754883 C-39.88630859 101.47754883 -39.55630859 102.46754883 -39.21630859 103.48754883 C-27.26077463 109.44852433 -13.49143492 110.76082497 -0.71630859 106.80004883 C1.13454855 106.07229683 2.97022015 105.30401508 4.78369141 104.48754883 C5.94578125 103.97901367 5.94578125 103.97901367 7.13134766 103.46020508 C20.00563652 97.07982559 28.92441731 86.02632544 33.65869141 72.61254883 C37.74388418 58.55246817 36.46536566 43.55349343 29.78369141 30.48754883 C24.21493934 21.4588465 17.2202862 13.55563763 7.78369141 8.48754883 C5.54402763 8.46267352 5.54402763 8.46267352 3.78369141 9.48754883 C3.45369141 10.47754883 3.12369141 11.46754883 2.78369141 12.48754883 C3.27869141 12.98254883 3.27869141 12.98254883 3.78369141 13.48754883 C3.90869141 15.98754883 3.90869141 15.98754883 3.78369141 18.48754883 C2.78369141 19.48754883 2.78369141 19.48754883 -0.15380859 19.61254883 C-3.21630859 19.48754883 -3.21630859 19.48754883 -5.21630859 18.48754883 C-4.52880859 15.61254883 -4.52880859 15.61254883 -3.21630859 12.48754883 C-1.57267726 11.76595458 0.09419527 11.09403462 1.78369141 10.48754883 C2.4724904 8.47263636 2.4724904 8.47263636 2.78369141 6.48754883 C-3.42081681 4.0649943 -8.87438753 2.96384989 -15.52880859 3.05004883 C-16.77102173 3.06140869 -16.77102173 3.06140869 -18.03833008 3.07299805 C-34.17206369 3.50365007 -46.89113529 11.41476415 -57.21630859 23.48754883 Z M13.78369141 5.48754883 C14.77369141 6.47754883 15.76369141 7.46754883 16.78369141 8.48754883 C16.45369141 7.49754883 16.12369141 6.50754883 15.78369141 5.48754883 C15.12369141 5.48754883 14.46369141 5.48754883 13.78369141 5.48754883 Z M-65.84130859 20.67504883 C-68.23648053 23.51143665 -69.11983999 24.8217418 -69.21630859 28.48754883 C-68.22630859 29.97254883 -68.22630859 29.97254883 -67.21630859 31.48754883 C-66.23350444 29.88560811 -65.25519142 28.28091141 -64.27880859 26.67504883 C-63.73353516 25.78172852 -63.18826172 24.8884082 -62.62646484 23.96801758 C-61.10621282 21.48051321 -61.10621282 21.48051321 -60.21630859 18.48754883 C-63.40169533 18.16745663 -63.40169533 18.16745663 -65.84130859 20.67504883 Z M-70.21630859 30.48754883 C-70.54630859 32.79754883 -70.87630859 35.10754883 -71.21630859 37.48754883 C-70.55630859 37.48754883 -69.89630859 37.48754883 -69.21630859 37.48754883 C-68.88630859 35.50754883 -68.55630859 33.52754883 -68.21630859 31.48754883 C-68.87630859 31.15754883 -69.53630859 30.82754883 -70.21630859 30.48754883 Z M-66.21630859 51.48754883 C-65.21630859 53.48754883 -65.21630859 53.48754883 -65.21630859 53.48754883 Z M-66.21630859 59.48754883 C-68.4711094 68.16464435 -64.17248271 76.48923503 -59.88037109 83.92114258 C-55.63911476 90.46223509 -49.82439516 97.24975418 -43.21630859 101.48754883 C-41.73130859 100.99254883 -41.73130859 100.99254883 -40.21630859 100.48754883 C-39.78935852 95.25741047 -40.4692494 92.43338779 -43.22802734 88.16723633 C-44.21630859 86.48754883 -44.21630859 86.48754883 -44.90380859 83.55004883 C-46.63695591 79.50603842 -49.28203641 77.70310342 -52.62255859 74.92114258 C-56.24011301 71.52696125 -59.09562954 67.68975502 -62.02880859 63.70410156 C-63.07396757 62.28564161 -64.14286651 60.88472741 -65.21630859 59.48754883 C-65.54630859 59.48754883 -65.87630859 59.48754883 -66.21630859 59.48754883 Z M-71.21630859 71.48754883 C-70.21630859 73.48754883 -70.21630859 73.48754883 -70.21630859 73.48754883 Z M-70.21630859 74.48754883 C-69.74827093 80.13113065 -69.74827093 80.13113065 -66.21630859 84.48754883 C-67.20630859 81.18754883 -68.19630859 77.88754883 -69.21630859 74.48754883 C-69.54630859 74.48754883 -69.87630859 74.48754883 -70.21630859 74.48754883 Z M-66.21630859 84.48754883 C-65.88630859 85.47754883 -65.55630859 86.46754883 -65.21630859 87.48754883 C-65.21630859 86.49754883 -65.21630859 85.50754883 -65.21630859 84.48754883 C-65.54630859 84.48754883 -65.87630859 84.48754883 -66.21630859 84.48754883 Z M-64.21630859 87.48754883 C-63.88630859 88.47754883 -63.55630859 89.46754883 -63.21630859 90.48754883 C-63.21630859 89.49754883 -63.21630859 88.50754883 -63.21630859 87.48754883 C-63.54630859 87.48754883 -63.87630859 87.48754883 -64.21630859 87.48754883 Z " fill="#923DD4" transform="translate(181.21630859375,95.512451171875)"/>
<path d="M0 0 C2.12438339 -0.08078641 4.2496323 -0.13909141 6.375 -0.1875 C7.55835938 -0.22230469 8.74171875 -0.25710937 9.9609375 -0.29296875 C11.46527344 -0.14794922 11.46527344 -0.14794922 13 0 C13.66 0.99 14.32 1.98 15 3 C15.721875 2.505 16.44375 2.01 17.1875 1.5 C22.9204333 -1.34604052 30.57108019 -1.11846848 36.55078125 0.83203125 C39.41097806 2.22814194 41.74704534 3.74704534 44 6 C44.721875 5.38125 45.44375 4.7625 46.1875 4.125 C52.64742977 -0.75583582 59.14433837 -0.75900112 67 0 C71.62564022 1.28005138 74.28605155 3.15453473 77.375 6.8125 C80.3967719 12.7398218 81.24844132 18.06905571 81.1953125 24.68359375 C81.1924826 25.38396255 81.18965271 26.08433136 81.18673706 26.80592346 C81.17564885 29.0166317 81.15056703 31.22691671 81.125 33.4375 C81.11495546 34.94725972 81.1058322 36.45702588 81.09765625 37.96679688 C81.07745843 41.64482073 81.03829093 45.32194336 81 49 C76.05 49 71.1 49 66 49 C65.95101562 46.96457031 65.90203125 44.92914063 65.8515625 42.83203125 C65.79591276 40.84950921 65.74019628 38.86698843 65.68261719 36.88452148 C65.64445712 35.51221419 65.60958204 34.13981129 65.578125 32.76733398 C65.53219318 30.7886771 65.47326363 28.81033558 65.4140625 26.83203125 C65.3826416 25.64327393 65.3512207 24.4545166 65.31884766 23.22973633 C65.00720017 20.07293347 64.41700106 17.8234656 63 15 C60.50337078 13.03836275 59.19008039 12.99207998 56 13.125 C52.56293734 14.12747661 51.2075849 15.22007827 49 18 C47.8992924 21.3021228 47.79372928 23.94083279 47.68359375 27.41796875 C47.62075195 29.29838867 47.62075195 29.29838867 47.55664062 31.21679688 C47.51732422 32.52712891 47.47800781 33.83746094 47.4375 35.1875 C47.39429008 36.52279978 47.350675 37.85808652 47.30664062 39.19335938 C47.20043566 42.46211234 47.09970215 45.73104223 47 49 C42.38 49 37.76 49 33 49 C32.96261719 47.05996094 32.92523438 45.11992187 32.88671875 43.12109375 C32.82104652 40.55987691 32.75459962 37.99867985 32.6875 35.4375 C32.65366211 33.52227539 32.65366211 33.52227539 32.61914062 31.56835938 C32.45520254 22.34349628 32.45520254 22.34349628 29 14 C25.06858752 12.68952917 23.01312448 12.57223633 19.1875 14.1875 C15.9410173 16.87744281 15.11145496 18.91071127 14.68115234 23.11621094 C14.64973145 24.31020508 14.61831055 25.50419922 14.5859375 26.734375 C14.52792969 28.67763672 14.52792969 28.67763672 14.46875 30.66015625 C14.43729733 32.02343284 14.40604993 33.38671418 14.375 34.75 C14.33679531 36.12893028 14.29774213 37.50783734 14.2578125 38.88671875 C14.16351996 42.25767718 14.0779178 45.62862978 14 49 C11.68756208 49.02685412 9.3750373 49.04632841 7.0625 49.0625 C5.77472656 49.07410156 4.48695313 49.08570313 3.16015625 49.09765625 C0 49 0 49 -1 48 C-1.0979295 46.63980137 -1.12798066 45.2746073 -1.12939453 43.91088867 C-1.13254669 43.04296188 -1.13569885 42.1750351 -1.13894653 41.2808075 C-1.1369223 40.33607071 -1.13489807 39.39133392 -1.1328125 38.41796875 C-1.13376923 37.45224442 -1.13472595 36.48652008 -1.13571167 35.49153137 C-1.13639378 33.44283992 -1.13453737 31.39414632 -1.13037109 29.34545898 C-1.12504061 26.2113761 -1.13030606 23.07743767 -1.13671875 19.94335938 C-1.13605763 17.95572885 -1.13477577 15.96809842 -1.1328125 13.98046875 C-1.13483673 13.04180466 -1.13686096 12.10314056 -1.13894653 11.1360321 C-1.13579437 10.25864883 -1.13264221 9.38126556 -1.12939453 8.47729492 C-1.12859894 7.7075383 -1.12780334 6.93778168 -1.12698364 6.1446991 C-0.99890319 3.98147539 -0.59462772 2.07935251 0 0 Z " fill="#EAEAEC" transform="translate(327,135)"/>
<path d="M0 0 C4.62 0 9.24 0 14 0 C14.33 0.99 14.66 1.98 15 3 C15.886875 2.505 16.77375 2.01 17.6875 1.5 C24.53180473 -1.40154095 32.96111745 -1.14336712 39.875 1.4375 C45.49797838 4.36807621 49.46685899 9.29034629 51.875 15.1171875 C54.28169352 23.7077463 52.9736734 31.16926784 49.00390625 38.953125 C45.83064957 44.00398339 41.69862029 47.21422066 36 49 C28.83178251 49.78566058 22.11657936 50.38899588 16 46 C15.97494385 46.57032959 15.9498877 47.14065918 15.92407227 47.72827148 C15.80843451 50.29826157 15.68556376 52.86785527 15.5625 55.4375 C15.50352539 56.78424805 15.50352539 56.78424805 15.44335938 58.15820312 C15.40146484 59.01220703 15.35957031 59.86621094 15.31640625 60.74609375 C15.27974854 61.53685303 15.24309082 62.3276123 15.20532227 63.14233398 C15 65 15 65 14 66 C9.38 66 4.76 66 0 66 C0 44.22 0 22.44 0 0 Z M17 15 C14.37824821 19.19874535 13.66354604 22.88601698 14.5625 27.75 C15.59310733 31.4398287 16.82956659 33.69423025 20 36 C23.65288193 37.21762731 26.15754136 37.39075851 30 37 C34.31226628 34.47773104 36.19563487 32.50486612 37.5625 27.6875 C38.34826795 22.88469383 37.57849763 19.12947365 35 15 C32.13592164 12.38141407 29.77236988 11.80971114 26 11.625 C22.22763012 11.80971114 19.86407836 12.38141407 17 15 Z " fill="#EAEAEC" transform="translate(419,135)"/>
<path d="M0 0 C0.495 0.99 0.495 0.99 1 2 C0.22265625 4.1640625 0.22265625 4.1640625 -0.9375 6.625 C-1.31777344 7.44226563 -1.69804687 8.25953125 -2.08984375 9.1015625 C-2.39019531 9.72804687 -2.69054687 10.35453125 -3 11 C-4.258125 10.67 -5.51625 10.34 -6.8125 10 C-12.30656391 8.77037617 -19.79452088 7.39726044 -25 10 C-25.65213292 12.02463255 -25.65213292 12.02463255 -26 14 C-25.42556152 14.10022461 -24.85112305 14.20044922 -24.25927734 14.30371094 C-21.62836244 14.77126422 -19.00190218 15.26042435 -16.375 15.75 C-15.01955078 15.98589844 -15.01955078 15.98589844 -13.63671875 16.2265625 C-7.64456644 17.36375929 -2.32275952 18.63064826 1.34375 23.94921875 C2.63860815 27.99565047 2.72593338 31.82427702 2 36 C-0.4960033 40.77882483 -3.95924856 43.39809131 -8.95043945 45.40893555 C-12.85990204 46.53636961 -16.77040731 46.4832078 -20.8125 46.4375 C-21.69454102 46.43427734 -22.57658203 46.43105469 -23.48535156 46.42773438 C-29.9316104 46.28961727 -35.36504817 45.32165581 -41 42 C-40.45660208 37.43545749 -39.20536179 34.0271824 -37 30 C-35.948125 30.433125 -35.948125 30.433125 -34.875 30.875 C-33.92625 31.24625 -32.9775 31.6175 -32 32 C-31.154375 32.37125 -30.30875 32.7425 -29.4375 33.125 C-24.31286192 34.42945333 -19.2598572 34.15319972 -14 34 C-13.67 32.68 -13.34 31.36 -13 30 C-16.3747134 28.97973781 -19.68677151 28.06217935 -23.1484375 27.375 C-29.77729322 26.04012745 -34.3500379 25.03745895 -39 20 C-41.00395204 15.99209592 -40.61758938 11.34710974 -40 7 C-37.87887591 2.64034643 -34.80787756 0.47253216 -30.6875 -1.9375 C-21.22160454 -4.87960264 -8.92851976 -4.14538418 0 0 Z " fill="#E8E9EB" transform="translate(290,138)"/>
<path d="M0 0 C-0.50797009 4.3177458 -1.19682779 8.03302114 -3 12 C-4.2375 11.773125 -5.475 11.54625 -6.75 11.3125 C-9.64212785 10.95930209 -10.7341429 10.87729672 -13.4375 12.125 C-15.46427525 14.25397818 -15.46427525 14.25397818 -16 19 C-12.04 19 -8.08 19 -4 19 C-4 22.3 -4 25.6 -4 29 C-7.96 29 -11.92 29 -16 29 C-16 40.88 -16 52.76 -16 65 C-20.29 65 -24.58 65 -29 65 C-29 53.45 -29 41.9 -29 30 C-31.64 30 -34.28 30 -37 30 C-37.19401633 28.18818595 -37.38004375 26.37551468 -37.5625 24.5625 C-37.66691406 23.55316406 -37.77132812 22.54382813 -37.87890625 21.50390625 C-37.91886719 20.67761719 -37.95882812 19.85132813 -38 19 C-37 18 -37 18 -35.15234375 17.90234375 C-33.1015625 17.93489583 -31.05078125 17.96744792 -29 18 C-29.12375 16.2365625 -29.12375 16.2365625 -29.25 14.4375 C-29.22503726 9.73618325 -28.021709 6.59510559 -25 3 C-18.54874544 -2.59108729 -7.90923839 -2.6364128 0 0 Z " fill="#F3F4F5" transform="translate(564,118)"/>
<path d="M0 0 C-3 2 -3 2 -6.0625 3.1875 C-9.32820165 4.78849129 -9.32820165 4.78849129 -10.3125 8.5 C-10.539375 9.655 -10.76625 10.81 -11 12 C-12 15 -13 18 -14 21 C-13.34 21 -12.68 21 -12 21 C-11.67 19.68 -11.34 18.36 -11 17 C-8.50689357 20.73965964 -8.9396739 22.29070641 -9.375 26.6875 C-9.48585938 27.86699219 -9.59671875 29.04648438 -9.7109375 30.26171875 C-9.80632812 31.16535156 -9.90171875 32.06898438 -10 33 C-8.68 32.34 -7.36 31.68 -6 31 C-6 31.66 -6 32.32 -6 33 C-5.16855469 32.36771484 -5.16855469 32.36771484 -4.3203125 31.72265625 C-3.23363281 30.90087891 -3.23363281 30.90087891 -2.125 30.0625 C-1.40570313 29.51722656 -0.68640625 28.97195312 0.0546875 28.41015625 C2 27 2 27 4 26 C4.268125 25.34 4.53625 24.68 4.8125 24 C6 22 6 22 8.4375 21.0625 C11 21 11 21 12.8125 22.125 C14.37509409 24.59225382 14.36796448 26.12987704 14 29 C12 31 12 31 9.5 31.25 C7 31 7 31 5 29 C-1.33523443 33.60646193 -1.33523443 33.60646193 -7 39 C-4.49122239 43.72808088 -1.80688753 47.58759939 1.828125 51.51953125 C3 53 3 53 3 55 C3.61875 55.28875 4.2375 55.5775 4.875 55.875 C7 57 7 57 9 59 C9.67673447 55.59679066 9.67673447 55.59679066 10 52 C9.34 51.34 8.68 50.68 8 50 C7.75 47 7.75 47 8 44 C8.66 43.34 9.32 42.68 10 42 C15.56818182 42.56818182 15.56818182 42.56818182 17 44 C17.25 46.9375 17.25 46.9375 17 50 C16.01 50.66 15.02 51.32 14 52 C12.32972365 55.75812179 12.76516403 59.16550934 14 63 C20.62503094 69.59689918 31.68335727 75.11812096 41.125 75.4375 C44.19080542 75.17844932 44.19080542 75.17844932 47 73 C51.54054054 73.54054054 51.54054054 73.54054054 53 75 C53.1875 77.9375 53.1875 77.9375 53 81 C51 83 51 83 48.5 83.25 C46 83 46 83 44 81 C44 80.01 44 79.02 44 78 C43.113125 78.103125 42.22625 78.20625 41.3125 78.3125 C32.09522504 78.3125 22.68620241 72.66733222 15 68 C16.21328294 71.65248925 16.21328294 71.65248925 18 75 C20.98395292 76.38401978 20.98395292 76.38401978 24 77 C24.99 77.99 24.99 77.99 26 79 C25.67028521 82.29714793 25.3773161 83.6226839 23 86 C20.5 85.9375 20.5 85.9375 18 85 C16.61080183 82.4994433 16.05391332 80.30807611 15.5625 77.5 C14.89802538 74.54677949 13.57122784 72.57681365 12 70 C11.79375 69.071875 11.5875 68.14375 11.375 67.1875 C9.58659471 63.04165137 6.95294884 61.1614548 3.53125 58.30078125 C-0.84147009 54.32619463 -4.38085871 49.65440392 -8 45 C-9.89061897 50.67185692 -7.11502063 56.72742389 -4.56640625 61.921875 C-3.53559422 63.78299199 -2.49034215 65.6361961 -1.4296875 67.48046875 C3 75.28688525 3 75.28688525 3 79 C4.32 79.33 5.64 79.66 7 80 C7 80.99 7 81.98 7 83 C-1.85421057 80.44813145 -8.6118275 74.74152683 -13.16015625 66.76171875 C-14.74768393 63.43160255 -15.1360905 60.74204715 -15.17700195 57.10473633 C-15.18983719 56.1097261 -15.20267242 55.11471588 -15.21589661 54.08955383 C-15.22328354 53.01457138 -15.23067047 51.93958893 -15.23828125 50.83203125 C-15.246353 49.72325119 -15.25442474 48.61447113 -15.26274109 47.47209167 C-15.27657951 45.122605 -15.28730274 42.77309825 -15.29516602 40.42358398 C-15.31234953 36.84384625 -15.35623591 33.26503906 -15.40039062 29.68554688 C-15.41052035 27.40104845 -15.41903558 25.11654218 -15.42578125 22.83203125 C-15.45204338 21.2347393 -15.45204338 21.2347393 -15.47883606 19.60517883 C-15.45954666 12.94077587 -14.55857174 8.67790983 -11 3 C-7.3788356 -0.0494016 -4.66010356 -0.3251235 0 0 Z M-9 35 C-8 37 -8 37 -8 37 Z M-14 55 C-13 57 -13 57 -13 57 Z M-13 58 C-12.53196233 63.64358182 -12.53196233 63.64358182 -9 68 C-9.99 64.7 -10.98 61.4 -12 58 C-12.33 58 -12.66 58 -13 58 Z M-9 68 C-8.67 68.99 -8.34 69.98 -8 71 C-8 70.01 -8 69.02 -8 68 C-8.33 68 -8.66 68 -9 68 Z M-7 71 C-6.67 71.99 -6.34 72.98 -6 74 C-6 73.01 -6 72.02 -6 71 C-6.33 71 -6.66 71 -7 71 Z " fill="#9D44DD" transform="translate(124,112)"/>
<path d="M0 0 C4.62 0 9.24 0 14 0 C15.36846017 2.73692034 15.12719623 4.91503529 15.12939453 7.97851562 C15.13254669 9.23321655 15.13569885 10.48791748 15.13894653 11.78063965 C15.13715669 13.15584345 15.13510573 14.53104694 15.1328125 15.90625 C15.13348586 17.31107602 15.13445616 18.71590192 15.13571167 20.12072754 C15.13718711 23.06633614 15.13503901 26.01191445 15.13037109 28.95751953 C15.12467389 32.73731142 15.12795371 36.51703231 15.13394356 40.29682159 C15.1375533 43.19810524 15.13640868 46.09937198 15.13381577 49.00065613 C15.13314764 50.39454659 15.13397093 51.78843858 15.13629532 53.18232727 C15.13882855 55.12871268 15.13428439 57.07510346 15.12939453 59.02148438 C15.12859894 60.13019897 15.12780334 61.23891357 15.12698364 62.38122559 C15 65 15 65 14 67 C9.38 67 4.76 67 0 67 C0 44.89 0 22.78 0 0 Z " fill="#E3E4E4" transform="translate(480,117)"/>
<path d="M0 0 C1.93166016 0.01740234 1.93166016 0.01740234 3.90234375 0.03515625 C5.19269531 0.04417969 6.48304688 0.05320313 7.8125 0.0625 C8.81152344 0.07410156 9.81054688 0.08570313 10.83984375 0.09765625 C11.16984375 1.41765625 11.49984375 2.73765625 11.83984375 4.09765625 C12.43796875 3.62328125 13.03609375 3.14890625 13.65234375 2.66015625 C16.7964588 0.41435979 19.26543788 -0.02651434 23.02734375 0.03515625 C24.91453125 0.06609375 24.91453125 0.06609375 26.83984375 0.09765625 C26.83984375 4.38765625 26.83984375 8.67765625 26.83984375 13.09765625 C25.27234375 13.34515625 23.70484375 13.59265625 22.08984375 13.84765625 C17.88111624 14.69297351 15.34366406 15.39635666 12.83984375 19.09765625 C11.78018641 22.32519589 11.73697187 25.28626294 11.77734375 28.66796875 C11.78507813 29.72886719 11.7928125 30.78976563 11.80078125 31.8828125 C11.81367187 32.98496094 11.8265625 34.08710938 11.83984375 35.22265625 C11.86527994 37.41271179 11.88633782 39.60282398 11.90234375 41.79296875 C11.91394531 42.76250488 11.92554688 43.73204102 11.9375 44.73095703 C11.83984375 47.09765625 11.83984375 47.09765625 10.83984375 49.09765625 C8.52740583 49.12451037 6.21488105 49.14398466 3.90234375 49.16015625 C2.61457031 49.17175781 1.32679688 49.18335938 0 49.1953125 C-3.16015625 49.09765625 -3.16015625 49.09765625 -4.16015625 48.09765625 C-4.25838369 46.62960333 -4.28813995 45.15688165 -4.28955078 43.68554688 C-4.29427902 42.2790387 -4.29427902 42.2790387 -4.29910278 40.84411621 C-4.29707855 39.82434692 -4.29505432 38.80457764 -4.29296875 37.75390625 C-4.29392548 36.71447876 -4.2948822 35.67505127 -4.29586792 34.60412598 C-4.29654988 32.40161071 -4.29469452 30.19909346 -4.29052734 27.99658203 C-4.28517933 24.61225906 -4.29047184 21.22806881 -4.296875 17.84375 C-4.29621422 15.70963512 -4.29493306 13.57552033 -4.29296875 11.44140625 C-4.29499298 10.42163696 -4.29701721 9.40186768 -4.29910278 8.35119629 C-4.29595062 7.41352417 -4.29279846 6.47585205 -4.28955078 5.50976562 C-4.28875519 4.68005249 -4.28795959 3.85033936 -4.28713989 2.9954834 C-4.06795469 -0.28033716 -3.35625541 0.10371617 0 0 Z " fill="#E4E5E7" transform="translate(624.16015625,134.90234375)"/>
<path d="M0 0 C4.95 0 9.9 0 15 0 C16.20895702 2.41791404 16.08661844 3.84496725 16.02172852 6.54150391 C15.99158409 7.95274033 15.99158409 7.95274033 15.96083069 9.39248657 C15.92027809 10.91910416 15.92027809 10.91910416 15.87890625 12.4765625 C15.85529526 13.51694672 15.83168427 14.55733093 15.80735779 15.62924194 C15.73061424 18.96129644 15.64663584 22.29312475 15.5625 25.625 C15.50929003 27.88019716 15.45654956 30.13540545 15.40429688 32.390625 C15.2749846 37.92722732 15.1391823 43.46363736 15 49 C10.05 49 5.1 49 0 49 C0 32.83 0 16.66 0 0 Z " fill="#E4E4E6" transform="translate(506,135)"/>
<path d="M0 0 C3.69181703 1.01270131 7.08523763 1.68379517 10.90869141 1.80004883 C15.55023826 2.62354908 16.84444263 3.89716228 19.56494141 7.57739258 C23.78369141 14.18947191 23.78369141 14.18947191 23.78369141 18.48754883 C18.56102105 17.82552019 15.95707252 15.42524246 12.06494141 12.08129883 C9.58629699 10.34964314 7.75662369 9.8643994 4.78369141 9.48754883 C4.45369141 10.47754883 4.12369141 11.46754883 3.78369141 12.48754883 C4.27869141 12.98254883 4.27869141 12.98254883 4.78369141 13.48754883 C4.97119141 15.92504883 4.97119141 15.92504883 4.78369141 18.48754883 C2.78369141 20.48754883 2.78369141 20.48754883 -0.15380859 20.73754883 C-3.21630859 20.48754883 -3.21630859 20.48754883 -6.21630859 18.48754883 C-5.52880859 15.61254883 -5.52880859 15.61254883 -4.21630859 12.48754883 C-1.71630859 11.36254883 -1.71630859 11.36254883 0.78369141 10.48754883 C1.95689606 8.48537338 1.95689606 8.48537338 2.78369141 6.48754883 C-12.9858624 2.41087405 -28.00380173 3.27045791 -42.40380859 11.17504883 C-53.92179685 18.55173794 -61.8338162 29.23524653 -65.21630859 42.48754883 C-65.60050858 44.47840329 -65.95847181 46.47642195 -66.21630859 48.48754883 C-66.54630859 48.48754883 -66.87630859 48.48754883 -67.21630859 48.48754883 C-67.19890625 47.27518555 -67.19890625 47.27518555 -67.18115234 46.03833008 C-67.17212891 44.96969727 -67.16310547 43.90106445 -67.15380859 42.80004883 C-67.14220703 41.74430664 -67.13060547 40.68856445 -67.11865234 39.60083008 C-67.09860581 36.54573405 -67.09860581 36.54573405 -67.89208984 33.90942383 C-68.33725322 30.58410701 -67.26986735 29.20338815 -65.46630859 26.42504883 C-64.93521484 25.58844727 -64.40412109 24.7518457 -63.85693359 23.88989258 C-62.36615603 21.70696829 -60.82451148 19.58499416 -59.21630859 17.48754883 C-59.54630859 16.82754883 -59.87630859 16.16754883 -60.21630859 15.48754883 C-59.53568359 15.28129883 -58.85505859 15.07504883 -58.15380859 14.86254883 C-55.51776292 13.62865511 -54.17704837 12.6574346 -52.09130859 10.73754883 C-37.4622481 -2.10595182 -18.30160883 -5.03155368 0 0 Z M13.78369141 5.48754883 C14.77369141 6.47754883 15.76369141 7.46754883 16.78369141 8.48754883 C16.45369141 7.49754883 16.12369141 6.50754883 15.78369141 5.48754883 C15.12369141 5.48754883 14.46369141 5.48754883 13.78369141 5.48754883 Z " fill="#8F3DCF" transform="translate(181.21630859375,95.512451171875)"/>
<path d="M0 0 C4.62 0 9.24 0 14 0 C14 16.17 14 32.34 14 49 C9.38 49 4.76 49 0 49 C0 32.83 0 16.66 0 0 Z " fill="#F1F2F3" transform="translate(300,135)"/>
<path d="M0 0 C0.94875 0.04125 1.8975 0.0825 2.875 0.125 C3.205 1.445 3.535 2.765 3.875 4.125 C5.298125 4.0321875 5.298125 4.0321875 6.75 3.9375 C19.55432783 4.01494553 28.91043519 11.8688068 37.875 20.125 C38.865 19.465 39.855 18.805 40.875 18.125 C40.83375 17.196875 40.7925 16.26875 40.75 15.3125 C40.875 12.125 40.875 12.125 43.1875 9.25 C45.875 7.125 45.875 7.125 48.875 7.125 C50.72151134 10.24098788 51.25579379 12.50745897 50.875 16.125 C48.875 18.125 48.875 18.125 45.8125 19.125 C42.75349194 19.78252556 42.75349194 19.78252556 41.875 22.125 C41.215 22.125 40.555 22.125 39.875 22.125 C40.27332031 22.84945312 40.67164063 23.57390625 41.08203125 24.3203125 C42.17491491 26.31462575 43.26193421 28.31216137 44.34375 30.3125 C45.429876 32.30742531 46.54788221 34.28514174 47.6875 36.25 C49.0740661 39.60694952 49.36412557 42.56760103 49.56640625 46.171875 C49.71553592 48.35759501 49.71553592 48.35759501 51.875 50.125 C52.125 53.125 52.125 53.125 51.875 56.125 C49.875 58.125 49.875 58.125 47.375 58.375 C44.875 58.125 44.875 58.125 42.875 56.125 C42.75 53 42.75 53 42.875 50.125 C44.855 49.63 44.855 49.63 46.875 49.125 C46.72194977 40.24808677 43.02815766 33.74815884 38.875 26.125 C34.05077022 26.73270336 30.3481291 28.81387246 26.125 31.0625 C20.41001896 34.02698332 15.30868906 36.20590156 8.875 37.125 C8.545 38.445 8.215 39.765 7.875 41.125 C4.905 41.62 4.905 41.62 1.875 42.125 C0.25 40.4375 0.25 40.4375 -1.125 38.125 C-0.625 35.4375 -0.625 35.4375 0.875 33.125 C3.375 32.25 3.375 32.25 5.875 32.125 C6.535 32.455 7.195 32.785 7.875 33.125 C7.875 33.785 7.875 34.445 7.875 35.125 C17.63540444 32.36227845 26.09025876 28.0694172 34.875 23.125 C30.41771596 14.79616476 22.16037482 10.65871789 13.4296875 7.77734375 C10.00273082 6.9022646 7.38575137 6.67681897 3.875 7.125 C3.215 7.785 2.555 8.445 1.875 9.125 C-0.625 9.375 -0.625 9.375 -3.125 9.125 C-5.125 7.125 -5.125 7.125 -5.375 4.625 C-4.98192433 0.69424327 -3.8631953 0.15452781 0 0 Z " fill="#7F848F" transform="translate(154.125,109.875)"/>
<path d="M0 0 C5.56818182 0.56818182 5.56818182 0.56818182 7 2 C7.25 4.9375 7.25 4.9375 7 8 C6.01 8.66 5.02 9.32 4 10 C2.32972365 13.75812179 2.76516403 17.16550934 4 21 C10.62503094 27.59689918 21.68335727 33.11812096 31.125 33.4375 C34.19080542 33.17844932 34.19080542 33.17844932 37 31 C41.54054054 31.54054054 41.54054054 31.54054054 43 33 C43.1875 35.9375 43.1875 35.9375 43 39 C41 41 41 41 38.5 41.25 C36 41 36 41 34 39 C34 38.01 34 37.02 34 36 C33.113125 36.103125 32.22625 36.20625 31.3125 36.3125 C22.09522504 36.3125 12.68620241 30.66733222 5 26 C6.21328294 29.65248925 6.21328294 29.65248925 8 33 C10.98395292 34.38401978 10.98395292 34.38401978 14 35 C14.66 35.66 15.32 36.32 16 37 C15.67028521 40.29714793 15.3773161 41.6226839 13 44 C10.5 43.9375 10.5 43.9375 8 43 C6.61080183 40.4994433 6.05391332 38.30807611 5.5625 35.5 C5.12585439 32.91997128 5.12585439 32.91997128 3.5625 30.6875 C0.06659248 24.67453906 -0.21062068 18.87690497 0.125 12.1015625 C0.22011977 9.77753638 0.22011977 9.77753638 -2 8 C-2.25 5 -2.25 5 -2 2 C-1.34 1.34 -0.68 0.68 0 0 Z " fill="#797D87" transform="translate(134,154)"/>
<path d="M0 0 C7.27244582 0.75232198 7.27244582 0.75232198 10.9375 2 C13.73981152 2.9150405 15.60925297 3.08615495 18.5 3.1875 C22.23474598 3.53959726 23.89016307 4.368879 26.375 7.1875 C29.30911627 11.15670729 32 14.94625855 32 20 C26.77732965 19.33797136 24.17338111 16.93769363 20.28125 13.59375 C17.80260558 11.86209431 15.97293228 11.37685057 13 11 C12.67 11.99 12.34 12.98 12 14 C12.33 14.33 12.66 14.66 13 15 C13.1875 17.4375 13.1875 17.4375 13 20 C11 22 11 22 8.0625 22.25 C5 22 5 22 2 20 C2.6875 17.125 2.6875 17.125 4 14 C6.5 12.875 6.5 12.875 9 12 C9.66 10.68 10.32 9.36 11 8 C6.545 7.01 6.545 7.01 2 6 C2 5.67 2 5.34 2 5 C3.65 4.67 5.3 4.34 7 4 C4.69 3.01 2.38 2.02 0 1 C0 0.67 0 0.34 0 0 Z M22 7 C22.99 7.99 23.98 8.98 25 10 C24.67 9.01 24.34 8.02 24 7 C23.34 7 22.68 7 22 7 Z " fill="#843AC0" transform="translate(173,94)"/>
<path d="M0 0 C-3 2 -3 2 -6.0625 3.1875 C-9.32820165 4.78849129 -9.32820165 4.78849129 -10.3125 8.5 C-10.539375 9.655 -10.76625 10.81 -11 12 C-12 15 -13 18 -14 21 C-13.34 21 -12.68 21 -12 21 C-11.67 19.68 -11.34 18.36 -11 17 C-8.50689357 20.73965964 -8.9396739 22.29070641 -9.375 26.6875 C-9.48585938 27.86699219 -9.59671875 29.04648438 -9.7109375 30.26171875 C-9.80632812 31.16535156 -9.90171875 32.06898438 -10 33 C-8.68 32.34 -7.36 31.68 -6 31 C-6 31.66 -6 32.32 -6 33 C-5.16855469 32.36771484 -5.16855469 32.36771484 -4.3203125 31.72265625 C-3.23363281 30.90087891 -3.23363281 30.90087891 -2.125 30.0625 C-1.40570313 29.51722656 -0.68640625 28.97195312 0.0546875 28.41015625 C2 27 2 27 4 26 C4.268125 25.34 4.53625 24.68 4.8125 24 C6 22 6 22 8.4375 21.0625 C11 21 11 21 12.8125 22.125 C14.37509409 24.59225382 14.36796448 26.12987704 14 29 C12 31 12 31 9.5 31.25 C7 31 7 31 5 29 C0.61105071 32.26720791 -3.75259665 35.54898478 -8 39 C-9.4375 38 -9.4375 38 -11 36 C-11.33 33.36 -11.66 30.72 -12 28 C-12.66 35.26 -13.32 42.52 -14 50 C-14.33 50 -14.66 50 -15 50 C-15.09940554 44.59233876 -15.17172051 39.18521772 -15.21972656 33.77685547 C-15.23975373 31.93984707 -15.26698382 30.10290171 -15.30175781 28.26611328 C-15.35067065 25.61474998 -15.37305763 22.96423459 -15.390625 20.3125 C-15.41127014 19.50071289 -15.43191528 18.68892578 -15.45318604 17.85253906 C-15.45540379 12.12540977 -14.22909473 7.77900972 -11 3 C-7.3788356 -0.0494016 -4.66010356 -0.3251235 0 0 Z M-9 35 C-8 37 -8 37 -8 37 Z " fill="#9546D0" transform="translate(124,112)"/>
<path d="M0 0 C2.71372659 2.00579792 3.03939963 3.17275223 3.8125 6.5625 C3.874375 7.696875 3.93625 8.83125 4 10 C2 12 2 12 -1.0625 13 C-4.12150806 13.65752556 -4.12150806 13.65752556 -5 16 C-5.66 16 -6.32 16 -7 16 C-6.60167969 16.72445312 -6.20335937 17.44890625 -5.79296875 18.1953125 C-4.70008509 20.18962575 -3.61306579 22.18716137 -2.53125 24.1875 C-1.445124 26.18242531 -0.32711779 28.16014174 0.8125 30.125 C2.1990661 33.48194952 2.48912557 36.44260103 2.69140625 40.046875 C2.84053592 42.23259501 2.84053592 42.23259501 5 44 C5.25 47 5.25 47 5 50 C3 52 3 52 0.5 52.25 C-2 52 -2 52 -4 50 C-4.125 46.875 -4.125 46.875 -4 44 C-2.02 43.505 -2.02 43.505 0 43 C-0.14914107 34.349818 -3.74771348 24.25228652 -10 18 C-9.34 18 -8.68 18 -8 18 C-8.33 17.01 -8.66 16.02 -9 15 C-8.505 14.62875 -8.01 14.2575 -7.5 13.875 C-5.6830008 12.02529775 -5.6830008 12.02529775 -6.125 9.125 C-6 6 -6 6 -3.5625 3.1875 C-2.716875 2.465625 -1.87125 1.74375 -1 1 C-0.67 0.67 -0.34 0.34 0 0 Z " fill="#8A8F9A" transform="translate(201,116)"/>
<path d="M0 0 C2.5 2.125 2.5 2.125 4 5 C4 8.71309209 3.79606866 10.97174465 1.5 13.9375 C-2.33475631 15.56727143 -5.90320577 15.66150072 -10 15 C-12.5625 13.4375 -12.5625 13.4375 -14 11 C-14.5 7.5 -14.5 7.5 -14 4 C-10.02733022 -1.2055673 -6.1711469 -1.51572029 0 0 Z " fill="#E3E4E6" transform="translate(519,114)"/>
<path d="M0 0 C2.1398096 2.55131145 2.19669335 4.73001505 1.9921875 7.99609375 C1.625 9.9375 1.625 9.9375 0.25 12.4375 C-3.84989884 14.78029934 -7.77767159 14.80664666 -12.375 13.9375 C-15.0625 11.875 -15.0625 11.875 -16.375 8.9375 C-16.3137431 5.38459956 -16.12107699 3.00332427 -14.0625 0.0625 C-9.46491569 -3.0025562 -4.89434718 -2.18957637 0 0 Z " fill="#E3E4E6" transform="translate(314.375,115.0625)"/>
<path d="M0 0 C0.33 0 0.66 0 1 0 C1.33 3.96 1.66 7.92 2 12 C2.66 12 3.32 12 4 12 C5.19303945 13.70434207 6.30532251 15.46564716 7.375 17.25 C9.63105102 21.00677219 11.90517992 23.91881349 15 27 C15 27.66 15 28.32 15 29 C15.61875 29.28875 16.2375 29.5775 16.875 29.875 C19 31 19 31 21 33 C21.33 31.02 21.66 29.04 22 27 C22.33 27 22.66 27 23 27 C23 29.97 23 32.94 23 36 C19.19849398 36 17.8137174 34.52169212 15.05078125 32.06640625 C11.02345915 28.00839979 7.52568474 23.49304949 4 19 C2.96840374 22.09478879 3.02517138 23.52631393 3.4375 26.6875 C3.59025391 27.89986328 3.59025391 27.89986328 3.74609375 29.13671875 C3.82988281 29.75160156 3.91367188 30.36648437 4 31 C2.68 30.34 1.36 29.68 0 29 C0 28.34 0 27.68 0 27 C-0.66 27 -1.32 27 -2 27 C-2 28.98 -2 30.96 -2 33 C-2.33 33 -2.66 33 -3 33 C-2.88884865 29.18696663 -2.758531 25.37481006 -2.625 21.5625 C-2.57859375 19.95858398 -2.57859375 19.95858398 -2.53125 18.32226562 C-2.29780172 11.96080006 -1.59489423 6.16562769 0 0 Z " fill="#AE69E2" transform="translate(112,138)"/>
<path d="M0 0 C0.67095703 0.58007812 0.67095703 0.58007812 1.35546875 1.171875 C3.23142602 2.78783819 5.11566983 4.3938142 7 6 C7.9075 6.78375 8.815 7.5675 9.75 8.375 C11.94276455 10.29274528 11.94276455 10.29274528 15 10 C15.33 10.66 15.66 11.32 16 12 C27.70520383 17.71407879 39.24848655 17.59879235 52 17 C48.71252584 19.19164944 47.51505175 19.28679386 43.67578125 19.4140625 C42.64775391 19.45273438 41.61972656 19.49140625 40.56054688 19.53125 C38.95276367 19.57765625 38.95276367 19.57765625 37.3125 19.625 C36.22904297 19.66367188 35.14558594 19.70234375 34.02929688 19.7421875 C31.35303533 19.83650509 28.67678157 19.92210005 26 20 C26.66 20.66 27.32 21.32 28 22 C17.74672499 21.79895539 8.32679204 15.90811821 1 9 C1.66 8.34 2.32 7.68 3 7 C3 7.66 3 8.32 3 9 C3.66 9 4.32 9 5 9 C4.67 8.01 4.34 7.02 4 6 C3.01 5.67 2.02 5.34 1 5 C0.67 3.35 0.34 1.7 0 0 Z " fill="#8F3CD0" transform="translate(126,186)"/>
<path d="M0 0 C7.52171111 7.07925752 13.1104329 14.93683099 16 25 C15.62890625 27.359375 15.62890625 27.359375 15 29 C14.67 28.67 14.34 28.34 14 28 C13.67 30.97 13.34 33.94 13 37 C12.67 37 12.34 37 12 37 C11.85304687 36.09121094 11.85304687 36.09121094 11.703125 35.1640625 C9.62616659 23.52593347 5.28592417 15.30193232 -2 6 C-1.01 5.67 -0.02 5.34 1 5 C0.67 3.35 0.34 1.7 0 0 Z " fill="#8F3CCE" transform="translate(204,109)"/>
<path d="M0 0 C-0.58984375 2.38671875 -0.58984375 2.38671875 -2 5 C-11.62378382 8.74471269 -21.97808648 8.70585762 -32 7 C-32 6.34 -32 5.68 -32 5 C-32.99 4.67 -33.98 4.34 -35 4 C-35 3.67 -35 3.34 -35 3 C-34.30962646 2.98018066 -33.61925293 2.96036133 -32.90795898 2.93994141 C-29.75078529 2.84411707 -26.59422178 2.73467186 -23.4375 2.625 C-22.35146484 2.5940625 -21.26542969 2.563125 -20.14648438 2.53125 C-13.27609264 2.2806582 -6.68893658 0 0 0 Z " fill="#A147E5" transform="translate(186,202)"/>
<path d="M0 0 C4 2 4 2 4.74609375 4.07421875 C5.08646909 7.99638999 5.10537566 11.87783411 5.0625 15.8125 C5.05798828 16.60076172 5.05347656 17.38902344 5.04882812 18.20117188 C5.03711312 20.13414761 5.01917998 22.06708393 5 24 C4.01 24 3.02 24 2 24 C2 26.31 2 28.62 2 31 C1.01 31.33 0.02 31.66 -1 32 C-0.67 21.44 -0.34 10.88 0 0 Z " fill="#873EC4" transform="translate(217,136)"/>
<path d="M0 0 C0.33 1.32 0.66 2.64 1 4 C1.91265625 3.89171875 1.91265625 3.89171875 2.84375 3.78125 C11.24449341 2.89175952 19.565624 2.90475611 28 3 C28 3.33 28 3.66 28 4 C23.38 4.33 18.76 4.66 14 5 C13.67 8.63 13.34 12.26 13 16 C9.04 16 5.08 16 1 16 C1 27.88 1 39.76 1 52 C-3.62 52 -8.24 52 -13 52 C-13 51.67 -13 51.34 -13 51 C-8.71 51 -4.42 51 0 51 C0 39.12 0 27.24 0 15 C3.96 15 7.92 15 12 15 C12 11.7 12 8.4 12 5 C8.04 5 4.08 5 0 5 C0 3.35 0 1.7 0 0 Z " fill="#6E7179" transform="translate(548,132)"/>
<path d="M0 0 C5.56818182 0.56818182 5.56818182 0.56818182 7 2 C7.25 4.9375 7.25 4.9375 7 8 C6.01 8.66 5.02 9.32 4 10 C3.19907746 12.64691668 3.19907746 12.64691668 2.8125 15.625 C2.65394531 16.62789062 2.49539062 17.63078125 2.33203125 18.6640625 C2.22246094 19.43492187 2.11289063 20.20578125 2 21 C1.34 20.67 0.68 20.34 0 20 C0.02320313 19.30132812 0.04640625 18.60265625 0.0703125 17.8828125 C0.08835938 16.97273438 0.10640625 16.06265625 0.125 15.125 C0.15980469 13.76761719 0.15980469 13.76761719 0.1953125 12.3828125 C0.24324836 9.81193006 0.24324836 9.81193006 -2 8 C-2.25 5 -2.25 5 -2 2 C-1.34 1.34 -0.68 0.68 0 0 Z " fill="#CACED2" transform="translate(134,154)"/>
<path d="M0 0 C2.625 -0.4375 2.625 -0.4375 6 0 C10.14919835 3.43279 12.97685202 8.05452715 15 13 C15 13.99 15 14.98 15 16 C10.07395127 15.56534864 7.48108776 13.40373025 4 10 C2.625 7.1875 2.625 7.1875 2 5 C2.99 5 3.98 5 5 5 C5.66 5.66 6.32 6.32 7 7 C7.66 7 8.32 7 9 7 C6.75041666 4.41666771 6.75041666 4.41666771 4 2 C2.68 2 1.36 2 0 2 C0 1.34 0 0.68 0 0 Z " fill="#9440D1" transform="translate(190,98)"/>
<path d="M0 0 C2.71372659 2.00579792 3.03939963 3.17275223 3.8125 6.5625 C3.874375 7.696875 3.93625 8.83125 4 10 C2 12 2 12 -1 12.3125 C-1.99 12.209375 -2.98 12.10625 -4 12 C-6 9 -6 9 -5.9375 6.5625 C-4.71636852 3.22474062 -2.87676906 1.99160935 0 0 Z " fill="#BEBFC3" transform="translate(201,116)"/>
<path d="M0 0 C-0.33 0.66 -0.66 1.32 -1 2 C-12.385 1.505 -12.385 1.505 -24 1 C-23.67 0.01 -23.34 -0.98 -23 -2 C-15.49827588 -4.90607331 -7.03935625 -3.18763302 0 0 Z " fill="#AA46F0" transform="translate(181,97)"/>
<path d="M0 0 C1 1 1 1 1.1875 3.9375 C1 7 1 7 -1 9 C-3.5 9.25 -3.5 9.25 -6 9 C-6.66 8.34 -7.32 7.68 -8 7 C-8 6.01 -8 5.02 -8 4 C-9.32 3.67 -10.64 3.34 -12 3 C-10.35 3 -8.7 3 -7 3 C-7 2.01 -7 1.02 -7 0 C-4.31633121 -1.3418344 -2.84719317 -0.73004953 0 0 Z " fill="#CED0D4" transform="translate(176,186)"/>
<path d="M0 0 C6.72 0.72 6.72 0.72 8 2 C8.1875 4.4375 8.1875 4.4375 8 7 C6 9 6 9 3.0625 9.25 C0 9 0 9 -3 7 C-1.125 1.125 -1.125 1.125 0 0 Z " fill="#CACCCF" transform="translate(178,107)"/>
<path d="M0 0 C0.625 3.375 0.625 3.375 1 7 C-1 9 -1 9 -3.625 9.125 C-4.40875 9.08375 -5.1925 9.0425 -6 9 C-6.33 8.01 -6.66 7.02 -7 6 C-7.66 6 -8.32 6 -9 6 C-8.39816251 3.97954558 -7.72693904 1.97888961 -7 0 C-4.3333581 -1.33332095 -2.83319697 -0.67102033 0 0 Z " fill="#C8CACE" transform="translate(137,134)"/>
<path d="M0 0 C0 0.99 0 1.98 0 3 C0.66 3.33 1.32 3.66 2 4 C1.375 5.9375 1.375 5.9375 0 8 C-3.125 8.75 -3.125 8.75 -6 9 C-7.625 7.3125 -7.625 7.3125 -9 5 C-8.3125 2.3125 -8.3125 2.3125 -7 0 C-4.3333581 -1.33332095 -2.83319697 -0.67102033 0 0 Z " fill="#CCCFD3" transform="translate(162,143)"/>
<path d="M0 0 C0.66 0 1.32 0 2 0 C2.33 1.32 2.66 2.64 3 4 C-3.46060282 8.06645019 -9.95671323 11.63162019 -17 14.5625 C-17.63429932 14.83787598 -18.26859863 15.11325195 -18.92211914 15.39697266 C-21.81750374 16.55636401 -23.42937744 17.19843765 -26.4375 16.15234375 C-26.953125 15.77207031 -27.46875 15.39179688 -28 15 C-27.30777344 14.8040625 -26.61554688 14.608125 -25.90234375 14.40625 C-19.54515102 12.46307647 -13.68221025 10.02466368 -7.8125 6.9375 C-7.15306396 6.5971875 -6.49362793 6.256875 -5.81420898 5.90625 C-1.89087335 3.87942623 -1.89087335 3.87942623 0 0 Z " fill="#8D929D" transform="translate(190,130)"/>
<path d="M0 0 C0.515625 0.66 1.03125 1.32 1.5625 2 C4.14343526 5.17653571 6.85507957 8.20421557 9.609375 11.23046875 C11 13 11 13 11 15 C11.928125 15.433125 11.928125 15.433125 12.875 15.875 C15 17 15 17 17 19 C17.33 17.02 17.66 15.04 18 13 C18.33 13 18.66 13 19 13 C19 15.97 19 18.94 19 22 C15.27045306 22 13.90601805 20.67775148 11.18359375 18.265625 C6.33816729 13.23817 2.21114313 7.55901353 -2 2 C-1.34 1.34 -0.68 0.68 0 0 Z " fill="#727780" transform="translate(116,152)"/>
<path d="M0 0 C3.5 0.125 3.5 0.125 4.5 1.125 C4.6875 4.0625 4.6875 4.0625 4.5 7.125 C2.5 9.125 2.5 9.125 0 9.375 C-2.5 9.125 -2.5 9.125 -4.5 7.125 C-4.6875 4.0625 -4.6875 4.0625 -4.5 1.125 C-3.5 0.125 -3.5 0.125 0 0 Z " fill="#D7D8DD" transform="translate(201.5,158.875)"/>
<path d="M0 0 C2.9375 0.1875 2.9375 0.1875 3.9375 1.1875 C4.125 4.125 4.125 4.125 3.9375 7.1875 C1.9375 9.1875 1.9375 9.1875 -0.5625 9.4375 C-3.0625 9.1875 -3.0625 9.1875 -5.0625 7.1875 C-5.3125 4.6875 -5.3125 4.6875 -5.0625 2.1875 C-3.0625 0.1875 -3.0625 0.1875 0 0 Z " fill="#CCCDD1" transform="translate(154.0625,109.8125)"/>
<path d="M0 0 C3 -0.3125 3 -0.3125 6 0 C6.66 0.66 7.32 1.32 8 2 C7.67028521 5.29714793 7.3773161 6.6226839 5 9 C2.5 8.9375 2.5 8.9375 0 8 C-1.4375 5.625 -1.4375 5.625 -2 3 C-1.34 2.01 -0.68 1.02 0 0 Z " fill="#D8D9DC" transform="translate(142,189)"/>
<path d="M0 0 C0.66 0.33 1.32 0.66 2 1 C2 4.96 2 8.92 2 13 C1.34 13 0.68 13 0 13 C0 15.31 0 17.62 0 20 C-0.99 20.33 -1.98 20.66 -3 21 C-3.125 15.25 -3.125 15.25 -2 13 C-1.79670732 11.17036589 -1.63527804 9.33591632 -1.5 7.5 C-1.11111111 2.22222222 -1.11111111 2.22222222 0 0 Z " fill="#AC44F4" transform="translate(219,147)"/>
<path d="M0 0 C0.33 0 0.66 0 1 0 C1.33 3.96 1.66 7.92 2 12 C2.66 12 3.32 12 4 12 C4 15 4 15 2.6875 16.38671875 C1.125 17.59114583 -0.4375 18.79557292 -2 20 C-2.23668569 12.96517526 -1.7879537 6.8165735 0 0 Z " fill="#AF48F7" transform="translate(112,138)"/>
<path d="M0 0 C0.92941406 0.16371094 1.85882813 0.32742187 2.81640625 0.49609375 C7.84729229 1.21479176 12.86616509 1.10756313 17.9375 1.0625 C19.3925293 1.05573242 19.3925293 1.05573242 20.87695312 1.04882812 C23.2513676 1.0371315 25.62565021 1.02074086 28 1 C24.60102327 3.26598448 23.43680827 3.23742654 19.45703125 3.1953125 C17.84731445 3.18564453 17.84731445 3.18564453 16.20507812 3.17578125 C14.52575195 3.15064453 14.52575195 3.15064453 12.8125 3.125 C11.68134766 3.11597656 10.55019531 3.10695312 9.38476562 3.09765625 C6.58963172 3.07406862 3.79492155 3.041153 1 3 C0.67 2.01 0.34 1.02 0 0 Z M-4 3 C0.55384615 2.63076923 0.55384615 2.63076923 2.8125 4.5 C3.204375 4.995 3.59625 5.49 4 6 C1.36 5.67 -1.28 5.34 -4 5 C-4 4.34 -4 3.68 -4 3 Z " fill="#7530AF" transform="translate(150,202)"/>
<path d="M0 0 C-3 2 -3 2 -6.0625 3.1875 C-9.32820165 4.78849129 -9.32820165 4.78849129 -10.3125 8.5 C-10.539375 9.655 -10.76625 10.81 -11 12 C-12 15 -12 15 -14 18 C-15.34298558 12.62805768 -14.97507112 9.57752294 -12.234375 4.734375 C-8.96823669 0.14524396 -5.37036655 -0.37467674 0 0 Z " fill="#6D7180" transform="translate(124,112)"/>
<path d="M0 0 C0 0.33 0 0.66 0 1 C-1.39025391 1.18175781 -1.39025391 1.18175781 -2.80859375 1.3671875 C-4.00613281 1.53476563 -5.20367187 1.70234375 -6.4375 1.875 C-7.63246094 2.03742188 -8.82742187 2.19984375 -10.05859375 2.3671875 C-11.51458984 2.68042969 -11.51458984 2.68042969 -13 3 C-13.33 3.66 -13.66 4.32 -14 5 C-8.39 5 -2.78 5 3 5 C3 5.33 3 5.66 3 6 C-7.395 6.495 -7.395 6.495 -18 7 C-18 6.34 -18 5.68 -18 5 C-17.01 5 -16.02 5 -15 5 C-15 4.34 -15 3.68 -15 3 C-16.98 3 -18.96 3 -21 3 C-14.49193196 -0.75465464 -7.27186141 -0.1164533 0 0 Z " fill="#672C99" transform="translate(171,93)"/>
<path d="M0 0 C0.99 0.33 1.98 0.66 3 1 C3.33 2.65 3.66 4.3 4 6 C4.66 6 5.32 6 6 6 C6 4.35 6 2.7 6 1 C8.29633824 4.44450737 8.54016485 6.93812283 9 11 C8.34 10.67 7.68 10.34 7 10 C6.67 12.97 6.34 15.94 6 19 C5.67 19 5.34 19 5 19 C4.89042969 18.38253906 4.78085938 17.76507813 4.66796875 17.12890625 C3.5622734 11.22287499 2.04638565 5.64802441 0 0 Z " fill="#8136BB" transform="translate(211,127)"/>
<path d="M0 0 C3.61061078 0.7624348 6.84903073 2.14811586 10.25 3.5625 C15.52291586 5.63124264 19.38541429 6.55044958 25 6 C25 6.66 25 7.32 25 8 C17.21598285 9.98416123 11.02822248 7.61637374 4 4 C1.609375 1.82421875 1.609375 1.82421875 0 0 Z " fill="#808490" transform="translate(144,181)"/>
<path d="M0 0 C0.66 0 1.32 0 2 0 C1.58411954 6.19518473 0.39748106 11.26689311 -2 17 C-2.33 17 -2.66 17 -3 17 C-3 14.69 -3 12.38 -3 10 C-4.485 12.475 -4.485 12.475 -6 15 C-7 13 -7 13 -6.44140625 10.8359375 C-6.15136719 10.02382812 -5.86132812 9.21171875 -5.5625 8.375 C-5.27503906 7.55773437 -4.98757812 6.74046875 -4.69140625 5.8984375 C-4.46324219 5.27195313 -4.23507813 4.64546875 -4 4 C-3.01 5.485 -3.01 5.485 -2 7 C-1.34 7 -0.68 7 0 7 C0 4.69 0 2.38 0 0 Z " fill="#7F38BB" transform="translate(219,160)"/>
<path d="M0 0 C0.99 0.33 1.98 0.66 3 1 C2.29875 1.556875 1.5975 2.11375 0.875 2.6875 C-4.73328842 7.15044198 -4.73328842 7.15044198 -10 12 C-10.66 11.67 -11.32 11.34 -12 11 C-12 9.35 -12 7.7 -12 6 C-10.68 5.34 -9.36 4.68 -8 4 C-8 4.66 -8 5.32 -8 6 C-7.45730469 5.55527344 -6.91460937 5.11054688 -6.35546875 4.65234375 C-5.64003906 4.08644531 -4.92460938 3.52054688 -4.1875 2.9375 C-3.47980469 2.36902344 -2.77210937 1.80054688 -2.04296875 1.21484375 C-1.03169922 0.61349609 -1.03169922 0.61349609 0 0 Z M-11 8 C-10 10 -10 10 -10 10 Z " fill="#606472" transform="translate(126,139)"/>
<path d="M0 0 C0.88816406 0.01804688 1.77632812 0.03609375 2.69140625 0.0546875 C4.87870848 0.10172626 7.06379816 0.16742991 9.25 0.25 C2.63642409 4.65905061 -6.02177954 4.50338428 -13.75 4.25 C-10.09018696 -0.97242984 -5.79569289 -0.222582 0 0 Z " fill="#8236BE" transform="translate(174.75,205.75)"/>
<path d="M0 0 C0.33 0.66 0.66 1.32 1 2 C0.67 2.66 0.34 3.32 0 4 C1.32 4.33 2.64 4.66 4 5 C3.02471263 6.33617352 2.04466681 7.6688751 1.0625 9 C0.51722656 9.7425 -0.02804688 10.485 -0.58984375 11.25 C-1.05519531 11.8275 -1.52054688 12.405 -2 13 C-2.33 13 -2.66 13 -3 13 C-3 11.35 -3 9.7 -3 8 C-3.66 7.67 -4.32 7.34 -5 7 C-3.35 4.69 -1.7 2.38 0 0 Z " fill="#883BC7" transform="translate(208,180)"/>
<path d="M0 0 C1.98 0 3.96 0 6 0 C6 0.66 6 1.32 6 2 C5.01 2 4.02 2 3 2 C3 2.99 3 3.98 3 5 C-0.63 5.33 -4.26 5.66 -8 6 C-8 5.01 -8 4.02 -8 3 C-5.36 2.67 -2.72 2.34 0 2 C0 1.34 0 0.68 0 0 Z " fill="#A941ED" transform="translate(150,96)"/>
<path d="M0 0 C-0.33 1.32 -0.66 2.64 -1 4 C-6.05002222 5.03590199 -10.87416389 5.10251672 -16 5 C-13.39680887 3.26453924 -11.47732763 2.34824767 -8.5625 1.375 C-7.80066406 1.11460937 -7.03882813 0.85421875 -6.25390625 0.5859375 C-4 0 -4 0 0 0 Z " fill="#AE45F4" transform="translate(186,202)"/>
<path d="M0 0 C2.51815182 1.25907591 2.69260426 2.21474667 3.8125 4.75 C5.65009271 8.58974596 7.8548803 11.09681259 11 14 C12.02813611 15.31175986 13.04084432 16.6369893 14 18 C7.12147368 15.08985425 3.11389965 10.58709541 0 4 C0 2.68 0 1.36 0 0 Z " fill="#A99DBC" transform="translate(110,173)"/>
<path d="M0 0 C0.66 0 1.32 0 2 0 C2 0.66 2 1.32 2 2 C2.99 2 3.98 2 5 2 C6.4783226 4.95664519 6.06032783 7.74229737 6 11 C5.34 11 4.68 11 4 11 C3.71125 10.195625 3.4225 9.39125 3.125 8.5625 C2.26737432 5.8673532 2.26737432 5.8673532 0 5 C0 3.35 0 1.7 0 0 Z " fill="#A542E8" transform="translate(211,122)"/>
<path d="M0 0 C0.66 0 1.32 0 2 0 C4.45489316 5.12325529 5.50341703 9.33895411 6 15 C3.77810176 12.77810176 3.07401108 10.91517292 2 8 C1.01 8.33 0.02 8.66 -1 9 C-0.67 6.03 -0.34 3.06 0 0 Z " fill="#7945A9" transform="translate(110,165)"/>
<path d="M0 0 C0.36923077 4.55384615 0.36923077 4.55384615 -1.5 6.8125 C-1.995 7.204375 -2.49 7.59625 -3 8 C-3 7.34 -3 6.68 -3 6 C-4.32 6 -5.64 6 -7 6 C-6.1875 3.5625 -6.1875 3.5625 -5 1 C-2 0 -2 0 0 0 Z " fill="#953DD7" transform="translate(124,116)"/>
<path d="M0 0 C1.32 0.33 2.64 0.66 4 1 C4 3.97 4 6.94 4 10 C2.68 10 1.36 10 0 10 C0 6.7 0 3.4 0 0 Z " fill="#8B38CC" transform="translate(111,154)"/>
<path d="M0 0 C0.28875 0.639375 0.5775 1.27875 0.875 1.9375 C1.82823451 4.15206079 1.82823451 4.15206079 4 5 C3.01 9.62 2.02 14.24 1 19 C0.67 19 0.34 19 0 19 C0.01740234 17.78763672 0.01740234 17.78763672 0.03515625 16.55078125 C0.04417969 15.48214844 0.05320312 14.41351563 0.0625 13.3125 C0.07410156 12.25675781 0.08570312 11.20101562 0.09765625 10.11328125 C0.08924577 7.03769673 0.08924577 7.03769673 -0.56640625 4.23046875 C-1 2 -1 2 0 0 Z " fill="#7831B2" transform="translate(114,125)"/>
<path d="M0 0 C1.32 0 2.64 0 4 0 C4 0.99 4 1.98 4 3 C4.99 3 5.98 3 7 3 C5.25 6.875 5.25 6.875 3 8 C3 7.01 3 6.02 3 5 C1.68 5.33 0.36 5.66 -1 6 C-0.649375 5.38125 -0.29875 4.7625 0.0625 4.125 C0.371875 3.42375 0.68125 2.7225 1 2 C0.67 1.34 0.34 0.68 0 0 Z " fill="#833EB8" transform="translate(121,111)"/>
<path d="M0 0 C1.32 0 2.64 0 4 0 C4.33 0.66 4.66 1.32 5 2 C5.99 2.66 6.98 3.32 8 4 C6.1875 4.625 6.1875 4.625 4 5 C3.01 4.34 2.02 3.68 1 3 C1 3.99 1 4.98 1 6 C-3.875 4.25 -3.875 4.25 -5 2 C-2.525 2.495 -2.525 2.495 0 3 C0 2.01 0 1.02 0 0 Z " fill="#7833AF" transform="translate(137,196)"/>
<path d="M0 0 C6.37110482 0.49008499 6.37110482 0.49008499 9.3125 2.875 C11 5 11 5 13 8 C8.25 7.25 8.25 7.25 6 5 C5.67 4.34 5.34 3.68 5 3 C2.47266765 2.34444881 2.47266765 2.34444881 0 2 C0 1.34 0 0.68 0 0 Z " fill="#7B3CB1" transform="translate(187,98)"/>
<path d="M0 0 C2.36543716 2.36543716 3.27541323 4.57067205 4.625 7.625 C5.07101563 8.62789062 5.51703125 9.63078125 5.9765625 10.6640625 C6.31429687 11.43492187 6.65203125 12.20578125 7 13 C6.01 13.495 6.01 13.495 5 14 C5 13.34 5 12.68 5 12 C4.34 12 3.68 12 3 12 C2.49166409 10.75336669 1.99368855 9.50250613 1.5 8.25 C1.2215625 7.55390625 0.943125 6.8578125 0.65625 6.140625 C0 4 0 4 0 0 Z " fill="#8839C5" transform="translate(116,169)"/>
<path d="M0 0 C0.33 0 0.66 0 1 0 C1 2.97 1 5.94 1 9 C-2.93169105 9 -4.16427228 7.60580385 -7 5 C-7 4.34 -7 3.68 -7 3 C-4.13275314 3.57344937 -3.1385485 3.8614515 -1 6 C-0.67 4.02 -0.34 2.04 0 0 Z " fill="#5F656C" transform="translate(134,165)"/>
<path d="M0 0 C2.02350324 3.03525486 2.32124018 4.19426202 2.625 7.6875 C2.69976562 8.49574219 2.77453125 9.30398437 2.8515625 10.13671875 C2.90054688 10.75160156 2.94953125 11.36648437 3 12 C2.01 12.33 1.02 12.66 0 13 C-0.19466332 11.20909747 -0.38051213 9.41723495 -0.5625 7.625 C-0.66691406 6.62726563 -0.77132812 5.62953125 -0.87890625 4.6015625 C-1 2 -1 2 0 0 Z " fill="#717782" transform="translate(201,146)"/>
<path d="M0 0 C5.4611399 0.35233161 5.4611399 0.35233161 8 1 C9.5 3.0625 9.5 3.0625 10 5 C9.236875 4.67 8.47375 4.34 7.6875 4 C5.00930865 2.82563314 5.00930865 2.82563314 2 3 C0.31201173 4.43750191 0.31201173 4.43750191 -1 6 C-1.33 5.34 -1.66 4.68 -2 4 C-1.0625 1.875 -1.0625 1.875 0 0 Z " fill="#7D54A4" transform="translate(184,102)"/>
<path d="M0 0 C1.32 0 2.64 0 4 0 C4 0.66 4 1.32 4 2 C5.65 2.33 7.3 2.66 9 3 C9 3.66 9 4.32 9 5 C6.36 4.67 3.72 4.34 1 4 C1 3.34 1 2.68 1 2 C0.34 1.67 -0.32 1.34 -1 1 C-0.67 0.67 -0.34 0.34 0 0 Z " fill="#AC44F6" transform="translate(183,98)"/>
<path d="M0 0 C-2.14331139 2.14331139 -3.14086424 2.514193 -6 3.25 C-7.051875 3.53617188 -7.051875 3.53617188 -8.125 3.828125 C-8.74375 3.88484375 -9.3625 3.9415625 -10 4 C-10.66 3.34 -11.32 2.68 -12 2 C-10.56656 1.46809459 -9.12804633 0.94984742 -7.6875 0.4375 C-6.48673828 0.00244141 -6.48673828 0.00244141 -5.26171875 -0.44140625 C-3 -1 -3 -1 0 0 Z " fill="#787C86" transform="translate(174,143)"/>
<path d="M0 0 C0.33 0 0.66 0 1 0 C1 2.31 1 4.62 1 7 C1.66 7 2.32 7 3 7 C3.33 6.01 3.66 5.02 4 4 C3.50351065 8.46840411 3.31012244 9.68987756 0 13 C0 8.71 0 4.42 0 0 Z " fill="#9E86BC" transform="translate(109,126)"/>
<path d="M0 0 C2 1.375 2 1.375 4 3 C4 3.66 4 4.32 4 5 C3.34 5 2.68 5 2 5 C2.33 6.98 2.66 8.96 3 11 C1.35 9.35 -0.3 7.7 -2 6 C-1.01 5.67 -0.02 5.34 1 5 C0.67 3.35 0.34 1.7 0 0 Z " fill="#7133AA" transform="translate(204,109)"/>
<path d="M0 0 C2.475 0.99 2.475 0.99 5 2 C5 3.32 5 4.64 5 6 C3.35 5.67 1.7 5.34 0 5 C0 3.35 0 1.7 0 0 Z " fill="#9F42E2" transform="translate(132,193)"/>
<path d="M0 0 C0.99 0.33 1.98 0.66 3 1 C4.33599181 4.00598158 5.14345053 6.09147996 4.625 9.375 C4.41875 9.91125 4.2125 10.4475 4 11 C4 10.34 4 9.68 4 9 C3.34 9 2.68 9 2 9 C1.34 6.03 0.68 3.06 0 0 Z " fill="#AD44F9" transform="translate(113,168)"/>
<path d="M0 0 C0.598125 0.474375 1.19625 0.94875 1.8125 1.4375 C4.00382924 3.16465744 4.00382924 3.16465744 7 4 C7 4.99 7 5.98 7 7 C1.33846154 5.52307692 1.33846154 5.52307692 -0.375 2.875 C-0.58125 2.25625 -0.7875 1.6375 -1 1 C-0.67 0.67 -0.34 0.34 0 0 Z " fill="#AD45F6" transform="translate(193,102)"/>
<path d="M0 0 C4.11742854 -0.47877076 5.58006317 -0.32165374 8.9375 2.25 C11 5 11 5 10.8125 7.3125 C10.544375 7.869375 10.27625 8.42625 10 9 C9.566875 8.21625 9.13375 7.4325 8.6875 6.625 C7.10779753 3.78301625 7.10779753 3.78301625 4 2 C2.68 2 1.36 2 0 2 C0 1.34 0 0.68 0 0 Z " fill="#B6AEC4" transform="translate(190,98)"/>
<path d="M0 0 C0.66 0.99 1.32 1.98 2 3 C1.01 4.485 1.01 4.485 0 6 C-0.66 6 -1.32 6 -2 6 C-1.67 6.99 -1.34 7.98 -1 9 C-1.99 9.495 -1.99 9.495 -3 10 C-3.66 9.34 -4.32 8.68 -5 8 C-4.34 8 -3.68 8 -3 8 C-3.33 7.01 -3.66 6.02 -4 5 C-2.0625 2.3125 -2.0625 2.3125 0 0 Z " fill="#6A6D78" transform="translate(196,126)"/>
<path d="M0 0 C-0.33 0.99 -0.66 1.98 -1 3 C-3.0625 3.6875 -3.0625 3.6875 -5 4 C-5 3.01 -5 2.02 -5 1 C-6.32 0.67 -7.64 0.34 -9 0 C-5.93109813 -1.53445094 -3.29905734 -0.54984289 0 0 Z " fill="#7F38BF" transform="translate(199,197)"/>
<path d="M0 0 C1.485 0.99 1.485 0.99 3 2 C3.1875 5.125 3.1875 5.125 3 8 C2.01 8 1.02 8 0 8 C0 5.36 0 2.72 0 0 Z " fill="#AC45F5" transform="translate(217,136)"/>
<path d="M0 0 C3.24208567 0.35049575 4.61527704 0.56221181 6.8125 3.0625 C7.204375 3.701875 7.59625 4.34125 8 5 C7.67 5.66 7.34 6.32 7 7 C3.85311922 5.42655961 2.20034593 2.72148049 0 0 Z " fill="#72757F" transform="translate(183,125)"/>
<path d="M0 0 C1.32 0.33 2.64 0.66 4 1 C3.34 1 2.68 1 2 1 C2 2.32 2 3.64 2 5 C0.68 5 -0.64 5 -2 5 C-1.34 3.35 -0.68 1.7 0 0 Z " fill="#A342EB" transform="translate(135,103)"/>
<path d="M0 0 C3.24732932 1.62366466 3.70155136 4.75387839 5 8 C4.01 8 3.02 8 2 8 C0.23537317 4.91190305 0 3.76687864 0 0 Z " fill="#8C91A0" transform="translate(110,173)"/>
<path d="M0 0 C1.32 0.33 2.64 0.66 4 1 C4 1.99 4 2.98 4 4 C2 5.6875 2 5.6875 0 7 C0 4.69 0 2.38 0 0 Z " fill="#B980E3" transform="translate(112,149)"/>
<path d="M0 0 C3.79588866 0.54226981 5.47211993 2.20127563 8 5 C5.07120629 4.37240135 2.63904371 3.41377341 0 2 C0 1.34 0 0.68 0 0 Z " fill="#8D939E" transform="translate(177,120)"/>
<path d="" fill="#00000C" transform="translate(0,0)"/>
<path d="M0 0 C0.33 0.66 0.66 1.32 1 2 C0.34 1.67 -0.32 1.34 -1 1 C-0.67 0.67 -0.34 0.34 0 0 Z " fill="#000000" transform="translate(509,132)"/>
<path d="M0 0 C0.99 0.495 0.99 0.495 2 1 C1.01 1.495 1.01 1.495 0 2 C0 1.34 0 0.68 0 0 Z " fill="#000000" transform="translate(206,124)"/>
<path d="" fill="#000015" transform="translate(0,0)"/>
<path d="" fill="#000000" transform="translate(0,0)"/>
<path d="" fill="#000000" transform="translate(0,0)"/>
<path d="" fill="#000000" transform="translate(0,0)"/>
<path d="" fill="#000000" transform="translate(0,0)"/>
<path d="" fill="#000000" transform="translate(0,0)"/>
<path d="" fill="#000000" transform="translate(0,0)"/>
</svg>
