<?xml version="1.0" encoding="UTF-8"?>
<svg version="1.1" xmlns="http://www.w3.org/2000/svg" width="512" height="512">
<path d="M0 0 C1.79182249 -0.00461421 3.58364119 -0.01097061 5.37545204 -0.01890898 C10.27774942 -0.0355539 15.17973394 -0.02737795 20.0820322 -0.0149641 C25.37728012 -0.00589612 30.67247508 -0.01989202 35.9677124 -0.03088379 C46.33259817 -0.0486549 56.69736796 -0.04483527 67.06225824 -0.03323323 C75.48725491 -0.02419366 83.91221911 -0.02297718 92.33721924 -0.02732849 C93.53705968 -0.02794142 94.73690011 -0.02855436 95.97309935 -0.02918586 C98.41067744 -0.03046478 100.84825552 -0.03176164 103.2858336 -0.03307623 C126.13418425 -0.04447791 148.98247067 -0.03137476 171.83081079 -0.00987476 C191.42874326 0.00799583 211.02658096 0.0048916 230.62451172 -0.0135498 C253.3920237 -0.03496377 276.1594794 -0.04337931 298.92700005 -0.03110075 C301.3555285 -0.02982658 303.78405697 -0.02856909 306.21258545 -0.02732849 C308.00483219 -0.02640284 308.00483219 -0.02640284 309.83328593 -0.02545848 C318.24655741 -0.02200717 326.65979314 -0.02782923 335.07305908 -0.0372467 C345.32832545 -0.04847388 355.58346938 -0.04541142 365.83872175 -0.02412373 C371.06946774 -0.0136231 376.30000969 -0.00947479 381.53075409 -0.02272034 C386.32239515 -0.03467031 391.11364372 -0.02803865 395.90524936 -0.00681013 C397.63524894 -0.00235512 399.36528193 -0.00458549 401.0952599 -0.01431328 C414.88985095 -0.08590953 425.93080559 1.63313521 436.27490234 11.50793457 C445.6388882 21.31694154 447.88026005 31.73340822 447.78283691 44.9810791 C447.79219686 46.95589107 447.79219686 46.95589107 447.80174589 48.97059822 C447.81833287 52.59595675 447.81024194 56.2208902 447.79780102 59.84624958 C447.78870887 63.76725858 447.80274079 67.68819713 447.8137207 71.60919189 C447.83146629 79.2789824 447.82768367 86.94861595 447.81607014 94.61841249 C447.80702045 100.85424362 447.80581845 107.09003089 447.81016541 113.3258667 C447.81077834 114.21486668 447.81139127 115.10386666 447.81202278 116.01980603 C447.81330173 117.82604012 447.81459859 119.6322742 447.81591314 121.43850827 C447.82730733 138.35813386 447.81422347 155.27767263 447.79271168 172.19728398 C447.77484175 186.70126827 447.77794618 201.20512447 447.79638672 215.70910645 C447.81781396 232.57000015 447.82620881 249.43081784 447.81393766 266.29172325 C447.81266353 268.09114964 447.81140604 269.89057603 447.81016541 271.69000244 C447.80923975 273.01787865 447.80923975 273.01787865 447.8082954 274.37258065 C447.80484806 280.59775062 447.81065754 286.82287219 447.82008362 293.04803467 C447.8313256 300.63899696 447.82821746 308.2297939 447.80696064 315.82073736 C447.7964797 319.69052825 447.79227754 323.56004388 447.80555725 327.42983246 C447.81975807 331.63172251 447.80275235 335.83292322 447.78283691 340.03479004 C447.79622124 341.85480121 447.79622124 341.85480121 447.80987597 343.71158028 C447.70141433 355.53174972 444.50187135 364.8899809 436.27490234 373.50793457 C427.50552173 381.87946049 419.34254441 384.50793457 407.27490234 384.50793457 C407.27490234 358.10793457 407.27490234 331.70793457 407.27490234 304.50793457 C415.19490234 304.50793457 423.11490234 304.50793457 431.27490234 304.50793457 C431.1925465 271.02905309 431.10092151 237.55021775 430.99485073 204.07140318 C430.98233212 200.11738588 430.9698993 196.16336832 430.95751953 192.20935059 C430.95382054 191.02860833 430.95382054 191.02860833 430.95004682 189.82401269 C430.91034167 177.08458065 430.87758441 164.34513977 430.84740253 151.60568202 C430.8162697 138.53023853 430.77765246 125.45483252 430.73211229 112.37943119 C430.7042551 104.31361884 430.68221007 96.24783386 430.66763984 88.18198638 C430.6558345 81.9932453 430.63360739 75.80458121 430.60751915 69.61588478 C430.59845379 67.07989739 430.59275557 64.54389536 430.59068871 62.00789261 C430.5873589 58.5427208 430.57186146 55.07780554 430.55337524 51.61268616 C430.55627735 50.11119399 430.55627735 50.11119399 430.55923808 48.57936865 C430.4855815 39.32938562 429.74266946 30.93051353 422.85693359 24.10168457 C416.03742063 18.07106128 408.89377282 17.38424958 400.06492901 17.37930012 C399.35833886 17.37754708 398.65174871 17.37579404 397.92374673 17.37398788 C395.55613434 17.36933608 393.18858357 17.37179127 390.82096863 17.3742218 C389.10628707 17.37235342 387.39160594 17.37005261 385.67692548 17.36735648 C380.96479754 17.36123548 376.25268733 17.36137243 371.54055631 17.36255085 C366.45863977 17.36275478 361.37672895 17.35723685 356.29481506 17.35249329 C346.33836185 17.34418458 336.38191455 17.34143835 326.42545816 17.34088091 C318.33309483 17.34040586 310.24073345 17.33835168 302.14837074 17.33518028 C279.20899779 17.32637318 256.26962953 17.32176101 233.33025488 17.32251076 C232.09342165 17.32255071 230.85658842 17.32259067 229.58227539 17.32263184 C228.34393345 17.32267272 227.10559151 17.3227136 225.82972405 17.32275572 C205.75761288 17.32316223 185.68552047 17.31359161 165.61341473 17.29949347 C145.00740386 17.28513443 124.40140214 17.27822302 103.79538614 17.27908725 C92.2251111 17.27941937 80.65485572 17.27666534 69.08458519 17.26590919 C59.23394886 17.25681042 49.38334111 17.25462383 39.53270241 17.26141862 C34.50683942 17.26468694 29.48103128 17.26472923 24.45517349 17.25606537 C19.85290654 17.24821331 15.25073805 17.24961859 10.64847354 17.2583495 C8.98497708 17.25988733 7.32147332 17.25805767 5.65798547 17.25248943 C-9.98236469 16.87827028 -9.98236469 16.87827028 -23.72509766 23.50793457 C-31.74223351 31.59187988 -31.87287067 40.46881039 -31.88331604 51.25192261 C-31.88825402 52.33510698 -31.89319199 53.41829135 -31.89827961 54.53429949 C-31.91363828 58.16401877 -31.92201086 61.79372038 -31.93041992 65.42346191 C-31.93999972 68.02530065 -31.95000986 70.62713784 -31.9604187 73.22897339 C-31.98214917 78.83065432 -32.00030615 84.43233764 -32.01602364 90.03403854 C-32.03875355 98.13311823 -32.06689202 106.23217205 -32.09634291 114.33122976 C-32.14398059 127.47198842 -32.18725511 140.61275767 -32.2277832 153.75354004 C-32.2671576 166.5172203 -32.30859969 179.28089111 -32.3527832 192.04455566 C-32.35553271 192.83956848 -32.35828221 193.63458129 -32.36111504 194.4536854 C-32.38263468 200.67137464 -32.4042741 206.88906346 -32.42595136 213.10675216 C-32.53214056 243.57379389 -32.62788432 274.04086032 -32.72509766 304.50793457 C43.83490234 304.50793457 120.39490234 304.50793457 199.27490234 304.50793457 C199.27490234 330.90793457 199.27490234 357.30793457 199.27490234 384.50793457 C171.17159052 384.59827992 143.06839655 384.67194295 114.96497631 384.71518326 C101.91564415 384.73579543 88.86640873 384.7638905 75.81713867 384.80969238 C64.44143413 384.8496011 53.06579966 384.87537715 41.69002706 384.88428855 C35.66841252 384.88949641 29.64699843 384.90170912 23.62544823 384.9308548 C17.95295782 384.95808743 12.28074965 384.96636362 6.60820007 384.9603653 C4.53099342 384.96146201 2.45377692 384.96936882 0.37662697 384.98475647 C-14.53391723 385.08975834 -26.40216504 384.31716136 -37.72509766 373.50793457 C-47.08908352 363.6989276 -49.33045537 353.28246092 -49.23303223 340.03479004 C-49.23927219 338.71824873 -49.24551215 337.40170742 -49.2519412 336.04527092 C-49.26852818 332.41991239 -49.26043725 328.79497894 -49.24799633 325.16961956 C-49.23890418 321.24861056 -49.25293611 317.32767201 -49.26391602 313.40667725 C-49.2816616 305.73688674 -49.27787898 298.06725319 -49.26626545 290.39745665 C-49.25721576 284.16162552 -49.25601376 277.92583825 -49.26036072 271.69000244 C-49.26097365 270.80100246 -49.26158658 269.91200248 -49.26221809 268.99606311 C-49.26349705 267.18982902 -49.2647939 265.38359494 -49.26610845 263.57736087 C-49.27750265 246.65773528 -49.26441879 229.73819651 -49.24290699 212.81858516 C-49.22503706 198.31460087 -49.22814149 183.81074467 -49.24658203 169.3067627 C-49.26800927 152.44586899 -49.27640412 135.58505131 -49.26413298 118.72414589 C-49.26285884 116.9247195 -49.26160135 115.12529311 -49.26036072 113.3258667 C-49.25943506 111.99799049 -49.25943506 111.99799049 -49.25849071 110.64328849 C-49.25504337 104.41811852 -49.26085285 98.19299695 -49.27027893 91.96783447 C-49.28152091 84.37687218 -49.27841277 76.78607524 -49.25715595 69.19513178 C-49.24667501 65.32534089 -49.24247285 61.45582526 -49.25575256 57.58603668 C-49.26995339 53.38414663 -49.25294766 49.18294592 -49.23303223 44.9810791 C-49.24195511 43.76773832 -49.250878 42.55439754 -49.26007128 41.30428886 C-49.15160965 29.48411942 -45.95206666 20.12588824 -37.72509766 11.50793457 C-26.60956868 0.8967018 -14.65003021 -0.08237819 0 0 Z " fill="#703EFF" transform="translate(56.72509765625,7.4920654296875)"/>
<path d="M0 0 C19.14 0 38.28 0 58 0 C59.65 3.3 61.3 6.6 63 10 C70.60914081 20.49728184 80.31619526 27.25184231 93 30 C99.96900016 30.96704075 106.98315687 31.5148557 114 32 C114.50404808 34.10320063 115.00310508 36.20759791 115.5 38.3125 C115.91765625 40.07013672 115.91765625 40.07013672 116.34375 41.86328125 C117 45 117 45 117 48 C118.16982422 47.97905273 119.33964844 47.95810547 120.54492188 47.93652344 C124.9132854 47.86375144 129.28159605 47.81806578 133.65039062 47.78027344 C135.53589916 47.76024233 137.42134623 47.73300927 139.30664062 47.69824219 C142.02749862 47.64934728 144.74753056 47.62694618 147.46875 47.609375 C148.30241089 47.58872986 149.13607178 47.56808472 149.99499512 47.54681396 C156.86483195 47.54422027 162.04944258 49.414407 167.2421875 53.96484375 C167.78101563 54.61582031 168.31984375 55.26679688 168.875 55.9375 C169.42929687 56.58589844 169.98359375 57.23429687 170.5546875 57.90234375 C174.98091702 64.32635795 174.36710807 71.04544096 174.375 78.5625 C174.39949219 79.79419922 174.42398438 81.02589844 174.44921875 82.29492188 C174.45308594 83.47763672 174.45695313 84.66035156 174.4609375 85.87890625 C174.46915527 86.9572876 174.47737305 88.03566895 174.48583984 89.14672852 C173.85215477 92.86827498 173.05420817 93.77879676 170 96 C166.91664116 96.59940718 163.87108335 96.53940255 160.73828125 96.50793457 C159.79030167 96.51417453 158.84232208 96.5204145 157.86561584 96.52684355 C154.6809928 96.54283082 151.49712907 96.53014664 148.3125 96.51757812 C146.03271029 96.52299668 143.75292408 96.53011783 141.47314453 96.53881836 C135.2748764 96.55708619 129.07687397 96.54996977 122.87860107 96.53730202 C116.39952871 96.52719233 109.92047948 96.53656204 103.44140625 96.54284668 C91.8623627 96.55059578 80.28344068 96.53814589 68.70441628 96.51780933 C58.20392583 96.49993805 47.70361225 96.50304208 37.203125 96.52148438 C25.01182021 96.54288625 12.8206414 96.55086079 0.62931824 96.53903532 C-5.82512663 96.53279123 -12.27944963 96.53198999 -18.73388672 96.54518127 C-24.80125082 96.55671475 -30.86828008 96.54875954 -36.93560791 96.52560425 C-39.16570479 96.5203038 -41.39582972 96.52185361 -43.62591553 96.53065491 C-46.66375445 96.54154098 -49.70051177 96.52793033 -52.73828125 96.50793457 C-53.62660141 96.51685746 -54.51492157 96.52578034 -55.43016052 96.53497362 C-61.37061763 96.45881654 -61.37061763 96.45881654 -64.54650879 94.14360809 C-66.47348005 91.30171187 -66.51668358 89.40436213 -66.53125 85.984375 C-66.53640625 84.81519531 -66.5415625 83.64601563 -66.546875 82.44140625 C-66.52367187 80.61416016 -66.52367187 80.61416016 -66.5 78.75 C-66.51546875 77.54730469 -66.5309375 76.34460938 -66.546875 75.10546875 C-66.51045162 66.81004293 -65.55533997 61.05718716 -60.03515625 54.7578125 C-59.38417969 54.21898437 -58.73320312 53.68015625 -58.0625 53.125 C-57.08990234 52.29355469 -57.08990234 52.29355469 -56.09765625 51.4453125 C-50.76629268 47.7719335 -46.02388765 47.72856187 -39.76171875 47.8046875 C-38.44056816 47.80893234 -38.44056816 47.80893234 -37.09272766 47.81326294 C-34.29084455 47.82442167 -31.48928584 47.84951829 -28.6875 47.875 C-26.78320775 47.88503537 -24.87891048 47.89416025 -22.97460938 47.90234375 C-18.31628203 47.92434691 -13.65819594 47.95884706 -9 48 C-8.846521 46.91102417 -8.846521 46.91102417 -8.68994141 45.80004883 C-7.25413874 36.02252013 -5.34235459 26.36953208 -3.375 16.6875 C-1.704375 8.4271875 -1.704375 8.4271875 0 0 Z " fill="#713EFF" transform="translate(202,408)"/>
<path d="M0 0 C1.23327026 -0.00671722 2.46654053 -0.01343445 3.73718262 -0.02035522 C7.10936763 -0.03606977 10.48130629 -0.04270865 13.85351086 -0.0439868 C15.96458926 -0.04541196 18.07564213 -0.04968852 20.18671417 -0.05498123 C27.56394581 -0.07346778 34.94110534 -0.08165382 42.31835938 -0.08007812 C49.17462671 -0.07887798 56.03057862 -0.09995861 62.8867662 -0.13156545 C68.78934501 -0.15779793 74.69182127 -0.16844247 80.59445786 -0.16716731 C84.11260218 -0.16665959 87.63046614 -0.17223573 91.14855194 -0.19352341 C95.07832419 -0.21665412 99.00767097 -0.20734233 102.9375 -0.1953125 C104.0890155 -0.20655151 105.24053101 -0.21779053 106.42694092 -0.22937012 C115.95621896 -0.15549356 124.09860166 1.95843015 131.19628906 8.58740234 C138.25984451 16.44380585 140.02784486 24.34694132 139.9949646 34.66351318 C139.99949571 35.70697348 140.00402683 36.75043377 140.00869524 37.82551408 C140.02135369 41.32138385 140.01971791 44.81709812 140.01806641 48.31298828 C140.02405077 50.81978557 140.0308561 53.32658101 140.03842163 55.83337402 C140.05426261 61.93600921 140.06053047 68.03858746 140.06164639 74.14124128 C140.0625977 79.10383288 140.06671217 84.06641176 140.07304764 89.02899933 C140.09065642 103.10930754 140.09988718 117.18958529 140.09838669 131.26990458 C140.09830678 132.0285558 140.09822687 132.78720701 140.09814453 133.56884766 C140.09806277 134.32842892 140.09798101 135.08801019 140.09789677 135.87060907 C140.09708418 148.17579098 140.11621605 160.4808504 140.14442126 172.78599688 C140.17317614 185.43108261 140.1869601 198.07610865 140.18523371 210.72122788 C140.18457066 217.81635859 140.19002535 224.91136091 140.21158981 232.0064621 C140.23174715 238.68121737 140.23110136 245.355657 140.21655655 252.03044128 C140.21446642 254.4773371 140.21918139 256.92424983 140.23127747 259.37111664 C140.24674646 262.71759735 140.23740977 266.06314584 140.22201538 269.40960693 C140.23230251 270.37246856 140.24258963 271.3353302 140.25318849 272.32736945 C140.16274317 281.25586956 137.60019616 289.1535157 131.43066406 295.75927734 C122.94652077 303.38722269 114.52044292 304.58970424 103.43920898 304.58105469 C102.20433243 304.58777191 100.96945587 304.59448914 99.69715881 304.60140991 C96.32090893 304.61712375 92.94490511 304.62376324 89.5686357 304.62504148 C87.45555499 304.6264665 85.34249979 304.63074273 83.22942543 304.63603592 C75.84686276 304.65452083 68.46437215 304.66270855 61.08178711 304.66113281 C54.21754762 304.65993212 47.35362291 304.68102397 40.48946303 304.71262014 C34.58180435 304.73883717 28.67424813 304.74949783 22.76653177 304.74822199 C19.24450714 304.74771391 15.72276242 304.75331118 12.20079613 304.77457809 C8.26842515 304.79767643 4.33648034 304.78840639 0.40405273 304.77636719 C-0.75105804 304.7876062 -1.90616882 304.79884521 -3.09628296 304.8104248 C-13.434475 304.73017512 -21.73182192 301.46895226 -29.27246094 294.29052734 C-35.26563748 286.68497336 -36.57007695 279.39016103 -36.53988647 269.9175415 C-36.54441759 268.87408121 -36.5489487 267.83062091 -36.55361712 266.75554061 C-36.56627557 263.25967083 -36.56463979 259.76395656 -36.56298828 256.26806641 C-36.56897265 253.76126912 -36.57577798 251.25447368 -36.58334351 248.74768066 C-36.59918448 242.64504548 -36.60545235 236.54246723 -36.60656826 230.43981341 C-36.60751958 225.47722181 -36.61163405 220.51464293 -36.61796951 215.55205536 C-36.6355783 201.47174715 -36.64480906 187.3914694 -36.64330857 173.3111501 C-36.64322865 172.55249889 -36.64314874 171.79384768 -36.64306641 171.01220703 C-36.64298464 170.25262576 -36.64290288 169.49304449 -36.64281864 168.71044561 C-36.64200605 156.4052637 -36.66113792 144.10020429 -36.68934314 131.7950578 C-36.71809801 119.14997208 -36.73188197 106.50494604 -36.73015559 93.8598268 C-36.72949254 86.7646961 -36.73494723 79.66969378 -36.75651169 72.57459259 C-36.77666903 65.89983731 -36.77602324 59.22539769 -36.76147842 52.5506134 C-36.7593883 50.10371759 -36.76410327 47.65680486 -36.77619934 45.20993805 C-36.79166833 41.86345733 -36.78233165 38.51790885 -36.76693726 35.17144775 C-36.77722438 34.20858612 -36.78751151 33.24572449 -36.79811037 32.25368524 C-36.70766504 23.32518513 -34.14511804 15.42753899 -27.97558594 8.82177734 C-19.49649952 1.19837855 -11.07501502 -0.00865641 0 0 Z M-16.20996094 22.04052734 C-20.35392746 28.57041399 -20.56450131 34.65835973 -20.53315735 42.18307495 C-20.5369829 43.1627584 -20.54080844 44.14244185 -20.54474992 45.15181267 C-20.55504664 48.42580772 -20.55109405 51.69962631 -20.54711914 54.97363281 C-20.55146745 57.32456626 -20.556651 59.6754983 -20.56260681 62.02642822 C-20.57599528 68.40659579 -20.57657563 74.78670411 -20.57404351 81.16688299 C-20.57283829 87.16922328 -20.57905275 93.17155528 -20.58447697 99.17389227 C-20.59534569 111.78897807 -20.59319322 124.40403711 -20.58709212 137.0191244 C-20.58192397 148.54891623 -20.59317688 160.07862355 -20.61219034 171.60839866 C-20.6315826 183.45911177 -20.63982229 195.30978492 -20.63606709 207.160514 C-20.6341571 213.80899808 -20.63688872 220.45741928 -20.65078163 227.10589218 C-20.66335894 233.3587405 -20.66141658 239.61141971 -20.64837074 245.86426544 C-20.64600521 248.1567732 -20.64873878 250.44929285 -20.65699387 252.74178696 C-20.66746473 255.87605786 -20.65935749 259.00976171 -20.64668274 262.14401245 C-20.65405702 263.04684963 -20.66143131 263.94968681 -20.66902906 264.87988269 C-20.61630453 271.09585637 -20.0227023 277.85423179 -15.99755555 282.88346088 C-9.47677708 288.8272288 -1.62198093 288.58554269 6.66064453 288.56518555 C8.27909271 288.57285194 8.27909271 288.57285194 9.93023682 288.58067322 C13.48512369 288.5945352 17.03981593 288.59361492 20.59472656 288.59130859 C23.07422965 288.59519745 25.55373208 288.59953252 28.03323364 288.60429382 C33.22644207 288.6117488 38.4195825 288.61147 43.61279297 288.60620117 C50.25599493 288.60040839 56.89891087 288.61733672 63.54208183 288.64054585 C68.66201393 288.65530333 73.78187916 288.6561521 78.90182877 288.65303612 C81.35055214 288.65354834 83.79927935 288.6587674 86.24798203 288.66884804 C89.67738536 288.68123347 93.10624933 288.67440754 96.53564453 288.6628418 C97.53957245 288.67048553 98.54350037 288.67812927 99.57785034 288.68600464 C106.05143871 288.63793583 113.06048126 288.23301971 118.31638908 284.01561451 C124.01700746 277.78055787 124.02132851 270.34259251 123.98823547 262.39797974 C123.99206102 261.41829629 123.99588657 260.43861284 123.99982804 259.42924201 C124.01012477 256.15524697 124.00617218 252.88142838 124.00219727 249.60742188 C124.00654558 247.25648842 124.01172913 244.90555639 124.01768494 242.55462646 C124.0310734 236.1744589 124.03165375 229.79435057 124.02912164 223.4141717 C124.02791642 217.41183141 124.03413087 211.40949941 124.0395551 205.40716241 C124.05042382 192.79207662 124.04827135 180.17701758 124.04217025 167.56193028 C124.0370021 156.03213846 124.04825501 144.50243114 124.06726847 132.97265603 C124.08666072 121.12194292 124.09490041 109.27126976 124.09114522 97.42054069 C124.08923522 90.7720566 124.09196685 84.1236354 124.10585976 77.47516251 C124.11843707 71.22231419 124.11649471 64.96963497 124.10344887 58.71678925 C124.10108334 56.42428149 124.1038169 54.13176184 124.11207199 51.83926773 C124.12254286 48.70499683 124.11443561 45.57129298 124.10176086 42.43704224 C124.10913515 41.53420506 124.11650943 40.63136788 124.12410718 39.70117199 C124.07138265 33.48519831 123.47778043 26.7268229 119.45263368 21.69759381 C113.35969784 16.14380959 106.05297513 16.00288727 98.29003906 16.16552734 C97.04963867 16.1790625 97.04963867 16.1790625 95.78417969 16.19287109 C93.76517198 16.21621222 91.7463155 16.25207446 89.72753906 16.29052734 C89.53119873 16.88067627 89.3348584 17.4708252 89.13256836 18.07885742 C88.23589609 20.75675348 87.32564535 23.42983906 86.41503906 26.10302734 C86.10630859 27.03179687 85.79757812 27.96056641 85.47949219 28.91748047 C85.17333984 29.81015625 84.8671875 30.70283203 84.55175781 31.62255859 C84.27420654 32.44473877 83.99665527 33.26691895 83.71069336 34.11401367 C82.62158953 36.52507914 81.81017025 37.66458703 79.72753906 39.29052734 C77.26098633 39.67147827 77.26098633 39.67147827 74.29394531 39.67871094 C73.18269287 39.68816742 72.07144043 39.6976239 70.92651367 39.70736694 C69.72647705 39.70129425 68.52644043 39.69522156 67.29003906 39.68896484 C66.05842041 39.69183502 64.82680176 39.6947052 63.55786133 39.69766235 C60.28405949 39.70022892 57.01068369 39.68814344 53.73693848 39.67138672 C51.72943521 39.66553287 49.72232537 39.67136529 47.71484375 39.68164062 C43.86472211 39.70013714 40.01518473 39.69793727 36.16503906 39.68896484 C34.36498413 39.69807388 34.36498413 39.69807388 32.52856445 39.70736694 C30.86168579 39.69318222 30.86168579 39.69318222 29.16113281 39.67871094 C28.18200928 39.67632416 27.20288574 39.67393738 26.1940918 39.67147827 C23.31464059 39.22675654 22.46376323 38.58082547 20.72753906 36.29052734 C19.74438477 34.11401367 19.74438477 34.11401367 18.90332031 31.62255859 C18.59716797 30.72988281 18.29101562 29.83720703 17.97558594 28.91748047 C17.66685547 27.98871094 17.358125 27.05994141 17.04003906 26.10302734 C16.71970703 25.16265625 16.399375 24.22228516 16.06933594 23.25341797 C15.28083815 20.93499909 14.50059358 18.61413192 13.72753906 16.29052734 C-2.49040281 14.99558984 -2.49040281 14.99558984 -16.20996094 22.04052734 Z " fill="#703EFF" transform="translate(308.2724609375,119.70947265625)"/>
<path d="M0 0 C2.44225447 1.66159248 4.74768159 3.38773224 7.0390625 5.25 C7.87050781 5.87261719 8.70195312 6.49523437 9.55859375 7.13671875 C19.05044396 15.22347618 25.93055669 28.5268711 27.34448242 40.92895508 C27.47509122 43.66825685 27.50687887 46.38281242 27.4765625 49.125 C27.46898926 50.09026611 27.46141602 51.05553223 27.45361328 52.05004883 C27.28448548 59.3799489 26.27331992 65.60180419 23.0390625 72.25 C22.58015625 73.21164062 22.12125 74.17328125 21.6484375 75.1640625 C13.91897924 90.25684678 1.74462952 98.78970206 -14.12109375 104.359375 C-26.20509403 107.16217466 -40.75813646 106.70001132 -51.9609375 101.25 C-52.92257812 100.79109375 -53.88421875 100.3321875 -54.875 99.859375 C-69.96778428 92.12991674 -78.50063956 79.95556702 -84.0703125 64.08984375 C-86.87311216 52.00584347 -86.41094882 37.45280104 -80.9609375 26.25 C-80.50203125 25.28835937 -80.043125 24.32671875 -79.5703125 23.3359375 C-71.84651061 8.25419803 -59.66331626 -0.32293942 -43.7890625 -5.85546875 C-29.15360965 -9.27538579 -12.98077044 -7.67201208 0 0 Z M-26.4609375 43.6875 C-27.37875 44.60982422 -28.2965625 45.53214844 -29.2421875 46.48242188 C-31.48408805 48.73599899 -33.7236035 50.99189075 -35.9609375 53.25 C-39.34294882 51.65786807 -41.49449366 49.90211132 -44.0859375 47.1875 C-47.76307358 43.25516169 -47.76307358 43.25516169 -52.8359375 41.9375 C-56.00618517 42.00215083 -56.00618517 42.00215083 -58.3359375 43.875 C-60.11139153 46.17460837 -60.11139153 46.17460837 -60.6484375 49 C-59.58561389 54.02425705 -56.51267614 56.67393438 -52.9609375 60.25 C-52.01275531 61.22369984 -51.06485429 62.19767354 -50.1171875 63.171875 C-44.60889398 69.39284651 -44.60889398 69.39284651 -37.3359375 72.75 C-28.41443042 71.42829525 -20.10429994 59.54530813 -13.87670898 53.29614258 C-12.00683997 51.42085437 -10.13160851 49.55104535 -8.25585938 47.68164062 C-7.06478289 46.48990435 -5.8740161 45.29785845 -4.68359375 44.10546875 C-4.12325943 43.54715866 -3.56292511 42.98884857 -2.98561096 42.41362 C0.96219657 38.53986102 0.96219657 38.53986102 2.3515625 33.375 C2.28691167 30.20475233 2.28691167 30.20475233 0.4140625 27.875 C-1.88554587 26.09954597 -1.88554587 26.09954597 -4.7109375 25.5625 C-13.25848202 27.37063442 -20.52827264 37.69878526 -26.4609375 43.6875 Z " fill="#703EFF" transform="translate(388.9609375,222.75)"/>
<path d="M0 0 C0.65396381 -0.00623996 1.30792763 -0.01247993 1.98170853 -0.01890898 C4.17144147 -0.03485478 6.36006364 -0.02222988 8.54980469 -0.00964355 C10.12024586 -0.01506402 11.69068195 -0.02218626 13.2611084 -0.03088379 C17.52559358 -0.04912925 21.78969196 -0.0420447 26.05418396 -0.02936745 C30.51529998 -0.01924606 34.9763827 -0.02863072 39.4375 -0.03491211 C46.92942252 -0.04219104 54.42118735 -0.03259441 61.91308594 -0.0135498 C70.57692221 0.00821946 79.24038198 0.00116826 87.90420914 -0.02085543 C95.34041697 -0.03900247 102.7765114 -0.04157117 110.21273422 -0.03110075 C114.65510989 -0.02486197 119.09730853 -0.02404068 123.53967285 -0.0372467 C127.71602519 -0.04879453 131.89189172 -0.04079938 136.06819153 -0.01766968 C137.6016611 -0.01237682 139.1351715 -0.01390626 140.66862488 -0.02272034 C142.76075646 -0.03363768 144.8513275 -0.01996166 146.94335938 0 C148.11437195 0.0015081 149.28538452 0.0030162 150.49188232 0.00457001 C154.08917438 0.61224534 155.26270263 1.66274731 157.47167969 4.50793457 C158.00292969 6.50793457 158.00292969 6.50793457 157.97167969 8.50793457 C157.98714844 9.49793457 157.98714844 9.49793457 158.00292969 10.50793457 C157.21810175 13.46258094 155.84242519 14.60445759 153.47167969 16.50793457 C150.49188232 17.01129913 150.49188232 17.01129913 146.94335938 17.01586914 C146.28939556 17.0221091 145.63543175 17.02834907 144.96165085 17.03477812 C142.7719179 17.05072392 140.58329574 17.03809902 138.39355469 17.0255127 C136.82311351 17.03093316 135.25267742 17.0380554 133.68225098 17.04675293 C129.4177658 17.0649984 125.15366741 17.05791384 120.88917542 17.04523659 C116.4280594 17.0351152 111.96697668 17.04449987 107.50585938 17.05078125 C100.01393686 17.05806018 92.52217202 17.04846355 85.03027344 17.02941895 C76.36643716 17.00764968 67.70297739 17.01470089 59.03915024 17.03672457 C51.60294241 17.05487161 44.16684797 17.05744031 36.73062515 17.04696989 C32.28824949 17.04073111 27.84605084 17.03990982 23.40368652 17.05311584 C19.22733419 17.06466367 15.05146765 17.05666852 10.87516785 17.03353882 C9.34169827 17.02824596 7.80818787 17.0297754 6.2747345 17.03858948 C4.18260291 17.04950682 2.09203188 17.0358308 0 17.01586914 C-1.17101257 17.01436104 -2.34202515 17.01285294 -3.54852295 17.01129913 C-7.14581501 16.4036238 -8.31934325 15.35312183 -10.52832031 12.50793457 C-11.05957031 10.50793457 -11.05957031 10.50793457 -11.02832031 8.50793457 C-11.04378906 7.51793457 -11.04378906 7.51793457 -11.05957031 6.50793457 C-9.52954491 0.74783892 -5.33324865 0.00686849 0 0 Z " fill="#713EFF" transform="translate(98.5283203125,247.4920654296875)"/>
<path d="M0 0 C0.65396381 -0.00623996 1.30792763 -0.01247993 1.98170853 -0.01890898 C4.17144147 -0.03485478 6.36006364 -0.02222988 8.54980469 -0.00964355 C10.12024586 -0.01506402 11.69068195 -0.02218626 13.2611084 -0.03088379 C17.52559358 -0.04912925 21.78969196 -0.0420447 26.05418396 -0.02936745 C30.51529998 -0.01924606 34.9763827 -0.02863072 39.4375 -0.03491211 C46.92942252 -0.04219104 54.42118735 -0.03259441 61.91308594 -0.0135498 C70.57692221 0.00821946 79.24038198 0.00116826 87.90420914 -0.02085543 C95.34041697 -0.03900247 102.7765114 -0.04157117 110.21273422 -0.03110075 C114.65510989 -0.02486197 119.09730853 -0.02404068 123.53967285 -0.0372467 C127.71602519 -0.04879453 131.89189172 -0.04079938 136.06819153 -0.01766968 C137.6016611 -0.01237682 139.1351715 -0.01390626 140.66862488 -0.02272034 C142.76075646 -0.03363768 144.8513275 -0.01996166 146.94335938 0 C148.11437195 0.0015081 149.28538452 0.0030162 150.49188232 0.00457001 C154.08917438 0.61224534 155.26270263 1.66274731 157.47167969 4.50793457 C158.00292969 6.50793457 158.00292969 6.50793457 157.97167969 8.50793457 C157.98714844 9.49793457 157.98714844 9.49793457 158.00292969 10.50793457 C157.21810175 13.46258094 155.84242519 14.60445759 153.47167969 16.50793457 C150.49188232 17.01129913 150.49188232 17.01129913 146.94335938 17.01586914 C146.28939556 17.0221091 145.63543175 17.02834907 144.96165085 17.03477812 C142.7719179 17.05072392 140.58329574 17.03809902 138.39355469 17.0255127 C136.82311351 17.03093316 135.25267742 17.0380554 133.68225098 17.04675293 C129.4177658 17.0649984 125.15366741 17.05791384 120.88917542 17.04523659 C116.4280594 17.0351152 111.96697668 17.04449987 107.50585938 17.05078125 C100.01393686 17.05806018 92.52217202 17.04846355 85.03027344 17.02941895 C76.36643716 17.00764968 67.70297739 17.01470089 59.03915024 17.03672457 C51.60294241 17.05487161 44.16684797 17.05744031 36.73062515 17.04696989 C32.28824949 17.04073111 27.84605084 17.03990982 23.40368652 17.05311584 C19.22733419 17.06466367 15.05146765 17.05666852 10.87516785 17.03353882 C9.34169827 17.02824596 7.80818787 17.0297754 6.2747345 17.03858948 C4.18260291 17.04950682 2.09203188 17.0358308 0 17.01586914 C-1.17101257 17.01436104 -2.34202515 17.01285294 -3.54852295 17.01129913 C-7.14581501 16.4036238 -8.31934325 15.35312183 -10.52832031 12.50793457 C-11.05957031 10.50793457 -11.05957031 10.50793457 -11.02832031 8.50793457 C-11.04378906 7.51793457 -11.04378906 7.51793457 -11.05957031 6.50793457 C-9.52954491 0.74783892 -5.33324865 0.00686849 0 0 Z " fill="#713EFF" transform="translate(98.5283203125,215.4920654296875)"/>
<path d="M0 0 C0.65396381 -0.00623996 1.30792763 -0.01247993 1.98170853 -0.01890898 C4.17144147 -0.03485478 6.36006364 -0.02222988 8.54980469 -0.00964355 C10.12024586 -0.01506402 11.69068195 -0.02218626 13.2611084 -0.03088379 C17.52559358 -0.04912925 21.78969196 -0.0420447 26.05418396 -0.02936745 C30.51529998 -0.01924606 34.9763827 -0.02863072 39.4375 -0.03491211 C46.92942252 -0.04219104 54.42118735 -0.03259441 61.91308594 -0.0135498 C70.57692221 0.00821946 79.24038198 0.00116826 87.90420914 -0.02085543 C95.34041697 -0.03900247 102.7765114 -0.04157117 110.21273422 -0.03110075 C114.65510989 -0.02486197 119.09730853 -0.02404068 123.53967285 -0.0372467 C127.71602519 -0.04879453 131.89189172 -0.04079938 136.06819153 -0.01766968 C137.6016611 -0.01237682 139.1351715 -0.01390626 140.66862488 -0.02272034 C142.76075646 -0.03363768 144.8513275 -0.01996166 146.94335938 0 C148.11437195 0.0015081 149.28538452 0.0030162 150.49188232 0.00457001 C154.08917438 0.61224534 155.26270263 1.66274731 157.47167969 4.50793457 C158.00292969 6.50793457 158.00292969 6.50793457 157.97167969 8.50793457 C157.98714844 9.49793457 157.98714844 9.49793457 158.00292969 10.50793457 C157.21810175 13.46258094 155.84242519 14.60445759 153.47167969 16.50793457 C150.49188232 17.01129913 150.49188232 17.01129913 146.94335938 17.01586914 C146.28939556 17.0221091 145.63543175 17.02834907 144.96165085 17.03477812 C142.7719179 17.05072392 140.58329574 17.03809902 138.39355469 17.0255127 C136.82311351 17.03093316 135.25267742 17.0380554 133.68225098 17.04675293 C129.4177658 17.0649984 125.15366741 17.05791384 120.88917542 17.04523659 C116.4280594 17.0351152 111.96697668 17.04449987 107.50585938 17.05078125 C100.01393686 17.05806018 92.52217202 17.04846355 85.03027344 17.02941895 C76.36643716 17.00764968 67.70297739 17.01470089 59.03915024 17.03672457 C51.60294241 17.05487161 44.16684797 17.05744031 36.73062515 17.04696989 C32.28824949 17.04073111 27.84605084 17.03990982 23.40368652 17.05311584 C19.22733419 17.06466367 15.05146765 17.05666852 10.87516785 17.03353882 C9.34169827 17.02824596 7.80818787 17.0297754 6.2747345 17.03858948 C4.18260291 17.04950682 2.09203188 17.0358308 0 17.01586914 C-1.17101257 17.01436104 -2.34202515 17.01285294 -3.54852295 17.01129913 C-7.14581501 16.4036238 -8.31934325 15.35312183 -10.52832031 12.50793457 C-11.05957031 10.50793457 -11.05957031 10.50793457 -11.02832031 8.50793457 C-11.04378906 7.51793457 -11.04378906 7.51793457 -11.05957031 6.50793457 C-9.52954491 0.74783892 -5.33324865 0.00686849 0 0 Z " fill="#713EFF" transform="translate(98.5283203125,183.4920654296875)"/>
<path d="M0 0 C0.65396381 -0.00623996 1.30792763 -0.01247993 1.98170853 -0.01890898 C4.17144147 -0.03485478 6.36006364 -0.02222988 8.54980469 -0.00964355 C10.12024586 -0.01506402 11.69068195 -0.02218626 13.2611084 -0.03088379 C17.52559358 -0.04912925 21.78969196 -0.0420447 26.05418396 -0.02936745 C30.51529998 -0.01924606 34.9763827 -0.02863072 39.4375 -0.03491211 C46.92942252 -0.04219104 54.42118735 -0.03259441 61.91308594 -0.0135498 C70.57692221 0.00821946 79.24038198 0.00116826 87.90420914 -0.02085543 C95.34041697 -0.03900247 102.7765114 -0.04157117 110.21273422 -0.03110075 C114.65510989 -0.02486197 119.09730853 -0.02404068 123.53967285 -0.0372467 C127.71602519 -0.04879453 131.89189172 -0.04079938 136.06819153 -0.01766968 C137.6016611 -0.01237682 139.1351715 -0.01390626 140.66862488 -0.02272034 C142.76075646 -0.03363768 144.8513275 -0.01996166 146.94335938 0 C148.11437195 0.0015081 149.28538452 0.0030162 150.49188232 0.00457001 C154.08917438 0.61224534 155.26270263 1.66274731 157.47167969 4.50793457 C158.00292969 6.50793457 158.00292969 6.50793457 157.97167969 8.50793457 C157.98714844 9.49793457 157.98714844 9.49793457 158.00292969 10.50793457 C157.21810175 13.46258094 155.84242519 14.60445759 153.47167969 16.50793457 C150.49188232 17.01129913 150.49188232 17.01129913 146.94335938 17.01586914 C146.28939556 17.0221091 145.63543175 17.02834907 144.96165085 17.03477812 C142.7719179 17.05072392 140.58329574 17.03809902 138.39355469 17.0255127 C136.82311351 17.03093316 135.25267742 17.0380554 133.68225098 17.04675293 C129.4177658 17.0649984 125.15366741 17.05791384 120.88917542 17.04523659 C116.4280594 17.0351152 111.96697668 17.04449987 107.50585938 17.05078125 C100.01393686 17.05806018 92.52217202 17.04846355 85.03027344 17.02941895 C76.36643716 17.00764968 67.70297739 17.01470089 59.03915024 17.03672457 C51.60294241 17.05487161 44.16684797 17.05744031 36.73062515 17.04696989 C32.28824949 17.04073111 27.84605084 17.03990982 23.40368652 17.05311584 C19.22733419 17.06466367 15.05146765 17.05666852 10.87516785 17.03353882 C9.34169827 17.02824596 7.80818787 17.0297754 6.2747345 17.03858948 C4.18260291 17.04950682 2.09203188 17.0358308 0 17.01586914 C-1.17101257 17.01436104 -2.34202515 17.01285294 -3.54852295 17.01129913 C-7.14581501 16.4036238 -8.31934325 15.35312183 -10.52832031 12.50793457 C-11.05957031 10.50793457 -11.05957031 10.50793457 -11.02832031 8.50793457 C-11.04378906 7.51793457 -11.04378906 7.51793457 -11.05957031 6.50793457 C-9.52954491 0.74783892 -5.33324865 0.00686849 0 0 Z " fill="#713EFF" transform="translate(98.5283203125,151.4920654296875)"/>
<path d="M0 0 C0.65396381 -0.00623996 1.30792763 -0.01247993 1.98170853 -0.01890898 C4.17144147 -0.03485478 6.36006364 -0.02222988 8.54980469 -0.00964355 C10.12024586 -0.01506402 11.69068195 -0.02218626 13.2611084 -0.03088379 C17.52559358 -0.04912925 21.78969196 -0.0420447 26.05418396 -0.02936745 C30.51529998 -0.01924606 34.9763827 -0.02863072 39.4375 -0.03491211 C46.92942252 -0.04219104 54.42118735 -0.03259441 61.91308594 -0.0135498 C70.57692221 0.00821946 79.24038198 0.00116826 87.90420914 -0.02085543 C95.34041697 -0.03900247 102.7765114 -0.04157117 110.21273422 -0.03110075 C114.65510989 -0.02486197 119.09730853 -0.02404068 123.53967285 -0.0372467 C127.71602519 -0.04879453 131.89189172 -0.04079938 136.06819153 -0.01766968 C137.6016611 -0.01237682 139.1351715 -0.01390626 140.66862488 -0.02272034 C142.76075646 -0.03363768 144.8513275 -0.01996166 146.94335938 0 C148.11437195 0.0015081 149.28538452 0.0030162 150.49188232 0.00457001 C154.08917438 0.61224534 155.26270263 1.66274731 157.47167969 4.50793457 C158.00292969 6.50793457 158.00292969 6.50793457 157.97167969 8.50793457 C157.98714844 9.49793457 157.98714844 9.49793457 158.00292969 10.50793457 C157.21810175 13.46258094 155.84242519 14.60445759 153.47167969 16.50793457 C150.49188232 17.01129913 150.49188232 17.01129913 146.94335938 17.01586914 C146.28939556 17.0221091 145.63543175 17.02834907 144.96165085 17.03477812 C142.7719179 17.05072392 140.58329574 17.03809902 138.39355469 17.0255127 C136.82311351 17.03093316 135.25267742 17.0380554 133.68225098 17.04675293 C129.4177658 17.0649984 125.15366741 17.05791384 120.88917542 17.04523659 C116.4280594 17.0351152 111.96697668 17.04449987 107.50585938 17.05078125 C100.01393686 17.05806018 92.52217202 17.04846355 85.03027344 17.02941895 C76.36643716 17.00764968 67.70297739 17.01470089 59.03915024 17.03672457 C51.60294241 17.05487161 44.16684797 17.05744031 36.73062515 17.04696989 C32.28824949 17.04073111 27.84605084 17.03990982 23.40368652 17.05311584 C19.22733419 17.06466367 15.05146765 17.05666852 10.87516785 17.03353882 C9.34169827 17.02824596 7.80818787 17.0297754 6.2747345 17.03858948 C4.18260291 17.04950682 2.09203188 17.0358308 0 17.01586914 C-1.17101257 17.01436104 -2.34202515 17.01285294 -3.54852295 17.01129913 C-7.14581501 16.4036238 -8.31934325 15.35312183 -10.52832031 12.50793457 C-11.05957031 10.50793457 -11.05957031 10.50793457 -11.02832031 8.50793457 C-11.04378906 7.51793457 -11.04378906 7.51793457 -11.05957031 6.50793457 C-9.52954491 0.74783892 -5.33324865 0.00686849 0 0 Z " fill="#713EFF" transform="translate(98.5283203125,119.4920654296875)"/>
<path d="M0 0 C1.10794922 -0.01260864 2.21589844 -0.02521729 3.35742188 -0.03820801 C4.54916016 -0.03011108 5.74089844 -0.02201416 6.96875 -0.01367188 C8.19658203 -0.01749878 9.42441406 -0.02132568 10.68945312 -0.02526855 C13.28516459 -0.02799029 15.88090336 -0.02061099 18.4765625 -0.00390625 C22.45374599 0.01749738 26.42912282 -0.0037015 30.40625 -0.02929688 C32.92708733 -0.02665365 35.44792353 -0.02152878 37.96875 -0.01367188 C39.16048828 -0.0217688 40.35222656 -0.02986572 41.58007812 -0.03820801 C43.24200195 -0.01929504 43.24200195 -0.01929504 44.9375 0 C45.91138672 0.00318237 46.88527344 0.00636475 47.88867188 0.00964355 C51.19021681 0.65961178 52.38452655 1.93295409 54.46875 4.51757812 C55 6.51757812 55 6.51757812 54.96875 8.51757812 C54.98421875 9.50757812 54.98421875 9.50757812 55 10.51757812 C54.2245785 13.43681202 52.78007479 14.6111988 50.46875 16.51757812 C47.88867188 17.0255127 47.88867188 17.0255127 44.9375 17.03515625 C43.82955078 17.04776489 42.72160156 17.06037354 41.58007812 17.07336426 C40.38833984 17.06526733 39.19660156 17.05717041 37.96875 17.04882812 C36.12700195 17.05456848 36.12700195 17.05456848 34.24804688 17.0604248 C31.65233541 17.06314654 29.05659664 17.05576724 26.4609375 17.0390625 C22.48375401 17.01765887 18.50837718 17.03885775 14.53125 17.06445312 C12.01041267 17.0618099 9.48957647 17.05668503 6.96875 17.04882812 C5.77701172 17.05692505 4.58527344 17.06502197 3.35742188 17.07336426 C1.69549805 17.05445129 1.69549805 17.05445129 0 17.03515625 C-0.97388672 17.03197388 -1.94777344 17.0287915 -2.95117188 17.0255127 C-6.25271681 16.37554447 -7.44702655 15.10220216 -9.53125 12.51757812 C-10.0625 10.51757812 -10.0625 10.51757812 -10.03125 8.51757812 C-10.04671875 7.52757813 -10.04671875 7.52757813 -10.0625 6.51757812 C-8.67664018 1.3002235 -4.95665502 0.01619688 0 0 Z " fill="#713EFF" transform="translate(97.53125,79.482421875)"/>
<path d="M0 0 C1.051875 -0.00515625 2.10375 -0.0103125 3.1875 -0.015625 C4.280625 -0.00015625 5.37375 0.0153125 6.5 0.03125 C8.1396875 0.00804687 8.1396875 0.00804687 9.8125 -0.015625 C10.864375 -0.01046875 11.91625 -0.0053125 13 0 C14.43859375 0.00676758 14.43859375 0.00676758 15.90625 0.01367188 C19.21298564 0.673525 20.40908706 1.94238555 22.5 4.53125 C23.03125 6.53125 23.03125 6.53125 23 8.53125 C23.0103125 9.19125 23.020625 9.85125 23.03125 10.53125 C22.2561666 13.44921104 20.80895833 14.6243588 18.5 16.53125 C15.90625 17.04882812 15.90625 17.04882812 13 17.0625 C11.948125 17.06765625 10.89625 17.0728125 9.8125 17.078125 C8.719375 17.06265625 7.62625 17.0471875 6.5 17.03125 C4.8603125 17.05445313 4.8603125 17.05445313 3.1875 17.078125 C2.135625 17.07296875 1.08375 17.0678125 0 17.0625 C-0.9590625 17.05798828 -1.918125 17.05347656 -2.90625 17.04882812 C-6.21298564 16.388975 -7.40908706 15.12011445 -9.5 12.53125 C-10.03125 10.53125 -10.03125 10.53125 -10 8.53125 C-10.01546875 7.54125 -10.01546875 7.54125 -10.03125 6.53125 C-8.65240655 1.34030994 -4.94094259 0.02324368 0 0 Z " fill="#713EFF" transform="translate(353.5,383.46875)"/>
</svg>
